<?xml version="1.0" encoding="UTF-8" standalone="no"?>
<!DOCTYPE svg PUBLIC "-//W3C//DTD SVG 1.1//EN"
 "http://www.w3.org/Graphics/SVG/1.1/DTD/svg11.dtd">
<!-- Generated by graphviz version 6.0.1 (20220911.1526)
 -->
<!-- Title: powl Pages: 1 -->
<svg width="1158pt" height="597pt"
 viewBox="0.00 0.00 1158.00 597.00" xmlns="http://www.w3.org/2000/svg" xmlns:xlink="http://www.w3.org/1999/xlink">
<g id="graph0" class="graph" transform="scale(1 1) rotate(0) translate(4 593)">
<title>powl</title>
<polygon fill="white" stroke="none" points="-4,4 -4,-593 1154,-593 1154,4 -4,4"/>
<g id="clust1" class="cluster">
<title>cluster_2296419790336</title>
<polygon fill="#fcfcfc" stroke="black" points="8,-8 8,-581 1142,-581 1142,-8 8,-8"/>
</g>
<g id="clust2" class="cluster">
<title>cluster_2296419788752</title>
<polygon fill="#f7f7f7" stroke="black" points="28,-118 28,-355 210,-355 210,-118 28,-118"/>
<g transform="translate(149.5,-348.5) scale(0.011468405666741623,0.011302211302211302)">

<!--<rect width="100%" height="100%" fill="#DCDCDC"/>-->

<g transform="translate(0.000000,2035.000000) scale(0.100000,-0.100000)"
fill="#000000" stroke="none">
<path d="M174 20329 c-64 -24 -119 -77 -150 -143 l-24 -51 0 -9952 c0 -9899 0
-9953 20 -10005 24 -65 79 -124 145 -154 l50 -24 22012 0 22012 0 54 20 c67
25 122 77 153 144 l24 51 0 9952 0 9952 -20 54 c-25 67 -77 122 -144 153 l-51
24 -22015 -1 c-21873 0 -22015 0 -22066 -20z m43746 -10154 l0 -9625 -21685 0
-21685 0 0 9625 0 9625 21685 0 21685 0 0 -9625z"/>
<path d="M22005 15834 c-237 -20 -503 -49 -585 -64 -379 -69 -489 -95 -775
-182 -297 -91 -563 -198 -855 -345 -102 -51 -203 -103 -225 -116 -244 -140
-381 -227 -570 -365 -652 -476 -1178 -1062 -1585 -1767 -58 -100 -240 -456
-240 -469 0 -3 -13 -34 -29 -68 -24 -54 -49 -113 -81 -193 -4 -11 -14 -36 -20
-55 -7 -19 -19 -48 -26 -65 -16 -40 -97 -290 -124 -385 -12 -41 -25 -82 -29
-90 -7 -13 -112 -15 -832 -18 l-824 -2 1465 -1465 c806 -806 1467 -1465 1470
-1465 5 0 2930 2923 2930 2927 0 2 -364 3 -810 3 -445 0 -810 3 -810 6 0 4 18
38 40 76 22 39 40 72 40 74 0 12 160 249 226 334 293 381 684 705 1108 918 73
37 148 73 167 81 42 16 98 39 124 51 41 19 292 99 360 115 259 62 345 74 648
94 240 16 556 -8 807 -60 128 -27 428 -117 495 -148 49 -24 144 -65 190 -83
28 -11 68 -30 90 -42 22 -13 72 -40 110 -61 39 -21 87 -48 107 -59 41 -23 272
-181 303 -207 11 -10 53 -45 93 -78 l74 -61 1494 0 1495 0 -75 148 c-265 521
-628 1022 -1051 1447 -185 187 -529 475 -710 598 -49 33 -114 78 -142 99 -84
61 -450 277 -583 344 -106 53 -322 151 -385 175 -27 11 -59 23 -70 28 -124 53
-345 128 -530 182 -16 5 -52 15 -80 23 -136 40 -450 105 -625 130 -222 32
-246 35 -365 46 -120 12 -706 21 -800 14z"/>
<path d="M25000 10185 l-1465 -1465 823 0 c452 0 822 -3 822 -6 0 -3 -26 -51
-59 -107 -304 -528 -710 -933 -1236 -1233 -29 -17 -265 -134 -295 -146 -14 -6
-34 -14 -45 -19 -190 -80 -430 -151 -640 -190 -336 -63 -779 -70 -1080 -18
-142 25 -301 59 -365 79 -14 4 -52 16 -85 25 -33 10 -69 21 -80 25 -11 4 -42
16 -70 26 -100 35 -343 147 -460 212 -125 69 -308 189 -384 251 -25 20 -76 62
-115 93 l-71 57 -1497 1 c-824 0 -1498 -3 -1498 -6 0 -8 150 -297 179 -344 11
-19 24 -42 28 -50 48 -103 357 -557 473 -696 19 -23 51 -61 70 -85 104 -130
217 -254 391 -428 111 -113 293 -276 383 -346 22 -16 58 -46 81 -65 308 -261
914 -620 1330 -787 33 -13 74 -30 90 -37 56 -25 279 -104 385 -136 58 -17 116
-36 130 -41 31 -11 288 -75 356 -89 269 -55 408 -76 694 -107 198 -21 801 -24
1000 -5 362 35 735 101 1000 177 30 8 71 20 90 25 101 28 339 106 395 130 11
5 45 17 75 28 101 36 338 141 483 213 639 319 1211 757 1698 1299 227 253 493
620 668 920 63 107 233 442 285 560 84 190 213 549 261 730 10 36 22 71 28 78
7 9 184 12 821 12 l811 0 -1465 1465 c-806 806 -1467 1465 -1470 1465 -3 0
-664 -659 -1470 -1465z"/>
</g>
</g>
</g>
<!-- 2296419792064 -->
<g id="node1" class="node">
<title>2296419792064</title>
<polygon fill="#f2f2f2" stroke="black" points="190,-300 48,-300 48,-264 190,-264 190,-300"/>
<text text-anchor="middle" x="119" y="-277" font-family="Times New Roman,serif" font-size="20.00">O_Create Offer</text>
</g>
<!-- 2296419789472 -->
<g id="node2" class="node">
<title>2296419789472</title>
<polygon fill="#f2f2f2" stroke="black" points="156,-174 48,-174 48,-138 156,-138 156,-174"/>
<text text-anchor="middle" x="102" y="-151" font-family="Times New Roman,serif" font-size="20.00">O_Created</text>
</g>
<!-- 2296419792064&#45;&gt;2296419789472 -->
<g id="edge1" class="edge">
<title>2296419792064&#45;&gt;2296419789472</title>
<path fill="none" stroke="black" stroke-width="2" d="M116.64,-263.76C113.81,-243.12 109.04,-208.32 105.71,-184.08"/>
<polygon fill="black" stroke="black" stroke-width="2" points="109.17,-183.53 104.34,-174.1 102.23,-184.48 109.17,-183.53"/>
</g>
<!-- 2296419794128 -->
<g id="node9" class="node">
<title>2296419794128</title>
<polygon fill="black" stroke="black" points="668.5,-57 639.5,-57 639.5,-28 668.5,-28 668.5,-57"/>
</g>
<!-- 2296419792064&#45;&gt;2296419794128 -->
<g id="edge2" class="edge">
<title>2296419792064&#45;&gt;2296419794128</title>
<path fill="none" stroke="black" stroke-width="2" d="M210,-170.55C231.81,-146.56 252.85,-125.95 267,-118 389.65,-49.09 564.92,-42.82 629.17,-43.01"/>
<polygon fill="black" stroke="black" stroke-width="2" points="629.15,-46.51 639.18,-43.1 629.21,-39.51 629.15,-46.51"/>
</g>
<!-- 2296419793984 -->
<g id="node3" class="node">
<title>2296419793984</title>
<polygon fill="#f7f7f7" stroke="black" points="475.5,-183 302.5,-183 302.5,-129 475.5,-129 475.5,-183"/>
<g transform="translate(425.5,-183.0) scale(0.011243534967393748,0.011302211302211302)">



<g transform="translate(0.000000,2035.000000) scale(0.100000,-0.100000)"
fill="#000000" stroke="none">
<path d="M174 20329 c-64 -24 -119 -77 -150 -143 l-24 -51 0 -9952 0 -9952 20
-54 c25 -67 77 -122 144 -153 l51 -24 22012 0 22012 0 54 20 c67 25 122 77
153 144 l24 51 0 9952 0 9952 -20 54 c-25 67 -77 122 -144 153 l-51 24 -22015
-1 c-21873 0 -22015 0 -22066 -20z m43746 -10154 l0 -9625 -21685 0 -21685 0
0 9625 0 9625 21685 0 21685 0 0 -9625z"/>
<path d="M31335 15824 c-237 -20 -503 -49 -585 -64 -379 -69 -489 -95 -775
-182 -297 -91 -563 -198 -855 -345 -102 -51 -203 -103 -225 -116 -244 -140
-381 -227 -570 -365 -652 -476 -1179 -1064 -1587 -1770 -56 -98 -238 -453
-238 -466 0 -3 -13 -34 -29 -68 -24 -54 -49 -113 -81 -193 -4 -11 -14 -36 -20
-55 -7 -19 -19 -48 -26 -65 -16 -40 -97 -290 -124 -385 -12 -41 -25 -82 -29
-90 -7 -13 -112 -15 -832 -18 l-824 -2 1465 -1465 c806 -806 1467 -1465 1470
-1465 5 0 2930 2923 2930 2927 0 2 -364 3 -810 3 -445 0 -810 3 -810 6 0 4 18
38 40 76 22 39 40 72 40 74 0 12 160 249 226 334 293 381 684 705 1108 918 73
37 148 73 167 81 42 16 98 39 124 51 41 19 292 99 360 115 259 62 345 74 648
94 240 16 556 -8 807 -60 128 -27 428 -117 495 -148 49 -24 144 -65 190 -83
28 -11 68 -30 90 -42 22 -13 72 -40 110 -61 39 -21 87 -48 107 -59 41 -23 272
-181 303 -207 11 -10 53 -45 93 -78 l74 -61 1494 0 1495 0 -75 148 c-265 521
-628 1022 -1051 1447 -185 187 -529 475 -710 598 -49 33 -114 78 -143 99 -179
132 -732 430 -966 519 -28 11 -60 23 -71 28 -124 53 -345 128 -530 182 -16 5
-52 15 -80 23 -136 40 -450 105 -625 130 -222 32 -246 35 -365 46 -120 12
-706 21 -800 14z"/>
<path d="M5860 10180 c0 -4923 0 -4950 20 -4950 11 0 66 30 122 67 57 36 351
226 653 421 303 195 651 420 775 500 124 80 365 235 535 345 171 110 378 244
460 297 83 54 526 339 985 635 459 296 1013 653 1230 793 217 141 557 360 755
487 198 127 748 482 1222 788 475 306 865 557 868 557 3 0 5 -1098 5 -2440 l0
-2440 870 0 870 0 0 4940 0 4940 -870 0 -870 0 0 -2440 c0 -1342 -2 -2440 -5
-2440 -6 0 -11 3 -670 429 -302 195 -617 398 -700 451 -82 53 -463 298 -845
545 -382 246 -794 512 -915 590 -121 78 -362 233 -535 345 -173 112 -382 247
-465 300 -238 153 -912 588 -1000 645 -44 28 -136 88 -205 132 -69 44 -235
151 -370 238 -277 179 -288 186 -720 465 -173 111 -353 228 -400 258 -47 30
-218 141 -380 245 -162 104 -314 202 -338 218 -24 16 -52 29 -63 29 -19 0 -19
-49 -19 -4950z"/>
<path d="M34330 10175 l-1465 -1465 823 0 c452 0 822 -3 822 -6 0 -3 -26 -51
-59 -107 -304 -528 -710 -933 -1236 -1233 -29 -17 -265 -134 -295 -146 -14 -6
-34 -14 -45 -19 -190 -80 -430 -151 -640 -190 -336 -63 -779 -70 -1080 -18
-142 25 -301 59 -365 79 -14 4 -52 16 -85 25 -33 10 -69 21 -80 25 -11 4 -42
16 -70 26 -100 35 -343 147 -460 212 -125 69 -308 189 -384 251 -25 20 -76 62
-115 93 l-71 57 -1497 1 c-824 0 -1498 -3 -1498 -6 0 -7 140 -277 185 -359
117 -209 370 -582 495 -731 19 -23 51 -61 70 -85 104 -130 217 -254 391 -428
111 -113 293 -276 383 -346 22 -16 58 -46 81 -65 308 -261 914 -620 1330 -787
33 -13 74 -30 90 -37 56 -25 279 -104 385 -136 58 -17 116 -36 130 -40 29 -10
194 -52 295 -75 39 -9 88 -20 110 -25 22 -5 67 -14 100 -20 33 -6 85 -15 115
-21 85 -15 259 -38 430 -56 198 -21 801 -24 1000 -5 362 35 735 101 1000 177
30 8 71 20 90 25 101 28 339 106 395 130 11 5 45 17 75 28 101 36 338 141 483
213 1241 620 2219 1683 2729 2969 52 130 153 429 183 540 10 36 22 71 28 78 7
9 184 12 821 12 l811 0 -1465 1465 c-806 806 -1467 1465 -1470 1465 -3 0 -664
-659 -1470 -1465z"/>
</g>
</g>
<text text-anchor="middle" x="389" y="-139" font-family="Times New Roman,serif" font-size="20.00">W_Call after offers</text>
</g>
<!-- 2296419793984&#45;&gt;2296419794128 -->
<g id="edge3" class="edge">
<title>2296419793984&#45;&gt;2296419794128</title>
<path fill="none" stroke="black" stroke-width="2" d="M450.8,-129C508.04,-104.91 590.18,-70.35 630.23,-53.5"/>
<polygon fill="black" stroke="black" stroke-width="2" points="631.6,-56.72 639.46,-49.62 628.89,-50.27 631.6,-56.72"/>
</g>
<!-- 2296419794080 -->
<g id="node4" class="node">
<title>2296419794080</title>
<polygon fill="#f7f7f7" stroke="black" points="765,-309 543,-309 543,-255 765,-255 765,-309"/>
<g transform="translate(715.0,-309.0) scale(0.011243534967393748,0.011302211302211302)">



<g transform="translate(0.000000,2035.000000) scale(0.100000,-0.100000)"
fill="#000000" stroke="none">
<path d="M174 20329 c-64 -24 -119 -77 -150 -143 l-24 -51 0 -9952 0 -9952 20
-54 c25 -67 77 -122 144 -153 l51 -24 22012 0 22012 0 54 20 c67 25 122 77
153 144 l24 51 0 9952 0 9952 -20 54 c-25 67 -77 122 -144 153 l-51 24 -22015
-1 c-21873 0 -22015 0 -22066 -20z m43746 -10154 l0 -9625 -21685 0 -21685 0
0 9625 0 9625 21685 0 21685 0 0 -9625z"/>
<path d="M31335 15824 c-237 -20 -503 -49 -585 -64 -379 -69 -489 -95 -775
-182 -297 -91 -563 -198 -855 -345 -102 -51 -203 -103 -225 -116 -244 -140
-381 -227 -570 -365 -652 -476 -1179 -1064 -1587 -1770 -56 -98 -238 -453
-238 -466 0 -3 -13 -34 -29 -68 -24 -54 -49 -113 -81 -193 -4 -11 -14 -36 -20
-55 -7 -19 -19 -48 -26 -65 -16 -40 -97 -290 -124 -385 -12 -41 -25 -82 -29
-90 -7 -13 -112 -15 -832 -18 l-824 -2 1465 -1465 c806 -806 1467 -1465 1470
-1465 5 0 2930 2923 2930 2927 0 2 -364 3 -810 3 -445 0 -810 3 -810 6 0 4 18
38 40 76 22 39 40 72 40 74 0 12 160 249 226 334 293 381 684 705 1108 918 73
37 148 73 167 81 42 16 98 39 124 51 41 19 292 99 360 115 259 62 345 74 648
94 240 16 556 -8 807 -60 128 -27 428 -117 495 -148 49 -24 144 -65 190 -83
28 -11 68 -30 90 -42 22 -13 72 -40 110 -61 39 -21 87 -48 107 -59 41 -23 272
-181 303 -207 11 -10 53 -45 93 -78 l74 -61 1494 0 1495 0 -75 148 c-265 521
-628 1022 -1051 1447 -185 187 -529 475 -710 598 -49 33 -114 78 -143 99 -179
132 -732 430 -966 519 -28 11 -60 23 -71 28 -124 53 -345 128 -530 182 -16 5
-52 15 -80 23 -136 40 -450 105 -625 130 -222 32 -246 35 -365 46 -120 12
-706 21 -800 14z"/>
<path d="M5860 10180 c0 -4923 0 -4950 20 -4950 11 0 66 30 122 67 57 36 351
226 653 421 303 195 651 420 775 500 124 80 365 235 535 345 171 110 378 244
460 297 83 54 526 339 985 635 459 296 1013 653 1230 793 217 141 557 360 755
487 198 127 748 482 1222 788 475 306 865 557 868 557 3 0 5 -1098 5 -2440 l0
-2440 870 0 870 0 0 4940 0 4940 -870 0 -870 0 0 -2440 c0 -1342 -2 -2440 -5
-2440 -6 0 -11 3 -670 429 -302 195 -617 398 -700 451 -82 53 -463 298 -845
545 -382 246 -794 512 -915 590 -121 78 -362 233 -535 345 -173 112 -382 247
-465 300 -238 153 -912 588 -1000 645 -44 28 -136 88 -205 132 -69 44 -235
151 -370 238 -277 179 -288 186 -720 465 -173 111 -353 228 -400 258 -47 30
-218 141 -380 245 -162 104 -314 202 -338 218 -24 16 -52 29 -63 29 -19 0 -19
-49 -19 -4950z"/>
<path d="M34330 10175 l-1465 -1465 823 0 c452 0 822 -3 822 -6 0 -3 -26 -51
-59 -107 -304 -528 -710 -933 -1236 -1233 -29 -17 -265 -134 -295 -146 -14 -6
-34 -14 -45 -19 -190 -80 -430 -151 -640 -190 -336 -63 -779 -70 -1080 -18
-142 25 -301 59 -365 79 -14 4 -52 16 -85 25 -33 10 -69 21 -80 25 -11 4 -42
16 -70 26 -100 35 -343 147 -460 212 -125 69 -308 189 -384 251 -25 20 -76 62
-115 93 l-71 57 -1497 1 c-824 0 -1498 -3 -1498 -6 0 -7 140 -277 185 -359
117 -209 370 -582 495 -731 19 -23 51 -61 70 -85 104 -130 217 -254 391 -428
111 -113 293 -276 383 -346 22 -16 58 -46 81 -65 308 -261 914 -620 1330 -787
33 -13 74 -30 90 -37 56 -25 279 -104 385 -136 58 -17 116 -36 130 -40 29 -10
194 -52 295 -75 39 -9 88 -20 110 -25 22 -5 67 -14 100 -20 33 -6 85 -15 115
-21 85 -15 259 -38 430 -56 198 -21 801 -24 1000 -5 362 35 735 101 1000 177
30 8 71 20 90 25 101 28 339 106 395 130 11 5 45 17 75 28 101 36 338 141 483
213 1241 620 2219 1683 2729 2969 52 130 153 429 183 540 10 36 22 71 28 78 7
9 184 12 821 12 l811 0 -1465 1465 c-806 806 -1467 1465 -1470 1465 -3 0 -664
-659 -1470 -1465z"/>
</g>
</g>
<text text-anchor="middle" x="654" y="-265" font-family="Times New Roman,serif" font-size="20.00">W_Complete application</text>
</g>
<!-- 2296419794080&#45;&gt;2296419793984 -->
<g id="edge4" class="edge">
<title>2296419794080&#45;&gt;2296419793984</title>
<path fill="none" stroke="black" stroke-width="2" d="M598.12,-254.85C556.02,-235.15 498.19,-208.09 454.01,-187.42"/>
<polygon fill="black" stroke="black" stroke-width="2" points="455.34,-184.18 444.8,-183.11 452.37,-190.52 455.34,-184.18"/>
</g>
<!-- 2296419791632 -->
<g id="node7" class="node">
<title>2296419791632</title>
<polygon fill="#f7f7f7" stroke="black" points="760,-183 548,-183 548,-129 760,-129 760,-183"/>
<g transform="translate(710.0,-183.0) scale(0.011243534967393748,0.011302211302211302)">



<g transform="translate(0.000000,2035.000000) scale(0.100000,-0.100000)"
fill="#000000" stroke="none">
<path d="M174 20329 c-64 -24 -119 -77 -150 -143 l-24 -51 0 -9952 0 -9952 20
-54 c25 -67 77 -122 144 -153 l51 -24 22012 0 22012 0 54 20 c67 25 122 77
153 144 l24 51 0 9952 0 9952 -20 54 c-25 67 -77 122 -144 153 l-51 24 -22015
-1 c-21873 0 -22015 0 -22066 -20z m43746 -10154 l0 -9625 -21685 0 -21685 0
0 9625 0 9625 21685 0 21685 0 0 -9625z"/>
<path d="M31335 15824 c-237 -20 -503 -49 -585 -64 -379 -69 -489 -95 -775
-182 -297 -91 -563 -198 -855 -345 -102 -51 -203 -103 -225 -116 -244 -140
-381 -227 -570 -365 -652 -476 -1179 -1064 -1587 -1770 -56 -98 -238 -453
-238 -466 0 -3 -13 -34 -29 -68 -24 -54 -49 -113 -81 -193 -4 -11 -14 -36 -20
-55 -7 -19 -19 -48 -26 -65 -16 -40 -97 -290 -124 -385 -12 -41 -25 -82 -29
-90 -7 -13 -112 -15 -832 -18 l-824 -2 1465 -1465 c806 -806 1467 -1465 1470
-1465 5 0 2930 2923 2930 2927 0 2 -364 3 -810 3 -445 0 -810 3 -810 6 0 4 18
38 40 76 22 39 40 72 40 74 0 12 160 249 226 334 293 381 684 705 1108 918 73
37 148 73 167 81 42 16 98 39 124 51 41 19 292 99 360 115 259 62 345 74 648
94 240 16 556 -8 807 -60 128 -27 428 -117 495 -148 49 -24 144 -65 190 -83
28 -11 68 -30 90 -42 22 -13 72 -40 110 -61 39 -21 87 -48 107 -59 41 -23 272
-181 303 -207 11 -10 53 -45 93 -78 l74 -61 1494 0 1495 0 -75 148 c-265 521
-628 1022 -1051 1447 -185 187 -529 475 -710 598 -49 33 -114 78 -143 99 -179
132 -732 430 -966 519 -28 11 -60 23 -71 28 -124 53 -345 128 -530 182 -16 5
-52 15 -80 23 -136 40 -450 105 -625 130 -222 32 -246 35 -365 46 -120 12
-706 21 -800 14z"/>
<path d="M5860 10180 c0 -4923 0 -4950 20 -4950 11 0 66 30 122 67 57 36 351
226 653 421 303 195 651 420 775 500 124 80 365 235 535 345 171 110 378 244
460 297 83 54 526 339 985 635 459 296 1013 653 1230 793 217 141 557 360 755
487 198 127 748 482 1222 788 475 306 865 557 868 557 3 0 5 -1098 5 -2440 l0
-2440 870 0 870 0 0 4940 0 4940 -870 0 -870 0 0 -2440 c0 -1342 -2 -2440 -5
-2440 -6 0 -11 3 -670 429 -302 195 -617 398 -700 451 -82 53 -463 298 -845
545 -382 246 -794 512 -915 590 -121 78 -362 233 -535 345 -173 112 -382 247
-465 300 -238 153 -912 588 -1000 645 -44 28 -136 88 -205 132 -69 44 -235
151 -370 238 -277 179 -288 186 -720 465 -173 111 -353 228 -400 258 -47 30
-218 141 -380 245 -162 104 -314 202 -338 218 -24 16 -52 29 -63 29 -19 0 -19
-49 -19 -4950z"/>
<path d="M34330 10175 l-1465 -1465 823 0 c452 0 822 -3 822 -6 0 -3 -26 -51
-59 -107 -304 -528 -710 -933 -1236 -1233 -29 -17 -265 -134 -295 -146 -14 -6
-34 -14 -45 -19 -190 -80 -430 -151 -640 -190 -336 -63 -779 -70 -1080 -18
-142 25 -301 59 -365 79 -14 4 -52 16 -85 25 -33 10 -69 21 -80 25 -11 4 -42
16 -70 26 -100 35 -343 147 -460 212 -125 69 -308 189 -384 251 -25 20 -76 62
-115 93 l-71 57 -1497 1 c-824 0 -1498 -3 -1498 -6 0 -7 140 -277 185 -359
117 -209 370 -582 495 -731 19 -23 51 -61 70 -85 104 -130 217 -254 391 -428
111 -113 293 -276 383 -346 22 -16 58 -46 81 -65 308 -261 914 -620 1330 -787
33 -13 74 -30 90 -37 56 -25 279 -104 385 -136 58 -17 116 -36 130 -40 29 -10
194 -52 295 -75 39 -9 88 -20 110 -25 22 -5 67 -14 100 -20 33 -6 85 -15 115
-21 85 -15 259 -38 430 -56 198 -21 801 -24 1000 -5 362 35 735 101 1000 177
30 8 71 20 90 25 101 28 339 106 395 130 11 5 45 17 75 28 101 36 338 141 483
213 1241 620 2219 1683 2729 2969 52 130 153 429 183 540 10 36 22 71 28 78 7
9 184 12 821 12 l811 0 -1465 1465 c-806 806 -1467 1465 -1470 1465 -3 0 -664
-659 -1470 -1465z"/>
</g>
</g>
<text text-anchor="middle" x="654" y="-139" font-family="Times New Roman,serif" font-size="20.00">W_Validate application</text>
</g>
<!-- 2296419794080&#45;&gt;2296419791632 -->
<g id="edge5" class="edge">
<title>2296419794080&#45;&gt;2296419791632</title>
<path fill="none" stroke="black" stroke-width="2" d="M654,-254.7C654,-236.87 654,-213.05 654,-193.39"/>
<polygon fill="black" stroke="black" stroke-width="2" points="657.5,-193.26 654,-183.26 650.5,-193.26 657.5,-193.26"/>
</g>
<!-- 2296419792784 -->
<g id="node8" class="node">
<title>2296419792784</title>
<polygon fill="#f7f7f7" stroke="black" points="1047.5,-183 832.5,-183 832.5,-129 1047.5,-129 1047.5,-183"/>
<g transform="translate(997.5,-183.0) scale(0.011243534967393748,0.011302211302211302)">



<g transform="translate(0.000000,2035.000000) scale(0.100000,-0.100000)"
fill="#000000" stroke="none">
<path d="M174 20329 c-64 -24 -119 -77 -150 -143 l-24 -51 0 -9952 0 -9952 20
-54 c25 -67 77 -122 144 -153 l51 -24 22012 0 22012 0 54 20 c67 25 122 77
153 144 l24 51 0 9952 0 9952 -20 54 c-25 67 -77 122 -144 153 l-51 24 -22015
-1 c-21873 0 -22015 0 -22066 -20z m43746 -10154 l0 -9625 -21685 0 -21685 0
0 9625 0 9625 21685 0 21685 0 0 -9625z"/>
<path d="M31335 15824 c-237 -20 -503 -49 -585 -64 -379 -69 -489 -95 -775
-182 -297 -91 -563 -198 -855 -345 -102 -51 -203 -103 -225 -116 -244 -140
-381 -227 -570 -365 -652 -476 -1179 -1064 -1587 -1770 -56 -98 -238 -453
-238 -466 0 -3 -13 -34 -29 -68 -24 -54 -49 -113 -81 -193 -4 -11 -14 -36 -20
-55 -7 -19 -19 -48 -26 -65 -16 -40 -97 -290 -124 -385 -12 -41 -25 -82 -29
-90 -7 -13 -112 -15 -832 -18 l-824 -2 1465 -1465 c806 -806 1467 -1465 1470
-1465 5 0 2930 2923 2930 2927 0 2 -364 3 -810 3 -445 0 -810 3 -810 6 0 4 18
38 40 76 22 39 40 72 40 74 0 12 160 249 226 334 293 381 684 705 1108 918 73
37 148 73 167 81 42 16 98 39 124 51 41 19 292 99 360 115 259 62 345 74 648
94 240 16 556 -8 807 -60 128 -27 428 -117 495 -148 49 -24 144 -65 190 -83
28 -11 68 -30 90 -42 22 -13 72 -40 110 -61 39 -21 87 -48 107 -59 41 -23 272
-181 303 -207 11 -10 53 -45 93 -78 l74 -61 1494 0 1495 0 -75 148 c-265 521
-628 1022 -1051 1447 -185 187 -529 475 -710 598 -49 33 -114 78 -143 99 -179
132 -732 430 -966 519 -28 11 -60 23 -71 28 -124 53 -345 128 -530 182 -16 5
-52 15 -80 23 -136 40 -450 105 -625 130 -222 32 -246 35 -365 46 -120 12
-706 21 -800 14z"/>
<path d="M5860 10180 c0 -4923 0 -4950 20 -4950 11 0 66 30 122 67 57 36 351
226 653 421 303 195 651 420 775 500 124 80 365 235 535 345 171 110 378 244
460 297 83 54 526 339 985 635 459 296 1013 653 1230 793 217 141 557 360 755
487 198 127 748 482 1222 788 475 306 865 557 868 557 3 0 5 -1098 5 -2440 l0
-2440 870 0 870 0 0 4940 0 4940 -870 0 -870 0 0 -2440 c0 -1342 -2 -2440 -5
-2440 -6 0 -11 3 -670 429 -302 195 -617 398 -700 451 -82 53 -463 298 -845
545 -382 246 -794 512 -915 590 -121 78 -362 233 -535 345 -173 112 -382 247
-465 300 -238 153 -912 588 -1000 645 -44 28 -136 88 -205 132 -69 44 -235
151 -370 238 -277 179 -288 186 -720 465 -173 111 -353 228 -400 258 -47 30
-218 141 -380 245 -162 104 -314 202 -338 218 -24 16 -52 29 -63 29 -19 0 -19
-49 -19 -4950z"/>
<path d="M34330 10175 l-1465 -1465 823 0 c452 0 822 -3 822 -6 0 -3 -26 -51
-59 -107 -304 -528 -710 -933 -1236 -1233 -29 -17 -265 -134 -295 -146 -14 -6
-34 -14 -45 -19 -190 -80 -430 -151 -640 -190 -336 -63 -779 -70 -1080 -18
-142 25 -301 59 -365 79 -14 4 -52 16 -85 25 -33 10 -69 21 -80 25 -11 4 -42
16 -70 26 -100 35 -343 147 -460 212 -125 69 -308 189 -384 251 -25 20 -76 62
-115 93 l-71 57 -1497 1 c-824 0 -1498 -3 -1498 -6 0 -7 140 -277 185 -359
117 -209 370 -582 495 -731 19 -23 51 -61 70 -85 104 -130 217 -254 391 -428
111 -113 293 -276 383 -346 22 -16 58 -46 81 -65 308 -261 914 -620 1330 -787
33 -13 74 -30 90 -37 56 -25 279 -104 385 -136 58 -17 116 -36 130 -40 29 -10
194 -52 295 -75 39 -9 88 -20 110 -25 22 -5 67 -14 100 -20 33 -6 85 -15 115
-21 85 -15 259 -38 430 -56 198 -21 801 -24 1000 -5 362 35 735 101 1000 177
30 8 71 20 90 25 101 28 339 106 395 130 11 5 45 17 75 28 101 36 338 141 483
213 1241 620 2219 1683 2729 2969 52 130 153 429 183 540 10 36 22 71 28 78 7
9 184 12 821 12 l811 0 -1465 1465 c-806 806 -1467 1465 -1470 1465 -3 0 -664
-659 -1470 -1465z"/>
</g>
</g>
<text text-anchor="middle" x="940" y="-139" font-family="Times New Roman,serif" font-size="20.00">W_Call incomplete files</text>
</g>
<!-- 2296419794080&#45;&gt;2296419792784 -->
<g id="edge6" class="edge">
<title>2296419794080&#45;&gt;2296419792784</title>
<path fill="none" stroke="black" stroke-width="2" d="M714.3,-254.85C759.94,-235.07 822.68,-207.86 870.44,-187.16"/>
<polygon fill="black" stroke="black" stroke-width="2" points="872,-190.3 879.78,-183.11 869.21,-183.88 872,-190.3"/>
</g>
<!-- 2296419793072 -->
<g id="node5" class="node">
<title>2296419793072</title>
<polygon fill="#f7f7f7" stroke="black" points="1036,-435 812,-435 812,-381 1036,-381 1036,-435"/>
<g transform="translate(986.0,-435.0) scale(0.011243534967393748,0.011302211302211302)">



<g transform="translate(0.000000,2035.000000) scale(0.100000,-0.100000)"
fill="#000000" stroke="none">
<path d="M174 20329 c-64 -24 -119 -77 -150 -143 l-24 -51 0 -9952 0 -9952 20
-54 c25 -67 77 -122 144 -153 l51 -24 22012 0 22012 0 54 20 c67 25 122 77
153 144 l24 51 0 9952 0 9952 -20 54 c-25 67 -77 122 -144 153 l-51 24 -22015
-1 c-21873 0 -22015 0 -22066 -20z m43746 -10154 l0 -9625 -21685 0 -21685 0
0 9625 0 9625 21685 0 21685 0 0 -9625z"/>
<path d="M31335 15824 c-237 -20 -503 -49 -585 -64 -379 -69 -489 -95 -775
-182 -297 -91 -563 -198 -855 -345 -102 -51 -203 -103 -225 -116 -244 -140
-381 -227 -570 -365 -652 -476 -1179 -1064 -1587 -1770 -56 -98 -238 -453
-238 -466 0 -3 -13 -34 -29 -68 -24 -54 -49 -113 -81 -193 -4 -11 -14 -36 -20
-55 -7 -19 -19 -48 -26 -65 -16 -40 -97 -290 -124 -385 -12 -41 -25 -82 -29
-90 -7 -13 -112 -15 -832 -18 l-824 -2 1465 -1465 c806 -806 1467 -1465 1470
-1465 5 0 2930 2923 2930 2927 0 2 -364 3 -810 3 -445 0 -810 3 -810 6 0 4 18
38 40 76 22 39 40 72 40 74 0 12 160 249 226 334 293 381 684 705 1108 918 73
37 148 73 167 81 42 16 98 39 124 51 41 19 292 99 360 115 259 62 345 74 648
94 240 16 556 -8 807 -60 128 -27 428 -117 495 -148 49 -24 144 -65 190 -83
28 -11 68 -30 90 -42 22 -13 72 -40 110 -61 39 -21 87 -48 107 -59 41 -23 272
-181 303 -207 11 -10 53 -45 93 -78 l74 -61 1494 0 1495 0 -75 148 c-265 521
-628 1022 -1051 1447 -185 187 -529 475 -710 598 -49 33 -114 78 -143 99 -179
132 -732 430 -966 519 -28 11 -60 23 -71 28 -124 53 -345 128 -530 182 -16 5
-52 15 -80 23 -136 40 -450 105 -625 130 -222 32 -246 35 -365 46 -120 12
-706 21 -800 14z"/>
<path d="M5860 10180 c0 -4923 0 -4950 20 -4950 11 0 66 30 122 67 57 36 351
226 653 421 303 195 651 420 775 500 124 80 365 235 535 345 171 110 378 244
460 297 83 54 526 339 985 635 459 296 1013 653 1230 793 217 141 557 360 755
487 198 127 748 482 1222 788 475 306 865 557 868 557 3 0 5 -1098 5 -2440 l0
-2440 870 0 870 0 0 4940 0 4940 -870 0 -870 0 0 -2440 c0 -1342 -2 -2440 -5
-2440 -6 0 -11 3 -670 429 -302 195 -617 398 -700 451 -82 53 -463 298 -845
545 -382 246 -794 512 -915 590 -121 78 -362 233 -535 345 -173 112 -382 247
-465 300 -238 153 -912 588 -1000 645 -44 28 -136 88 -205 132 -69 44 -235
151 -370 238 -277 179 -288 186 -720 465 -173 111 -353 228 -400 258 -47 30
-218 141 -380 245 -162 104 -314 202 -338 218 -24 16 -52 29 -63 29 -19 0 -19
-49 -19 -4950z"/>
<path d="M34330 10175 l-1465 -1465 823 0 c452 0 822 -3 822 -6 0 -3 -26 -51
-59 -107 -304 -528 -710 -933 -1236 -1233 -29 -17 -265 -134 -295 -146 -14 -6
-34 -14 -45 -19 -190 -80 -430 -151 -640 -190 -336 -63 -779 -70 -1080 -18
-142 25 -301 59 -365 79 -14 4 -52 16 -85 25 -33 10 -69 21 -80 25 -11 4 -42
16 -70 26 -100 35 -343 147 -460 212 -125 69 -308 189 -384 251 -25 20 -76 62
-115 93 l-71 57 -1497 1 c-824 0 -1498 -3 -1498 -6 0 -7 140 -277 185 -359
117 -209 370 -582 495 -731 19 -23 51 -61 70 -85 104 -130 217 -254 391 -428
111 -113 293 -276 383 -346 22 -16 58 -46 81 -65 308 -261 914 -620 1330 -787
33 -13 74 -30 90 -37 56 -25 279 -104 385 -136 58 -17 116 -36 130 -40 29 -10
194 -52 295 -75 39 -9 88 -20 110 -25 22 -5 67 -14 100 -20 33 -6 85 -15 115
-21 85 -15 259 -38 430 -56 198 -21 801 -24 1000 -5 362 35 735 101 1000 177
30 8 71 20 90 25 101 28 339 106 395 130 11 5 45 17 75 28 101 36 338 141 483
213 1241 620 2219 1683 2729 2969 52 130 153 429 183 540 10 36 22 71 28 78 7
9 184 12 821 12 l811 0 -1465 1465 c-806 806 -1467 1465 -1470 1465 -3 0 -664
-659 -1470 -1465z"/>
</g>
</g>
<text text-anchor="middle" x="924" y="-391" font-family="Times New Roman,serif" font-size="20.00">O_Sent (mail and online)</text>
</g>
<!-- 2296419793072&#45;&gt;2296419794128 -->
<g id="edge7" class="edge">
<title>2296419793072&#45;&gt;2296419794128</title>
<path fill="none" stroke="black" stroke-width="2" d="M958.18,-380.99C1024.14,-327.72 1156.38,-204 1084,-118 1031.36,-55.45 761.88,-45.42 678.57,-43.81"/>
<polygon fill="black" stroke="black" stroke-width="2" points="678.57,-40.31 668.51,-43.64 678.45,-47.31 678.57,-40.31"/>
</g>
<!-- 2296419791968 -->
<g id="node6" class="node">
<title>2296419791968</title>
<polygon fill="#f7f7f7" stroke="black" points="730,-561 578,-561 578,-507 730,-507 730,-561"/>
<g transform="translate(680.0,-561.0) scale(0.011243534967393748,0.011302211302211302)">

<!--<rect width="100%" height="100%" fill="#DCDCDC"/>-->

<g transform="translate(0.000000,2035.000000) scale(0.100000,-0.100000)"
fill="#000000" stroke="none">
<path d="M174 20329 c-64 -24 -119 -77 -150 -143 l-24 -51 0 -9952 0 -9952 20
-54 c25 -67 77 -122 144 -153 l51 -24 22012 0 22012 0 54 20 c67 25 122 77
153 144 l24 51 0 9952 0 9952 -20 54 c-25 67 -77 122 -144 153 l-51 24 -22015
-1 c-21873 0 -22015 0 -22066 -20z m43746 -10154 l0 -9625 -21685 0 -21685 0
0 9625 0 9625 21685 0 21685 0 0 -9625z"/>
<path d="M17580 10180 c0 -4932 0 -4950 20 -4950 11 0 102 53 202 118 101 65
527 341 948 612 888 573 1230 793 1390 897 63 41 372 240 685 442 314 202 838
540 1165 751 327 211 795 513 1040 670 245 158 833 537 1307 843 475 306 865
557 868 557 3 0 5 -1098 5 -2440 l0 -2440 870 0 870 0 0 4940 0 4940 -870 0
-870 0 0 -2440 c0 -1342 -2 -2440 -5 -2440 -6 0 -11 3 -670 429 -302 195 -617
398 -700 451 -82 53 -463 298 -845 545 -382 246 -794 512 -915 590 -121 78
-362 233 -535 345 -173 112 -382 247 -465 300 -356 229 -925 596 -985 635 -36
23 -135 87 -220 142 -135 87 -436 281 -695 448 -44 28 -222 143 -395 255 -173
111 -353 228 -400 258 -47 30 -218 141 -380 245 -162 104 -314 202 -338 218
-24 16 -52 29 -63 29 -19 0 -19 -49 -19 -4950z"/>
</g>
</g>
<text text-anchor="middle" x="654" y="-517" font-family="Times New Roman,serif" font-size="20.00">W_Handle leads</text>
</g>
<!-- 2296419791968&#45;&gt;2296419792064 -->
<g id="edge8" class="edge">
<title>2296419791968&#45;&gt;2296419792064</title>
<path fill="none" stroke="black" stroke-width="2" d="M577.63,-513.52C484.92,-487.74 325.73,-436.48 202.79,-360.51"/>
<polygon fill="black" stroke="black" stroke-width="2" points="204.33,-357.35 194,-355 200.61,-363.28 204.33,-357.35"/>
</g>
<!-- 2296419791968&#45;&gt;2296419794080 -->
<g id="edge9" class="edge">
<title>2296419791968&#45;&gt;2296419794080</title>
<path fill="none" stroke="black" stroke-width="2" d="M654,-506.72C654,-461.89 654,-370.56 654,-319.55"/>
<polygon fill="black" stroke="black" stroke-width="2" points="657.5,-319.3 654,-309.3 650.5,-319.3 657.5,-319.3"/>
</g>
<!-- 2296419791968&#45;&gt;2296419793072 -->
<g id="edge10" class="edge">
<title>2296419791968&#45;&gt;2296419793072</title>
<path fill="none" stroke="black" stroke-width="2" d="M710.93,-506.85C753.92,-487.11 813,-459.98 858.05,-439.29"/>
<polygon fill="black" stroke="black" stroke-width="2" points="859.52,-442.46 867.15,-435.11 856.6,-436.1 859.52,-442.46"/>
</g>
<!-- 2296419791632&#45;&gt;2296419794128 -->
<g id="edge11" class="edge">
<title>2296419791632&#45;&gt;2296419794128</title>
<path fill="none" stroke="black" stroke-width="2" d="M654,-128.86C654,-110.22 654,-85.36 654,-67.28"/>
<polygon fill="black" stroke="black" stroke-width="2" points="657.5,-67.27 654,-57.27 650.5,-67.27 657.5,-67.27"/>
</g>
<!-- 2296419792784&#45;&gt;2296419794128 -->
<g id="edge12" class="edge">
<title>2296419792784&#45;&gt;2296419794128</title>
<path fill="none" stroke="black" stroke-width="2" d="M873.31,-129C810.79,-104.62 720.75,-69.52 678.12,-52.9"/>
<polygon fill="black" stroke="black" stroke-width="2" points="679.17,-49.56 668.59,-49.19 676.63,-56.08 679.17,-49.56"/>
</g>
</g>
</svg>
