<?xml version="1.0" encoding="UTF-8" standalone="no"?>
<!DOCTYPE svg PUBLIC "-//W3C//DTD SVG 1.1//EN"
 "http://www.w3.org/Graphics/SVG/1.1/DTD/svg11.dtd">
<!-- Generated by graphviz version 6.0.1 (20220911.1526)
 -->
<!-- Title: powl Pages: 1 -->
<svg width="2982pt" height="1173pt"
 viewBox="0.00 0.00 2982.00 1173.00" xmlns="http://www.w3.org/2000/svg" xmlns:xlink="http://www.w3.org/1999/xlink">
<g id="graph0" class="graph" transform="scale(1 1) rotate(0) translate(4 1169)">
<title>powl</title>
<polygon fill="white" stroke="none" points="-4,4 -4,-1169 2978,-1169 2978,4 -4,4"/>
<g id="clust1" class="cluster">
<title>cluster_2331155559424</title>
<polygon fill="#fcfcfc" stroke="black" points="8,-8 8,-1157 2966,-1157 2966,-8 8,-8"/>
</g>
<g id="clust2" class="cluster">
<title>cluster_2331155547520</title>
<polygon fill="#f7f7f7" stroke="black" points="60,-118 60,-472 266,-472 266,-118 60,-118"/>
<g transform="translate(205.5,-465.5) scale(0.011468405666741623,0.011302211302211302)">



<g transform="translate(0.000000,2035.000000) scale(0.100000,-0.100000)"
fill="#000000" stroke="none">
<path d="M174 20329 c-64 -24 -119 -77 -150 -143 l-24 -51 0 -9952 0 -9952 20
-54 c25 -67 77 -122 144 -153 l51 -24 22012 0 22012 0 54 20 c67 25 122 77
153 144 l24 51 0 9952 0 9952 -20 54 c-25 67 -77 122 -144 153 l-51 24 -22015
-1 c-21873 0 -22015 0 -22066 -20z m43746 -10154 l0 -9625 -21685 0 -21685 0
0 9625 0 9625 21685 0 21685 0 0 -9625z"/>
<path d="M31335 15824 c-237 -20 -503 -49 -585 -64 -379 -69 -489 -95 -775
-182 -297 -91 -563 -198 -855 -345 -102 -51 -203 -103 -225 -116 -244 -140
-381 -227 -570 -365 -652 -476 -1179 -1064 -1587 -1770 -56 -98 -238 -453
-238 -466 0 -3 -13 -34 -29 -68 -24 -54 -49 -113 -81 -193 -4 -11 -14 -36 -20
-55 -7 -19 -19 -48 -26 -65 -16 -40 -97 -290 -124 -385 -12 -41 -25 -82 -29
-90 -7 -13 -112 -15 -832 -18 l-824 -2 1465 -1465 c806 -806 1467 -1465 1470
-1465 5 0 2930 2923 2930 2927 0 2 -364 3 -810 3 -445 0 -810 3 -810 6 0 4 18
38 40 76 22 39 40 72 40 74 0 12 160 249 226 334 293 381 684 705 1108 918 73
37 148 73 167 81 42 16 98 39 124 51 41 19 292 99 360 115 259 62 345 74 648
94 240 16 556 -8 807 -60 128 -27 428 -117 495 -148 49 -24 144 -65 190 -83
28 -11 68 -30 90 -42 22 -13 72 -40 110 -61 39 -21 87 -48 107 -59 41 -23 272
-181 303 -207 11 -10 53 -45 93 -78 l74 -61 1494 0 1495 0 -75 148 c-265 521
-628 1022 -1051 1447 -185 187 -529 475 -710 598 -49 33 -114 78 -143 99 -179
132 -732 430 -966 519 -28 11 -60 23 -71 28 -124 53 -345 128 -530 182 -16 5
-52 15 -80 23 -136 40 -450 105 -625 130 -222 32 -246 35 -365 46 -120 12
-706 21 -800 14z"/>
<path d="M5860 10180 c0 -4923 0 -4950 20 -4950 11 0 66 30 122 67 57 36 351
226 653 421 303 195 651 420 775 500 124 80 365 235 535 345 171 110 378 244
460 297 83 54 526 339 985 635 459 296 1013 653 1230 793 217 141 557 360 755
487 198 127 748 482 1222 788 475 306 865 557 868 557 3 0 5 -1098 5 -2440 l0
-2440 870 0 870 0 0 4940 0 4940 -870 0 -870 0 0 -2440 c0 -1342 -2 -2440 -5
-2440 -6 0 -11 3 -670 429 -302 195 -617 398 -700 451 -82 53 -463 298 -845
545 -382 246 -794 512 -915 590 -121 78 -362 233 -535 345 -173 112 -382 247
-465 300 -238 153 -912 588 -1000 645 -44 28 -136 88 -205 132 -69 44 -235
151 -370 238 -277 179 -288 186 -720 465 -173 111 -353 228 -400 258 -47 30
-218 141 -380 245 -162 104 -314 202 -338 218 -24 16 -52 29 -63 29 -19 0 -19
-49 -19 -4950z"/>
<path d="M34330 10175 l-1465 -1465 823 0 c452 0 822 -3 822 -6 0 -3 -26 -51
-59 -107 -304 -528 -710 -933 -1236 -1233 -29 -17 -265 -134 -295 -146 -14 -6
-34 -14 -45 -19 -190 -80 -430 -151 -640 -190 -336 -63 -779 -70 -1080 -18
-142 25 -301 59 -365 79 -14 4 -52 16 -85 25 -33 10 -69 21 -80 25 -11 4 -42
16 -70 26 -100 35 -343 147 -460 212 -125 69 -308 189 -384 251 -25 20 -76 62
-115 93 l-71 57 -1497 1 c-824 0 -1498 -3 -1498 -6 0 -7 140 -277 185 -359
117 -209 370 -582 495 -731 19 -23 51 -61 70 -85 104 -130 217 -254 391 -428
111 -113 293 -276 383 -346 22 -16 58 -46 81 -65 308 -261 914 -620 1330 -787
33 -13 74 -30 90 -37 56 -25 279 -104 385 -136 58 -17 116 -36 130 -40 29 -10
194 -52 295 -75 39 -9 88 -20 110 -25 22 -5 67 -14 100 -20 33 -6 85 -15 115
-21 85 -15 259 -38 430 -56 198 -21 801 -24 1000 -5 362 35 735 101 1000 177
30 8 71 20 90 25 101 28 339 106 395 130 11 5 45 17 75 28 101 36 338 141 483
213 1241 620 2219 1683 2729 2969 52 130 153 429 183 540 10 36 22 71 28 78 7
9 184 12 821 12 l811 0 -1465 1465 c-806 806 -1467 1465 -1470 1465 -3 0 -664
-659 -1470 -1465z"/>
</g>
</g>
</g>
<g id="clust3" class="cluster">
<title>cluster_2331155549104</title>
<polygon fill="#f7f7f7" stroke="black" points="1576,-575 1576,-967 2912,-967 2912,-575 1576,-575"/>
<g transform="translate(2851.5,-960.5) scale(0.011468405666741623,0.011302211302211302)">

<!--<rect width="100%" height="100%" fill="#DCDCDC"/>-->

<g transform="translate(0.000000,2035.000000) scale(0.100000,-0.100000)"
fill="#000000" stroke="none">
<path d="M174 20329 c-64 -24 -119 -77 -150 -143 l-24 -51 0 -9952 0 -9952 20
-54 c25 -67 77 -122 144 -153 l51 -24 22012 0 22012 0 54 20 c67 25 122 77
153 144 l24 51 0 9952 0 9952 -20 54 c-25 67 -77 122 -144 153 l-51 24 -22015
-1 c-21873 0 -22015 0 -22066 -20z m43746 -10154 l0 -9625 -21685 0 -21685 0
0 9625 0 9625 21685 0 21685 0 0 -9625z"/>
<path d="M17580 10180 c0 -4932 0 -4950 20 -4950 11 0 102 53 202 118 101 65
527 341 948 612 888 573 1230 793 1390 897 63 41 372 240 685 442 314 202 838
540 1165 751 327 211 795 513 1040 670 245 158 833 537 1307 843 475 306 865
557 868 557 3 0 5 -1098 5 -2440 l0 -2440 870 0 870 0 0 4940 0 4940 -870 0
-870 0 0 -2440 c0 -1342 -2 -2440 -5 -2440 -6 0 -11 3 -670 429 -302 195 -617
398 -700 451 -82 53 -463 298 -845 545 -382 246 -794 512 -915 590 -121 78
-362 233 -535 345 -173 112 -382 247 -465 300 -356 229 -925 596 -985 635 -36
23 -135 87 -220 142 -135 87 -436 281 -695 448 -44 28 -222 143 -395 255 -173
111 -353 228 -400 258 -47 30 -218 141 -380 245 -162 104 -314 202 -338 218
-24 16 -52 29 -63 29 -19 0 -19 -49 -19 -4950z"/>
</g>
</g>
</g>
<g id="clust4" class="cluster">
<title>cluster_2331155546224</title>
<polygon fill="#f2f2f2" stroke="black" points="1596,-595 1596,-689 2465,-689 2465,-595 1596,-595"/>
</g>
<g id="clust5" class="cluster">
<title>cluster_2331155556928</title>
<polygon fill="#f2f2f2" stroke="black" points="2497,-595 2497,-689 2892,-689 2892,-595 2497,-595"/>
</g>
<g id="clust6" class="cluster">
<title>cluster_2331155556688</title>
<polygon fill="#f7f7f7" stroke="black" points="1048,-244 1048,-711.5 1448,-711.5 1448,-244 1048,-244"/>
<g transform="translate(1387.5,-705.0) scale(0.011468405666741623,0.011302211302211302)">

<!--<rect width="100%" height="100%" fill="#DCDCDC"/>-->

<g transform="translate(0.000000,2035.000000) scale(0.100000,-0.100000)"
fill="#000000" stroke="none">
<path d="M174 20329 c-64 -24 -119 -77 -150 -143 l-24 -51 0 -9952 0 -9952 20
-54 c25 -67 77 -122 144 -153 l51 -24 22012 0 22012 0 54 20 c67 25 122 77
153 144 l24 51 0 9952 0 9952 -20 54 c-25 67 -77 122 -144 153 l-51 24 -22015
-1 c-21873 0 -22015 0 -22066 -20z m43746 -10154 l0 -9625 -21685 0 -21685 0
0 9625 0 9625 21685 0 21685 0 0 -9625z"/>
<path d="M17580 10180 c0 -4932 0 -4950 20 -4950 11 0 102 53 202 118 101 65
527 341 948 612 888 573 1230 793 1390 897 63 41 372 240 685 442 314 202 838
540 1165 751 327 211 795 513 1040 670 245 158 833 537 1307 843 475 306 865
557 868 557 3 0 5 -1098 5 -2440 l0 -2440 870 0 870 0 0 4940 0 4940 -870 0
-870 0 0 -2440 c0 -1342 -2 -2440 -5 -2440 -6 0 -11 3 -670 429 -302 195 -617
398 -700 451 -82 53 -463 298 -845 545 -382 246 -794 512 -915 590 -121 78
-362 233 -535 345 -173 112 -382 247 -465 300 -356 229 -925 596 -985 635 -36
23 -135 87 -220 142 -135 87 -436 281 -695 448 -44 28 -222 143 -395 255 -173
111 -353 228 -400 258 -47 30 -218 141 -380 245 -162 104 -314 202 -338 218
-24 16 -52 29 -63 29 -19 0 -19 -49 -19 -4950z"/>
</g>
</g>
</g>
<g id="clust7" class="cluster">
<title>cluster_2331155556496</title>
<polygon fill="#f7f7f7" stroke="black" points="1060,-730 1060,-967 1328,-967 1328,-730 1060,-730"/>
<g transform="translate(1267.5,-960.5) scale(0.011468405666741623,0.011302211302211302)">

<!--<rect width="100%" height="100%" fill="#DCDCDC"/>-->

<g transform="translate(0.000000,2035.000000) scale(0.100000,-0.100000)"
fill="#000000" stroke="none">
<path d="M174 20329 c-64 -24 -119 -77 -150 -143 l-24 -51 0 -9952 0 -9952 20
-54 c25 -67 77 -122 144 -153 l51 -24 22012 0 22012 0 54 20 c67 25 122 77
153 144 l24 51 0 9952 0 9952 -20 54 c-25 67 -77 122 -144 153 l-51 24 -22015
-1 c-21873 0 -22015 0 -22066 -20z m43746 -10154 l0 -9625 -21685 0 -21685 0
0 9625 0 9625 21685 0 21685 0 0 -9625z"/>
<path d="M17580 10180 c0 -4932 0 -4950 20 -4950 11 0 102 53 202 118 101 65
527 341 948 612 888 573 1230 793 1390 897 63 41 372 240 685 442 314 202 838
540 1165 751 327 211 795 513 1040 670 245 158 833 537 1307 843 475 306 865
557 868 557 3 0 5 -1098 5 -2440 l0 -2440 870 0 870 0 0 4940 0 4940 -870 0
-870 0 0 -2440 c0 -1342 -2 -2440 -5 -2440 -6 0 -11 3 -670 429 -302 195 -617
398 -700 451 -82 53 -463 298 -845 545 -382 246 -794 512 -915 590 -121 78
-362 233 -535 345 -173 112 -382 247 -465 300 -356 229 -925 596 -985 635 -36
23 -135 87 -220 142 -135 87 -436 281 -695 448 -44 28 -222 143 -395 255 -173
111 -353 228 -400 258 -47 30 -218 141 -380 245 -162 104 -314 202 -338 218
-24 16 -52 29 -63 29 -19 0 -19 -49 -19 -4950z"/>
</g>
</g>
</g>
<!-- 2331155549056 -->
<g id="node1" class="node">
<title>2331155549056</title>
<polygon fill="#f7f7f7" stroke="black" points="903,-543 675,-543 675,-489 903,-489 903,-543"/>
<g transform="translate(853.0,-543.0) scale(0.011243534967393748,0.011302211302211302)">



<g transform="translate(0.000000,2035.000000) scale(0.100000,-0.100000)"
fill="#000000" stroke="none">
<path d="M174 20329 c-64 -24 -119 -77 -150 -143 l-24 -51 0 -9952 0 -9952 20
-54 c25 -67 77 -122 144 -153 l51 -24 22012 0 22012 0 54 20 c67 25 122 77
153 144 l24 51 0 9952 0 9952 -20 54 c-25 67 -77 122 -144 153 l-51 24 -22015
-1 c-21873 0 -22015 0 -22066 -20z m43746 -10154 l0 -9625 -21685 0 -21685 0
0 9625 0 9625 21685 0 21685 0 0 -9625z"/>
<path d="M31335 15824 c-237 -20 -503 -49 -585 -64 -379 -69 -489 -95 -775
-182 -297 -91 -563 -198 -855 -345 -102 -51 -203 -103 -225 -116 -244 -140
-381 -227 -570 -365 -652 -476 -1179 -1064 -1587 -1770 -56 -98 -238 -453
-238 -466 0 -3 -13 -34 -29 -68 -24 -54 -49 -113 -81 -193 -4 -11 -14 -36 -20
-55 -7 -19 -19 -48 -26 -65 -16 -40 -97 -290 -124 -385 -12 -41 -25 -82 -29
-90 -7 -13 -112 -15 -832 -18 l-824 -2 1465 -1465 c806 -806 1467 -1465 1470
-1465 5 0 2930 2923 2930 2927 0 2 -364 3 -810 3 -445 0 -810 3 -810 6 0 4 18
38 40 76 22 39 40 72 40 74 0 12 160 249 226 334 293 381 684 705 1108 918 73
37 148 73 167 81 42 16 98 39 124 51 41 19 292 99 360 115 259 62 345 74 648
94 240 16 556 -8 807 -60 128 -27 428 -117 495 -148 49 -24 144 -65 190 -83
28 -11 68 -30 90 -42 22 -13 72 -40 110 -61 39 -21 87 -48 107 -59 41 -23 272
-181 303 -207 11 -10 53 -45 93 -78 l74 -61 1494 0 1495 0 -75 148 c-265 521
-628 1022 -1051 1447 -185 187 -529 475 -710 598 -49 33 -114 78 -143 99 -179
132 -732 430 -966 519 -28 11 -60 23 -71 28 -124 53 -345 128 -530 182 -16 5
-52 15 -80 23 -136 40 -450 105 -625 130 -222 32 -246 35 -365 46 -120 12
-706 21 -800 14z"/>
<path d="M5860 10180 c0 -4923 0 -4950 20 -4950 11 0 66 30 122 67 57 36 351
226 653 421 303 195 651 420 775 500 124 80 365 235 535 345 171 110 378 244
460 297 83 54 526 339 985 635 459 296 1013 653 1230 793 217 141 557 360 755
487 198 127 748 482 1222 788 475 306 865 557 868 557 3 0 5 -1098 5 -2440 l0
-2440 870 0 870 0 0 4940 0 4940 -870 0 -870 0 0 -2440 c0 -1342 -2 -2440 -5
-2440 -6 0 -11 3 -670 429 -302 195 -617 398 -700 451 -82 53 -463 298 -845
545 -382 246 -794 512 -915 590 -121 78 -362 233 -535 345 -173 112 -382 247
-465 300 -238 153 -912 588 -1000 645 -44 28 -136 88 -205 132 -69 44 -235
151 -370 238 -277 179 -288 186 -720 465 -173 111 -353 228 -400 258 -47 30
-218 141 -380 245 -162 104 -314 202 -338 218 -24 16 -52 29 -63 29 -19 0 -19
-49 -19 -4950z"/>
<path d="M34330 10175 l-1465 -1465 823 0 c452 0 822 -3 822 -6 0 -3 -26 -51
-59 -107 -304 -528 -710 -933 -1236 -1233 -29 -17 -265 -134 -295 -146 -14 -6
-34 -14 -45 -19 -190 -80 -430 -151 -640 -190 -336 -63 -779 -70 -1080 -18
-142 25 -301 59 -365 79 -14 4 -52 16 -85 25 -33 10 -69 21 -80 25 -11 4 -42
16 -70 26 -100 35 -343 147 -460 212 -125 69 -308 189 -384 251 -25 20 -76 62
-115 93 l-71 57 -1497 1 c-824 0 -1498 -3 -1498 -6 0 -7 140 -277 185 -359
117 -209 370 -582 495 -731 19 -23 51 -61 70 -85 104 -130 217 -254 391 -428
111 -113 293 -276 383 -346 22 -16 58 -46 81 -65 308 -261 914 -620 1330 -787
33 -13 74 -30 90 -37 56 -25 279 -104 385 -136 58 -17 116 -36 130 -40 29 -10
194 -52 295 -75 39 -9 88 -20 110 -25 22 -5 67 -14 100 -20 33 -6 85 -15 115
-21 85 -15 259 -38 430 -56 198 -21 801 -24 1000 -5 362 35 735 101 1000 177
30 8 71 20 90 25 101 28 339 106 395 130 11 5 45 17 75 28 101 36 338 141 483
213 1241 620 2219 1683 2729 2969 52 130 153 429 183 540 10 36 22 71 28 78 7
9 184 12 821 12 l811 0 -1465 1465 c-806 806 -1467 1465 -1470 1465 -3 0 -664
-659 -1470 -1465z"/>
</g>
</g>
<text text-anchor="middle" x="789" y="-499" font-family="Times New Roman,serif" font-size="20.00">W_Completeren aanvraag</text>
</g>
<!-- 2331155562448 -->
<g id="node3" class="node">
<title>2331155562448</title>
<polygon fill="#f7f7f7" stroke="black" points="1225,-183 939,-183 939,-129 1225,-129 1225,-183"/>
<g transform="translate(1175.0,-183.0) scale(0.011243534967393748,0.011302211302211302)">



<g transform="translate(0.000000,2035.000000) scale(0.100000,-0.100000)"
fill="#000000" stroke="none">
<path d="M174 20329 c-64 -24 -119 -77 -150 -143 l-24 -51 0 -9952 0 -9952 20
-54 c25 -67 77 -122 144 -153 l51 -24 22012 0 22012 0 54 20 c67 25 122 77
153 144 l24 51 0 9952 0 9952 -20 54 c-25 67 -77 122 -144 153 l-51 24 -22015
-1 c-21873 0 -22015 0 -22066 -20z m43746 -10154 l0 -9625 -21685 0 -21685 0
0 9625 0 9625 21685 0 21685 0 0 -9625z"/>
<path d="M31335 15824 c-237 -20 -503 -49 -585 -64 -379 -69 -489 -95 -775
-182 -297 -91 -563 -198 -855 -345 -102 -51 -203 -103 -225 -116 -244 -140
-381 -227 -570 -365 -652 -476 -1179 -1064 -1587 -1770 -56 -98 -238 -453
-238 -466 0 -3 -13 -34 -29 -68 -24 -54 -49 -113 -81 -193 -4 -11 -14 -36 -20
-55 -7 -19 -19 -48 -26 -65 -16 -40 -97 -290 -124 -385 -12 -41 -25 -82 -29
-90 -7 -13 -112 -15 -832 -18 l-824 -2 1465 -1465 c806 -806 1467 -1465 1470
-1465 5 0 2930 2923 2930 2927 0 2 -364 3 -810 3 -445 0 -810 3 -810 6 0 4 18
38 40 76 22 39 40 72 40 74 0 12 160 249 226 334 293 381 684 705 1108 918 73
37 148 73 167 81 42 16 98 39 124 51 41 19 292 99 360 115 259 62 345 74 648
94 240 16 556 -8 807 -60 128 -27 428 -117 495 -148 49 -24 144 -65 190 -83
28 -11 68 -30 90 -42 22 -13 72 -40 110 -61 39 -21 87 -48 107 -59 41 -23 272
-181 303 -207 11 -10 53 -45 93 -78 l74 -61 1494 0 1495 0 -75 148 c-265 521
-628 1022 -1051 1447 -185 187 -529 475 -710 598 -49 33 -114 78 -143 99 -179
132 -732 430 -966 519 -28 11 -60 23 -71 28 -124 53 -345 128 -530 182 -16 5
-52 15 -80 23 -136 40 -450 105 -625 130 -222 32 -246 35 -365 46 -120 12
-706 21 -800 14z"/>
<path d="M5860 10180 c0 -4923 0 -4950 20 -4950 11 0 66 30 122 67 57 36 351
226 653 421 303 195 651 420 775 500 124 80 365 235 535 345 171 110 378 244
460 297 83 54 526 339 985 635 459 296 1013 653 1230 793 217 141 557 360 755
487 198 127 748 482 1222 788 475 306 865 557 868 557 3 0 5 -1098 5 -2440 l0
-2440 870 0 870 0 0 4940 0 4940 -870 0 -870 0 0 -2440 c0 -1342 -2 -2440 -5
-2440 -6 0 -11 3 -670 429 -302 195 -617 398 -700 451 -82 53 -463 298 -845
545 -382 246 -794 512 -915 590 -121 78 -362 233 -535 345 -173 112 -382 247
-465 300 -238 153 -912 588 -1000 645 -44 28 -136 88 -205 132 -69 44 -235
151 -370 238 -277 179 -288 186 -720 465 -173 111 -353 228 -400 258 -47 30
-218 141 -380 245 -162 104 -314 202 -338 218 -24 16 -52 29 -63 29 -19 0 -19
-49 -19 -4950z"/>
<path d="M34330 10175 l-1465 -1465 823 0 c452 0 822 -3 822 -6 0 -3 -26 -51
-59 -107 -304 -528 -710 -933 -1236 -1233 -29 -17 -265 -134 -295 -146 -14 -6
-34 -14 -45 -19 -190 -80 -430 -151 -640 -190 -336 -63 -779 -70 -1080 -18
-142 25 -301 59 -365 79 -14 4 -52 16 -85 25 -33 10 -69 21 -80 25 -11 4 -42
16 -70 26 -100 35 -343 147 -460 212 -125 69 -308 189 -384 251 -25 20 -76 62
-115 93 l-71 57 -1497 1 c-824 0 -1498 -3 -1498 -6 0 -7 140 -277 185 -359
117 -209 370 -582 495 -731 19 -23 51 -61 70 -85 104 -130 217 -254 391 -428
111 -113 293 -276 383 -346 22 -16 58 -46 81 -65 308 -261 914 -620 1330 -787
33 -13 74 -30 90 -37 56 -25 279 -104 385 -136 58 -17 116 -36 130 -40 29 -10
194 -52 295 -75 39 -9 88 -20 110 -25 22 -5 67 -14 100 -20 33 -6 85 -15 115
-21 85 -15 259 -38 430 -56 198 -21 801 -24 1000 -5 362 35 735 101 1000 177
30 8 71 20 90 25 101 28 339 106 395 130 11 5 45 17 75 28 101 36 338 141 483
213 1241 620 2219 1683 2729 2969 52 130 153 429 183 540 10 36 22 71 28 78 7
9 184 12 821 12 l811 0 -1465 1465 c-806 806 -1467 1465 -1470 1465 -3 0 -664
-659 -1470 -1465z"/>
</g>
</g>
<text text-anchor="middle" x="1082" y="-139" font-family="Times New Roman,serif" font-size="20.00">W_Nabellen incomplete dossiers</text>
</g>
<!-- 2331155549056&#45;&gt;2331155562448 -->
<g id="edge12" class="edge">
<title>2331155549056&#45;&gt;2331155562448</title>
<path fill="none" stroke="black" stroke-width="2" d="M820.43,-488.93C826.69,-483.46 833.15,-477.64 839,-472 910.11,-403.47 930.57,-387.87 990,-309 1005.51,-288.42 1039.97,-229.94 1062.03,-191.81"/>
<polygon fill="black" stroke="black" stroke-width="2" points="1065.12,-193.47 1067.09,-183.06 1059.05,-189.97 1065.12,-193.47"/>
</g>
<!-- 2331155556160 -->
<g id="node4" class="node">
<title>2331155556160</title>
<polygon fill="#f7f7f7" stroke="black" points="489.5,-309 286.5,-309 286.5,-255 489.5,-255 489.5,-309"/>
<g transform="translate(439.5,-309.0) scale(0.011243534967393748,0.011302211302211302)">



<g transform="translate(0.000000,2035.000000) scale(0.100000,-0.100000)"
fill="#000000" stroke="none">
<path d="M174 20329 c-64 -24 -119 -77 -150 -143 l-24 -51 0 -9952 0 -9952 20
-54 c25 -67 77 -122 144 -153 l51 -24 22012 0 22012 0 54 20 c67 25 122 77
153 144 l24 51 0 9952 0 9952 -20 54 c-25 67 -77 122 -144 153 l-51 24 -22015
-1 c-21873 0 -22015 0 -22066 -20z m43746 -10154 l0 -9625 -21685 0 -21685 0
0 9625 0 9625 21685 0 21685 0 0 -9625z"/>
<path d="M31335 15824 c-237 -20 -503 -49 -585 -64 -379 -69 -489 -95 -775
-182 -297 -91 -563 -198 -855 -345 -102 -51 -203 -103 -225 -116 -244 -140
-381 -227 -570 -365 -652 -476 -1179 -1064 -1587 -1770 -56 -98 -238 -453
-238 -466 0 -3 -13 -34 -29 -68 -24 -54 -49 -113 -81 -193 -4 -11 -14 -36 -20
-55 -7 -19 -19 -48 -26 -65 -16 -40 -97 -290 -124 -385 -12 -41 -25 -82 -29
-90 -7 -13 -112 -15 -832 -18 l-824 -2 1465 -1465 c806 -806 1467 -1465 1470
-1465 5 0 2930 2923 2930 2927 0 2 -364 3 -810 3 -445 0 -810 3 -810 6 0 4 18
38 40 76 22 39 40 72 40 74 0 12 160 249 226 334 293 381 684 705 1108 918 73
37 148 73 167 81 42 16 98 39 124 51 41 19 292 99 360 115 259 62 345 74 648
94 240 16 556 -8 807 -60 128 -27 428 -117 495 -148 49 -24 144 -65 190 -83
28 -11 68 -30 90 -42 22 -13 72 -40 110 -61 39 -21 87 -48 107 -59 41 -23 272
-181 303 -207 11 -10 53 -45 93 -78 l74 -61 1494 0 1495 0 -75 148 c-265 521
-628 1022 -1051 1447 -185 187 -529 475 -710 598 -49 33 -114 78 -143 99 -179
132 -732 430 -966 519 -28 11 -60 23 -71 28 -124 53 -345 128 -530 182 -16 5
-52 15 -80 23 -136 40 -450 105 -625 130 -222 32 -246 35 -365 46 -120 12
-706 21 -800 14z"/>
<path d="M5860 10180 c0 -4923 0 -4950 20 -4950 11 0 66 30 122 67 57 36 351
226 653 421 303 195 651 420 775 500 124 80 365 235 535 345 171 110 378 244
460 297 83 54 526 339 985 635 459 296 1013 653 1230 793 217 141 557 360 755
487 198 127 748 482 1222 788 475 306 865 557 868 557 3 0 5 -1098 5 -2440 l0
-2440 870 0 870 0 0 4940 0 4940 -870 0 -870 0 0 -2440 c0 -1342 -2 -2440 -5
-2440 -6 0 -11 3 -670 429 -302 195 -617 398 -700 451 -82 53 -463 298 -845
545 -382 246 -794 512 -915 590 -121 78 -362 233 -535 345 -173 112 -382 247
-465 300 -238 153 -912 588 -1000 645 -44 28 -136 88 -205 132 -69 44 -235
151 -370 238 -277 179 -288 186 -720 465 -173 111 -353 228 -400 258 -47 30
-218 141 -380 245 -162 104 -314 202 -338 218 -24 16 -52 29 -63 29 -19 0 -19
-49 -19 -4950z"/>
<path d="M34330 10175 l-1465 -1465 823 0 c452 0 822 -3 822 -6 0 -3 -26 -51
-59 -107 -304 -528 -710 -933 -1236 -1233 -29 -17 -265 -134 -295 -146 -14 -6
-34 -14 -45 -19 -190 -80 -430 -151 -640 -190 -336 -63 -779 -70 -1080 -18
-142 25 -301 59 -365 79 -14 4 -52 16 -85 25 -33 10 -69 21 -80 25 -11 4 -42
16 -70 26 -100 35 -343 147 -460 212 -125 69 -308 189 -384 251 -25 20 -76 62
-115 93 l-71 57 -1497 1 c-824 0 -1498 -3 -1498 -6 0 -7 140 -277 185 -359
117 -209 370 -582 495 -731 19 -23 51 -61 70 -85 104 -130 217 -254 391 -428
111 -113 293 -276 383 -346 22 -16 58 -46 81 -65 308 -261 914 -620 1330 -787
33 -13 74 -30 90 -37 56 -25 279 -104 385 -136 58 -17 116 -36 130 -40 29 -10
194 -52 295 -75 39 -9 88 -20 110 -25 22 -5 67 -14 100 -20 33 -6 85 -15 115
-21 85 -15 259 -38 430 -56 198 -21 801 -24 1000 -5 362 35 735 101 1000 177
30 8 71 20 90 25 101 28 339 106 395 130 11 5 45 17 75 28 101 36 338 141 483
213 1241 620 2219 1683 2729 2969 52 130 153 429 183 540 10 36 22 71 28 78 7
9 184 12 821 12 l811 0 -1465 1465 c-806 806 -1467 1465 -1470 1465 -3 0 -664
-659 -1470 -1465z"/>
</g>
</g>
<text text-anchor="middle" x="388" y="-265" font-family="Times New Roman,serif" font-size="20.00">W_Valideren aanvraag</text>
</g>
<!-- 2331155549056&#45;&gt;2331155556160 -->
<g id="edge13" class="edge">
<title>2331155549056&#45;&gt;2331155556160</title>
<path fill="none" stroke="black" stroke-width="2" d="M723.63,-488.98C711.62,-483.69 699.31,-477.92 688,-472 594.37,-422.98 491.4,-354.7 433.72,-315.05"/>
<polygon fill="black" stroke="black" stroke-width="2" points="435.42,-311.97 425.2,-309.17 431.45,-317.73 435.42,-311.97"/>
</g>
<!-- 2331155547040 -->
<g id="node5" class="node">
<title>2331155547040</title>
<polygon fill="#f2f2f2" stroke="black" points="214,-300 80,-300 80,-264 214,-264 214,-300"/>
<text text-anchor="middle" x="147" y="-277" font-family="Times New Roman,serif" font-size="20.00">O_CREATED</text>
</g>
<!-- 2331155549056&#45;&gt;2331155547040 -->
<g id="edge14" class="edge">
<title>2331155549056&#45;&gt;2331155547040</title>
<path fill="none" stroke="black" stroke-width="2" d="M674.87,-512.26C489.92,-507.31 138.92,-495.54 75.21,-476.35"/>
<polygon fill="black" stroke="black" stroke-width="2" points="76.54,-473.1 66,-472 73.55,-479.43 76.54,-473.1"/>
</g>
<!-- 2331155549392 -->
<g id="node16" class="node">
<title>2331155549392</title>
<polygon fill="#f7f7f7" stroke="black" points="953.5,-309 792.5,-309 792.5,-255 953.5,-255 953.5,-309"/>
<g transform="translate(903.5,-309.0) scale(0.011243534967393748,0.011302211302211302)">



<g transform="translate(0.000000,2035.000000) scale(0.100000,-0.100000)"
fill="#000000" stroke="none">
<path d="M174 20329 c-64 -24 -119 -77 -150 -143 l-24 -51 0 -9952 0 -9952 20
-54 c25 -67 77 -122 144 -153 l51 -24 22012 0 22012 0 54 20 c67 25 122 77
153 144 l24 51 0 9952 0 9952 -20 54 c-25 67 -77 122 -144 153 l-51 24 -22015
-1 c-21873 0 -22015 0 -22066 -20z m43746 -10154 l0 -9625 -21685 0 -21685 0
0 9625 0 9625 21685 0 21685 0 0 -9625z"/>
<path d="M31335 15824 c-237 -20 -503 -49 -585 -64 -379 -69 -489 -95 -775
-182 -297 -91 -563 -198 -855 -345 -102 -51 -203 -103 -225 -116 -244 -140
-381 -227 -570 -365 -652 -476 -1179 -1064 -1587 -1770 -56 -98 -238 -453
-238 -466 0 -3 -13 -34 -29 -68 -24 -54 -49 -113 -81 -193 -4 -11 -14 -36 -20
-55 -7 -19 -19 -48 -26 -65 -16 -40 -97 -290 -124 -385 -12 -41 -25 -82 -29
-90 -7 -13 -112 -15 -832 -18 l-824 -2 1465 -1465 c806 -806 1467 -1465 1470
-1465 5 0 2930 2923 2930 2927 0 2 -364 3 -810 3 -445 0 -810 3 -810 6 0 4 18
38 40 76 22 39 40 72 40 74 0 12 160 249 226 334 293 381 684 705 1108 918 73
37 148 73 167 81 42 16 98 39 124 51 41 19 292 99 360 115 259 62 345 74 648
94 240 16 556 -8 807 -60 128 -27 428 -117 495 -148 49 -24 144 -65 190 -83
28 -11 68 -30 90 -42 22 -13 72 -40 110 -61 39 -21 87 -48 107 -59 41 -23 272
-181 303 -207 11 -10 53 -45 93 -78 l74 -61 1494 0 1495 0 -75 148 c-265 521
-628 1022 -1051 1447 -185 187 -529 475 -710 598 -49 33 -114 78 -143 99 -179
132 -732 430 -966 519 -28 11 -60 23 -71 28 -124 53 -345 128 -530 182 -16 5
-52 15 -80 23 -136 40 -450 105 -625 130 -222 32 -246 35 -365 46 -120 12
-706 21 -800 14z"/>
<path d="M5860 10180 c0 -4923 0 -4950 20 -4950 11 0 66 30 122 67 57 36 351
226 653 421 303 195 651 420 775 500 124 80 365 235 535 345 171 110 378 244
460 297 83 54 526 339 985 635 459 296 1013 653 1230 793 217 141 557 360 755
487 198 127 748 482 1222 788 475 306 865 557 868 557 3 0 5 -1098 5 -2440 l0
-2440 870 0 870 0 0 4940 0 4940 -870 0 -870 0 0 -2440 c0 -1342 -2 -2440 -5
-2440 -6 0 -11 3 -670 429 -302 195 -617 398 -700 451 -82 53 -463 298 -845
545 -382 246 -794 512 -915 590 -121 78 -362 233 -535 345 -173 112 -382 247
-465 300 -238 153 -912 588 -1000 645 -44 28 -136 88 -205 132 -69 44 -235
151 -370 238 -277 179 -288 186 -720 465 -173 111 -353 228 -400 258 -47 30
-218 141 -380 245 -162 104 -314 202 -338 218 -24 16 -52 29 -63 29 -19 0 -19
-49 -19 -4950z"/>
<path d="M34330 10175 l-1465 -1465 823 0 c452 0 822 -3 822 -6 0 -3 -26 -51
-59 -107 -304 -528 -710 -933 -1236 -1233 -29 -17 -265 -134 -295 -146 -14 -6
-34 -14 -45 -19 -190 -80 -430 -151 -640 -190 -336 -63 -779 -70 -1080 -18
-142 25 -301 59 -365 79 -14 4 -52 16 -85 25 -33 10 -69 21 -80 25 -11 4 -42
16 -70 26 -100 35 -343 147 -460 212 -125 69 -308 189 -384 251 -25 20 -76 62
-115 93 l-71 57 -1497 1 c-824 0 -1498 -3 -1498 -6 0 -7 140 -277 185 -359
117 -209 370 -582 495 -731 19 -23 51 -61 70 -85 104 -130 217 -254 391 -428
111 -113 293 -276 383 -346 22 -16 58 -46 81 -65 308 -261 914 -620 1330 -787
33 -13 74 -30 90 -37 56 -25 279 -104 385 -136 58 -17 116 -36 130 -40 29 -10
194 -52 295 -75 39 -9 88 -20 110 -25 22 -5 67 -14 100 -20 33 -6 85 -15 115
-21 85 -15 259 -38 430 -56 198 -21 801 -24 1000 -5 362 35 735 101 1000 177
30 8 71 20 90 25 101 28 339 106 395 130 11 5 45 17 75 28 101 36 338 141 483
213 1241 620 2219 1683 2729 2969 52 130 153 429 183 540 10 36 22 71 28 78 7
9 184 12 821 12 l811 0 -1465 1465 c-806 806 -1467 1465 -1470 1465 -3 0 -664
-659 -1470 -1465z"/>
</g>
</g>
<text text-anchor="middle" x="873" y="-265" font-family="Times New Roman,serif" font-size="20.00">O_CANCELLED</text>
</g>
<!-- 2331155549056&#45;&gt;2331155549392 -->
<g id="edge15" class="edge">
<title>2331155549056&#45;&gt;2331155549392</title>
<path fill="none" stroke="black" stroke-width="2" d="M798.47,-488.84C813.57,-447.13 843.13,-365.49 860.13,-318.53"/>
<polygon fill="black" stroke="black" stroke-width="2" points="863.45,-319.66 863.56,-309.07 856.87,-317.28 863.45,-319.66"/>
</g>
<!-- 2331155557024 -->
<g id="node26" class="node">
<title>2331155557024</title>
<polygon fill="#f7f7f7" stroke="black" points="720,-309 562,-309 562,-255 720,-255 720,-309"/>
<g transform="translate(670.0,-309.0) scale(0.011243534967393748,0.011302211302211302)">



<g transform="translate(0.000000,2035.000000) scale(0.100000,-0.100000)"
fill="#000000" stroke="none">
<path d="M174 20329 c-64 -24 -119 -77 -150 -143 l-24 -51 0 -9952 0 -9952 20
-54 c25 -67 77 -122 144 -153 l51 -24 22012 0 22012 0 54 20 c67 25 122 77
153 144 l24 51 0 9952 0 9952 -20 54 c-25 67 -77 122 -144 153 l-51 24 -22015
-1 c-21873 0 -22015 0 -22066 -20z m43746 -10154 l0 -9625 -21685 0 -21685 0
0 9625 0 9625 21685 0 21685 0 0 -9625z"/>
<path d="M31335 15824 c-237 -20 -503 -49 -585 -64 -379 -69 -489 -95 -775
-182 -297 -91 -563 -198 -855 -345 -102 -51 -203 -103 -225 -116 -244 -140
-381 -227 -570 -365 -652 -476 -1179 -1064 -1587 -1770 -56 -98 -238 -453
-238 -466 0 -3 -13 -34 -29 -68 -24 -54 -49 -113 -81 -193 -4 -11 -14 -36 -20
-55 -7 -19 -19 -48 -26 -65 -16 -40 -97 -290 -124 -385 -12 -41 -25 -82 -29
-90 -7 -13 -112 -15 -832 -18 l-824 -2 1465 -1465 c806 -806 1467 -1465 1470
-1465 5 0 2930 2923 2930 2927 0 2 -364 3 -810 3 -445 0 -810 3 -810 6 0 4 18
38 40 76 22 39 40 72 40 74 0 12 160 249 226 334 293 381 684 705 1108 918 73
37 148 73 167 81 42 16 98 39 124 51 41 19 292 99 360 115 259 62 345 74 648
94 240 16 556 -8 807 -60 128 -27 428 -117 495 -148 49 -24 144 -65 190 -83
28 -11 68 -30 90 -42 22 -13 72 -40 110 -61 39 -21 87 -48 107 -59 41 -23 272
-181 303 -207 11 -10 53 -45 93 -78 l74 -61 1494 0 1495 0 -75 148 c-265 521
-628 1022 -1051 1447 -185 187 -529 475 -710 598 -49 33 -114 78 -143 99 -179
132 -732 430 -966 519 -28 11 -60 23 -71 28 -124 53 -345 128 -530 182 -16 5
-52 15 -80 23 -136 40 -450 105 -625 130 -222 32 -246 35 -365 46 -120 12
-706 21 -800 14z"/>
<path d="M5860 10180 c0 -4923 0 -4950 20 -4950 11 0 66 30 122 67 57 36 351
226 653 421 303 195 651 420 775 500 124 80 365 235 535 345 171 110 378 244
460 297 83 54 526 339 985 635 459 296 1013 653 1230 793 217 141 557 360 755
487 198 127 748 482 1222 788 475 306 865 557 868 557 3 0 5 -1098 5 -2440 l0
-2440 870 0 870 0 0 4940 0 4940 -870 0 -870 0 0 -2440 c0 -1342 -2 -2440 -5
-2440 -6 0 -11 3 -670 429 -302 195 -617 398 -700 451 -82 53 -463 298 -845
545 -382 246 -794 512 -915 590 -121 78 -362 233 -535 345 -173 112 -382 247
-465 300 -238 153 -912 588 -1000 645 -44 28 -136 88 -205 132 -69 44 -235
151 -370 238 -277 179 -288 186 -720 465 -173 111 -353 228 -400 258 -47 30
-218 141 -380 245 -162 104 -314 202 -338 218 -24 16 -52 29 -63 29 -19 0 -19
-49 -19 -4950z"/>
<path d="M34330 10175 l-1465 -1465 823 0 c452 0 822 -3 822 -6 0 -3 -26 -51
-59 -107 -304 -528 -710 -933 -1236 -1233 -29 -17 -265 -134 -295 -146 -14 -6
-34 -14 -45 -19 -190 -80 -430 -151 -640 -190 -336 -63 -779 -70 -1080 -18
-142 25 -301 59 -365 79 -14 4 -52 16 -85 25 -33 10 -69 21 -80 25 -11 4 -42
16 -70 26 -100 35 -343 147 -460 212 -125 69 -308 189 -384 251 -25 20 -76 62
-115 93 l-71 57 -1497 1 c-824 0 -1498 -3 -1498 -6 0 -7 140 -277 185 -359
117 -209 370 -582 495 -731 19 -23 51 -61 70 -85 104 -130 217 -254 391 -428
111 -113 293 -276 383 -346 22 -16 58 -46 81 -65 308 -261 914 -620 1330 -787
33 -13 74 -30 90 -37 56 -25 279 -104 385 -136 58 -17 116 -36 130 -40 29 -10
194 -52 295 -75 39 -9 88 -20 110 -25 22 -5 67 -14 100 -20 33 -6 85 -15 115
-21 85 -15 259 -38 430 -56 198 -21 801 -24 1000 -5 362 35 735 101 1000 177
30 8 71 20 90 25 101 28 339 106 395 130 11 5 45 17 75 28 101 36 338 141 483
213 1241 620 2219 1683 2729 2969 52 130 153 429 183 540 10 36 22 71 28 78 7
9 184 12 821 12 l811 0 -1465 1465 c-806 806 -1467 1465 -1470 1465 -3 0 -664
-659 -1470 -1465z"/>
</g>
</g>
<text text-anchor="middle" x="641" y="-265" font-family="Times New Roman,serif" font-size="20.00">O_SENT_BACK</text>
</g>
<!-- 2331155549056&#45;&gt;2331155557024 -->
<g id="edge16" class="edge">
<title>2331155549056&#45;&gt;2331155557024</title>
<path fill="none" stroke="black" stroke-width="2" d="M772.31,-488.84C745.54,-446.87 692.97,-364.47 663.11,-317.65"/>
<polygon fill="black" stroke="black" stroke-width="2" points="665.96,-315.62 657.63,-309.07 660.06,-319.38 665.96,-315.62"/>
</g>
<!-- 2331155559280 -->
<g id="node2" class="node">
<title>2331155559280</title>
<polygon fill="#f7f7f7" stroke="black" points="956,-921 768,-921 768,-867 956,-867 956,-921"/>
<g transform="translate(906.0,-921.0) scale(0.011243534967393748,0.011302211302211302)">



<g transform="translate(0.000000,2035.000000) scale(0.100000,-0.100000)"
fill="#000000" stroke="none">
<path d="M174 20329 c-64 -24 -119 -77 -150 -143 l-24 -51 0 -9952 0 -9952 20
-54 c25 -67 77 -122 144 -153 l51 -24 22012 0 22012 0 54 20 c67 25 122 77
153 144 l24 51 0 9952 0 9952 -20 54 c-25 67 -77 122 -144 153 l-51 24 -22015
-1 c-21873 0 -22015 0 -22066 -20z m43746 -10154 l0 -9625 -21685 0 -21685 0
0 9625 0 9625 21685 0 21685 0 0 -9625z"/>
<path d="M31335 15824 c-237 -20 -503 -49 -585 -64 -379 -69 -489 -95 -775
-182 -297 -91 -563 -198 -855 -345 -102 -51 -203 -103 -225 -116 -244 -140
-381 -227 -570 -365 -652 -476 -1179 -1064 -1587 -1770 -56 -98 -238 -453
-238 -466 0 -3 -13 -34 -29 -68 -24 -54 -49 -113 -81 -193 -4 -11 -14 -36 -20
-55 -7 -19 -19 -48 -26 -65 -16 -40 -97 -290 -124 -385 -12 -41 -25 -82 -29
-90 -7 -13 -112 -15 -832 -18 l-824 -2 1465 -1465 c806 -806 1467 -1465 1470
-1465 5 0 2930 2923 2930 2927 0 2 -364 3 -810 3 -445 0 -810 3 -810 6 0 4 18
38 40 76 22 39 40 72 40 74 0 12 160 249 226 334 293 381 684 705 1108 918 73
37 148 73 167 81 42 16 98 39 124 51 41 19 292 99 360 115 259 62 345 74 648
94 240 16 556 -8 807 -60 128 -27 428 -117 495 -148 49 -24 144 -65 190 -83
28 -11 68 -30 90 -42 22 -13 72 -40 110 -61 39 -21 87 -48 107 -59 41 -23 272
-181 303 -207 11 -10 53 -45 93 -78 l74 -61 1494 0 1495 0 -75 148 c-265 521
-628 1022 -1051 1447 -185 187 -529 475 -710 598 -49 33 -114 78 -143 99 -179
132 -732 430 -966 519 -28 11 -60 23 -71 28 -124 53 -345 128 -530 182 -16 5
-52 15 -80 23 -136 40 -450 105 -625 130 -222 32 -246 35 -365 46 -120 12
-706 21 -800 14z"/>
<path d="M5860 10180 c0 -4923 0 -4950 20 -4950 11 0 66 30 122 67 57 36 351
226 653 421 303 195 651 420 775 500 124 80 365 235 535 345 171 110 378 244
460 297 83 54 526 339 985 635 459 296 1013 653 1230 793 217 141 557 360 755
487 198 127 748 482 1222 788 475 306 865 557 868 557 3 0 5 -1098 5 -2440 l0
-2440 870 0 870 0 0 4940 0 4940 -870 0 -870 0 0 -2440 c0 -1342 -2 -2440 -5
-2440 -6 0 -11 3 -670 429 -302 195 -617 398 -700 451 -82 53 -463 298 -845
545 -382 246 -794 512 -915 590 -121 78 -362 233 -535 345 -173 112 -382 247
-465 300 -238 153 -912 588 -1000 645 -44 28 -136 88 -205 132 -69 44 -235
151 -370 238 -277 179 -288 186 -720 465 -173 111 -353 228 -400 258 -47 30
-218 141 -380 245 -162 104 -314 202 -338 218 -24 16 -52 29 -63 29 -19 0 -19
-49 -19 -4950z"/>
<path d="M34330 10175 l-1465 -1465 823 0 c452 0 822 -3 822 -6 0 -3 -26 -51
-59 -107 -304 -528 -710 -933 -1236 -1233 -29 -17 -265 -134 -295 -146 -14 -6
-34 -14 -45 -19 -190 -80 -430 -151 -640 -190 -336 -63 -779 -70 -1080 -18
-142 25 -301 59 -365 79 -14 4 -52 16 -85 25 -33 10 -69 21 -80 25 -11 4 -42
16 -70 26 -100 35 -343 147 -460 212 -125 69 -308 189 -384 251 -25 20 -76 62
-115 93 l-71 57 -1497 1 c-824 0 -1498 -3 -1498 -6 0 -7 140 -277 185 -359
117 -209 370 -582 495 -731 19 -23 51 -61 70 -85 104 -130 217 -254 391 -428
111 -113 293 -276 383 -346 22 -16 58 -46 81 -65 308 -261 914 -620 1330 -787
33 -13 74 -30 90 -37 56 -25 279 -104 385 -136 58 -17 116 -36 130 -40 29 -10
194 -52 295 -75 39 -9 88 -20 110 -25 22 -5 67 -14 100 -20 33 -6 85 -15 115
-21 85 -15 259 -38 430 -56 198 -21 801 -24 1000 -5 362 35 735 101 1000 177
30 8 71 20 90 25 101 28 339 106 395 130 11 5 45 17 75 28 101 36 338 141 483
213 1241 620 2219 1683 2729 2969 52 130 153 429 183 540 10 36 22 71 28 78 7
9 184 12 821 12 l811 0 -1465 1465 c-806 806 -1467 1465 -1470 1465 -3 0 -664
-659 -1470 -1465z"/>
</g>
</g>
<text text-anchor="middle" x="862" y="-877" font-family="Times New Roman,serif" font-size="20.00">W_Afhandelen leads</text>
</g>
<!-- 2331155559280&#45;&gt;2331155549056 -->
<g id="edge17" class="edge">
<title>2331155559280&#45;&gt;2331155549056</title>
<path fill="none" stroke="black" stroke-width="2" d="M850.61,-866.87C842.57,-847.41 832.17,-819.99 826,-795 804.93,-709.69 795.18,-606.51 791.26,-553.04"/>
<polygon fill="black" stroke="black" stroke-width="2" points="794.75,-552.76 790.55,-543.03 787.77,-553.25 794.75,-552.76"/>
</g>
<!-- 2331155556640 -->
<g id="node25" class="node">
<title>2331155556640</title>
<polygon fill="#f7f7f7" stroke="black" points="1008,-795 862,-795 862,-741 1008,-741 1008,-795"/>
<g transform="translate(958.0,-795.0) scale(0.011243534967393748,0.011302211302211302)">

<!--<rect width="100%" height="100%" fill="#DCDCDC"/>-->

<g transform="translate(0.000000,2035.000000) scale(0.100000,-0.100000)"
fill="#000000" stroke="none">
<path d="M174 20329 c-64 -24 -119 -77 -150 -143 l-24 -51 0 -9952 0 -9952 20
-54 c25 -67 77 -122 144 -153 l51 -24 22012 0 22012 0 54 20 c67 25 122 77
153 144 l24 51 0 9952 0 9952 -20 54 c-25 67 -77 122 -144 153 l-51 24 -22015
-1 c-21873 0 -22015 0 -22066 -20z m43746 -10154 l0 -9625 -21685 0 -21685 0
0 9625 0 9625 21685 0 21685 0 0 -9625z"/>
<path d="M17580 10180 c0 -4932 0 -4950 20 -4950 11 0 102 53 202 118 101 65
527 341 948 612 888 573 1230 793 1390 897 63 41 372 240 685 442 314 202 838
540 1165 751 327 211 795 513 1040 670 245 158 833 537 1307 843 475 306 865
557 868 557 3 0 5 -1098 5 -2440 l0 -2440 870 0 870 0 0 4940 0 4940 -870 0
-870 0 0 -2440 c0 -1342 -2 -2440 -5 -2440 -6 0 -11 3 -670 429 -302 195 -617
398 -700 451 -82 53 -463 298 -845 545 -382 246 -794 512 -915 590 -121 78
-362 233 -535 345 -173 112 -382 247 -465 300 -356 229 -925 596 -985 635 -36
23 -135 87 -220 142 -135 87 -436 281 -695 448 -44 28 -222 143 -395 255 -173
111 -353 228 -400 258 -47 30 -218 141 -380 245 -162 104 -314 202 -338 218
-24 16 -52 29 -63 29 -19 0 -19 -49 -19 -4950z"/>
</g>
</g>
<text text-anchor="middle" x="935" y="-751" font-family="Times New Roman,serif" font-size="20.00">A_ACCEPTED</text>
</g>
<!-- 2331155559280&#45;&gt;2331155556640 -->
<g id="edge18" class="edge">
<title>2331155559280&#45;&gt;2331155556640</title>
<path fill="none" stroke="black" stroke-width="2" d="M877.48,-866.7C888.22,-848.45 902.65,-823.95 914.37,-804.04"/>
<polygon fill="black" stroke="black" stroke-width="2" points="917.48,-805.65 919.54,-795.26 911.45,-802.1 917.48,-805.65"/>
</g>
<!-- 2331155555392 -->
<g id="node28" class="node">
<title>2331155555392</title>
<polygon fill="black" stroke="black" points="740.5,-57 711.5,-57 711.5,-28 740.5,-28 740.5,-57"/>
</g>
<!-- 2331155562448&#45;&gt;2331155555392 -->
<g id="edge19" class="edge">
<title>2331155562448&#45;&gt;2331155555392</title>
<path fill="none" stroke="black" stroke-width="2" d="M998.98,-129C918.23,-103.71 800.59,-66.86 750.28,-51.11"/>
<polygon fill="black" stroke="black" stroke-width="2" points="751.2,-47.72 740.61,-48.08 749.1,-54.4 751.2,-47.72"/>
</g>
<!-- 2331155556160&#45;&gt;2331155555392 -->
<g id="edge20" class="edge">
<title>2331155556160&#45;&gt;2331155555392</title>
<path fill="none" stroke="black" stroke-width="2" d="M425.14,-254.9C495.3,-205.61 645.43,-100.11 702.93,-59.71"/>
<polygon fill="black" stroke="black" stroke-width="2" points="705.17,-62.41 711.34,-53.8 701.15,-56.69 705.17,-62.41"/>
</g>
<!-- 2331155556400 -->
<g id="node6" class="node">
<title>2331155556400</title>
<polygon fill="#f2f2f2" stroke="black" points="246,-174 138,-174 138,-138 246,-138 246,-174"/>
<text text-anchor="middle" x="192" y="-151" font-family="Times New Roman,serif" font-size="20.00">O_SENT</text>
</g>
<!-- 2331155547040&#45;&gt;2331155556400 -->
<g id="edge1" class="edge">
<title>2331155547040&#45;&gt;2331155556400</title>
<path fill="none" stroke="black" stroke-width="2" d="M153.26,-263.76C160.78,-243.03 173.49,-208.01 182.29,-183.76"/>
<polygon fill="black" stroke="black" stroke-width="2" points="185.67,-184.69 185.8,-174.1 179.09,-182.3 185.67,-184.69"/>
</g>
<!-- 2331155547040&#45;&gt;2331155555392 -->
<g id="edge21" class="edge">
<title>2331155547040&#45;&gt;2331155555392</title>
<path fill="none" stroke="black" stroke-width="2" d="M102,-118C142.57,-72.3 590.11,-49.53 701.17,-44.56"/>
<polygon fill="black" stroke="black" stroke-width="2" points="701.56,-48.04 711.39,-44.11 701.25,-41.05 701.56,-48.04"/>
</g>
<!-- 2331155551120 -->
<g id="node7" class="node">
<title>2331155551120</title>
<polygon fill="#f2f2f2" stroke="black" points="245.5,-417 102.5,-417 102.5,-381 245.5,-381 245.5,-417"/>
<text text-anchor="middle" x="174" y="-394" font-family="Times New Roman,serif" font-size="20.00">O_SELECTED</text>
</g>
<!-- 2331155551120&#45;&gt;2331155547040 -->
<g id="edge2" class="edge">
<title>2331155551120&#45;&gt;2331155547040</title>
<path fill="none" stroke="black" stroke-width="2" d="M169.9,-380.53C165.51,-361.85 158.5,-331.97 153.39,-310.2"/>
<polygon fill="black" stroke="black" stroke-width="2" points="156.74,-309.19 151.05,-300.25 149.93,-310.79 156.74,-309.19"/>
</g>
<!-- 2331155546176 -->
<g id="node8" class="node">
<title>2331155546176</title>
<ellipse fill="none" stroke="black" cx="2601" cy="-894" rx="18" ry="18"/>
<g transform="translate(2583.0,-912.0) scale(0.02122641509433962,0.02122641509433962)">

<g transform="translate(0.000000,1696.000000) scale(0.100000,-0.100000)"
fill="#000000" stroke="none">
<path d="M8130 16954 c-516 -29 -894 -74 -1320 -160 -903 -181 -1755 -502
-2555 -962 -355 -204 -646 -400 -980 -661 -2289 -1787 -3498 -4573 -3239
-7466 124 -1385 606 -2753 1377 -3910 511 -765 1134 -1437 1862 -2006 1246
-975 2752 -1581 4335 -1743 405 -42 1056 -54 1425 -28 1031 75 1987 311 2895
715 1449 644 2723 1721 3608 3049 1187 1782 1652 3931 1312 6058 -225 1401
-815 2749 -1694 3865 -961 1221 -2206 2142 -3641 2694 -773 296 -1604 480
-2450 541 -151 11 -813 21 -935 14z m935 -473 c1421 -115 2709 -557 3860
-1324 699 -467 1350 -1071 1876 -1742 771 -984 1297 -2128 1543 -3355 300
-1502 164 -3078 -389 -4490 -216 -553 -483 -1064 -807 -1549 -650 -969 -1558
-1833 -2552 -2425 -1899 -1133 -4174 -1434 -6298 -835 -1821 513 -3419 1674
-4484 3259 -879 1307 -1354 2863 -1354 4440 0 1817 591 3542 1699 4955 642
819 1455 1523 2346 2032 1077 616 2235 959 3515 1043 169 11 871 5 1045 -9z"/>
<path d="M5040 11915 l-1105 -1105 1163 -1163 c639 -639 1162 -1167 1162
-1172 0 -5 -523 -533 -1162 -1172 l-1163 -1163 1108 -1107 1107 -1108 1163
1163 c639 639 1167 1162 1172 1162 5 0 533 -523 1172 -1162 l1163 -1163 1107
1108 1108 1107 -1163 1163 c-639 639 -1162 1167 -1162 1172 0 5 523 533 1162
1172 l1163 1163 -1108 1107 -1107 1108 -1163 -1163 c-639 -639 -1167 -1162
-1172 -1162 -6 0 -532 522 -1170 1160 -638 638 -1162 1160 -1165 1160 -3 0
-502 -497 -1110 -1105z"/>
</g>
</g>
</g>
<!-- 2331155547712 -->
<g id="node9" class="node">
<title>2331155547712</title>
<polygon fill="#f2f2f2" stroke="black" points="2681.5,-786 2520.5,-786 2520.5,-750 2681.5,-750 2681.5,-786"/>
<text text-anchor="middle" x="2601" y="-763" font-family="Times New Roman,serif" font-size="20.00">A_CANCELLED</text>
</g>
<!-- 2331155546176&#45;&gt;2331155547712 -->
<g id="edge3" class="edge">
<title>2331155546176&#45;&gt;2331155547712</title>
<path fill="none" stroke="black" stroke-width="2" d="M2601,-875.76C2601,-852.07 2601,-809.71 2601,-786.1"/>
</g>
<!-- 2331155559328 -->
<g id="node10" class="node">
<title>2331155559328</title>
<polygon fill="#ededed" stroke="black" points="2445,-669 2299,-669 2299,-615 2445,-615 2445,-669"/>
<g transform="translate(2395.0,-669.0) scale(0.011243534967393748,0.011302211302211302)">

<!--<rect width="100%" height="100%" fill="#DCDCDC"/>-->

<g transform="translate(0.000000,2035.000000) scale(0.100000,-0.100000)"
fill="#000000" stroke="none">
<path d="M174 20329 c-64 -24 -119 -77 -150 -143 l-24 -51 0 -9952 0 -9952 20
-54 c25 -67 77 -122 144 -153 l51 -24 22012 0 22012 0 54 20 c67 25 122 77
153 144 l24 51 0 9952 0 9952 -20 54 c-25 67 -77 122 -144 153 l-51 24 -22015
-1 c-21873 0 -22015 0 -22066 -20z m43746 -10154 l0 -9625 -21685 0 -21685 0
0 9625 0 9625 21685 0 21685 0 0 -9625z"/>
<path d="M17580 10180 c0 -4932 0 -4950 20 -4950 11 0 102 53 202 118 101 65
527 341 948 612 888 573 1230 793 1390 897 63 41 372 240 685 442 314 202 838
540 1165 751 327 211 795 513 1040 670 245 158 833 537 1307 843 475 306 865
557 868 557 3 0 5 -1098 5 -2440 l0 -2440 870 0 870 0 0 4940 0 4940 -870 0
-870 0 0 -2440 c0 -1342 -2 -2440 -5 -2440 -6 0 -11 3 -670 429 -302 195 -617
398 -700 451 -82 53 -463 298 -845 545 -382 246 -794 512 -915 590 -121 78
-362 233 -535 345 -173 112 -382 247 -465 300 -356 229 -925 596 -985 635 -36
23 -135 87 -220 142 -135 87 -436 281 -695 448 -44 28 -222 143 -395 255 -173
111 -353 228 -400 258 -47 30 -218 141 -380 245 -162 104 -314 202 -338 218
-24 16 -52 29 -63 29 -19 0 -19 -49 -19 -4950z"/>
</g>
</g>
<text text-anchor="middle" x="2372" y="-625" font-family="Times New Roman,serif" font-size="20.00">O_ACCEPTED</text>
</g>
<!-- 2331155546176&#45;&gt;2331155559328 -->
<g id="edge4" class="edge">
<title>2331155546176&#45;&gt;2331155559328</title>
<path fill="none" stroke="black" stroke-width="2" d="M2590.33,-879.28C2586.89,-875.17 2582.94,-870.75 2579,-867 2540.9,-830.7 2521.94,-832.48 2485,-795 2452.97,-762.51 2422.46,-720.58 2401.24,-689"/>
</g>
<!-- 2331155546368 -->
<g id="node14" class="node">
<title>2331155546368</title>
<polygon fill="#ededed" stroke="black" points="2871.5,-660 2730.5,-660 2730.5,-624 2871.5,-624 2871.5,-660"/>
<text text-anchor="middle" x="2801" y="-637" font-family="Times New Roman,serif" font-size="20.00">A_DECLINED</text>
</g>
<!-- 2331155546176&#45;&gt;2331155546368 -->
<g id="edge5" class="edge">
<title>2331155546176&#45;&gt;2331155546368</title>
<path fill="none" stroke="black" stroke-width="2" d="M2615.84,-883.31C2639.66,-867.21 2686.92,-832.91 2718,-795 2744.49,-762.69 2766.68,-720.66 2781.43,-689"/>
</g>
<!-- 2331155547712&#45;&gt;2331155555392 -->
<g id="edge22" class="edge">
<title>2331155547712&#45;&gt;2331155555392</title>
<path fill="none" stroke="black" stroke-width="2" d="M2912,-709.48C2971.53,-648.43 2945,-603.88 2945,-517 2945,-517 2945,-517 2945,-281 2945,-48.59 995.66,-43.2 751.1,-43.44"/>
<polygon fill="black" stroke="black" stroke-width="2" points="750.75,-39.94 740.76,-43.46 750.76,-46.94 750.75,-39.94"/>
</g>
<!-- 2331155546800 -->
<g id="node11" class="node">
<title>2331155546800</title>
<polygon fill="#ededed" stroke="black" points="2226.5,-660 2079.5,-660 2079.5,-624 2226.5,-624 2226.5,-660"/>
<text text-anchor="middle" x="2153" y="-637" font-family="Times New Roman,serif" font-size="20.00">A_APPROVED</text>
</g>
<!-- 2331155547088 -->
<g id="node12" class="node">
<title>2331155547088</title>
<polygon fill="#ededed" stroke="black" points="2007.5,-660 1852.5,-660 1852.5,-624 2007.5,-624 2007.5,-660"/>
<text text-anchor="middle" x="1930" y="-637" font-family="Times New Roman,serif" font-size="20.00">A_ACTIVATED</text>
</g>
<!-- 2331155557696 -->
<g id="node13" class="node">
<title>2331155557696</title>
<polygon fill="#ededed" stroke="black" points="1780,-660 1616,-660 1616,-624 1780,-624 1780,-660"/>
<text text-anchor="middle" x="1698" y="-637" font-family="Times New Roman,serif" font-size="20.00">A_REGISTERED</text>
</g>
<!-- 2331155556304 -->
<g id="node15" class="node">
<title>2331155556304</title>
<polygon fill="#ededed" stroke="black" points="2658.5,-669 2517.5,-669 2517.5,-615 2658.5,-615 2658.5,-669"/>
<g transform="translate(2608.5,-669.0) scale(0.011243534967393748,0.011302211302211302)">

<!--<rect width="100%" height="100%" fill="#DCDCDC"/>-->

<g transform="translate(0.000000,2035.000000) scale(0.100000,-0.100000)"
fill="#000000" stroke="none">
<path d="M174 20329 c-64 -24 -119 -77 -150 -143 l-24 -51 0 -9952 0 -9952 20
-54 c25 -67 77 -122 144 -153 l51 -24 22012 0 22012 0 54 20 c67 25 122 77
153 144 l24 51 0 9952 0 9952 -20 54 c-25 67 -77 122 -144 153 l-51 24 -22015
-1 c-21873 0 -22015 0 -22066 -20z m43746 -10154 l0 -9625 -21685 0 -21685 0
0 9625 0 9625 21685 0 21685 0 0 -9625z"/>
<path d="M17580 10180 c0 -4932 0 -4950 20 -4950 11 0 102 53 202 118 101 65
527 341 948 612 888 573 1230 793 1390 897 63 41 372 240 685 442 314 202 838
540 1165 751 327 211 795 513 1040 670 245 158 833 537 1307 843 475 306 865
557 868 557 3 0 5 -1098 5 -2440 l0 -2440 870 0 870 0 0 4940 0 4940 -870 0
-870 0 0 -2440 c0 -1342 -2 -2440 -5 -2440 -6 0 -11 3 -670 429 -302 195 -617
398 -700 451 -82 53 -463 298 -845 545 -382 246 -794 512 -915 590 -121 78
-362 233 -535 345 -173 112 -382 247 -465 300 -356 229 -925 596 -985 635 -36
23 -135 87 -220 142 -135 87 -436 281 -695 448 -44 28 -222 143 -395 255 -173
111 -353 228 -400 258 -47 30 -218 141 -380 245 -162 104 -314 202 -338 218
-24 16 -52 29 -63 29 -19 0 -19 -49 -19 -4950z"/>
</g>
</g>
<text text-anchor="middle" x="2588" y="-625" font-family="Times New Roman,serif" font-size="20.00">O_DECLINED</text>
</g>
<!-- 2331155549392&#45;&gt;2331155555392 -->
<g id="edge23" class="edge">
<title>2331155549392&#45;&gt;2331155555392</title>
<path fill="none" stroke="black" stroke-width="2" d="M856.71,-254.68C827.54,-207.54 766.9,-109.58 739.71,-65.65"/>
<polygon fill="black" stroke="black" stroke-width="2" points="742.68,-63.8 734.44,-57.14 736.73,-67.48 742.68,-63.8"/>
</g>
<!-- 2331155553376 -->
<g id="node17" class="node">
<title>2331155553376</title>
<polygon fill="#f2f2f2" stroke="black" points="1212,-534 1068,-534 1068,-498 1212,-498 1212,-534"/>
<text text-anchor="middle" x="1140" y="-511" font-family="Times New Roman,serif" font-size="20.00">A_FINALIZED</text>
</g>
<!-- 2331155553376&#45;&gt;2331155556160 -->
<g id="edge24" class="edge">
<title>2331155553376&#45;&gt;2331155556160</title>
<path fill="none" stroke="black" stroke-width="2" d="M1048,-486.1C938.63,-468.2 899.86,-501.65 785,-472 716.33,-454.28 538.19,-362.71 445.68,-313.83"/>
<polygon fill="black" stroke="black" stroke-width="2" points="447.2,-310.68 436.73,-309.1 443.93,-316.87 447.2,-310.68"/>
</g>
<!-- 2331155553376&#45;&gt;2331155547040 -->
<g id="edge25" class="edge">
<title>2331155553376&#45;&gt;2331155547040</title>
<path fill="none" stroke="black" stroke-width="2" d="M1048,-486.55C926.15,-470.97 656.19,-497.51 550,-472 453.16,-448.73 351.68,-400.99 274.78,-359.31"/>
<polygon fill="black" stroke="black" stroke-width="2" points="276.45,-356.24 266,-354.52 273.1,-362.38 276.45,-356.24"/>
</g>
<!-- 2331155553376&#45;&gt;2331155549392 -->
<g id="edge26" class="edge">
<title>2331155553376&#45;&gt;2331155549392</title>
<path fill="none" stroke="black" stroke-width="2" d="M1048,-435.06C1000.97,-394.2 946.31,-346.7 910.77,-315.81"/>
<polygon fill="black" stroke="black" stroke-width="2" points="912.82,-312.97 902.98,-309.05 908.23,-318.25 912.82,-312.97"/>
</g>
<!-- 2331155559136 -->
<g id="node18" class="node">
<title>2331155559136</title>
<polygon fill="#f2f2f2" stroke="black" points="1334,-417 1200,-417 1200,-381 1334,-381 1334,-417"/>
<text text-anchor="middle" x="1267" y="-394" font-family="Times New Roman,serif" font-size="20.00">O_CREATED</text>
</g>
<!-- 2331155553376&#45;&gt;2331155559136 -->
<g id="edge6" class="edge">
<title>2331155553376&#45;&gt;2331155559136</title>
<path fill="none" stroke="black" stroke-width="2" d="M1163.73,-497.91C1173.92,-490.29 1185.8,-481.01 1196,-472 1212.87,-457.09 1230.66,-439.05 1244.21,-424.76"/>
<polygon fill="black" stroke="black" stroke-width="2" points="1246.97,-426.93 1251.27,-417.25 1241.87,-422.14 1246.97,-426.93"/>
</g>
<!-- 2331155555248 -->
<g id="node24" class="node">
<title>2331155555248</title>
<polygon fill="#f7f7f7" stroke="black" points="1654,-309 1468,-309 1468,-255 1654,-255 1654,-309"/>
<g transform="translate(1604.0,-309.0) scale(0.011243534967393748,0.011302211302211302)">



<g transform="translate(0.000000,2035.000000) scale(0.100000,-0.100000)"
fill="#000000" stroke="none">
<path d="M174 20329 c-64 -24 -119 -77 -150 -143 l-24 -51 0 -9952 0 -9952 20
-54 c25 -67 77 -122 144 -153 l51 -24 22012 0 22012 0 54 20 c67 25 122 77
153 144 l24 51 0 9952 0 9952 -20 54 c-25 67 -77 122 -144 153 l-51 24 -22015
-1 c-21873 0 -22015 0 -22066 -20z m43746 -10154 l0 -9625 -21685 0 -21685 0
0 9625 0 9625 21685 0 21685 0 0 -9625z"/>
<path d="M31335 15824 c-237 -20 -503 -49 -585 -64 -379 -69 -489 -95 -775
-182 -297 -91 -563 -198 -855 -345 -102 -51 -203 -103 -225 -116 -244 -140
-381 -227 -570 -365 -652 -476 -1179 -1064 -1587 -1770 -56 -98 -238 -453
-238 -466 0 -3 -13 -34 -29 -68 -24 -54 -49 -113 -81 -193 -4 -11 -14 -36 -20
-55 -7 -19 -19 -48 -26 -65 -16 -40 -97 -290 -124 -385 -12 -41 -25 -82 -29
-90 -7 -13 -112 -15 -832 -18 l-824 -2 1465 -1465 c806 -806 1467 -1465 1470
-1465 5 0 2930 2923 2930 2927 0 2 -364 3 -810 3 -445 0 -810 3 -810 6 0 4 18
38 40 76 22 39 40 72 40 74 0 12 160 249 226 334 293 381 684 705 1108 918 73
37 148 73 167 81 42 16 98 39 124 51 41 19 292 99 360 115 259 62 345 74 648
94 240 16 556 -8 807 -60 128 -27 428 -117 495 -148 49 -24 144 -65 190 -83
28 -11 68 -30 90 -42 22 -13 72 -40 110 -61 39 -21 87 -48 107 -59 41 -23 272
-181 303 -207 11 -10 53 -45 93 -78 l74 -61 1494 0 1495 0 -75 148 c-265 521
-628 1022 -1051 1447 -185 187 -529 475 -710 598 -49 33 -114 78 -143 99 -179
132 -732 430 -966 519 -28 11 -60 23 -71 28 -124 53 -345 128 -530 182 -16 5
-52 15 -80 23 -136 40 -450 105 -625 130 -222 32 -246 35 -365 46 -120 12
-706 21 -800 14z"/>
<path d="M5860 10180 c0 -4923 0 -4950 20 -4950 11 0 66 30 122 67 57 36 351
226 653 421 303 195 651 420 775 500 124 80 365 235 535 345 171 110 378 244
460 297 83 54 526 339 985 635 459 296 1013 653 1230 793 217 141 557 360 755
487 198 127 748 482 1222 788 475 306 865 557 868 557 3 0 5 -1098 5 -2440 l0
-2440 870 0 870 0 0 4940 0 4940 -870 0 -870 0 0 -2440 c0 -1342 -2 -2440 -5
-2440 -6 0 -11 3 -670 429 -302 195 -617 398 -700 451 -82 53 -463 298 -845
545 -382 246 -794 512 -915 590 -121 78 -362 233 -535 345 -173 112 -382 247
-465 300 -238 153 -912 588 -1000 645 -44 28 -136 88 -205 132 -69 44 -235
151 -370 238 -277 179 -288 186 -720 465 -173 111 -353 228 -400 258 -47 30
-218 141 -380 245 -162 104 -314 202 -338 218 -24 16 -52 29 -63 29 -19 0 -19
-49 -19 -4950z"/>
<path d="M34330 10175 l-1465 -1465 823 0 c452 0 822 -3 822 -6 0 -3 -26 -51
-59 -107 -304 -528 -710 -933 -1236 -1233 -29 -17 -265 -134 -295 -146 -14 -6
-34 -14 -45 -19 -190 -80 -430 -151 -640 -190 -336 -63 -779 -70 -1080 -18
-142 25 -301 59 -365 79 -14 4 -52 16 -85 25 -33 10 -69 21 -80 25 -11 4 -42
16 -70 26 -100 35 -343 147 -460 212 -125 69 -308 189 -384 251 -25 20 -76 62
-115 93 l-71 57 -1497 1 c-824 0 -1498 -3 -1498 -6 0 -7 140 -277 185 -359
117 -209 370 -582 495 -731 19 -23 51 -61 70 -85 104 -130 217 -254 391 -428
111 -113 293 -276 383 -346 22 -16 58 -46 81 -65 308 -261 914 -620 1330 -787
33 -13 74 -30 90 -37 56 -25 279 -104 385 -136 58 -17 116 -36 130 -40 29 -10
194 -52 295 -75 39 -9 88 -20 110 -25 22 -5 67 -14 100 -20 33 -6 85 -15 115
-21 85 -15 259 -38 430 -56 198 -21 801 -24 1000 -5 362 35 735 101 1000 177
30 8 71 20 90 25 101 28 339 106 395 130 11 5 45 17 75 28 101 36 338 141 483
213 1241 620 2219 1683 2729 2969 52 130 153 429 183 540 10 36 22 71 28 78 7
9 184 12 821 12 l811 0 -1465 1465 c-806 806 -1467 1465 -1470 1465 -3 0 -664
-659 -1470 -1465z"/>
</g>
</g>
<text text-anchor="middle" x="1561" y="-265" font-family="Times New Roman,serif" font-size="20.00">W_Nabellen offertes</text>
</g>
<!-- 2331155553376&#45;&gt;2331155555248 -->
<g id="edge27" class="edge">
<title>2331155553376&#45;&gt;2331155555248</title>
<path fill="none" stroke="black" stroke-width="2" d="M1448,-406.55C1478.52,-376 1509.83,-341.48 1531.72,-316.71"/>
<polygon fill="black" stroke="black" stroke-width="2" points="1534.38,-318.99 1538.36,-309.17 1529.12,-314.36 1534.38,-318.99"/>
</g>
<!-- 2331155553376&#45;&gt;2331155557024 -->
<g id="edge28" class="edge">
<title>2331155553376&#45;&gt;2331155557024</title>
<path fill="none" stroke="black" stroke-width="2" d="M1048,-485.44C1019.51,-480.27 1005.36,-484.21 972,-472 914.85,-451.09 768.98,-362.68 691.36,-314.55"/>
<polygon fill="black" stroke="black" stroke-width="2" points="693.04,-311.47 682.7,-309.17 689.35,-317.42 693.04,-311.47"/>
</g>
<!-- 2331155559088 -->
<g id="node19" class="node">
<title>2331155559088</title>
<polygon fill="#f2f2f2" stroke="black" points="1321,-300 1213,-300 1213,-264 1321,-264 1321,-300"/>
<text text-anchor="middle" x="1267" y="-277" font-family="Times New Roman,serif" font-size="20.00">O_SENT</text>
</g>
<!-- 2331155559136&#45;&gt;2331155559088 -->
<g id="edge7" class="edge">
<title>2331155559136&#45;&gt;2331155559088</title>
<path fill="none" stroke="black" stroke-width="2" d="M1267,-380.53C1267,-361.94 1267,-332.24 1267,-310.5"/>
<polygon fill="black" stroke="black" stroke-width="2" points="1270.5,-310.25 1267,-300.25 1263.5,-310.25 1270.5,-310.25"/>
</g>
<!-- 2331155549200 -->
<g id="node20" class="node">
<title>2331155549200</title>
<polygon fill="#f2f2f2" stroke="black" points="1427.5,-534 1284.5,-534 1284.5,-498 1427.5,-498 1427.5,-534"/>
<text text-anchor="middle" x="1356" y="-511" font-family="Times New Roman,serif" font-size="20.00">O_SELECTED</text>
</g>
<!-- 2331155549200&#45;&gt;2331155559136 -->
<g id="edge8" class="edge">
<title>2331155549200&#45;&gt;2331155559136</title>
<path fill="none" stroke="black" stroke-width="2" d="M1342.48,-497.53C1327.63,-478.34 1303.63,-447.33 1286.69,-425.44"/>
<polygon fill="black" stroke="black" stroke-width="2" points="1289.24,-423.02 1280.35,-417.25 1283.71,-427.3 1289.24,-423.02"/>
</g>
<!-- 2331155556736 -->
<g id="node21" class="node">
<title>2331155556736</title>
<polygon fill="black" stroke="black" points="1262.5,-656.5 1233.5,-656.5 1233.5,-627.5 1262.5,-627.5 1262.5,-656.5"/>
</g>
<!-- 2331155556736&#45;&gt;2331155553376 -->
<g id="edge9" class="edge">
<title>2331155556736&#45;&gt;2331155553376</title>
<path fill="none" stroke="black" stroke-width="2" d="M1247.13,-627.38C1245.61,-613.1 1241.44,-590.62 1230,-575 1219.26,-560.33 1203.58,-548.41 1188.32,-539.27"/>
<polygon fill="black" stroke="black" stroke-width="2" points="1189.84,-536.11 1179.42,-534.21 1186.38,-542.2 1189.84,-536.11"/>
</g>
<!-- 2331155556736&#45;&gt;2331155549200 -->
<g id="edge10" class="edge">
<title>2331155556736&#45;&gt;2331155549200</title>
<path fill="none" stroke="black" stroke-width="2" d="M1249.13,-627.38C1250.9,-613.11 1255.44,-590.63 1267,-575 1277.82,-560.37 1293.51,-548.41 1308.72,-539.22"/>
<polygon fill="black" stroke="black" stroke-width="2" points="1310.65,-542.15 1317.58,-534.14 1307.16,-536.08 1310.65,-542.15"/>
</g>
<!-- 2331155555296 -->
<g id="node22" class="node">
<title>2331155555296</title>
<polygon fill="#f2f2f2" stroke="black" points="1308,-786 1080,-786 1080,-750 1308,-750 1308,-786"/>
<text text-anchor="middle" x="1194" y="-763" font-family="Times New Roman,serif" font-size="20.00">W_Completeren aanvraag</text>
</g>
<!-- 2331155555296&#45;&gt;2331155549056 -->
<g id="edge29" class="edge">
<title>2331155555296&#45;&gt;2331155549056</title>
<path fill="none" stroke="black" stroke-width="2" d="M1080,-730C1055.71,-721.78 1035.62,-714.59 1030,-711.5 948.05,-666.44 866.2,-592.82 822.15,-550.26"/>
<polygon fill="black" stroke="black" stroke-width="2" points="824.5,-547.66 814.89,-543.19 819.62,-552.67 824.5,-547.66"/>
</g>
<!-- 2331155555296&#45;&gt;2331155555248 -->
<g id="edge30" class="edge">
<title>2331155555296&#45;&gt;2331155555248</title>
<path fill="none" stroke="black" stroke-width="2" d="M1312,-730C1345.26,-722.82 1438.75,-734.31 1464,-711.5 1522.38,-658.76 1549.66,-412.75 1558.05,-319.22"/>
<polygon fill="black" stroke="black" stroke-width="2" points="1561.55,-319.37 1558.94,-309.1 1554.58,-318.76 1561.55,-319.37"/>
</g>
<!-- 2331155549248 -->
<g id="node23" class="node">
<title>2331155549248</title>
<polygon fill="#f2f2f2" stroke="black" points="1285.5,-912 1102.5,-912 1102.5,-876 1285.5,-876 1285.5,-912"/>
<text text-anchor="middle" x="1194" y="-889" font-family="Times New Roman,serif" font-size="20.00">A_PREACCEPTED</text>
</g>
<!-- 2331155549248&#45;&gt;2331155555296 -->
<g id="edge11" class="edge">
<title>2331155549248&#45;&gt;2331155555296</title>
<path fill="none" stroke="black" stroke-width="2" d="M1194,-875.76C1194,-855.21 1194,-820.63 1194,-796.41"/>
<polygon fill="black" stroke="black" stroke-width="2" points="1197.5,-796.1 1194,-786.1 1190.5,-796.1 1197.5,-796.1"/>
</g>
<!-- 2331155555248&#45;&gt;2331155562448 -->
<g id="edge31" class="edge">
<title>2331155555248&#45;&gt;2331155562448</title>
<path fill="none" stroke="black" stroke-width="2" d="M1496.48,-254.95C1485.72,-251.02 1474.61,-247.21 1464,-244 1386.91,-220.64 1299.39,-200.28 1227.59,-185.14"/>
<polygon fill="black" stroke="black" stroke-width="2" points="1228.07,-181.66 1217.57,-183.03 1226.64,-188.51 1228.07,-181.66"/>
</g>
<!-- 2331155556640&#45;&gt;2331155553376 -->
<g id="edge32" class="edge">
<title>2331155556640&#45;&gt;2331155553376</title>
<path fill="none" stroke="black" stroke-width="2" d="M956.55,-740.72C977.12,-715.63 1009.64,-675.98 1041.62,-636.98"/>
<polygon fill="black" stroke="black" stroke-width="2" points="1044.37,-639.15 1048,-629.19 1038.95,-634.71 1044.37,-639.15"/>
</g>
<!-- 2331155557024&#45;&gt;2331155555392 -->
<g id="edge33" class="edge">
<title>2331155557024&#45;&gt;2331155555392</title>
<path fill="none" stroke="black" stroke-width="2" d="M650.42,-254.68C667.15,-207.94 701.76,-111.22 717.67,-66.77"/>
<polygon fill="black" stroke="black" stroke-width="2" points="721.05,-67.73 721.12,-57.14 714.45,-65.37 721.05,-67.73"/>
</g>
<!-- 2331155548624 -->
<g id="node27" class="node">
<title>2331155548624</title>
<polygon fill="#f7f7f7" stroke="black" points="1556,-921 1358,-921 1358,-867 1556,-867 1556,-921"/>
<g transform="translate(1506.0,-921.0) scale(0.011243534967393748,0.011302211302211302)">



<g transform="translate(0.000000,2035.000000) scale(0.100000,-0.100000)"
fill="#000000" stroke="none">
<path d="M174 20329 c-64 -24 -119 -77 -150 -143 l-24 -51 0 -9952 0 -9952 20
-54 c25 -67 77 -122 144 -153 l51 -24 22012 0 22012 0 54 20 c67 25 122 77
153 144 l24 51 0 9952 0 9952 -20 54 c-25 67 -77 122 -144 153 l-51 24 -22015
-1 c-21873 0 -22015 0 -22066 -20z m43746 -10154 l0 -9625 -21685 0 -21685 0
0 9625 0 9625 21685 0 21685 0 0 -9625z"/>
<path d="M31335 15824 c-237 -20 -503 -49 -585 -64 -379 -69 -489 -95 -775
-182 -297 -91 -563 -198 -855 -345 -102 -51 -203 -103 -225 -116 -244 -140
-381 -227 -570 -365 -652 -476 -1179 -1064 -1587 -1770 -56 -98 -238 -453
-238 -466 0 -3 -13 -34 -29 -68 -24 -54 -49 -113 -81 -193 -4 -11 -14 -36 -20
-55 -7 -19 -19 -48 -26 -65 -16 -40 -97 -290 -124 -385 -12 -41 -25 -82 -29
-90 -7 -13 -112 -15 -832 -18 l-824 -2 1465 -1465 c806 -806 1467 -1465 1470
-1465 5 0 2930 2923 2930 2927 0 2 -364 3 -810 3 -445 0 -810 3 -810 6 0 4 18
38 40 76 22 39 40 72 40 74 0 12 160 249 226 334 293 381 684 705 1108 918 73
37 148 73 167 81 42 16 98 39 124 51 41 19 292 99 360 115 259 62 345 74 648
94 240 16 556 -8 807 -60 128 -27 428 -117 495 -148 49 -24 144 -65 190 -83
28 -11 68 -30 90 -42 22 -13 72 -40 110 -61 39 -21 87 -48 107 -59 41 -23 272
-181 303 -207 11 -10 53 -45 93 -78 l74 -61 1494 0 1495 0 -75 148 c-265 521
-628 1022 -1051 1447 -185 187 -529 475 -710 598 -49 33 -114 78 -143 99 -179
132 -732 430 -966 519 -28 11 -60 23 -71 28 -124 53 -345 128 -530 182 -16 5
-52 15 -80 23 -136 40 -450 105 -625 130 -222 32 -246 35 -365 46 -120 12
-706 21 -800 14z"/>
<path d="M5860 10180 c0 -4923 0 -4950 20 -4950 11 0 66 30 122 67 57 36 351
226 653 421 303 195 651 420 775 500 124 80 365 235 535 345 171 110 378 244
460 297 83 54 526 339 985 635 459 296 1013 653 1230 793 217 141 557 360 755
487 198 127 748 482 1222 788 475 306 865 557 868 557 3 0 5 -1098 5 -2440 l0
-2440 870 0 870 0 0 4940 0 4940 -870 0 -870 0 0 -2440 c0 -1342 -2 -2440 -5
-2440 -6 0 -11 3 -670 429 -302 195 -617 398 -700 451 -82 53 -463 298 -845
545 -382 246 -794 512 -915 590 -121 78 -362 233 -535 345 -173 112 -382 247
-465 300 -238 153 -912 588 -1000 645 -44 28 -136 88 -205 132 -69 44 -235
151 -370 238 -277 179 -288 186 -720 465 -173 111 -353 228 -400 258 -47 30
-218 141 -380 245 -162 104 -314 202 -338 218 -24 16 -52 29 -63 29 -19 0 -19
-49 -19 -4950z"/>
<path d="M34330 10175 l-1465 -1465 823 0 c452 0 822 -3 822 -6 0 -3 -26 -51
-59 -107 -304 -528 -710 -933 -1236 -1233 -29 -17 -265 -134 -295 -146 -14 -6
-34 -14 -45 -19 -190 -80 -430 -151 -640 -190 -336 -63 -779 -70 -1080 -18
-142 25 -301 59 -365 79 -14 4 -52 16 -85 25 -33 10 -69 21 -80 25 -11 4 -42
16 -70 26 -100 35 -343 147 -460 212 -125 69 -308 189 -384 251 -25 20 -76 62
-115 93 l-71 57 -1497 1 c-824 0 -1498 -3 -1498 -6 0 -7 140 -277 185 -359
117 -209 370 -582 495 -731 19 -23 51 -61 70 -85 104 -130 217 -254 391 -428
111 -113 293 -276 383 -346 22 -16 58 -46 81 -65 308 -261 914 -620 1330 -787
33 -13 74 -30 90 -37 56 -25 279 -104 385 -136 58 -17 116 -36 130 -40 29 -10
194 -52 295 -75 39 -9 88 -20 110 -25 22 -5 67 -14 100 -20 33 -6 85 -15 115
-21 85 -15 259 -38 430 -56 198 -21 801 -24 1000 -5 362 35 735 101 1000 177
30 8 71 20 90 25 101 28 339 106 395 130 11 5 45 17 75 28 101 36 338 141 483
213 1241 620 2219 1683 2729 2969 52 130 153 429 183 540 10 36 22 71 28 78 7
9 184 12 821 12 l811 0 -1465 1465 c-806 806 -1467 1465 -1470 1465 -3 0 -664
-659 -1470 -1465z"/>
</g>
</g>
<text text-anchor="middle" x="1457" y="-877" font-family="Times New Roman,serif" font-size="20.00">W_Beoordelen fraude</text>
</g>
<!-- 2331155548624&#45;&gt;2331155562448 -->
<g id="edge34" class="edge">
<title>2331155548624&#45;&gt;2331155562448</title>
<path fill="none" stroke="black" stroke-width="2" d="M1466.58,-866.91C1486.64,-812.44 1534.83,-682.75 1578,-575 1625.71,-455.93 1664.61,-434.74 1690,-309 1695.72,-280.68 1708.93,-265.83 1690,-244 1632.33,-177.49 1396.1,-160.58 1235.65,-156.96"/>
<polygon fill="black" stroke="black" stroke-width="2" points="1235.26,-153.45 1225.19,-156.74 1235.12,-160.45 1235.26,-153.45"/>
</g>
<!-- 2331155556352 -->
<g id="node29" class="node">
<title>2331155556352</title>
<polygon fill="#f7f7f7" stroke="black" points="1359.5,-1029 1126.5,-1029 1126.5,-993 1359.5,-993 1359.5,-1029"/>
<text text-anchor="middle" x="1243" y="-1006" font-family="Times New Roman,serif" font-size="20.00">A_PARTLYSUBMITTED</text>
</g>
<!-- 2331155556352&#45;&gt;2331155559280 -->
<g id="edge35" class="edge">
<title>2331155556352&#45;&gt;2331155559280</title>
<path fill="none" stroke="black" stroke-width="2" d="M1126.49,-994.85C1088.78,-988.27 1047.12,-979.2 1010,-967 977.81,-956.42 943.68,-940.19 916.32,-925.81"/>
<polygon fill="black" stroke="black" stroke-width="2" points="917.79,-922.63 907.31,-921.02 914.5,-928.81 917.79,-922.63"/>
</g>
<!-- 2331155556352&#45;&gt;2331155547712 -->
<g id="edge36" class="edge">
<title>2331155556352&#45;&gt;2331155547712</title>
<path fill="none" stroke="black" stroke-width="2" d="M1359.58,-997.44C1424.6,-990.01 1507.31,-979.84 1581.99,-968.53"/>
<polygon fill="black" stroke="black" stroke-width="2" points="1582.64,-971.97 1592,-967 1581.59,-965.05 1582.64,-971.97"/>
</g>
<!-- 2331155556352&#45;&gt;2331155555296 -->
<g id="edge37" class="edge">
<title>2331155556352&#45;&gt;2331155555296</title>
<path fill="none" stroke="black" stroke-width="2" d="M1126.6,-992.92C1105.26,-987.88 1086.13,-981.58 1074.69,-973.84"/>
<polygon fill="black" stroke="black" stroke-width="2" points="1076.8,-971.03 1067,-967 1072.14,-976.26 1076.8,-971.03"/>
</g>
<!-- 2331155556352&#45;&gt;2331155548624 -->
<g id="edge38" class="edge">
<title>2331155556352&#45;&gt;2331155548624</title>
<path fill="none" stroke="black" stroke-width="2" d="M1288.68,-992.99C1306.86,-985.69 1327.75,-976.63 1346,-967 1368.48,-955.14 1392.25,-940.09 1412.01,-926.81"/>
<polygon fill="black" stroke="black" stroke-width="2" points="1414.19,-929.56 1420.5,-921.05 1410.26,-923.77 1414.19,-929.56"/>
</g>
<!-- 2331155555200 -->
<g id="node30" class="node">
<title>2331155555200</title>
<polygon fill="#f7f7f7" stroke="black" points="1320.5,-1137 1165.5,-1137 1165.5,-1101 1320.5,-1101 1320.5,-1137"/>
<text text-anchor="middle" x="1243" y="-1114" font-family="Times New Roman,serif" font-size="20.00">A_SUBMITTED</text>
</g>
<!-- 2331155555200&#45;&gt;2331155556352 -->
<g id="edge39" class="edge">
<title>2331155555200&#45;&gt;2331155556352</title>
<path fill="none" stroke="black" stroke-width="2" d="M1243,-1100.97C1243,-1084.38 1243,-1058.88 1243,-1039.43"/>
<polygon fill="black" stroke="black" stroke-width="2" points="1246.5,-1039.34 1243,-1029.34 1239.5,-1039.34 1246.5,-1039.34"/>
</g>
</g>
</svg>
