<?xml version="1.0" encoding="UTF-8" standalone="no"?>
<!DOCTYPE svg PUBLIC "-//W3C//DTD SVG 1.1//EN"
 "http://www.w3.org/Graphics/SVG/1.1/DTD/svg11.dtd">
<!-- Generated by graphviz version 6.0.1 (20220911.1526)
 -->
<!-- Title: powl Pages: 1 -->
<svg width="1000pt" height="913pt"
 viewBox="0.00 0.00 1000.00 913.00" xmlns="http://www.w3.org/2000/svg" xmlns:xlink="http://www.w3.org/1999/xlink">
<g id="graph0" class="graph" transform="scale(1 1) rotate(0) translate(4 909)">
<title>powl</title>
<polygon fill="white" stroke="none" points="-4,4 -4,-909 996,-909 996,4 -4,4"/>
<g id="clust1" class="cluster">
<title>cluster_1844884618448</title>
<polygon fill="#fcfcfc" stroke="black" points="8,-8 8,-897 984,-897 984,-8 8,-8"/>
</g>
<g id="clust2" class="cluster">
<title>cluster_1844884611152</title>
<polygon fill="#f7f7f7" stroke="black" points="525,-470 525,-707 793,-707 793,-470 525,-470"/>
<g transform="translate(732.5,-700.5) scale(0.011468405666741623,0.011302211302211302)">

<!--<rect width="100%" height="100%" fill="#DCDCDC"/>-->

<g transform="translate(0.000000,2035.000000) scale(0.100000,-0.100000)"
fill="#000000" stroke="none">
<path d="M174 20329 c-64 -24 -119 -77 -150 -143 l-24 -51 0 -9952 0 -9952 20
-54 c25 -67 77 -122 144 -153 l51 -24 22012 0 22012 0 54 20 c67 25 122 77
153 144 l24 51 0 9952 0 9952 -20 54 c-25 67 -77 122 -144 153 l-51 24 -22015
-1 c-21873 0 -22015 0 -22066 -20z m43746 -10154 l0 -9625 -21685 0 -21685 0
0 9625 0 9625 21685 0 21685 0 0 -9625z"/>
<path d="M17580 10180 c0 -4932 0 -4950 20 -4950 11 0 102 53 202 118 101 65
527 341 948 612 888 573 1230 793 1390 897 63 41 372 240 685 442 314 202 838
540 1165 751 327 211 795 513 1040 670 245 158 833 537 1307 843 475 306 865
557 868 557 3 0 5 -1098 5 -2440 l0 -2440 870 0 870 0 0 4940 0 4940 -870 0
-870 0 0 -2440 c0 -1342 -2 -2440 -5 -2440 -6 0 -11 3 -670 429 -302 195 -617
398 -700 451 -82 53 -463 298 -845 545 -382 246 -794 512 -915 590 -121 78
-362 233 -535 345 -173 112 -382 247 -465 300 -356 229 -925 596 -985 635 -36
23 -135 87 -220 142 -135 87 -436 281 -695 448 -44 28 -222 143 -395 255 -173
111 -353 228 -400 258 -47 30 -218 141 -380 245 -162 104 -314 202 -338 218
-24 16 -52 29 -63 29 -19 0 -19 -49 -19 -4950z"/>
</g>
</g>
</g>
<g id="clust3" class="cluster">
<title>cluster_1844884614464</title>
<polygon fill="#f7f7f7" stroke="black" points="28,-28 28,-382 212,-382 212,-28 28,-28"/>
<g transform="translate(151.5,-375.5) scale(0.011468405666741623,0.011302211302211302)">



<g transform="translate(0.000000,2035.000000) scale(0.100000,-0.100000)"
fill="#000000" stroke="none">
<path d="M174 20329 c-64 -24 -119 -77 -150 -143 l-24 -51 0 -9952 0 -9952 20
-54 c25 -67 77 -122 144 -153 l51 -24 22012 0 22012 0 54 20 c67 25 122 77
153 144 l24 51 0 9952 0 9952 -20 54 c-25 67 -77 122 -144 153 l-51 24 -22015
-1 c-21873 0 -22015 0 -22066 -20z m43746 -10154 l0 -9625 -21685 0 -21685 0
0 9625 0 9625 21685 0 21685 0 0 -9625z"/>
<path d="M31335 15824 c-237 -20 -503 -49 -585 -64 -379 -69 -489 -95 -775
-182 -297 -91 -563 -198 -855 -345 -102 -51 -203 -103 -225 -116 -244 -140
-381 -227 -570 -365 -652 -476 -1179 -1064 -1587 -1770 -56 -98 -238 -453
-238 -466 0 -3 -13 -34 -29 -68 -24 -54 -49 -113 -81 -193 -4 -11 -14 -36 -20
-55 -7 -19 -19 -48 -26 -65 -16 -40 -97 -290 -124 -385 -12 -41 -25 -82 -29
-90 -7 -13 -112 -15 -832 -18 l-824 -2 1465 -1465 c806 -806 1467 -1465 1470
-1465 5 0 2930 2923 2930 2927 0 2 -364 3 -810 3 -445 0 -810 3 -810 6 0 4 18
38 40 76 22 39 40 72 40 74 0 12 160 249 226 334 293 381 684 705 1108 918 73
37 148 73 167 81 42 16 98 39 124 51 41 19 292 99 360 115 259 62 345 74 648
94 240 16 556 -8 807 -60 128 -27 428 -117 495 -148 49 -24 144 -65 190 -83
28 -11 68 -30 90 -42 22 -13 72 -40 110 -61 39 -21 87 -48 107 -59 41 -23 272
-181 303 -207 11 -10 53 -45 93 -78 l74 -61 1494 0 1495 0 -75 148 c-265 521
-628 1022 -1051 1447 -185 187 -529 475 -710 598 -49 33 -114 78 -143 99 -179
132 -732 430 -966 519 -28 11 -60 23 -71 28 -124 53 -345 128 -530 182 -16 5
-52 15 -80 23 -136 40 -450 105 -625 130 -222 32 -246 35 -365 46 -120 12
-706 21 -800 14z"/>
<path d="M5860 10180 c0 -4923 0 -4950 20 -4950 11 0 66 30 122 67 57 36 351
226 653 421 303 195 651 420 775 500 124 80 365 235 535 345 171 110 378 244
460 297 83 54 526 339 985 635 459 296 1013 653 1230 793 217 141 557 360 755
487 198 127 748 482 1222 788 475 306 865 557 868 557 3 0 5 -1098 5 -2440 l0
-2440 870 0 870 0 0 4940 0 4940 -870 0 -870 0 0 -2440 c0 -1342 -2 -2440 -5
-2440 -6 0 -11 3 -670 429 -302 195 -617 398 -700 451 -82 53 -463 298 -845
545 -382 246 -794 512 -915 590 -121 78 -362 233 -535 345 -173 112 -382 247
-465 300 -238 153 -912 588 -1000 645 -44 28 -136 88 -205 132 -69 44 -235
151 -370 238 -277 179 -288 186 -720 465 -173 111 -353 228 -400 258 -47 30
-218 141 -380 245 -162 104 -314 202 -338 218 -24 16 -52 29 -63 29 -19 0 -19
-49 -19 -4950z"/>
<path d="M34330 10175 l-1465 -1465 823 0 c452 0 822 -3 822 -6 0 -3 -26 -51
-59 -107 -304 -528 -710 -933 -1236 -1233 -29 -17 -265 -134 -295 -146 -14 -6
-34 -14 -45 -19 -190 -80 -430 -151 -640 -190 -336 -63 -779 -70 -1080 -18
-142 25 -301 59 -365 79 -14 4 -52 16 -85 25 -33 10 -69 21 -80 25 -11 4 -42
16 -70 26 -100 35 -343 147 -460 212 -125 69 -308 189 -384 251 -25 20 -76 62
-115 93 l-71 57 -1497 1 c-824 0 -1498 -3 -1498 -6 0 -7 140 -277 185 -359
117 -209 370 -582 495 -731 19 -23 51 -61 70 -85 104 -130 217 -254 391 -428
111 -113 293 -276 383 -346 22 -16 58 -46 81 -65 308 -261 914 -620 1330 -787
33 -13 74 -30 90 -37 56 -25 279 -104 385 -136 58 -17 116 -36 130 -40 29 -10
194 -52 295 -75 39 -9 88 -20 110 -25 22 -5 67 -14 100 -20 33 -6 85 -15 115
-21 85 -15 259 -38 430 -56 198 -21 801 -24 1000 -5 362 35 735 101 1000 177
30 8 71 20 90 25 101 28 339 106 395 130 11 5 45 17 75 28 101 36 338 141 483
213 1241 620 2219 1683 2729 2969 52 130 153 429 183 540 10 36 22 71 28 78 7
9 184 12 821 12 l811 0 -1465 1465 c-806 806 -1467 1465 -1470 1465 -3 0 -664
-659 -1470 -1465z"/>
</g>
</g>
</g>
<!-- 1844884616576 -->
<g id="node1" class="node">
<title>1844884616576</title>
<polygon fill="#f7f7f7" stroke="black" points="773,-336 545,-336 545,-282 773,-282 773,-336"/>
<g transform="translate(723.0,-336.0) scale(0.011243534967393748,0.011302211302211302)">



<g transform="translate(0.000000,2035.000000) scale(0.100000,-0.100000)"
fill="#000000" stroke="none">
<path d="M174 20329 c-64 -24 -119 -77 -150 -143 l-24 -51 0 -9952 0 -9952 20
-54 c25 -67 77 -122 144 -153 l51 -24 22012 0 22012 0 54 20 c67 25 122 77
153 144 l24 51 0 9952 0 9952 -20 54 c-25 67 -77 122 -144 153 l-51 24 -22015
-1 c-21873 0 -22015 0 -22066 -20z m43746 -10154 l0 -9625 -21685 0 -21685 0
0 9625 0 9625 21685 0 21685 0 0 -9625z"/>
<path d="M31335 15824 c-237 -20 -503 -49 -585 -64 -379 -69 -489 -95 -775
-182 -297 -91 -563 -198 -855 -345 -102 -51 -203 -103 -225 -116 -244 -140
-381 -227 -570 -365 -652 -476 -1179 -1064 -1587 -1770 -56 -98 -238 -453
-238 -466 0 -3 -13 -34 -29 -68 -24 -54 -49 -113 -81 -193 -4 -11 -14 -36 -20
-55 -7 -19 -19 -48 -26 -65 -16 -40 -97 -290 -124 -385 -12 -41 -25 -82 -29
-90 -7 -13 -112 -15 -832 -18 l-824 -2 1465 -1465 c806 -806 1467 -1465 1470
-1465 5 0 2930 2923 2930 2927 0 2 -364 3 -810 3 -445 0 -810 3 -810 6 0 4 18
38 40 76 22 39 40 72 40 74 0 12 160 249 226 334 293 381 684 705 1108 918 73
37 148 73 167 81 42 16 98 39 124 51 41 19 292 99 360 115 259 62 345 74 648
94 240 16 556 -8 807 -60 128 -27 428 -117 495 -148 49 -24 144 -65 190 -83
28 -11 68 -30 90 -42 22 -13 72 -40 110 -61 39 -21 87 -48 107 -59 41 -23 272
-181 303 -207 11 -10 53 -45 93 -78 l74 -61 1494 0 1495 0 -75 148 c-265 521
-628 1022 -1051 1447 -185 187 -529 475 -710 598 -49 33 -114 78 -143 99 -179
132 -732 430 -966 519 -28 11 -60 23 -71 28 -124 53 -345 128 -530 182 -16 5
-52 15 -80 23 -136 40 -450 105 -625 130 -222 32 -246 35 -365 46 -120 12
-706 21 -800 14z"/>
<path d="M5860 10180 c0 -4923 0 -4950 20 -4950 11 0 66 30 122 67 57 36 351
226 653 421 303 195 651 420 775 500 124 80 365 235 535 345 171 110 378 244
460 297 83 54 526 339 985 635 459 296 1013 653 1230 793 217 141 557 360 755
487 198 127 748 482 1222 788 475 306 865 557 868 557 3 0 5 -1098 5 -2440 l0
-2440 870 0 870 0 0 4940 0 4940 -870 0 -870 0 0 -2440 c0 -1342 -2 -2440 -5
-2440 -6 0 -11 3 -670 429 -302 195 -617 398 -700 451 -82 53 -463 298 -845
545 -382 246 -794 512 -915 590 -121 78 -362 233 -535 345 -173 112 -382 247
-465 300 -238 153 -912 588 -1000 645 -44 28 -136 88 -205 132 -69 44 -235
151 -370 238 -277 179 -288 186 -720 465 -173 111 -353 228 -400 258 -47 30
-218 141 -380 245 -162 104 -314 202 -338 218 -24 16 -52 29 -63 29 -19 0 -19
-49 -19 -4950z"/>
<path d="M34330 10175 l-1465 -1465 823 0 c452 0 822 -3 822 -6 0 -3 -26 -51
-59 -107 -304 -528 -710 -933 -1236 -1233 -29 -17 -265 -134 -295 -146 -14 -6
-34 -14 -45 -19 -190 -80 -430 -151 -640 -190 -336 -63 -779 -70 -1080 -18
-142 25 -301 59 -365 79 -14 4 -52 16 -85 25 -33 10 -69 21 -80 25 -11 4 -42
16 -70 26 -100 35 -343 147 -460 212 -125 69 -308 189 -384 251 -25 20 -76 62
-115 93 l-71 57 -1497 1 c-824 0 -1498 -3 -1498 -6 0 -7 140 -277 185 -359
117 -209 370 -582 495 -731 19 -23 51 -61 70 -85 104 -130 217 -254 391 -428
111 -113 293 -276 383 -346 22 -16 58 -46 81 -65 308 -261 914 -620 1330 -787
33 -13 74 -30 90 -37 56 -25 279 -104 385 -136 58 -17 116 -36 130 -40 29 -10
194 -52 295 -75 39 -9 88 -20 110 -25 22 -5 67 -14 100 -20 33 -6 85 -15 115
-21 85 -15 259 -38 430 -56 198 -21 801 -24 1000 -5 362 35 735 101 1000 177
30 8 71 20 90 25 101 28 339 106 395 130 11 5 45 17 75 28 101 36 338 141 483
213 1241 620 2219 1683 2729 2969 52 130 153 429 183 540 10 36 22 71 28 78 7
9 184 12 821 12 l811 0 -1465 1465 c-806 806 -1467 1465 -1470 1465 -3 0 -664
-659 -1470 -1465z"/>
</g>
</g>
<text text-anchor="middle" x="659" y="-292" font-family="Times New Roman,serif" font-size="20.00">W_Completeren aanvraag</text>
</g>
<!-- 1844884608464 -->
<g id="node2" class="node">
<title>1844884608464</title>
<polygon fill="#f7f7f7" stroke="black" points="614,-210 328,-210 328,-156 614,-156 614,-210"/>
<g transform="translate(564.0,-210.0) scale(0.011243534967393748,0.011302211302211302)">



<g transform="translate(0.000000,2035.000000) scale(0.100000,-0.100000)"
fill="#000000" stroke="none">
<path d="M174 20329 c-64 -24 -119 -77 -150 -143 l-24 -51 0 -9952 0 -9952 20
-54 c25 -67 77 -122 144 -153 l51 -24 22012 0 22012 0 54 20 c67 25 122 77
153 144 l24 51 0 9952 0 9952 -20 54 c-25 67 -77 122 -144 153 l-51 24 -22015
-1 c-21873 0 -22015 0 -22066 -20z m43746 -10154 l0 -9625 -21685 0 -21685 0
0 9625 0 9625 21685 0 21685 0 0 -9625z"/>
<path d="M31335 15824 c-237 -20 -503 -49 -585 -64 -379 -69 -489 -95 -775
-182 -297 -91 -563 -198 -855 -345 -102 -51 -203 -103 -225 -116 -244 -140
-381 -227 -570 -365 -652 -476 -1179 -1064 -1587 -1770 -56 -98 -238 -453
-238 -466 0 -3 -13 -34 -29 -68 -24 -54 -49 -113 -81 -193 -4 -11 -14 -36 -20
-55 -7 -19 -19 -48 -26 -65 -16 -40 -97 -290 -124 -385 -12 -41 -25 -82 -29
-90 -7 -13 -112 -15 -832 -18 l-824 -2 1465 -1465 c806 -806 1467 -1465 1470
-1465 5 0 2930 2923 2930 2927 0 2 -364 3 -810 3 -445 0 -810 3 -810 6 0 4 18
38 40 76 22 39 40 72 40 74 0 12 160 249 226 334 293 381 684 705 1108 918 73
37 148 73 167 81 42 16 98 39 124 51 41 19 292 99 360 115 259 62 345 74 648
94 240 16 556 -8 807 -60 128 -27 428 -117 495 -148 49 -24 144 -65 190 -83
28 -11 68 -30 90 -42 22 -13 72 -40 110 -61 39 -21 87 -48 107 -59 41 -23 272
-181 303 -207 11 -10 53 -45 93 -78 l74 -61 1494 0 1495 0 -75 148 c-265 521
-628 1022 -1051 1447 -185 187 -529 475 -710 598 -49 33 -114 78 -143 99 -179
132 -732 430 -966 519 -28 11 -60 23 -71 28 -124 53 -345 128 -530 182 -16 5
-52 15 -80 23 -136 40 -450 105 -625 130 -222 32 -246 35 -365 46 -120 12
-706 21 -800 14z"/>
<path d="M5860 10180 c0 -4923 0 -4950 20 -4950 11 0 66 30 122 67 57 36 351
226 653 421 303 195 651 420 775 500 124 80 365 235 535 345 171 110 378 244
460 297 83 54 526 339 985 635 459 296 1013 653 1230 793 217 141 557 360 755
487 198 127 748 482 1222 788 475 306 865 557 868 557 3 0 5 -1098 5 -2440 l0
-2440 870 0 870 0 0 4940 0 4940 -870 0 -870 0 0 -2440 c0 -1342 -2 -2440 -5
-2440 -6 0 -11 3 -670 429 -302 195 -617 398 -700 451 -82 53 -463 298 -845
545 -382 246 -794 512 -915 590 -121 78 -362 233 -535 345 -173 112 -382 247
-465 300 -238 153 -912 588 -1000 645 -44 28 -136 88 -205 132 -69 44 -235
151 -370 238 -277 179 -288 186 -720 465 -173 111 -353 228 -400 258 -47 30
-218 141 -380 245 -162 104 -314 202 -338 218 -24 16 -52 29 -63 29 -19 0 -19
-49 -19 -4950z"/>
<path d="M34330 10175 l-1465 -1465 823 0 c452 0 822 -3 822 -6 0 -3 -26 -51
-59 -107 -304 -528 -710 -933 -1236 -1233 -29 -17 -265 -134 -295 -146 -14 -6
-34 -14 -45 -19 -190 -80 -430 -151 -640 -190 -336 -63 -779 -70 -1080 -18
-142 25 -301 59 -365 79 -14 4 -52 16 -85 25 -33 10 -69 21 -80 25 -11 4 -42
16 -70 26 -100 35 -343 147 -460 212 -125 69 -308 189 -384 251 -25 20 -76 62
-115 93 l-71 57 -1497 1 c-824 0 -1498 -3 -1498 -6 0 -7 140 -277 185 -359
117 -209 370 -582 495 -731 19 -23 51 -61 70 -85 104 -130 217 -254 391 -428
111 -113 293 -276 383 -346 22 -16 58 -46 81 -65 308 -261 914 -620 1330 -787
33 -13 74 -30 90 -37 56 -25 279 -104 385 -136 58 -17 116 -36 130 -40 29 -10
194 -52 295 -75 39 -9 88 -20 110 -25 22 -5 67 -14 100 -20 33 -6 85 -15 115
-21 85 -15 259 -38 430 -56 198 -21 801 -24 1000 -5 362 35 735 101 1000 177
30 8 71 20 90 25 101 28 339 106 395 130 11 5 45 17 75 28 101 36 338 141 483
213 1241 620 2219 1683 2729 2969 52 130 153 429 183 540 10 36 22 71 28 78 7
9 184 12 821 12 l811 0 -1465 1465 c-806 806 -1467 1465 -1470 1465 -3 0 -664
-659 -1470 -1465z"/>
</g>
</g>
<text text-anchor="middle" x="471" y="-166" font-family="Times New Roman,serif" font-size="20.00">W_Nabellen incomplete dossiers</text>
</g>
<!-- 1844884616576&#45;&gt;1844884608464 -->
<g id="edge4" class="edge">
<title>1844884616576&#45;&gt;1844884608464</title>
<path fill="none" stroke="black" stroke-width="2" d="M619.13,-281.7C589.87,-262.4 549.99,-236.1 518.98,-215.65"/>
<polygon fill="black" stroke="black" stroke-width="2" points="520.76,-212.63 510.49,-210.05 516.91,-218.47 520.76,-212.63"/>
</g>
<!-- 1844884618784 -->
<g id="node11" class="node">
<title>1844884618784</title>
<polygon fill="#f7f7f7" stroke="black" points="889.5,-210 686.5,-210 686.5,-156 889.5,-156 889.5,-210"/>
<g transform="translate(839.5,-210.0) scale(0.011243534967393748,0.011302211302211302)">



<g transform="translate(0.000000,2035.000000) scale(0.100000,-0.100000)"
fill="#000000" stroke="none">
<path d="M174 20329 c-64 -24 -119 -77 -150 -143 l-24 -51 0 -9952 0 -9952 20
-54 c25 -67 77 -122 144 -153 l51 -24 22012 0 22012 0 54 20 c67 25 122 77
153 144 l24 51 0 9952 0 9952 -20 54 c-25 67 -77 122 -144 153 l-51 24 -22015
-1 c-21873 0 -22015 0 -22066 -20z m43746 -10154 l0 -9625 -21685 0 -21685 0
0 9625 0 9625 21685 0 21685 0 0 -9625z"/>
<path d="M31335 15824 c-237 -20 -503 -49 -585 -64 -379 -69 -489 -95 -775
-182 -297 -91 -563 -198 -855 -345 -102 -51 -203 -103 -225 -116 -244 -140
-381 -227 -570 -365 -652 -476 -1179 -1064 -1587 -1770 -56 -98 -238 -453
-238 -466 0 -3 -13 -34 -29 -68 -24 -54 -49 -113 -81 -193 -4 -11 -14 -36 -20
-55 -7 -19 -19 -48 -26 -65 -16 -40 -97 -290 -124 -385 -12 -41 -25 -82 -29
-90 -7 -13 -112 -15 -832 -18 l-824 -2 1465 -1465 c806 -806 1467 -1465 1470
-1465 5 0 2930 2923 2930 2927 0 2 -364 3 -810 3 -445 0 -810 3 -810 6 0 4 18
38 40 76 22 39 40 72 40 74 0 12 160 249 226 334 293 381 684 705 1108 918 73
37 148 73 167 81 42 16 98 39 124 51 41 19 292 99 360 115 259 62 345 74 648
94 240 16 556 -8 807 -60 128 -27 428 -117 495 -148 49 -24 144 -65 190 -83
28 -11 68 -30 90 -42 22 -13 72 -40 110 -61 39 -21 87 -48 107 -59 41 -23 272
-181 303 -207 11 -10 53 -45 93 -78 l74 -61 1494 0 1495 0 -75 148 c-265 521
-628 1022 -1051 1447 -185 187 -529 475 -710 598 -49 33 -114 78 -143 99 -179
132 -732 430 -966 519 -28 11 -60 23 -71 28 -124 53 -345 128 -530 182 -16 5
-52 15 -80 23 -136 40 -450 105 -625 130 -222 32 -246 35 -365 46 -120 12
-706 21 -800 14z"/>
<path d="M5860 10180 c0 -4923 0 -4950 20 -4950 11 0 66 30 122 67 57 36 351
226 653 421 303 195 651 420 775 500 124 80 365 235 535 345 171 110 378 244
460 297 83 54 526 339 985 635 459 296 1013 653 1230 793 217 141 557 360 755
487 198 127 748 482 1222 788 475 306 865 557 868 557 3 0 5 -1098 5 -2440 l0
-2440 870 0 870 0 0 4940 0 4940 -870 0 -870 0 0 -2440 c0 -1342 -2 -2440 -5
-2440 -6 0 -11 3 -670 429 -302 195 -617 398 -700 451 -82 53 -463 298 -845
545 -382 246 -794 512 -915 590 -121 78 -362 233 -535 345 -173 112 -382 247
-465 300 -238 153 -912 588 -1000 645 -44 28 -136 88 -205 132 -69 44 -235
151 -370 238 -277 179 -288 186 -720 465 -173 111 -353 228 -400 258 -47 30
-218 141 -380 245 -162 104 -314 202 -338 218 -24 16 -52 29 -63 29 -19 0 -19
-49 -19 -4950z"/>
<path d="M34330 10175 l-1465 -1465 823 0 c452 0 822 -3 822 -6 0 -3 -26 -51
-59 -107 -304 -528 -710 -933 -1236 -1233 -29 -17 -265 -134 -295 -146 -14 -6
-34 -14 -45 -19 -190 -80 -430 -151 -640 -190 -336 -63 -779 -70 -1080 -18
-142 25 -301 59 -365 79 -14 4 -52 16 -85 25 -33 10 -69 21 -80 25 -11 4 -42
16 -70 26 -100 35 -343 147 -460 212 -125 69 -308 189 -384 251 -25 20 -76 62
-115 93 l-71 57 -1497 1 c-824 0 -1498 -3 -1498 -6 0 -7 140 -277 185 -359
117 -209 370 -582 495 -731 19 -23 51 -61 70 -85 104 -130 217 -254 391 -428
111 -113 293 -276 383 -346 22 -16 58 -46 81 -65 308 -261 914 -620 1330 -787
33 -13 74 -30 90 -37 56 -25 279 -104 385 -136 58 -17 116 -36 130 -40 29 -10
194 -52 295 -75 39 -9 88 -20 110 -25 22 -5 67 -14 100 -20 33 -6 85 -15 115
-21 85 -15 259 -38 430 -56 198 -21 801 -24 1000 -5 362 35 735 101 1000 177
30 8 71 20 90 25 101 28 339 106 395 130 11 5 45 17 75 28 101 36 338 141 483
213 1241 620 2219 1683 2729 2969 52 130 153 429 183 540 10 36 22 71 28 78 7
9 184 12 821 12 l811 0 -1465 1465 c-806 806 -1467 1465 -1470 1465 -3 0 -664
-659 -1470 -1465z"/>
</g>
</g>
<text text-anchor="middle" x="788" y="-166" font-family="Times New Roman,serif" font-size="20.00">W_Valideren aanvraag</text>
</g>
<!-- 1844884616576&#45;&gt;1844884618784 -->
<g id="edge5" class="edge">
<title>1844884616576&#45;&gt;1844884618784</title>
<path fill="none" stroke="black" stroke-width="2" d="M686.36,-281.7C705.85,-262.96 732.22,-237.62 753.21,-217.44"/>
<polygon fill="black" stroke="black" stroke-width="2" points="755.9,-219.71 760.68,-210.26 751.05,-214.67 755.9,-219.71"/>
</g>
<!-- 1844884616384 -->
<g id="node12" class="node">
<title>1844884616384</title>
<polygon fill="black" stroke="black" points="643.5,-80.5 614.5,-80.5 614.5,-51.5 643.5,-51.5 643.5,-80.5"/>
</g>
<!-- 1844884608464&#45;&gt;1844884616384 -->
<g id="edge6" class="edge">
<title>1844884608464&#45;&gt;1844884616384</title>
<path fill="none" stroke="black" stroke-width="2" d="M506.85,-155.9C537.28,-133.76 580.03,-102.64 606.05,-83.7"/>
<polygon fill="black" stroke="black" stroke-width="2" points="608.17,-86.49 614.19,-77.78 604.05,-80.83 608.17,-86.49"/>
</g>
<!-- 1844884606112 -->
<g id="node3" class="node">
<title>1844884606112</title>
<polygon fill="#f7f7f7" stroke="black" points="963.5,-661 822.5,-661 822.5,-607 963.5,-607 963.5,-661"/>
<g transform="translate(913.5,-661.0) scale(0.011243534967393748,0.011302211302211302)">

<!--<rect width="100%" height="100%" fill="#DCDCDC"/>-->

<g transform="translate(0.000000,2035.000000) scale(0.100000,-0.100000)"
fill="#000000" stroke="none">
<path d="M174 20329 c-64 -24 -119 -77 -150 -143 l-24 -51 0 -9952 0 -9952 20
-54 c25 -67 77 -122 144 -153 l51 -24 22012 0 22012 0 54 20 c67 25 122 77
153 144 l24 51 0 9952 0 9952 -20 54 c-25 67 -77 122 -144 153 l-51 24 -22015
-1 c-21873 0 -22015 0 -22066 -20z m43746 -10154 l0 -9625 -21685 0 -21685 0
0 9625 0 9625 21685 0 21685 0 0 -9625z"/>
<path d="M17580 10180 c0 -4932 0 -4950 20 -4950 11 0 102 53 202 118 101 65
527 341 948 612 888 573 1230 793 1390 897 63 41 372 240 685 442 314 202 838
540 1165 751 327 211 795 513 1040 670 245 158 833 537 1307 843 475 306 865
557 868 557 3 0 5 -1098 5 -2440 l0 -2440 870 0 870 0 0 4940 0 4940 -870 0
-870 0 0 -2440 c0 -1342 -2 -2440 -5 -2440 -6 0 -11 3 -670 429 -302 195 -617
398 -700 451 -82 53 -463 298 -845 545 -382 246 -794 512 -915 590 -121 78
-362 233 -535 345 -173 112 -382 247 -465 300 -356 229 -925 596 -985 635 -36
23 -135 87 -220 142 -135 87 -436 281 -695 448 -44 28 -222 143 -395 255 -173
111 -353 228 -400 258 -47 30 -218 141 -380 245 -162 104 -314 202 -338 218
-24 16 -52 29 -63 29 -19 0 -19 -49 -19 -4950z"/>
</g>
</g>
<text text-anchor="middle" x="893" y="-617" font-family="Times New Roman,serif" font-size="20.00">A_DECLINED</text>
</g>
<!-- 1844884606112&#45;&gt;1844884616384 -->
<g id="edge7" class="edge">
<title>1844884606112&#45;&gt;1844884616384</title>
<path fill="none" stroke="black" stroke-width="2" d="M906.83,-606.93C927.23,-565.99 963,-483.56 963,-409 963,-409 963,-409 963,-308 963,-238.47 973.86,-206.43 926,-156 851.49,-77.48 710.78,-67.4 653.84,-66.69"/>
<polygon fill="black" stroke="black" stroke-width="2" points="653.63,-63.19 643.62,-66.66 653.61,-70.19 653.63,-63.19"/>
</g>
<!-- 1844884614560 -->
<g id="node4" class="node">
<title>1844884614560</title>
<polygon fill="#f7f7f7" stroke="black" points="473,-535 285,-535 285,-481 473,-481 473,-535"/>
<g transform="translate(423.0,-535.0) scale(0.011243534967393748,0.011302211302211302)">



<g transform="translate(0.000000,2035.000000) scale(0.100000,-0.100000)"
fill="#000000" stroke="none">
<path d="M174 20329 c-64 -24 -119 -77 -150 -143 l-24 -51 0 -9952 0 -9952 20
-54 c25 -67 77 -122 144 -153 l51 -24 22012 0 22012 0 54 20 c67 25 122 77
153 144 l24 51 0 9952 0 9952 -20 54 c-25 67 -77 122 -144 153 l-51 24 -22015
-1 c-21873 0 -22015 0 -22066 -20z m43746 -10154 l0 -9625 -21685 0 -21685 0
0 9625 0 9625 21685 0 21685 0 0 -9625z"/>
<path d="M31335 15824 c-237 -20 -503 -49 -585 -64 -379 -69 -489 -95 -775
-182 -297 -91 -563 -198 -855 -345 -102 -51 -203 -103 -225 -116 -244 -140
-381 -227 -570 -365 -652 -476 -1179 -1064 -1587 -1770 -56 -98 -238 -453
-238 -466 0 -3 -13 -34 -29 -68 -24 -54 -49 -113 -81 -193 -4 -11 -14 -36 -20
-55 -7 -19 -19 -48 -26 -65 -16 -40 -97 -290 -124 -385 -12 -41 -25 -82 -29
-90 -7 -13 -112 -15 -832 -18 l-824 -2 1465 -1465 c806 -806 1467 -1465 1470
-1465 5 0 2930 2923 2930 2927 0 2 -364 3 -810 3 -445 0 -810 3 -810 6 0 4 18
38 40 76 22 39 40 72 40 74 0 12 160 249 226 334 293 381 684 705 1108 918 73
37 148 73 167 81 42 16 98 39 124 51 41 19 292 99 360 115 259 62 345 74 648
94 240 16 556 -8 807 -60 128 -27 428 -117 495 -148 49 -24 144 -65 190 -83
28 -11 68 -30 90 -42 22 -13 72 -40 110 -61 39 -21 87 -48 107 -59 41 -23 272
-181 303 -207 11 -10 53 -45 93 -78 l74 -61 1494 0 1495 0 -75 148 c-265 521
-628 1022 -1051 1447 -185 187 -529 475 -710 598 -49 33 -114 78 -143 99 -179
132 -732 430 -966 519 -28 11 -60 23 -71 28 -124 53 -345 128 -530 182 -16 5
-52 15 -80 23 -136 40 -450 105 -625 130 -222 32 -246 35 -365 46 -120 12
-706 21 -800 14z"/>
<path d="M5860 10180 c0 -4923 0 -4950 20 -4950 11 0 66 30 122 67 57 36 351
226 653 421 303 195 651 420 775 500 124 80 365 235 535 345 171 110 378 244
460 297 83 54 526 339 985 635 459 296 1013 653 1230 793 217 141 557 360 755
487 198 127 748 482 1222 788 475 306 865 557 868 557 3 0 5 -1098 5 -2440 l0
-2440 870 0 870 0 0 4940 0 4940 -870 0 -870 0 0 -2440 c0 -1342 -2 -2440 -5
-2440 -6 0 -11 3 -670 429 -302 195 -617 398 -700 451 -82 53 -463 298 -845
545 -382 246 -794 512 -915 590 -121 78 -362 233 -535 345 -173 112 -382 247
-465 300 -238 153 -912 588 -1000 645 -44 28 -136 88 -205 132 -69 44 -235
151 -370 238 -277 179 -288 186 -720 465 -173 111 -353 228 -400 258 -47 30
-218 141 -380 245 -162 104 -314 202 -338 218 -24 16 -52 29 -63 29 -19 0 -19
-49 -19 -4950z"/>
<path d="M34330 10175 l-1465 -1465 823 0 c452 0 822 -3 822 -6 0 -3 -26 -51
-59 -107 -304 -528 -710 -933 -1236 -1233 -29 -17 -265 -134 -295 -146 -14 -6
-34 -14 -45 -19 -190 -80 -430 -151 -640 -190 -336 -63 -779 -70 -1080 -18
-142 25 -301 59 -365 79 -14 4 -52 16 -85 25 -33 10 -69 21 -80 25 -11 4 -42
16 -70 26 -100 35 -343 147 -460 212 -125 69 -308 189 -384 251 -25 20 -76 62
-115 93 l-71 57 -1497 1 c-824 0 -1498 -3 -1498 -6 0 -7 140 -277 185 -359
117 -209 370 -582 495 -731 19 -23 51 -61 70 -85 104 -130 217 -254 391 -428
111 -113 293 -276 383 -346 22 -16 58 -46 81 -65 308 -261 914 -620 1330 -787
33 -13 74 -30 90 -37 56 -25 279 -104 385 -136 58 -17 116 -36 130 -40 29 -10
194 -52 295 -75 39 -9 88 -20 110 -25 22 -5 67 -14 100 -20 33 -6 85 -15 115
-21 85 -15 259 -38 430 -56 198 -21 801 -24 1000 -5 362 35 735 101 1000 177
30 8 71 20 90 25 101 28 339 106 395 130 11 5 45 17 75 28 101 36 338 141 483
213 1241 620 2219 1683 2729 2969 52 130 153 429 183 540 10 36 22 71 28 78 7
9 184 12 821 12 l811 0 -1465 1465 c-806 806 -1467 1465 -1470 1465 -3 0 -664
-659 -1470 -1465z"/>
</g>
</g>
<text text-anchor="middle" x="379" y="-491" font-family="Times New Roman,serif" font-size="20.00">W_Afhandelen leads</text>
</g>
<!-- 1844884614560&#45;&gt;1844884616576 -->
<g id="edge8" class="edge">
<title>1844884614560&#45;&gt;1844884616576</title>
<path fill="none" stroke="black" stroke-width="2" d="M416.18,-480.84C467.02,-445.07 558.16,-380.95 613.16,-342.25"/>
<polygon fill="black" stroke="black" stroke-width="2" points="615.5,-344.89 621.66,-336.27 611.47,-339.16 615.5,-344.89"/>
</g>
<!-- 1844884618256 -->
<g id="node5" class="node">
<title>1844884618256</title>
<polygon fill="#f7f7f7" stroke="black" points="473,-336 287,-336 287,-282 473,-282 473,-336"/>
<g transform="translate(423.0,-336.0) scale(0.011243534967393748,0.011302211302211302)">



<g transform="translate(0.000000,2035.000000) scale(0.100000,-0.100000)"
fill="#000000" stroke="none">
<path d="M174 20329 c-64 -24 -119 -77 -150 -143 l-24 -51 0 -9952 0 -9952 20
-54 c25 -67 77 -122 144 -153 l51 -24 22012 0 22012 0 54 20 c67 25 122 77
153 144 l24 51 0 9952 0 9952 -20 54 c-25 67 -77 122 -144 153 l-51 24 -22015
-1 c-21873 0 -22015 0 -22066 -20z m43746 -10154 l0 -9625 -21685 0 -21685 0
0 9625 0 9625 21685 0 21685 0 0 -9625z"/>
<path d="M31335 15824 c-237 -20 -503 -49 -585 -64 -379 -69 -489 -95 -775
-182 -297 -91 -563 -198 -855 -345 -102 -51 -203 -103 -225 -116 -244 -140
-381 -227 -570 -365 -652 -476 -1179 -1064 -1587 -1770 -56 -98 -238 -453
-238 -466 0 -3 -13 -34 -29 -68 -24 -54 -49 -113 -81 -193 -4 -11 -14 -36 -20
-55 -7 -19 -19 -48 -26 -65 -16 -40 -97 -290 -124 -385 -12 -41 -25 -82 -29
-90 -7 -13 -112 -15 -832 -18 l-824 -2 1465 -1465 c806 -806 1467 -1465 1470
-1465 5 0 2930 2923 2930 2927 0 2 -364 3 -810 3 -445 0 -810 3 -810 6 0 4 18
38 40 76 22 39 40 72 40 74 0 12 160 249 226 334 293 381 684 705 1108 918 73
37 148 73 167 81 42 16 98 39 124 51 41 19 292 99 360 115 259 62 345 74 648
94 240 16 556 -8 807 -60 128 -27 428 -117 495 -148 49 -24 144 -65 190 -83
28 -11 68 -30 90 -42 22 -13 72 -40 110 -61 39 -21 87 -48 107 -59 41 -23 272
-181 303 -207 11 -10 53 -45 93 -78 l74 -61 1494 0 1495 0 -75 148 c-265 521
-628 1022 -1051 1447 -185 187 -529 475 -710 598 -49 33 -114 78 -143 99 -179
132 -732 430 -966 519 -28 11 -60 23 -71 28 -124 53 -345 128 -530 182 -16 5
-52 15 -80 23 -136 40 -450 105 -625 130 -222 32 -246 35 -365 46 -120 12
-706 21 -800 14z"/>
<path d="M5860 10180 c0 -4923 0 -4950 20 -4950 11 0 66 30 122 67 57 36 351
226 653 421 303 195 651 420 775 500 124 80 365 235 535 345 171 110 378 244
460 297 83 54 526 339 985 635 459 296 1013 653 1230 793 217 141 557 360 755
487 198 127 748 482 1222 788 475 306 865 557 868 557 3 0 5 -1098 5 -2440 l0
-2440 870 0 870 0 0 4940 0 4940 -870 0 -870 0 0 -2440 c0 -1342 -2 -2440 -5
-2440 -6 0 -11 3 -670 429 -302 195 -617 398 -700 451 -82 53 -463 298 -845
545 -382 246 -794 512 -915 590 -121 78 -362 233 -535 345 -173 112 -382 247
-465 300 -238 153 -912 588 -1000 645 -44 28 -136 88 -205 132 -69 44 -235
151 -370 238 -277 179 -288 186 -720 465 -173 111 -353 228 -400 258 -47 30
-218 141 -380 245 -162 104 -314 202 -338 218 -24 16 -52 29 -63 29 -19 0 -19
-49 -19 -4950z"/>
<path d="M34330 10175 l-1465 -1465 823 0 c452 0 822 -3 822 -6 0 -3 -26 -51
-59 -107 -304 -528 -710 -933 -1236 -1233 -29 -17 -265 -134 -295 -146 -14 -6
-34 -14 -45 -19 -190 -80 -430 -151 -640 -190 -336 -63 -779 -70 -1080 -18
-142 25 -301 59 -365 79 -14 4 -52 16 -85 25 -33 10 -69 21 -80 25 -11 4 -42
16 -70 26 -100 35 -343 147 -460 212 -125 69 -308 189 -384 251 -25 20 -76 62
-115 93 l-71 57 -1497 1 c-824 0 -1498 -3 -1498 -6 0 -7 140 -277 185 -359
117 -209 370 -582 495 -731 19 -23 51 -61 70 -85 104 -130 217 -254 391 -428
111 -113 293 -276 383 -346 22 -16 58 -46 81 -65 308 -261 914 -620 1330 -787
33 -13 74 -30 90 -37 56 -25 279 -104 385 -136 58 -17 116 -36 130 -40 29 -10
194 -52 295 -75 39 -9 88 -20 110 -25 22 -5 67 -14 100 -20 33 -6 85 -15 115
-21 85 -15 259 -38 430 -56 198 -21 801 -24 1000 -5 362 35 735 101 1000 177
30 8 71 20 90 25 101 28 339 106 395 130 11 5 45 17 75 28 101 36 338 141 483
213 1241 620 2219 1683 2729 2969 52 130 153 429 183 540 10 36 22 71 28 78 7
9 184 12 821 12 l811 0 -1465 1465 c-806 806 -1467 1465 -1470 1465 -3 0 -664
-659 -1470 -1465z"/>
</g>
</g>
<text text-anchor="middle" x="380" y="-292" font-family="Times New Roman,serif" font-size="20.00">W_Nabellen offertes</text>
</g>
<!-- 1844884614560&#45;&gt;1844884618256 -->
<g id="edge9" class="edge">
<title>1844884614560&#45;&gt;1844884618256</title>
<path fill="none" stroke="black" stroke-width="2" d="M379.13,-480.84C379.31,-446.4 379.62,-385.66 379.81,-346.65"/>
<polygon fill="black" stroke="black" stroke-width="2" points="383.32,-346.29 379.87,-336.27 376.32,-346.25 383.32,-346.29"/>
</g>
<!-- 1844884618928 -->
<g id="node8" class="node">
<title>1844884618928</title>
<polygon fill="#f2f2f2" stroke="black" points="191.5,-327 48.5,-327 48.5,-291 191.5,-291 191.5,-327"/>
<text text-anchor="middle" x="120" y="-304" font-family="Times New Roman,serif" font-size="20.00">O_SELECTED</text>
</g>
<!-- 1844884614560&#45;&gt;1844884618928 -->
<g id="edge10" class="edge">
<title>1844884614560&#45;&gt;1844884618928</title>
<path fill="none" stroke="black" stroke-width="2" d="M336.96,-481C301.12,-458.25 248.5,-423.43 203.93,-388.32"/>
<polygon fill="black" stroke="black" stroke-width="2" points="206,-385.5 196,-382 201.64,-390.97 206,-385.5"/>
</g>
<!-- 1844884618256&#45;&gt;1844884608464 -->
<g id="edge11" class="edge">
<title>1844884618256&#45;&gt;1844884608464</title>
<path fill="none" stroke="black" stroke-width="2" d="M399.3,-281.7C412.81,-263.29 431,-238.5 445.68,-218.5"/>
<polygon fill="black" stroke="black" stroke-width="2" points="448.63,-220.39 451.73,-210.26 442.99,-216.25 448.63,-220.39"/>
</g>
<!-- 1844884615088 -->
<g id="node6" class="node">
<title>1844884615088</title>
<polygon fill="#f2f2f2" stroke="black" points="773,-526 545,-526 545,-490 773,-490 773,-526"/>
<text text-anchor="middle" x="659" y="-503" font-family="Times New Roman,serif" font-size="20.00">W_Completeren aanvraag</text>
</g>
<!-- 1844884615088&#45;&gt;1844884616576 -->
<g id="edge12" class="edge">
<title>1844884615088&#45;&gt;1844884616576</title>
<path fill="none" stroke="black" stroke-width="2" d="M659,-470C659,-434.63 659,-381.6 659,-346.42"/>
<polygon fill="black" stroke="black" stroke-width="2" points="662.5,-346.17 659,-336.17 655.5,-346.17 662.5,-346.17"/>
</g>
<!-- 1844884615088&#45;&gt;1844884618256 -->
<g id="edge13" class="edge">
<title>1844884615088&#45;&gt;1844884618256</title>
<path fill="none" stroke="black" stroke-width="2" d="M606.6,-470C554.44,-433.17 475.18,-377.21 425.56,-342.17"/>
<polygon fill="black" stroke="black" stroke-width="2" points="427.25,-339.08 417.06,-336.17 423.21,-344.8 427.25,-339.08"/>
</g>
<!-- 1844884611344 -->
<g id="node7" class="node">
<title>1844884611344</title>
<polygon fill="#f2f2f2" stroke="black" points="750.5,-652 567.5,-652 567.5,-616 750.5,-616 750.5,-652"/>
<text text-anchor="middle" x="659" y="-629" font-family="Times New Roman,serif" font-size="20.00">A_PREACCEPTED</text>
</g>
<!-- 1844884611344&#45;&gt;1844884615088 -->
<g id="edge1" class="edge">
<title>1844884611344&#45;&gt;1844884615088</title>
<path fill="none" stroke="black" stroke-width="2" d="M659,-615.76C659,-595.21 659,-560.63 659,-536.41"/>
<polygon fill="black" stroke="black" stroke-width="2" points="662.5,-536.1 659,-526.1 655.5,-536.1 662.5,-536.1"/>
</g>
<!-- 1844884612880 -->
<g id="node9" class="node">
<title>1844884612880</title>
<polygon fill="#f2f2f2" stroke="black" points="182,-201 48,-201 48,-165 182,-165 182,-201"/>
<text text-anchor="middle" x="115" y="-178" font-family="Times New Roman,serif" font-size="20.00">O_CREATED</text>
</g>
<!-- 1844884618928&#45;&gt;1844884612880 -->
<g id="edge2" class="edge">
<title>1844884618928&#45;&gt;1844884612880</title>
<path fill="none" stroke="black" stroke-width="2" d="M119.3,-290.76C118.48,-270.21 117.08,-235.63 116.11,-211.41"/>
<polygon fill="black" stroke="black" stroke-width="2" points="119.59,-210.95 115.69,-201.1 112.6,-211.23 119.59,-210.95"/>
</g>
<!-- 1844884618928&#45;&gt;1844884616384 -->
<g id="edge14" class="edge">
<title>1844884618928&#45;&gt;1844884616384</title>
<path fill="none" stroke="black" stroke-width="2" d="M212,-219.91C242.87,-191.88 274,-165.62 292,-156 399.54,-98.51 546.59,-76.38 604.31,-69.57"/>
<polygon fill="black" stroke="black" stroke-width="2" points="604.78,-73.03 614.33,-68.43 604,-66.08 604.78,-73.03"/>
</g>
<!-- 1844884618400 -->
<g id="node10" class="node">
<title>1844884618400</title>
<polygon fill="#f2f2f2" stroke="black" points="169,-84 61,-84 61,-48 169,-48 169,-84"/>
<text text-anchor="middle" x="115" y="-61" font-family="Times New Roman,serif" font-size="20.00">O_SENT</text>
</g>
<!-- 1844884612880&#45;&gt;1844884618400 -->
<g id="edge3" class="edge">
<title>1844884612880&#45;&gt;1844884618400</title>
<path fill="none" stroke="black" stroke-width="2" d="M115,-164.53C115,-145.94 115,-116.24 115,-94.5"/>
<polygon fill="black" stroke="black" stroke-width="2" points="118.5,-94.25 115,-84.25 111.5,-94.25 118.5,-94.25"/>
</g>
<!-- 1844884618784&#45;&gt;1844884616384 -->
<g id="edge15" class="edge">
<title>1844884618784&#45;&gt;1844884616384</title>
<path fill="none" stroke="black" stroke-width="2" d="M751.92,-155.9C721.13,-133.64 677.81,-102.31 651.67,-83.4"/>
<polygon fill="black" stroke="black" stroke-width="2" points="653.66,-80.52 643.51,-77.49 649.56,-86.19 653.66,-80.52"/>
</g>
<!-- 1844884609808 -->
<g id="node13" class="node">
<title>1844884609808</title>
<polygon fill="#f7f7f7" stroke="black" points="571.5,-877 416.5,-877 416.5,-841 571.5,-841 571.5,-877"/>
<text text-anchor="middle" x="494" y="-854" font-family="Times New Roman,serif" font-size="20.00">A_SUBMITTED</text>
</g>
<!-- 1844884616624 -->
<g id="node14" class="node">
<title>1844884616624</title>
<polygon fill="#f7f7f7" stroke="black" points="610.5,-769 377.5,-769 377.5,-733 610.5,-733 610.5,-769"/>
<text text-anchor="middle" x="494" y="-746" font-family="Times New Roman,serif" font-size="20.00">A_PARTLYSUBMITTED</text>
</g>
<!-- 1844884609808&#45;&gt;1844884616624 -->
<g id="edge16" class="edge">
<title>1844884609808&#45;&gt;1844884616624</title>
<path fill="none" stroke="black" stroke-width="2" d="M494,-840.97C494,-824.38 494,-798.88 494,-779.43"/>
<polygon fill="black" stroke="black" stroke-width="2" points="497.5,-779.34 494,-769.34 490.5,-779.34 497.5,-779.34"/>
</g>
<!-- 1844884616624&#45;&gt;1844884606112 -->
<g id="edge17" class="edge">
<title>1844884616624&#45;&gt;1844884606112</title>
<path fill="none" stroke="black" stroke-width="2" d="M610.52,-741.26C685.76,-734.27 775.94,-722.98 811,-707 830.67,-698.03 849.1,-682.76 863.48,-668.57"/>
<polygon fill="black" stroke="black" stroke-width="2" points="866.12,-670.89 870.62,-661.3 861.12,-665.98 866.12,-670.89"/>
</g>
<!-- 1844884616624&#45;&gt;1844884614560 -->
<g id="edge18" class="edge">
<title>1844884616624&#45;&gt;1844884614560</title>
<path fill="none" stroke="black" stroke-width="2" d="M485.73,-732.67C466.97,-693.35 420.87,-596.73 395.83,-544.27"/>
<polygon fill="black" stroke="black" stroke-width="2" points="398.88,-542.53 391.41,-535.02 392.56,-545.55 398.88,-542.53"/>
</g>
<!-- 1844884616624&#45;&gt;1844884615088 -->
<g id="edge19" class="edge">
<title>1844884616624&#45;&gt;1844884615088</title>
<path fill="none" stroke="black" stroke-width="2" d="M495.04,-732.7C497.07,-708.94 503.04,-664.96 520.35,-627.93"/>
<polygon fill="black" stroke="black" stroke-width="2" points="523.64,-629.19 525,-618.68 517.38,-626.04 523.64,-629.19"/>
</g>
</g>
</svg>
