<?xml version="1.0" encoding="UTF-8" standalone="no"?>
<!DOCTYPE svg PUBLIC "-//W3C//DTD SVG 1.1//EN"
 "http://www.w3.org/Graphics/SVG/1.1/DTD/svg11.dtd">
<!-- Generated by graphviz version 6.0.1 (20220911.1526)
 -->
<!-- Title: powl Pages: 1 -->
<svg width="700pt" height="687pt"
 viewBox="0.00 0.00 700.00 687.00" xmlns="http://www.w3.org/2000/svg" xmlns:xlink="http://www.w3.org/1999/xlink">
<g id="graph0" class="graph" transform="scale(1 1) rotate(0) translate(4 683)">
<title>powl</title>
<polygon fill="white" stroke="none" points="-4,4 -4,-683 696,-683 696,4 -4,4"/>
<g id="clust1" class="cluster">
<title>cluster_1792678345264</title>
<polygon fill="#fcfcfc" stroke="black" points="8,-8 8,-671 684,-671 684,-8 8,-8"/>
</g>
<!-- 1792678344928 -->
<g id="node1" class="node">
<title>1792678344928</title>
<polygon fill="#f7f7f7" stroke="black" points="264,-309 78,-309 78,-255 264,-255 264,-309"/>
<g transform="translate(214.0,-309.0) scale(0.011243534967393748,0.011302211302211302)">



<g transform="translate(0.000000,2035.000000) scale(0.100000,-0.100000)"
fill="#000000" stroke="none">
<path d="M174 20329 c-64 -24 -119 -77 -150 -143 l-24 -51 0 -9952 0 -9952 20
-54 c25 -67 77 -122 144 -153 l51 -24 22012 0 22012 0 54 20 c67 25 122 77
153 144 l24 51 0 9952 0 9952 -20 54 c-25 67 -77 122 -144 153 l-51 24 -22015
-1 c-21873 0 -22015 0 -22066 -20z m43746 -10154 l0 -9625 -21685 0 -21685 0
0 9625 0 9625 21685 0 21685 0 0 -9625z"/>
<path d="M31335 15824 c-237 -20 -503 -49 -585 -64 -379 -69 -489 -95 -775
-182 -297 -91 -563 -198 -855 -345 -102 -51 -203 -103 -225 -116 -244 -140
-381 -227 -570 -365 -652 -476 -1179 -1064 -1587 -1770 -56 -98 -238 -453
-238 -466 0 -3 -13 -34 -29 -68 -24 -54 -49 -113 -81 -193 -4 -11 -14 -36 -20
-55 -7 -19 -19 -48 -26 -65 -16 -40 -97 -290 -124 -385 -12 -41 -25 -82 -29
-90 -7 -13 -112 -15 -832 -18 l-824 -2 1465 -1465 c806 -806 1467 -1465 1470
-1465 5 0 2930 2923 2930 2927 0 2 -364 3 -810 3 -445 0 -810 3 -810 6 0 4 18
38 40 76 22 39 40 72 40 74 0 12 160 249 226 334 293 381 684 705 1108 918 73
37 148 73 167 81 42 16 98 39 124 51 41 19 292 99 360 115 259 62 345 74 648
94 240 16 556 -8 807 -60 128 -27 428 -117 495 -148 49 -24 144 -65 190 -83
28 -11 68 -30 90 -42 22 -13 72 -40 110 -61 39 -21 87 -48 107 -59 41 -23 272
-181 303 -207 11 -10 53 -45 93 -78 l74 -61 1494 0 1495 0 -75 148 c-265 521
-628 1022 -1051 1447 -185 187 -529 475 -710 598 -49 33 -114 78 -143 99 -179
132 -732 430 -966 519 -28 11 -60 23 -71 28 -124 53 -345 128 -530 182 -16 5
-52 15 -80 23 -136 40 -450 105 -625 130 -222 32 -246 35 -365 46 -120 12
-706 21 -800 14z"/>
<path d="M5860 10180 c0 -4923 0 -4950 20 -4950 11 0 66 30 122 67 57 36 351
226 653 421 303 195 651 420 775 500 124 80 365 235 535 345 171 110 378 244
460 297 83 54 526 339 985 635 459 296 1013 653 1230 793 217 141 557 360 755
487 198 127 748 482 1222 788 475 306 865 557 868 557 3 0 5 -1098 5 -2440 l0
-2440 870 0 870 0 0 4940 0 4940 -870 0 -870 0 0 -2440 c0 -1342 -2 -2440 -5
-2440 -6 0 -11 3 -670 429 -302 195 -617 398 -700 451 -82 53 -463 298 -845
545 -382 246 -794 512 -915 590 -121 78 -362 233 -535 345 -173 112 -382 247
-465 300 -238 153 -912 588 -1000 645 -44 28 -136 88 -205 132 -69 44 -235
151 -370 238 -277 179 -288 186 -720 465 -173 111 -353 228 -400 258 -47 30
-218 141 -380 245 -162 104 -314 202 -338 218 -24 16 -52 29 -63 29 -19 0 -19
-49 -19 -4950z"/>
<path d="M34330 10175 l-1465 -1465 823 0 c452 0 822 -3 822 -6 0 -3 -26 -51
-59 -107 -304 -528 -710 -933 -1236 -1233 -29 -17 -265 -134 -295 -146 -14 -6
-34 -14 -45 -19 -190 -80 -430 -151 -640 -190 -336 -63 -779 -70 -1080 -18
-142 25 -301 59 -365 79 -14 4 -52 16 -85 25 -33 10 -69 21 -80 25 -11 4 -42
16 -70 26 -100 35 -343 147 -460 212 -125 69 -308 189 -384 251 -25 20 -76 62
-115 93 l-71 57 -1497 1 c-824 0 -1498 -3 -1498 -6 0 -7 140 -277 185 -359
117 -209 370 -582 495 -731 19 -23 51 -61 70 -85 104 -130 217 -254 391 -428
111 -113 293 -276 383 -346 22 -16 58 -46 81 -65 308 -261 914 -620 1330 -787
33 -13 74 -30 90 -37 56 -25 279 -104 385 -136 58 -17 116 -36 130 -40 29 -10
194 -52 295 -75 39 -9 88 -20 110 -25 22 -5 67 -14 100 -20 33 -6 85 -15 115
-21 85 -15 259 -38 430 -56 198 -21 801 -24 1000 -5 362 35 735 101 1000 177
30 8 71 20 90 25 101 28 339 106 395 130 11 5 45 17 75 28 101 36 338 141 483
213 1241 620 2219 1683 2729 2969 52 130 153 429 183 540 10 36 22 71 28 78 7
9 184 12 821 12 l811 0 -1465 1465 c-806 806 -1467 1465 -1470 1465 -3 0 -664
-659 -1470 -1465z"/>
</g>
</g>
<text text-anchor="middle" x="171" y="-265" font-family="Times New Roman,serif" font-size="20.00">W_Nabellen offertes</text>
</g>
<!-- 1792678343968 -->
<g id="node4" class="node">
<title>1792678343968</title>
<polygon fill="#f7f7f7" stroke="black" points="314,-183 28,-183 28,-129 314,-129 314,-183"/>
<g transform="translate(264.0,-183.0) scale(0.011243534967393748,0.011302211302211302)">



<g transform="translate(0.000000,2035.000000) scale(0.100000,-0.100000)"
fill="#000000" stroke="none">
<path d="M174 20329 c-64 -24 -119 -77 -150 -143 l-24 -51 0 -9952 0 -9952 20
-54 c25 -67 77 -122 144 -153 l51 -24 22012 0 22012 0 54 20 c67 25 122 77
153 144 l24 51 0 9952 0 9952 -20 54 c-25 67 -77 122 -144 153 l-51 24 -22015
-1 c-21873 0 -22015 0 -22066 -20z m43746 -10154 l0 -9625 -21685 0 -21685 0
0 9625 0 9625 21685 0 21685 0 0 -9625z"/>
<path d="M31335 15824 c-237 -20 -503 -49 -585 -64 -379 -69 -489 -95 -775
-182 -297 -91 -563 -198 -855 -345 -102 -51 -203 -103 -225 -116 -244 -140
-381 -227 -570 -365 -652 -476 -1179 -1064 -1587 -1770 -56 -98 -238 -453
-238 -466 0 -3 -13 -34 -29 -68 -24 -54 -49 -113 -81 -193 -4 -11 -14 -36 -20
-55 -7 -19 -19 -48 -26 -65 -16 -40 -97 -290 -124 -385 -12 -41 -25 -82 -29
-90 -7 -13 -112 -15 -832 -18 l-824 -2 1465 -1465 c806 -806 1467 -1465 1470
-1465 5 0 2930 2923 2930 2927 0 2 -364 3 -810 3 -445 0 -810 3 -810 6 0 4 18
38 40 76 22 39 40 72 40 74 0 12 160 249 226 334 293 381 684 705 1108 918 73
37 148 73 167 81 42 16 98 39 124 51 41 19 292 99 360 115 259 62 345 74 648
94 240 16 556 -8 807 -60 128 -27 428 -117 495 -148 49 -24 144 -65 190 -83
28 -11 68 -30 90 -42 22 -13 72 -40 110 -61 39 -21 87 -48 107 -59 41 -23 272
-181 303 -207 11 -10 53 -45 93 -78 l74 -61 1494 0 1495 0 -75 148 c-265 521
-628 1022 -1051 1447 -185 187 -529 475 -710 598 -49 33 -114 78 -143 99 -179
132 -732 430 -966 519 -28 11 -60 23 -71 28 -124 53 -345 128 -530 182 -16 5
-52 15 -80 23 -136 40 -450 105 -625 130 -222 32 -246 35 -365 46 -120 12
-706 21 -800 14z"/>
<path d="M5860 10180 c0 -4923 0 -4950 20 -4950 11 0 66 30 122 67 57 36 351
226 653 421 303 195 651 420 775 500 124 80 365 235 535 345 171 110 378 244
460 297 83 54 526 339 985 635 459 296 1013 653 1230 793 217 141 557 360 755
487 198 127 748 482 1222 788 475 306 865 557 868 557 3 0 5 -1098 5 -2440 l0
-2440 870 0 870 0 0 4940 0 4940 -870 0 -870 0 0 -2440 c0 -1342 -2 -2440 -5
-2440 -6 0 -11 3 -670 429 -302 195 -617 398 -700 451 -82 53 -463 298 -845
545 -382 246 -794 512 -915 590 -121 78 -362 233 -535 345 -173 112 -382 247
-465 300 -238 153 -912 588 -1000 645 -44 28 -136 88 -205 132 -69 44 -235
151 -370 238 -277 179 -288 186 -720 465 -173 111 -353 228 -400 258 -47 30
-218 141 -380 245 -162 104 -314 202 -338 218 -24 16 -52 29 -63 29 -19 0 -19
-49 -19 -4950z"/>
<path d="M34330 10175 l-1465 -1465 823 0 c452 0 822 -3 822 -6 0 -3 -26 -51
-59 -107 -304 -528 -710 -933 -1236 -1233 -29 -17 -265 -134 -295 -146 -14 -6
-34 -14 -45 -19 -190 -80 -430 -151 -640 -190 -336 -63 -779 -70 -1080 -18
-142 25 -301 59 -365 79 -14 4 -52 16 -85 25 -33 10 -69 21 -80 25 -11 4 -42
16 -70 26 -100 35 -343 147 -460 212 -125 69 -308 189 -384 251 -25 20 -76 62
-115 93 l-71 57 -1497 1 c-824 0 -1498 -3 -1498 -6 0 -7 140 -277 185 -359
117 -209 370 -582 495 -731 19 -23 51 -61 70 -85 104 -130 217 -254 391 -428
111 -113 293 -276 383 -346 22 -16 58 -46 81 -65 308 -261 914 -620 1330 -787
33 -13 74 -30 90 -37 56 -25 279 -104 385 -136 58 -17 116 -36 130 -40 29 -10
194 -52 295 -75 39 -9 88 -20 110 -25 22 -5 67 -14 100 -20 33 -6 85 -15 115
-21 85 -15 259 -38 430 -56 198 -21 801 -24 1000 -5 362 35 735 101 1000 177
30 8 71 20 90 25 101 28 339 106 395 130 11 5 45 17 75 28 101 36 338 141 483
213 1241 620 2219 1683 2729 2969 52 130 153 429 183 540 10 36 22 71 28 78 7
9 184 12 821 12 l811 0 -1465 1465 c-806 806 -1467 1465 -1470 1465 -3 0 -664
-659 -1470 -1465z"/>
</g>
</g>
<text text-anchor="middle" x="171" y="-139" font-family="Times New Roman,serif" font-size="20.00">W_Nabellen incomplete dossiers</text>
</g>
<!-- 1792678344928&#45;&gt;1792678343968 -->
<g id="edge1" class="edge">
<title>1792678344928&#45;&gt;1792678343968</title>
<path fill="none" stroke="black" stroke-width="2" d="M171,-254.7C171,-236.87 171,-213.05 171,-193.39"/>
<polygon fill="black" stroke="black" stroke-width="2" points="174.5,-193.26 171,-183.26 167.5,-193.26 174.5,-193.26"/>
</g>
<!-- 1792678345072 -->
<g id="node2" class="node">
<title>1792678345072</title>
<polygon fill="#f7f7f7" stroke="black" points="589.5,-183 386.5,-183 386.5,-129 589.5,-129 589.5,-183"/>
<g transform="translate(539.5,-183.0) scale(0.011243534967393748,0.011302211302211302)">



<g transform="translate(0.000000,2035.000000) scale(0.100000,-0.100000)"
fill="#000000" stroke="none">
<path d="M174 20329 c-64 -24 -119 -77 -150 -143 l-24 -51 0 -9952 0 -9952 20
-54 c25 -67 77 -122 144 -153 l51 -24 22012 0 22012 0 54 20 c67 25 122 77
153 144 l24 51 0 9952 0 9952 -20 54 c-25 67 -77 122 -144 153 l-51 24 -22015
-1 c-21873 0 -22015 0 -22066 -20z m43746 -10154 l0 -9625 -21685 0 -21685 0
0 9625 0 9625 21685 0 21685 0 0 -9625z"/>
<path d="M31335 15824 c-237 -20 -503 -49 -585 -64 -379 -69 -489 -95 -775
-182 -297 -91 -563 -198 -855 -345 -102 -51 -203 -103 -225 -116 -244 -140
-381 -227 -570 -365 -652 -476 -1179 -1064 -1587 -1770 -56 -98 -238 -453
-238 -466 0 -3 -13 -34 -29 -68 -24 -54 -49 -113 -81 -193 -4 -11 -14 -36 -20
-55 -7 -19 -19 -48 -26 -65 -16 -40 -97 -290 -124 -385 -12 -41 -25 -82 -29
-90 -7 -13 -112 -15 -832 -18 l-824 -2 1465 -1465 c806 -806 1467 -1465 1470
-1465 5 0 2930 2923 2930 2927 0 2 -364 3 -810 3 -445 0 -810 3 -810 6 0 4 18
38 40 76 22 39 40 72 40 74 0 12 160 249 226 334 293 381 684 705 1108 918 73
37 148 73 167 81 42 16 98 39 124 51 41 19 292 99 360 115 259 62 345 74 648
94 240 16 556 -8 807 -60 128 -27 428 -117 495 -148 49 -24 144 -65 190 -83
28 -11 68 -30 90 -42 22 -13 72 -40 110 -61 39 -21 87 -48 107 -59 41 -23 272
-181 303 -207 11 -10 53 -45 93 -78 l74 -61 1494 0 1495 0 -75 148 c-265 521
-628 1022 -1051 1447 -185 187 -529 475 -710 598 -49 33 -114 78 -143 99 -179
132 -732 430 -966 519 -28 11 -60 23 -71 28 -124 53 -345 128 -530 182 -16 5
-52 15 -80 23 -136 40 -450 105 -625 130 -222 32 -246 35 -365 46 -120 12
-706 21 -800 14z"/>
<path d="M5860 10180 c0 -4923 0 -4950 20 -4950 11 0 66 30 122 67 57 36 351
226 653 421 303 195 651 420 775 500 124 80 365 235 535 345 171 110 378 244
460 297 83 54 526 339 985 635 459 296 1013 653 1230 793 217 141 557 360 755
487 198 127 748 482 1222 788 475 306 865 557 868 557 3 0 5 -1098 5 -2440 l0
-2440 870 0 870 0 0 4940 0 4940 -870 0 -870 0 0 -2440 c0 -1342 -2 -2440 -5
-2440 -6 0 -11 3 -670 429 -302 195 -617 398 -700 451 -82 53 -463 298 -845
545 -382 246 -794 512 -915 590 -121 78 -362 233 -535 345 -173 112 -382 247
-465 300 -238 153 -912 588 -1000 645 -44 28 -136 88 -205 132 -69 44 -235
151 -370 238 -277 179 -288 186 -720 465 -173 111 -353 228 -400 258 -47 30
-218 141 -380 245 -162 104 -314 202 -338 218 -24 16 -52 29 -63 29 -19 0 -19
-49 -19 -4950z"/>
<path d="M34330 10175 l-1465 -1465 823 0 c452 0 822 -3 822 -6 0 -3 -26 -51
-59 -107 -304 -528 -710 -933 -1236 -1233 -29 -17 -265 -134 -295 -146 -14 -6
-34 -14 -45 -19 -190 -80 -430 -151 -640 -190 -336 -63 -779 -70 -1080 -18
-142 25 -301 59 -365 79 -14 4 -52 16 -85 25 -33 10 -69 21 -80 25 -11 4 -42
16 -70 26 -100 35 -343 147 -460 212 -125 69 -308 189 -384 251 -25 20 -76 62
-115 93 l-71 57 -1497 1 c-824 0 -1498 -3 -1498 -6 0 -7 140 -277 185 -359
117 -209 370 -582 495 -731 19 -23 51 -61 70 -85 104 -130 217 -254 391 -428
111 -113 293 -276 383 -346 22 -16 58 -46 81 -65 308 -261 914 -620 1330 -787
33 -13 74 -30 90 -37 56 -25 279 -104 385 -136 58 -17 116 -36 130 -40 29 -10
194 -52 295 -75 39 -9 88 -20 110 -25 22 -5 67 -14 100 -20 33 -6 85 -15 115
-21 85 -15 259 -38 430 -56 198 -21 801 -24 1000 -5 362 35 735 101 1000 177
30 8 71 20 90 25 101 28 339 106 395 130 11 5 45 17 75 28 101 36 338 141 483
213 1241 620 2219 1683 2729 2969 52 130 153 429 183 540 10 36 22 71 28 78 7
9 184 12 821 12 l811 0 -1465 1465 c-806 806 -1467 1465 -1470 1465 -3 0 -664
-659 -1470 -1465z"/>
</g>
</g>
<text text-anchor="middle" x="488" y="-139" font-family="Times New Roman,serif" font-size="20.00">W_Valideren aanvraag</text>
</g>
<!-- 1792678337344 -->
<g id="node7" class="node">
<title>1792678337344</title>
<polygon fill="black" stroke="black" points="502.5,-57 473.5,-57 473.5,-28 502.5,-28 502.5,-57"/>
</g>
<!-- 1792678345072&#45;&gt;1792678337344 -->
<g id="edge2" class="edge">
<title>1792678345072&#45;&gt;1792678337344</title>
<path fill="none" stroke="black" stroke-width="2" d="M488,-128.86C488,-110.22 488,-85.36 488,-67.28"/>
<polygon fill="black" stroke="black" stroke-width="2" points="491.5,-67.27 488,-57.27 484.5,-67.27 491.5,-67.27"/>
</g>
<!-- 1792678337872 -->
<g id="node3" class="node">
<title>1792678337872</title>
<polygon fill="#f7f7f7" stroke="black" points="564,-309 336,-309 336,-255 564,-255 564,-309"/>
<g transform="translate(514.0,-309.0) scale(0.011243534967393748,0.011302211302211302)">



<g transform="translate(0.000000,2035.000000) scale(0.100000,-0.100000)"
fill="#000000" stroke="none">
<path d="M174 20329 c-64 -24 -119 -77 -150 -143 l-24 -51 0 -9952 0 -9952 20
-54 c25 -67 77 -122 144 -153 l51 -24 22012 0 22012 0 54 20 c67 25 122 77
153 144 l24 51 0 9952 0 9952 -20 54 c-25 67 -77 122 -144 153 l-51 24 -22015
-1 c-21873 0 -22015 0 -22066 -20z m43746 -10154 l0 -9625 -21685 0 -21685 0
0 9625 0 9625 21685 0 21685 0 0 -9625z"/>
<path d="M31335 15824 c-237 -20 -503 -49 -585 -64 -379 -69 -489 -95 -775
-182 -297 -91 -563 -198 -855 -345 -102 -51 -203 -103 -225 -116 -244 -140
-381 -227 -570 -365 -652 -476 -1179 -1064 -1587 -1770 -56 -98 -238 -453
-238 -466 0 -3 -13 -34 -29 -68 -24 -54 -49 -113 -81 -193 -4 -11 -14 -36 -20
-55 -7 -19 -19 -48 -26 -65 -16 -40 -97 -290 -124 -385 -12 -41 -25 -82 -29
-90 -7 -13 -112 -15 -832 -18 l-824 -2 1465 -1465 c806 -806 1467 -1465 1470
-1465 5 0 2930 2923 2930 2927 0 2 -364 3 -810 3 -445 0 -810 3 -810 6 0 4 18
38 40 76 22 39 40 72 40 74 0 12 160 249 226 334 293 381 684 705 1108 918 73
37 148 73 167 81 42 16 98 39 124 51 41 19 292 99 360 115 259 62 345 74 648
94 240 16 556 -8 807 -60 128 -27 428 -117 495 -148 49 -24 144 -65 190 -83
28 -11 68 -30 90 -42 22 -13 72 -40 110 -61 39 -21 87 -48 107 -59 41 -23 272
-181 303 -207 11 -10 53 -45 93 -78 l74 -61 1494 0 1495 0 -75 148 c-265 521
-628 1022 -1051 1447 -185 187 -529 475 -710 598 -49 33 -114 78 -143 99 -179
132 -732 430 -966 519 -28 11 -60 23 -71 28 -124 53 -345 128 -530 182 -16 5
-52 15 -80 23 -136 40 -450 105 -625 130 -222 32 -246 35 -365 46 -120 12
-706 21 -800 14z"/>
<path d="M5860 10180 c0 -4923 0 -4950 20 -4950 11 0 66 30 122 67 57 36 351
226 653 421 303 195 651 420 775 500 124 80 365 235 535 345 171 110 378 244
460 297 83 54 526 339 985 635 459 296 1013 653 1230 793 217 141 557 360 755
487 198 127 748 482 1222 788 475 306 865 557 868 557 3 0 5 -1098 5 -2440 l0
-2440 870 0 870 0 0 4940 0 4940 -870 0 -870 0 0 -2440 c0 -1342 -2 -2440 -5
-2440 -6 0 -11 3 -670 429 -302 195 -617 398 -700 451 -82 53 -463 298 -845
545 -382 246 -794 512 -915 590 -121 78 -362 233 -535 345 -173 112 -382 247
-465 300 -238 153 -912 588 -1000 645 -44 28 -136 88 -205 132 -69 44 -235
151 -370 238 -277 179 -288 186 -720 465 -173 111 -353 228 -400 258 -47 30
-218 141 -380 245 -162 104 -314 202 -338 218 -24 16 -52 29 -63 29 -19 0 -19
-49 -19 -4950z"/>
<path d="M34330 10175 l-1465 -1465 823 0 c452 0 822 -3 822 -6 0 -3 -26 -51
-59 -107 -304 -528 -710 -933 -1236 -1233 -29 -17 -265 -134 -295 -146 -14 -6
-34 -14 -45 -19 -190 -80 -430 -151 -640 -190 -336 -63 -779 -70 -1080 -18
-142 25 -301 59 -365 79 -14 4 -52 16 -85 25 -33 10 -69 21 -80 25 -11 4 -42
16 -70 26 -100 35 -343 147 -460 212 -125 69 -308 189 -384 251 -25 20 -76 62
-115 93 l-71 57 -1497 1 c-824 0 -1498 -3 -1498 -6 0 -7 140 -277 185 -359
117 -209 370 -582 495 -731 19 -23 51 -61 70 -85 104 -130 217 -254 391 -428
111 -113 293 -276 383 -346 22 -16 58 -46 81 -65 308 -261 914 -620 1330 -787
33 -13 74 -30 90 -37 56 -25 279 -104 385 -136 58 -17 116 -36 130 -40 29 -10
194 -52 295 -75 39 -9 88 -20 110 -25 22 -5 67 -14 100 -20 33 -6 85 -15 115
-21 85 -15 259 -38 430 -56 198 -21 801 -24 1000 -5 362 35 735 101 1000 177
30 8 71 20 90 25 101 28 339 106 395 130 11 5 45 17 75 28 101 36 338 141 483
213 1241 620 2219 1683 2729 2969 52 130 153 429 183 540 10 36 22 71 28 78 7
9 184 12 821 12 l811 0 -1465 1465 c-806 806 -1467 1465 -1470 1465 -3 0 -664
-659 -1470 -1465z"/>
</g>
</g>
<text text-anchor="middle" x="450" y="-265" font-family="Times New Roman,serif" font-size="20.00">W_Completeren aanvraag</text>
</g>
<!-- 1792678337872&#45;&gt;1792678345072 -->
<g id="edge3" class="edge">
<title>1792678337872&#45;&gt;1792678345072</title>
<path fill="none" stroke="black" stroke-width="2" d="M458.06,-254.7C463.58,-236.7 470.96,-212.61 477.01,-192.85"/>
<polygon fill="black" stroke="black" stroke-width="2" points="480.37,-193.85 479.95,-183.26 473.68,-191.79 480.37,-193.85"/>
</g>
<!-- 1792678337872&#45;&gt;1792678343968 -->
<g id="edge4" class="edge">
<title>1792678337872&#45;&gt;1792678343968</title>
<path fill="none" stroke="black" stroke-width="2" d="M391.17,-254.85C346.75,-235.11 285.7,-207.98 239.15,-187.29"/>
<polygon fill="black" stroke="black" stroke-width="2" points="240.31,-183.97 229.75,-183.11 237.46,-190.37 240.31,-183.97"/>
</g>
<!-- 1792678343968&#45;&gt;1792678337344 -->
<g id="edge5" class="edge">
<title>1792678343968&#45;&gt;1792678337344</title>
<path fill="none" stroke="black" stroke-width="2" d="M244.92,-129C315.51,-104.17 417.74,-68.21 463.85,-52"/>
<polygon fill="black" stroke="black" stroke-width="2" points="465.04,-55.29 473.31,-48.67 462.71,-48.68 465.04,-55.29"/>
</g>
<!-- 1792678337632 -->
<g id="node5" class="node">
<title>1792678337632</title>
<polygon fill="#f7f7f7" stroke="black" points="450,-435 262,-435 262,-381 450,-381 450,-435"/>
<g transform="translate(400.0,-435.0) scale(0.011243534967393748,0.011302211302211302)">



<g transform="translate(0.000000,2035.000000) scale(0.100000,-0.100000)"
fill="#000000" stroke="none">
<path d="M174 20329 c-64 -24 -119 -77 -150 -143 l-24 -51 0 -9952 0 -9952 20
-54 c25 -67 77 -122 144 -153 l51 -24 22012 0 22012 0 54 20 c67 25 122 77
153 144 l24 51 0 9952 0 9952 -20 54 c-25 67 -77 122 -144 153 l-51 24 -22015
-1 c-21873 0 -22015 0 -22066 -20z m43746 -10154 l0 -9625 -21685 0 -21685 0
0 9625 0 9625 21685 0 21685 0 0 -9625z"/>
<path d="M31335 15824 c-237 -20 -503 -49 -585 -64 -379 -69 -489 -95 -775
-182 -297 -91 -563 -198 -855 -345 -102 -51 -203 -103 -225 -116 -244 -140
-381 -227 -570 -365 -652 -476 -1179 -1064 -1587 -1770 -56 -98 -238 -453
-238 -466 0 -3 -13 -34 -29 -68 -24 -54 -49 -113 -81 -193 -4 -11 -14 -36 -20
-55 -7 -19 -19 -48 -26 -65 -16 -40 -97 -290 -124 -385 -12 -41 -25 -82 -29
-90 -7 -13 -112 -15 -832 -18 l-824 -2 1465 -1465 c806 -806 1467 -1465 1470
-1465 5 0 2930 2923 2930 2927 0 2 -364 3 -810 3 -445 0 -810 3 -810 6 0 4 18
38 40 76 22 39 40 72 40 74 0 12 160 249 226 334 293 381 684 705 1108 918 73
37 148 73 167 81 42 16 98 39 124 51 41 19 292 99 360 115 259 62 345 74 648
94 240 16 556 -8 807 -60 128 -27 428 -117 495 -148 49 -24 144 -65 190 -83
28 -11 68 -30 90 -42 22 -13 72 -40 110 -61 39 -21 87 -48 107 -59 41 -23 272
-181 303 -207 11 -10 53 -45 93 -78 l74 -61 1494 0 1495 0 -75 148 c-265 521
-628 1022 -1051 1447 -185 187 -529 475 -710 598 -49 33 -114 78 -143 99 -179
132 -732 430 -966 519 -28 11 -60 23 -71 28 -124 53 -345 128 -530 182 -16 5
-52 15 -80 23 -136 40 -450 105 -625 130 -222 32 -246 35 -365 46 -120 12
-706 21 -800 14z"/>
<path d="M5860 10180 c0 -4923 0 -4950 20 -4950 11 0 66 30 122 67 57 36 351
226 653 421 303 195 651 420 775 500 124 80 365 235 535 345 171 110 378 244
460 297 83 54 526 339 985 635 459 296 1013 653 1230 793 217 141 557 360 755
487 198 127 748 482 1222 788 475 306 865 557 868 557 3 0 5 -1098 5 -2440 l0
-2440 870 0 870 0 0 4940 0 4940 -870 0 -870 0 0 -2440 c0 -1342 -2 -2440 -5
-2440 -6 0 -11 3 -670 429 -302 195 -617 398 -700 451 -82 53 -463 298 -845
545 -382 246 -794 512 -915 590 -121 78 -362 233 -535 345 -173 112 -382 247
-465 300 -238 153 -912 588 -1000 645 -44 28 -136 88 -205 132 -69 44 -235
151 -370 238 -277 179 -288 186 -720 465 -173 111 -353 228 -400 258 -47 30
-218 141 -380 245 -162 104 -314 202 -338 218 -24 16 -52 29 -63 29 -19 0 -19
-49 -19 -4950z"/>
<path d="M34330 10175 l-1465 -1465 823 0 c452 0 822 -3 822 -6 0 -3 -26 -51
-59 -107 -304 -528 -710 -933 -1236 -1233 -29 -17 -265 -134 -295 -146 -14 -6
-34 -14 -45 -19 -190 -80 -430 -151 -640 -190 -336 -63 -779 -70 -1080 -18
-142 25 -301 59 -365 79 -14 4 -52 16 -85 25 -33 10 -69 21 -80 25 -11 4 -42
16 -70 26 -100 35 -343 147 -460 212 -125 69 -308 189 -384 251 -25 20 -76 62
-115 93 l-71 57 -1497 1 c-824 0 -1498 -3 -1498 -6 0 -7 140 -277 185 -359
117 -209 370 -582 495 -731 19 -23 51 -61 70 -85 104 -130 217 -254 391 -428
111 -113 293 -276 383 -346 22 -16 58 -46 81 -65 308 -261 914 -620 1330 -787
33 -13 74 -30 90 -37 56 -25 279 -104 385 -136 58 -17 116 -36 130 -40 29 -10
194 -52 295 -75 39 -9 88 -20 110 -25 22 -5 67 -14 100 -20 33 -6 85 -15 115
-21 85 -15 259 -38 430 -56 198 -21 801 -24 1000 -5 362 35 735 101 1000 177
30 8 71 20 90 25 101 28 339 106 395 130 11 5 45 17 75 28 101 36 338 141 483
213 1241 620 2219 1683 2729 2969 52 130 153 429 183 540 10 36 22 71 28 78 7
9 184 12 821 12 l811 0 -1465 1465 c-806 806 -1467 1465 -1470 1465 -3 0 -664
-659 -1470 -1465z"/>
</g>
</g>
<text text-anchor="middle" x="356" y="-391" font-family="Times New Roman,serif" font-size="20.00">W_Afhandelen leads</text>
</g>
<!-- 1792678337632&#45;&gt;1792678344928 -->
<g id="edge6" class="edge">
<title>1792678337632&#45;&gt;1792678344928</title>
<path fill="none" stroke="black" stroke-width="2" d="M316.77,-380.7C287.97,-361.4 248.73,-335.1 218.22,-314.65"/>
<polygon fill="black" stroke="black" stroke-width="2" points="220.11,-311.71 209.86,-309.05 216.22,-317.52 220.11,-311.71"/>
</g>
<!-- 1792678337632&#45;&gt;1792678337872 -->
<g id="edge7" class="edge">
<title>1792678337632&#45;&gt;1792678337872</title>
<path fill="none" stroke="black" stroke-width="2" d="M375.93,-380.7C389.96,-362.21 408.85,-337.28 424.05,-317.24"/>
<polygon fill="black" stroke="black" stroke-width="2" points="426.84,-319.34 430.09,-309.26 421.26,-315.11 426.84,-319.34"/>
</g>
<!-- 1792678337392 -->
<g id="node6" class="node">
<title>1792678337392</title>
<polygon fill="#f7f7f7" stroke="black" points="663.5,-435 522.5,-435 522.5,-381 663.5,-381 663.5,-435"/>
<g transform="translate(613.5,-435.0) scale(0.011243534967393748,0.011302211302211302)">

<!--<rect width="100%" height="100%" fill="#DCDCDC"/>-->

<g transform="translate(0.000000,2035.000000) scale(0.100000,-0.100000)"
fill="#000000" stroke="none">
<path d="M174 20329 c-64 -24 -119 -77 -150 -143 l-24 -51 0 -9952 0 -9952 20
-54 c25 -67 77 -122 144 -153 l51 -24 22012 0 22012 0 54 20 c67 25 122 77
153 144 l24 51 0 9952 0 9952 -20 54 c-25 67 -77 122 -144 153 l-51 24 -22015
-1 c-21873 0 -22015 0 -22066 -20z m43746 -10154 l0 -9625 -21685 0 -21685 0
0 9625 0 9625 21685 0 21685 0 0 -9625z"/>
<path d="M17580 10180 c0 -4932 0 -4950 20 -4950 11 0 102 53 202 118 101 65
527 341 948 612 888 573 1230 793 1390 897 63 41 372 240 685 442 314 202 838
540 1165 751 327 211 795 513 1040 670 245 158 833 537 1307 843 475 306 865
557 868 557 3 0 5 -1098 5 -2440 l0 -2440 870 0 870 0 0 4940 0 4940 -870 0
-870 0 0 -2440 c0 -1342 -2 -2440 -5 -2440 -6 0 -11 3 -670 429 -302 195 -617
398 -700 451 -82 53 -463 298 -845 545 -382 246 -794 512 -915 590 -121 78
-362 233 -535 345 -173 112 -382 247 -465 300 -356 229 -925 596 -985 635 -36
23 -135 87 -220 142 -135 87 -436 281 -695 448 -44 28 -222 143 -395 255 -173
111 -353 228 -400 258 -47 30 -218 141 -380 245 -162 104 -314 202 -338 218
-24 16 -52 29 -63 29 -19 0 -19 -49 -19 -4950z"/>
</g>
</g>
<text text-anchor="middle" x="593" y="-391" font-family="Times New Roman,serif" font-size="20.00">A_DECLINED</text>
</g>
<!-- 1792678337392&#45;&gt;1792678337344 -->
<g id="edge8" class="edge">
<title>1792678337392&#45;&gt;1792678337344</title>
<path fill="none" stroke="black" stroke-width="2" d="M605.76,-380.88C629.05,-329.16 671.99,-211.59 626,-129 601.75,-85.45 545.14,-61.27 512.46,-50.48"/>
<polygon fill="black" stroke="black" stroke-width="2" points="513.35,-47.09 502.76,-47.43 511.25,-53.77 513.35,-47.09"/>
</g>
<!-- 1792678346320 -->
<g id="node8" class="node">
<title>1792678346320</title>
<polygon fill="#f7f7f7" stroke="black" points="528.5,-651 373.5,-651 373.5,-615 528.5,-615 528.5,-651"/>
<text text-anchor="middle" x="451" y="-628" font-family="Times New Roman,serif" font-size="20.00">A_SUBMITTED</text>
</g>
<!-- 1792678341952 -->
<g id="node9" class="node">
<title>1792678341952</title>
<polygon fill="#f7f7f7" stroke="black" points="567.5,-543 334.5,-543 334.5,-507 567.5,-507 567.5,-543"/>
<text text-anchor="middle" x="451" y="-520" font-family="Times New Roman,serif" font-size="20.00">A_PARTLYSUBMITTED</text>
</g>
<!-- 1792678346320&#45;&gt;1792678341952 -->
<g id="edge9" class="edge">
<title>1792678346320&#45;&gt;1792678341952</title>
<path fill="none" stroke="black" stroke-width="2" d="M451,-614.97C451,-598.38 451,-572.88 451,-553.43"/>
<polygon fill="black" stroke="black" stroke-width="2" points="454.5,-553.34 451,-543.34 447.5,-553.34 454.5,-553.34"/>
</g>
<!-- 1792678341952&#45;&gt;1792678337632 -->
<g id="edge10" class="edge">
<title>1792678341952&#45;&gt;1792678337632</title>
<path fill="none" stroke="black" stroke-width="2" d="M436.57,-506.53C422.67,-489.71 401.27,-463.8 384.02,-442.92"/>
<polygon fill="black" stroke="black" stroke-width="2" points="386.7,-440.67 377.63,-435.19 381.3,-445.13 386.7,-440.67"/>
</g>
<!-- 1792678341952&#45;&gt;1792678337392 -->
<g id="edge11" class="edge">
<title>1792678341952&#45;&gt;1792678337392</title>
<path fill="none" stroke="black" stroke-width="2" d="M472.26,-506.78C493.5,-489.58 526.69,-462.7 552.9,-441.48"/>
<polygon fill="black" stroke="black" stroke-width="2" points="555.22,-444.1 560.79,-435.09 550.81,-438.66 555.22,-444.1"/>
</g>
</g>
</svg>
