<?xml version="1.0" encoding="UTF-8" standalone="no"?>
<!DOCTYPE svg PUBLIC "-//W3C//DTD SVG 1.1//EN"
 "http://www.w3.org/Graphics/SVG/1.1/DTD/svg11.dtd">
<!-- Generated by graphviz version 6.0.1 (20220911.1526)
 -->
<!-- Title: powl Pages: 1 -->
<svg width="1335pt" height="1112pt"
 viewBox="0.00 0.00 1335.00 1112.00" xmlns="http://www.w3.org/2000/svg" xmlns:xlink="http://www.w3.org/1999/xlink">
<g id="graph0" class="graph" transform="scale(1 1) rotate(0) translate(4 1108)">
<title>powl</title>
<polygon fill="white" stroke="none" points="-4,4 -4,-1108 1331,-1108 1331,4 -4,4"/>
<g id="clust1" class="cluster">
<title>cluster_2928129913328</title>
<polygon fill="#fcfcfc" stroke="black" points="8,-8 8,-1096 1319,-1096 1319,-8 8,-8"/>
</g>
<g id="clust2" class="cluster">
<title>cluster_2928129914336</title>
<polygon fill="#f7f7f7" stroke="black" points="1097,-109 1097,-337 1279,-337 1279,-109 1097,-109"/>
<g transform="translate(1218.5,-330.5) scale(0.011468405666741623,0.011302211302211302)">



<g transform="translate(0.000000,2035.000000) scale(0.100000,-0.100000)"
fill="#000000" stroke="none">
<path d="M174 20329 c-64 -24 -119 -77 -150 -143 l-24 -51 0 -9952 0 -9952 20
-54 c25 -67 77 -122 144 -153 l51 -24 22012 0 22012 0 54 20 c67 25 122 77
153 144 l24 51 0 9952 0 9952 -20 54 c-25 67 -77 122 -144 153 l-51 24 -22015
-1 c-21873 0 -22015 0 -22066 -20z m43746 -10154 l0 -9625 -21685 0 -21685 0
0 9625 0 9625 21685 0 21685 0 0 -9625z"/>
<path d="M31335 15824 c-237 -20 -503 -49 -585 -64 -379 -69 -489 -95 -775
-182 -297 -91 -563 -198 -855 -345 -102 -51 -203 -103 -225 -116 -244 -140
-381 -227 -570 -365 -652 -476 -1179 -1064 -1587 -1770 -56 -98 -238 -453
-238 -466 0 -3 -13 -34 -29 -68 -24 -54 -49 -113 -81 -193 -4 -11 -14 -36 -20
-55 -7 -19 -19 -48 -26 -65 -16 -40 -97 -290 -124 -385 -12 -41 -25 -82 -29
-90 -7 -13 -112 -15 -832 -18 l-824 -2 1465 -1465 c806 -806 1467 -1465 1470
-1465 5 0 2930 2923 2930 2927 0 2 -364 3 -810 3 -445 0 -810 3 -810 6 0 4 18
38 40 76 22 39 40 72 40 74 0 12 160 249 226 334 293 381 684 705 1108 918 73
37 148 73 167 81 42 16 98 39 124 51 41 19 292 99 360 115 259 62 345 74 648
94 240 16 556 -8 807 -60 128 -27 428 -117 495 -148 49 -24 144 -65 190 -83
28 -11 68 -30 90 -42 22 -13 72 -40 110 -61 39 -21 87 -48 107 -59 41 -23 272
-181 303 -207 11 -10 53 -45 93 -78 l74 -61 1494 0 1495 0 -75 148 c-265 521
-628 1022 -1051 1447 -185 187 -529 475 -710 598 -49 33 -114 78 -143 99 -179
132 -732 430 -966 519 -28 11 -60 23 -71 28 -124 53 -345 128 -530 182 -16 5
-52 15 -80 23 -136 40 -450 105 -625 130 -222 32 -246 35 -365 46 -120 12
-706 21 -800 14z"/>
<path d="M5860 10180 c0 -4923 0 -4950 20 -4950 11 0 66 30 122 67 57 36 351
226 653 421 303 195 651 420 775 500 124 80 365 235 535 345 171 110 378 244
460 297 83 54 526 339 985 635 459 296 1013 653 1230 793 217 141 557 360 755
487 198 127 748 482 1222 788 475 306 865 557 868 557 3 0 5 -1098 5 -2440 l0
-2440 870 0 870 0 0 4940 0 4940 -870 0 -870 0 0 -2440 c0 -1342 -2 -2440 -5
-2440 -6 0 -11 3 -670 429 -302 195 -617 398 -700 451 -82 53 -463 298 -845
545 -382 246 -794 512 -915 590 -121 78 -362 233 -535 345 -173 112 -382 247
-465 300 -238 153 -912 588 -1000 645 -44 28 -136 88 -205 132 -69 44 -235
151 -370 238 -277 179 -288 186 -720 465 -173 111 -353 228 -400 258 -47 30
-218 141 -380 245 -162 104 -314 202 -338 218 -24 16 -52 29 -63 29 -19 0 -19
-49 -19 -4950z"/>
<path d="M34330 10175 l-1465 -1465 823 0 c452 0 822 -3 822 -6 0 -3 -26 -51
-59 -107 -304 -528 -710 -933 -1236 -1233 -29 -17 -265 -134 -295 -146 -14 -6
-34 -14 -45 -19 -190 -80 -430 -151 -640 -190 -336 -63 -779 -70 -1080 -18
-142 25 -301 59 -365 79 -14 4 -52 16 -85 25 -33 10 -69 21 -80 25 -11 4 -42
16 -70 26 -100 35 -343 147 -460 212 -125 69 -308 189 -384 251 -25 20 -76 62
-115 93 l-71 57 -1497 1 c-824 0 -1498 -3 -1498 -6 0 -7 140 -277 185 -359
117 -209 370 -582 495 -731 19 -23 51 -61 70 -85 104 -130 217 -254 391 -428
111 -113 293 -276 383 -346 22 -16 58 -46 81 -65 308 -261 914 -620 1330 -787
33 -13 74 -30 90 -37 56 -25 279 -104 385 -136 58 -17 116 -36 130 -40 29 -10
194 -52 295 -75 39 -9 88 -20 110 -25 22 -5 67 -14 100 -20 33 -6 85 -15 115
-21 85 -15 259 -38 430 -56 198 -21 801 -24 1000 -5 362 35 735 101 1000 177
30 8 71 20 90 25 101 28 339 106 395 130 11 5 45 17 75 28 101 36 338 141 483
213 1241 620 2219 1683 2729 2969 52 130 153 429 183 540 10 36 22 71 28 78 7
9 184 12 821 12 l811 0 -1465 1465 c-806 806 -1467 1465 -1470 1465 -3 0 -664
-659 -1470 -1465z"/>
</g>
</g>
</g>
<!-- 2928129913760 -->
<g id="node1" class="node">
<title>2928129913760</title>
<polygon fill="#f2f2f2" stroke="black" points="1259,-282 1117,-282 1117,-246 1259,-246 1259,-282"/>
<text text-anchor="middle" x="1188" y="-259" font-family="Times New Roman,serif" font-size="20.00">O_Create Offer</text>
</g>
<!-- 2928129914048 -->
<g id="node2" class="node">
<title>2928129914048</title>
<polygon fill="#f2f2f2" stroke="black" points="1225,-165 1117,-165 1117,-129 1225,-129 1225,-165"/>
<text text-anchor="middle" x="1171" y="-142" font-family="Times New Roman,serif" font-size="20.00">O_Created</text>
</g>
<!-- 2928129913760&#45;&gt;2928129914048 -->
<g id="edge1" class="edge">
<title>2928129913760&#45;&gt;2928129914048</title>
<path fill="none" stroke="black" stroke-width="2" d="M1185.42,-245.53C1182.66,-226.85 1178.24,-196.97 1175.02,-175.2"/>
<polygon fill="black" stroke="black" stroke-width="2" points="1178.48,-174.63 1173.55,-165.25 1171.55,-175.66 1178.48,-174.63"/>
</g>
<!-- 2928129916064 -->
<g id="node11" class="node">
<title>2928129916064</title>
<polygon fill="black" stroke="black" points="741.5,-57 712.5,-57 712.5,-28 741.5,-28 741.5,-57"/>
</g>
<!-- 2928129913760&#45;&gt;2928129916064 -->
<g id="edge2" class="edge">
<title>2928129913760&#45;&gt;2928129916064</title>
<path fill="none" stroke="black" stroke-width="2" d="M1261,-109C1226.73,-70.27 852.17,-49.53 751.68,-44.64"/>
<polygon fill="black" stroke="black" stroke-width="2" points="751.73,-41.14 741.57,-44.16 751.39,-48.13 751.73,-41.14"/>
</g>
<!-- 2928129913568 -->
<g id="node3" class="node">
<title>2928129913568</title>
<polygon fill="#f7f7f7" stroke="black" points="686.5,-291 513.5,-291 513.5,-237 686.5,-237 686.5,-291"/>
<g transform="translate(636.5,-291.0) scale(0.011243534967393748,0.011302211302211302)">



<g transform="translate(0.000000,2035.000000) scale(0.100000,-0.100000)"
fill="#000000" stroke="none">
<path d="M174 20329 c-64 -24 -119 -77 -150 -143 l-24 -51 0 -9952 0 -9952 20
-54 c25 -67 77 -122 144 -153 l51 -24 22012 0 22012 0 54 20 c67 25 122 77
153 144 l24 51 0 9952 0 9952 -20 54 c-25 67 -77 122 -144 153 l-51 24 -22015
-1 c-21873 0 -22015 0 -22066 -20z m43746 -10154 l0 -9625 -21685 0 -21685 0
0 9625 0 9625 21685 0 21685 0 0 -9625z"/>
<path d="M31335 15824 c-237 -20 -503 -49 -585 -64 -379 -69 -489 -95 -775
-182 -297 -91 -563 -198 -855 -345 -102 -51 -203 -103 -225 -116 -244 -140
-381 -227 -570 -365 -652 -476 -1179 -1064 -1587 -1770 -56 -98 -238 -453
-238 -466 0 -3 -13 -34 -29 -68 -24 -54 -49 -113 -81 -193 -4 -11 -14 -36 -20
-55 -7 -19 -19 -48 -26 -65 -16 -40 -97 -290 -124 -385 -12 -41 -25 -82 -29
-90 -7 -13 -112 -15 -832 -18 l-824 -2 1465 -1465 c806 -806 1467 -1465 1470
-1465 5 0 2930 2923 2930 2927 0 2 -364 3 -810 3 -445 0 -810 3 -810 6 0 4 18
38 40 76 22 39 40 72 40 74 0 12 160 249 226 334 293 381 684 705 1108 918 73
37 148 73 167 81 42 16 98 39 124 51 41 19 292 99 360 115 259 62 345 74 648
94 240 16 556 -8 807 -60 128 -27 428 -117 495 -148 49 -24 144 -65 190 -83
28 -11 68 -30 90 -42 22 -13 72 -40 110 -61 39 -21 87 -48 107 -59 41 -23 272
-181 303 -207 11 -10 53 -45 93 -78 l74 -61 1494 0 1495 0 -75 148 c-265 521
-628 1022 -1051 1447 -185 187 -529 475 -710 598 -49 33 -114 78 -143 99 -179
132 -732 430 -966 519 -28 11 -60 23 -71 28 -124 53 -345 128 -530 182 -16 5
-52 15 -80 23 -136 40 -450 105 -625 130 -222 32 -246 35 -365 46 -120 12
-706 21 -800 14z"/>
<path d="M5860 10180 c0 -4923 0 -4950 20 -4950 11 0 66 30 122 67 57 36 351
226 653 421 303 195 651 420 775 500 124 80 365 235 535 345 171 110 378 244
460 297 83 54 526 339 985 635 459 296 1013 653 1230 793 217 141 557 360 755
487 198 127 748 482 1222 788 475 306 865 557 868 557 3 0 5 -1098 5 -2440 l0
-2440 870 0 870 0 0 4940 0 4940 -870 0 -870 0 0 -2440 c0 -1342 -2 -2440 -5
-2440 -6 0 -11 3 -670 429 -302 195 -617 398 -700 451 -82 53 -463 298 -845
545 -382 246 -794 512 -915 590 -121 78 -362 233 -535 345 -173 112 -382 247
-465 300 -238 153 -912 588 -1000 645 -44 28 -136 88 -205 132 -69 44 -235
151 -370 238 -277 179 -288 186 -720 465 -173 111 -353 228 -400 258 -47 30
-218 141 -380 245 -162 104 -314 202 -338 218 -24 16 -52 29 -63 29 -19 0 -19
-49 -19 -4950z"/>
<path d="M34330 10175 l-1465 -1465 823 0 c452 0 822 -3 822 -6 0 -3 -26 -51
-59 -107 -304 -528 -710 -933 -1236 -1233 -29 -17 -265 -134 -295 -146 -14 -6
-34 -14 -45 -19 -190 -80 -430 -151 -640 -190 -336 -63 -779 -70 -1080 -18
-142 25 -301 59 -365 79 -14 4 -52 16 -85 25 -33 10 -69 21 -80 25 -11 4 -42
16 -70 26 -100 35 -343 147 -460 212 -125 69 -308 189 -384 251 -25 20 -76 62
-115 93 l-71 57 -1497 1 c-824 0 -1498 -3 -1498 -6 0 -7 140 -277 185 -359
117 -209 370 -582 495 -731 19 -23 51 -61 70 -85 104 -130 217 -254 391 -428
111 -113 293 -276 383 -346 22 -16 58 -46 81 -65 308 -261 914 -620 1330 -787
33 -13 74 -30 90 -37 56 -25 279 -104 385 -136 58 -17 116 -36 130 -40 29 -10
194 -52 295 -75 39 -9 88 -20 110 -25 22 -5 67 -14 100 -20 33 -6 85 -15 115
-21 85 -15 259 -38 430 -56 198 -21 801 -24 1000 -5 362 35 735 101 1000 177
30 8 71 20 90 25 101 28 339 106 395 130 11 5 45 17 75 28 101 36 338 141 483
213 1241 620 2219 1683 2729 2969 52 130 153 429 183 540 10 36 22 71 28 78 7
9 184 12 821 12 l811 0 -1465 1465 c-806 806 -1467 1465 -1470 1465 -3 0 -664
-659 -1470 -1465z"/>
</g>
</g>
<text text-anchor="middle" x="600" y="-247" font-family="Times New Roman,serif" font-size="20.00">W_Call after offers</text>
</g>
<!-- 2928129913568&#45;&gt;2928129916064 -->
<g id="edge3" class="edge">
<title>2928129913568&#45;&gt;2928129916064</title>
<path fill="none" stroke="black" stroke-width="2" d="M615.07,-236.96C640.24,-193.45 690.42,-106.72 714.08,-65.82"/>
<polygon fill="black" stroke="black" stroke-width="2" points="717.13,-67.55 719.11,-57.14 711.07,-64.04 717.13,-67.55"/>
</g>
<!-- 2928129914192 -->
<g id="node4" class="node">
<title>2928129914192</title>
<polygon fill="#f7f7f7" stroke="black" points="154,-291 28,-291 28,-237 154,-237 154,-291"/>
<g transform="translate(104.0,-291.0) scale(0.011243534967393748,0.011302211302211302)">



<g transform="translate(0.000000,2035.000000) scale(0.100000,-0.100000)"
fill="#000000" stroke="none">
<path d="M174 20329 c-64 -24 -119 -77 -150 -143 l-24 -51 0 -9952 0 -9952 20
-54 c25 -67 77 -122 144 -153 l51 -24 22012 0 22012 0 54 20 c67 25 122 77
153 144 l24 51 0 9952 0 9952 -20 54 c-25 67 -77 122 -144 153 l-51 24 -22015
-1 c-21873 0 -22015 0 -22066 -20z m43746 -10154 l0 -9625 -21685 0 -21685 0
0 9625 0 9625 21685 0 21685 0 0 -9625z"/>
<path d="M31335 15824 c-237 -20 -503 -49 -585 -64 -379 -69 -489 -95 -775
-182 -297 -91 -563 -198 -855 -345 -102 -51 -203 -103 -225 -116 -244 -140
-381 -227 -570 -365 -652 -476 -1179 -1064 -1587 -1770 -56 -98 -238 -453
-238 -466 0 -3 -13 -34 -29 -68 -24 -54 -49 -113 -81 -193 -4 -11 -14 -36 -20
-55 -7 -19 -19 -48 -26 -65 -16 -40 -97 -290 -124 -385 -12 -41 -25 -82 -29
-90 -7 -13 -112 -15 -832 -18 l-824 -2 1465 -1465 c806 -806 1467 -1465 1470
-1465 5 0 2930 2923 2930 2927 0 2 -364 3 -810 3 -445 0 -810 3 -810 6 0 4 18
38 40 76 22 39 40 72 40 74 0 12 160 249 226 334 293 381 684 705 1108 918 73
37 148 73 167 81 42 16 98 39 124 51 41 19 292 99 360 115 259 62 345 74 648
94 240 16 556 -8 807 -60 128 -27 428 -117 495 -148 49 -24 144 -65 190 -83
28 -11 68 -30 90 -42 22 -13 72 -40 110 -61 39 -21 87 -48 107 -59 41 -23 272
-181 303 -207 11 -10 53 -45 93 -78 l74 -61 1494 0 1495 0 -75 148 c-265 521
-628 1022 -1051 1447 -185 187 -529 475 -710 598 -49 33 -114 78 -143 99 -179
132 -732 430 -966 519 -28 11 -60 23 -71 28 -124 53 -345 128 -530 182 -16 5
-52 15 -80 23 -136 40 -450 105 -625 130 -222 32 -246 35 -365 46 -120 12
-706 21 -800 14z"/>
<path d="M5860 10180 c0 -4923 0 -4950 20 -4950 11 0 66 30 122 67 57 36 351
226 653 421 303 195 651 420 775 500 124 80 365 235 535 345 171 110 378 244
460 297 83 54 526 339 985 635 459 296 1013 653 1230 793 217 141 557 360 755
487 198 127 748 482 1222 788 475 306 865 557 868 557 3 0 5 -1098 5 -2440 l0
-2440 870 0 870 0 0 4940 0 4940 -870 0 -870 0 0 -2440 c0 -1342 -2 -2440 -5
-2440 -6 0 -11 3 -670 429 -302 195 -617 398 -700 451 -82 53 -463 298 -845
545 -382 246 -794 512 -915 590 -121 78 -362 233 -535 345 -173 112 -382 247
-465 300 -238 153 -912 588 -1000 645 -44 28 -136 88 -205 132 -69 44 -235
151 -370 238 -277 179 -288 186 -720 465 -173 111 -353 228 -400 258 -47 30
-218 141 -380 245 -162 104 -314 202 -338 218 -24 16 -52 29 -63 29 -19 0 -19
-49 -19 -4950z"/>
<path d="M34330 10175 l-1465 -1465 823 0 c452 0 822 -3 822 -6 0 -3 -26 -51
-59 -107 -304 -528 -710 -933 -1236 -1233 -29 -17 -265 -134 -295 -146 -14 -6
-34 -14 -45 -19 -190 -80 -430 -151 -640 -190 -336 -63 -779 -70 -1080 -18
-142 25 -301 59 -365 79 -14 4 -52 16 -85 25 -33 10 -69 21 -80 25 -11 4 -42
16 -70 26 -100 35 -343 147 -460 212 -125 69 -308 189 -384 251 -25 20 -76 62
-115 93 l-71 57 -1497 1 c-824 0 -1498 -3 -1498 -6 0 -7 140 -277 185 -359
117 -209 370 -582 495 -731 19 -23 51 -61 70 -85 104 -130 217 -254 391 -428
111 -113 293 -276 383 -346 22 -16 58 -46 81 -65 308 -261 914 -620 1330 -787
33 -13 74 -30 90 -37 56 -25 279 -104 385 -136 58 -17 116 -36 130 -40 29 -10
194 -52 295 -75 39 -9 88 -20 110 -25 22 -5 67 -14 100 -20 33 -6 85 -15 115
-21 85 -15 259 -38 430 -56 198 -21 801 -24 1000 -5 362 35 735 101 1000 177
30 8 71 20 90 25 101 28 339 106 395 130 11 5 45 17 75 28 101 36 338 141 483
213 1241 620 2219 1683 2729 2969 52 130 153 429 183 540 10 36 22 71 28 78 7
9 184 12 821 12 l811 0 -1465 1465 c-806 806 -1467 1465 -1470 1465 -3 0 -664
-659 -1470 -1465z"/>
</g>
</g>
<text text-anchor="middle" x="91" y="-247" font-family="Times New Roman,serif" font-size="20.00">A_Validating</text>
</g>
<!-- 2928129914192&#45;&gt;2928129916064 -->
<g id="edge4" class="edge">
<title>2928129914192&#45;&gt;2928129916064</title>
<path fill="none" stroke="black" stroke-width="2" d="M154.2,-237.42C234.09,-205.5 376.14,-150.12 500,-109 572.88,-84.81 660.56,-60.97 702.42,-49.91"/>
<polygon fill="black" stroke="black" stroke-width="2" points="703.49,-53.24 712.27,-47.32 701.71,-46.48 703.49,-53.24"/>
</g>
<!-- 2928129905552 -->
<g id="node5" class="node">
<title>2928129905552</title>
<polygon fill="#f7f7f7" stroke="black" points="1155,-417 931,-417 931,-363 1155,-363 1155,-417"/>
<g transform="translate(1105.0,-417.0) scale(0.011243534967393748,0.011302211302211302)">



<g transform="translate(0.000000,2035.000000) scale(0.100000,-0.100000)"
fill="#000000" stroke="none">
<path d="M174 20329 c-64 -24 -119 -77 -150 -143 l-24 -51 0 -9952 0 -9952 20
-54 c25 -67 77 -122 144 -153 l51 -24 22012 0 22012 0 54 20 c67 25 122 77
153 144 l24 51 0 9952 0 9952 -20 54 c-25 67 -77 122 -144 153 l-51 24 -22015
-1 c-21873 0 -22015 0 -22066 -20z m43746 -10154 l0 -9625 -21685 0 -21685 0
0 9625 0 9625 21685 0 21685 0 0 -9625z"/>
<path d="M31335 15824 c-237 -20 -503 -49 -585 -64 -379 -69 -489 -95 -775
-182 -297 -91 -563 -198 -855 -345 -102 -51 -203 -103 -225 -116 -244 -140
-381 -227 -570 -365 -652 -476 -1179 -1064 -1587 -1770 -56 -98 -238 -453
-238 -466 0 -3 -13 -34 -29 -68 -24 -54 -49 -113 -81 -193 -4 -11 -14 -36 -20
-55 -7 -19 -19 -48 -26 -65 -16 -40 -97 -290 -124 -385 -12 -41 -25 -82 -29
-90 -7 -13 -112 -15 -832 -18 l-824 -2 1465 -1465 c806 -806 1467 -1465 1470
-1465 5 0 2930 2923 2930 2927 0 2 -364 3 -810 3 -445 0 -810 3 -810 6 0 4 18
38 40 76 22 39 40 72 40 74 0 12 160 249 226 334 293 381 684 705 1108 918 73
37 148 73 167 81 42 16 98 39 124 51 41 19 292 99 360 115 259 62 345 74 648
94 240 16 556 -8 807 -60 128 -27 428 -117 495 -148 49 -24 144 -65 190 -83
28 -11 68 -30 90 -42 22 -13 72 -40 110 -61 39 -21 87 -48 107 -59 41 -23 272
-181 303 -207 11 -10 53 -45 93 -78 l74 -61 1494 0 1495 0 -75 148 c-265 521
-628 1022 -1051 1447 -185 187 -529 475 -710 598 -49 33 -114 78 -143 99 -179
132 -732 430 -966 519 -28 11 -60 23 -71 28 -124 53 -345 128 -530 182 -16 5
-52 15 -80 23 -136 40 -450 105 -625 130 -222 32 -246 35 -365 46 -120 12
-706 21 -800 14z"/>
<path d="M5860 10180 c0 -4923 0 -4950 20 -4950 11 0 66 30 122 67 57 36 351
226 653 421 303 195 651 420 775 500 124 80 365 235 535 345 171 110 378 244
460 297 83 54 526 339 985 635 459 296 1013 653 1230 793 217 141 557 360 755
487 198 127 748 482 1222 788 475 306 865 557 868 557 3 0 5 -1098 5 -2440 l0
-2440 870 0 870 0 0 4940 0 4940 -870 0 -870 0 0 -2440 c0 -1342 -2 -2440 -5
-2440 -6 0 -11 3 -670 429 -302 195 -617 398 -700 451 -82 53 -463 298 -845
545 -382 246 -794 512 -915 590 -121 78 -362 233 -535 345 -173 112 -382 247
-465 300 -238 153 -912 588 -1000 645 -44 28 -136 88 -205 132 -69 44 -235
151 -370 238 -277 179 -288 186 -720 465 -173 111 -353 228 -400 258 -47 30
-218 141 -380 245 -162 104 -314 202 -338 218 -24 16 -52 29 -63 29 -19 0 -19
-49 -19 -4950z"/>
<path d="M34330 10175 l-1465 -1465 823 0 c452 0 822 -3 822 -6 0 -3 -26 -51
-59 -107 -304 -528 -710 -933 -1236 -1233 -29 -17 -265 -134 -295 -146 -14 -6
-34 -14 -45 -19 -190 -80 -430 -151 -640 -190 -336 -63 -779 -70 -1080 -18
-142 25 -301 59 -365 79 -14 4 -52 16 -85 25 -33 10 -69 21 -80 25 -11 4 -42
16 -70 26 -100 35 -343 147 -460 212 -125 69 -308 189 -384 251 -25 20 -76 62
-115 93 l-71 57 -1497 1 c-824 0 -1498 -3 -1498 -6 0 -7 140 -277 185 -359
117 -209 370 -582 495 -731 19 -23 51 -61 70 -85 104 -130 217 -254 391 -428
111 -113 293 -276 383 -346 22 -16 58 -46 81 -65 308 -261 914 -620 1330 -787
33 -13 74 -30 90 -37 56 -25 279 -104 385 -136 58 -17 116 -36 130 -40 29 -10
194 -52 295 -75 39 -9 88 -20 110 -25 22 -5 67 -14 100 -20 33 -6 85 -15 115
-21 85 -15 259 -38 430 -56 198 -21 801 -24 1000 -5 362 35 735 101 1000 177
30 8 71 20 90 25 101 28 339 106 395 130 11 5 45 17 75 28 101 36 338 141 483
213 1241 620 2219 1683 2729 2969 52 130 153 429 183 540 10 36 22 71 28 78 7
9 184 12 821 12 l811 0 -1465 1465 c-806 806 -1467 1465 -1470 1465 -3 0 -664
-659 -1470 -1465z"/>
</g>
</g>
<text text-anchor="middle" x="1043" y="-373" font-family="Times New Roman,serif" font-size="20.00">O_Sent (mail and online)</text>
</g>
<!-- 2928129905552&#45;&gt;2928129916064 -->
<g id="edge5" class="edge">
<title>2928129905552&#45;&gt;2928129916064</title>
<path fill="none" stroke="black" stroke-width="2" d="M1042.4,-362.8C1040.48,-330.57 1033.23,-275.4 1007,-237 940.15,-139.14 806.17,-75.84 751.29,-53.02"/>
<polygon fill="black" stroke="black" stroke-width="2" points="752.29,-49.65 741.71,-49.12 749.64,-56.13 752.29,-49.65"/>
</g>
<!-- 2928129909152 -->
<g id="node6" class="node">
<title>2928129909152</title>
<polygon fill="#f7f7f7" stroke="black" points="971,-291 759,-291 759,-237 971,-237 971,-291"/>
<g transform="translate(921.0,-291.0) scale(0.011243534967393748,0.011302211302211302)">



<g transform="translate(0.000000,2035.000000) scale(0.100000,-0.100000)"
fill="#000000" stroke="none">
<path d="M174 20329 c-64 -24 -119 -77 -150 -143 l-24 -51 0 -9952 0 -9952 20
-54 c25 -67 77 -122 144 -153 l51 -24 22012 0 22012 0 54 20 c67 25 122 77
153 144 l24 51 0 9952 0 9952 -20 54 c-25 67 -77 122 -144 153 l-51 24 -22015
-1 c-21873 0 -22015 0 -22066 -20z m43746 -10154 l0 -9625 -21685 0 -21685 0
0 9625 0 9625 21685 0 21685 0 0 -9625z"/>
<path d="M31335 15824 c-237 -20 -503 -49 -585 -64 -379 -69 -489 -95 -775
-182 -297 -91 -563 -198 -855 -345 -102 -51 -203 -103 -225 -116 -244 -140
-381 -227 -570 -365 -652 -476 -1179 -1064 -1587 -1770 -56 -98 -238 -453
-238 -466 0 -3 -13 -34 -29 -68 -24 -54 -49 -113 -81 -193 -4 -11 -14 -36 -20
-55 -7 -19 -19 -48 -26 -65 -16 -40 -97 -290 -124 -385 -12 -41 -25 -82 -29
-90 -7 -13 -112 -15 -832 -18 l-824 -2 1465 -1465 c806 -806 1467 -1465 1470
-1465 5 0 2930 2923 2930 2927 0 2 -364 3 -810 3 -445 0 -810 3 -810 6 0 4 18
38 40 76 22 39 40 72 40 74 0 12 160 249 226 334 293 381 684 705 1108 918 73
37 148 73 167 81 42 16 98 39 124 51 41 19 292 99 360 115 259 62 345 74 648
94 240 16 556 -8 807 -60 128 -27 428 -117 495 -148 49 -24 144 -65 190 -83
28 -11 68 -30 90 -42 22 -13 72 -40 110 -61 39 -21 87 -48 107 -59 41 -23 272
-181 303 -207 11 -10 53 -45 93 -78 l74 -61 1494 0 1495 0 -75 148 c-265 521
-628 1022 -1051 1447 -185 187 -529 475 -710 598 -49 33 -114 78 -143 99 -179
132 -732 430 -966 519 -28 11 -60 23 -71 28 -124 53 -345 128 -530 182 -16 5
-52 15 -80 23 -136 40 -450 105 -625 130 -222 32 -246 35 -365 46 -120 12
-706 21 -800 14z"/>
<path d="M5860 10180 c0 -4923 0 -4950 20 -4950 11 0 66 30 122 67 57 36 351
226 653 421 303 195 651 420 775 500 124 80 365 235 535 345 171 110 378 244
460 297 83 54 526 339 985 635 459 296 1013 653 1230 793 217 141 557 360 755
487 198 127 748 482 1222 788 475 306 865 557 868 557 3 0 5 -1098 5 -2440 l0
-2440 870 0 870 0 0 4940 0 4940 -870 0 -870 0 0 -2440 c0 -1342 -2 -2440 -5
-2440 -6 0 -11 3 -670 429 -302 195 -617 398 -700 451 -82 53 -463 298 -845
545 -382 246 -794 512 -915 590 -121 78 -362 233 -535 345 -173 112 -382 247
-465 300 -238 153 -912 588 -1000 645 -44 28 -136 88 -205 132 -69 44 -235
151 -370 238 -277 179 -288 186 -720 465 -173 111 -353 228 -400 258 -47 30
-218 141 -380 245 -162 104 -314 202 -338 218 -24 16 -52 29 -63 29 -19 0 -19
-49 -19 -4950z"/>
<path d="M34330 10175 l-1465 -1465 823 0 c452 0 822 -3 822 -6 0 -3 -26 -51
-59 -107 -304 -528 -710 -933 -1236 -1233 -29 -17 -265 -134 -295 -146 -14 -6
-34 -14 -45 -19 -190 -80 -430 -151 -640 -190 -336 -63 -779 -70 -1080 -18
-142 25 -301 59 -365 79 -14 4 -52 16 -85 25 -33 10 -69 21 -80 25 -11 4 -42
16 -70 26 -100 35 -343 147 -460 212 -125 69 -308 189 -384 251 -25 20 -76 62
-115 93 l-71 57 -1497 1 c-824 0 -1498 -3 -1498 -6 0 -7 140 -277 185 -359
117 -209 370 -582 495 -731 19 -23 51 -61 70 -85 104 -130 217 -254 391 -428
111 -113 293 -276 383 -346 22 -16 58 -46 81 -65 308 -261 914 -620 1330 -787
33 -13 74 -30 90 -37 56 -25 279 -104 385 -136 58 -17 116 -36 130 -40 29 -10
194 -52 295 -75 39 -9 88 -20 110 -25 22 -5 67 -14 100 -20 33 -6 85 -15 115
-21 85 -15 259 -38 430 -56 198 -21 801 -24 1000 -5 362 35 735 101 1000 177
30 8 71 20 90 25 101 28 339 106 395 130 11 5 45 17 75 28 101 36 338 141 483
213 1241 620 2219 1683 2729 2969 52 130 153 429 183 540 10 36 22 71 28 78 7
9 184 12 821 12 l811 0 -1465 1465 c-806 806 -1467 1465 -1470 1465 -3 0 -664
-659 -1470 -1465z"/>
</g>
</g>
<text text-anchor="middle" x="865" y="-247" font-family="Times New Roman,serif" font-size="20.00">W_Validate application</text>
</g>
<!-- 2928129909152&#45;&gt;2928129916064 -->
<g id="edge6" class="edge">
<title>2928129909152&#45;&gt;2928129916064</title>
<path fill="none" stroke="black" stroke-width="2" d="M848.63,-236.96C821.27,-193.45 766.74,-106.72 741.03,-65.82"/>
<polygon fill="black" stroke="black" stroke-width="2" points="743.86,-63.74 735.58,-57.14 737.94,-67.47 743.86,-63.74"/>
</g>
<!-- 2928129914480 -->
<g id="node7" class="node">
<title>2928129914480</title>
<polygon fill="#f7f7f7" stroke="black" points="711,-417 489,-417 489,-363 711,-363 711,-417"/>
<g transform="translate(661.0,-417.0) scale(0.011243534967393748,0.011302211302211302)">



<g transform="translate(0.000000,2035.000000) scale(0.100000,-0.100000)"
fill="#000000" stroke="none">
<path d="M174 20329 c-64 -24 -119 -77 -150 -143 l-24 -51 0 -9952 0 -9952 20
-54 c25 -67 77 -122 144 -153 l51 -24 22012 0 22012 0 54 20 c67 25 122 77
153 144 l24 51 0 9952 0 9952 -20 54 c-25 67 -77 122 -144 153 l-51 24 -22015
-1 c-21873 0 -22015 0 -22066 -20z m43746 -10154 l0 -9625 -21685 0 -21685 0
0 9625 0 9625 21685 0 21685 0 0 -9625z"/>
<path d="M31335 15824 c-237 -20 -503 -49 -585 -64 -379 -69 -489 -95 -775
-182 -297 -91 -563 -198 -855 -345 -102 -51 -203 -103 -225 -116 -244 -140
-381 -227 -570 -365 -652 -476 -1179 -1064 -1587 -1770 -56 -98 -238 -453
-238 -466 0 -3 -13 -34 -29 -68 -24 -54 -49 -113 -81 -193 -4 -11 -14 -36 -20
-55 -7 -19 -19 -48 -26 -65 -16 -40 -97 -290 -124 -385 -12 -41 -25 -82 -29
-90 -7 -13 -112 -15 -832 -18 l-824 -2 1465 -1465 c806 -806 1467 -1465 1470
-1465 5 0 2930 2923 2930 2927 0 2 -364 3 -810 3 -445 0 -810 3 -810 6 0 4 18
38 40 76 22 39 40 72 40 74 0 12 160 249 226 334 293 381 684 705 1108 918 73
37 148 73 167 81 42 16 98 39 124 51 41 19 292 99 360 115 259 62 345 74 648
94 240 16 556 -8 807 -60 128 -27 428 -117 495 -148 49 -24 144 -65 190 -83
28 -11 68 -30 90 -42 22 -13 72 -40 110 -61 39 -21 87 -48 107 -59 41 -23 272
-181 303 -207 11 -10 53 -45 93 -78 l74 -61 1494 0 1495 0 -75 148 c-265 521
-628 1022 -1051 1447 -185 187 -529 475 -710 598 -49 33 -114 78 -143 99 -179
132 -732 430 -966 519 -28 11 -60 23 -71 28 -124 53 -345 128 -530 182 -16 5
-52 15 -80 23 -136 40 -450 105 -625 130 -222 32 -246 35 -365 46 -120 12
-706 21 -800 14z"/>
<path d="M5860 10180 c0 -4923 0 -4950 20 -4950 11 0 66 30 122 67 57 36 351
226 653 421 303 195 651 420 775 500 124 80 365 235 535 345 171 110 378 244
460 297 83 54 526 339 985 635 459 296 1013 653 1230 793 217 141 557 360 755
487 198 127 748 482 1222 788 475 306 865 557 868 557 3 0 5 -1098 5 -2440 l0
-2440 870 0 870 0 0 4940 0 4940 -870 0 -870 0 0 -2440 c0 -1342 -2 -2440 -5
-2440 -6 0 -11 3 -670 429 -302 195 -617 398 -700 451 -82 53 -463 298 -845
545 -382 246 -794 512 -915 590 -121 78 -362 233 -535 345 -173 112 -382 247
-465 300 -238 153 -912 588 -1000 645 -44 28 -136 88 -205 132 -69 44 -235
151 -370 238 -277 179 -288 186 -720 465 -173 111 -353 228 -400 258 -47 30
-218 141 -380 245 -162 104 -314 202 -338 218 -24 16 -52 29 -63 29 -19 0 -19
-49 -19 -4950z"/>
<path d="M34330 10175 l-1465 -1465 823 0 c452 0 822 -3 822 -6 0 -3 -26 -51
-59 -107 -304 -528 -710 -933 -1236 -1233 -29 -17 -265 -134 -295 -146 -14 -6
-34 -14 -45 -19 -190 -80 -430 -151 -640 -190 -336 -63 -779 -70 -1080 -18
-142 25 -301 59 -365 79 -14 4 -52 16 -85 25 -33 10 -69 21 -80 25 -11 4 -42
16 -70 26 -100 35 -343 147 -460 212 -125 69 -308 189 -384 251 -25 20 -76 62
-115 93 l-71 57 -1497 1 c-824 0 -1498 -3 -1498 -6 0 -7 140 -277 185 -359
117 -209 370 -582 495 -731 19 -23 51 -61 70 -85 104 -130 217 -254 391 -428
111 -113 293 -276 383 -346 22 -16 58 -46 81 -65 308 -261 914 -620 1330 -787
33 -13 74 -30 90 -37 56 -25 279 -104 385 -136 58 -17 116 -36 130 -40 29 -10
194 -52 295 -75 39 -9 88 -20 110 -25 22 -5 67 -14 100 -20 33 -6 85 -15 115
-21 85 -15 259 -38 430 -56 198 -21 801 -24 1000 -5 362 35 735 101 1000 177
30 8 71 20 90 25 101 28 339 106 395 130 11 5 45 17 75 28 101 36 338 141 483
213 1241 620 2219 1683 2729 2969 52 130 153 429 183 540 10 36 22 71 28 78 7
9 184 12 821 12 l811 0 -1465 1465 c-806 806 -1467 1465 -1470 1465 -3 0 -664
-659 -1470 -1465z"/>
</g>
</g>
<text text-anchor="middle" x="600" y="-373" font-family="Times New Roman,serif" font-size="20.00">W_Complete application</text>
</g>
<!-- 2928129914480&#45;&gt;2928129913568 -->
<g id="edge7" class="edge">
<title>2928129914480&#45;&gt;2928129913568</title>
<path fill="none" stroke="black" stroke-width="2" d="M600,-362.7C600,-344.87 600,-321.05 600,-301.39"/>
<polygon fill="black" stroke="black" stroke-width="2" points="603.5,-301.26 600,-291.26 596.5,-301.26 603.5,-301.26"/>
</g>
<!-- 2928129914480&#45;&gt;2928129914192 -->
<g id="edge8" class="edge">
<title>2928129914480&#45;&gt;2928129914192</title>
<path fill="none" stroke="black" stroke-width="2" d="M488.72,-381.04C386.62,-372.63 243.53,-357.69 191,-337 167.87,-327.89 145.13,-312.21 127.2,-297.81"/>
<polygon fill="black" stroke="black" stroke-width="2" points="129.26,-294.97 119.31,-291.31 124.81,-300.37 129.26,-294.97"/>
</g>
<!-- 2928129914480&#45;&gt;2928129909152 -->
<g id="edge9" class="edge">
<title>2928129914480&#45;&gt;2928129909152</title>
<path fill="none" stroke="black" stroke-width="2" d="M663.89,-362.98C683.02,-354.92 703.97,-345.83 723,-337 750.8,-324.09 781.16,-308.86 806.64,-295.74"/>
<polygon fill="black" stroke="black" stroke-width="2" points="808.52,-298.71 815.8,-291.01 805.31,-292.49 808.52,-298.71"/>
</g>
<!-- 2928129913424 -->
<g id="node8" class="node">
<title>2928129913424</title>
<polygon fill="#f7f7f7" stroke="black" points="441.5,-291 226.5,-291 226.5,-237 441.5,-237 441.5,-291"/>
<g transform="translate(391.5,-291.0) scale(0.011243534967393748,0.011302211302211302)">



<g transform="translate(0.000000,2035.000000) scale(0.100000,-0.100000)"
fill="#000000" stroke="none">
<path d="M174 20329 c-64 -24 -119 -77 -150 -143 l-24 -51 0 -9952 0 -9952 20
-54 c25 -67 77 -122 144 -153 l51 -24 22012 0 22012 0 54 20 c67 25 122 77
153 144 l24 51 0 9952 0 9952 -20 54 c-25 67 -77 122 -144 153 l-51 24 -22015
-1 c-21873 0 -22015 0 -22066 -20z m43746 -10154 l0 -9625 -21685 0 -21685 0
0 9625 0 9625 21685 0 21685 0 0 -9625z"/>
<path d="M31335 15824 c-237 -20 -503 -49 -585 -64 -379 -69 -489 -95 -775
-182 -297 -91 -563 -198 -855 -345 -102 -51 -203 -103 -225 -116 -244 -140
-381 -227 -570 -365 -652 -476 -1179 -1064 -1587 -1770 -56 -98 -238 -453
-238 -466 0 -3 -13 -34 -29 -68 -24 -54 -49 -113 -81 -193 -4 -11 -14 -36 -20
-55 -7 -19 -19 -48 -26 -65 -16 -40 -97 -290 -124 -385 -12 -41 -25 -82 -29
-90 -7 -13 -112 -15 -832 -18 l-824 -2 1465 -1465 c806 -806 1467 -1465 1470
-1465 5 0 2930 2923 2930 2927 0 2 -364 3 -810 3 -445 0 -810 3 -810 6 0 4 18
38 40 76 22 39 40 72 40 74 0 12 160 249 226 334 293 381 684 705 1108 918 73
37 148 73 167 81 42 16 98 39 124 51 41 19 292 99 360 115 259 62 345 74 648
94 240 16 556 -8 807 -60 128 -27 428 -117 495 -148 49 -24 144 -65 190 -83
28 -11 68 -30 90 -42 22 -13 72 -40 110 -61 39 -21 87 -48 107 -59 41 -23 272
-181 303 -207 11 -10 53 -45 93 -78 l74 -61 1494 0 1495 0 -75 148 c-265 521
-628 1022 -1051 1447 -185 187 -529 475 -710 598 -49 33 -114 78 -143 99 -179
132 -732 430 -966 519 -28 11 -60 23 -71 28 -124 53 -345 128 -530 182 -16 5
-52 15 -80 23 -136 40 -450 105 -625 130 -222 32 -246 35 -365 46 -120 12
-706 21 -800 14z"/>
<path d="M5860 10180 c0 -4923 0 -4950 20 -4950 11 0 66 30 122 67 57 36 351
226 653 421 303 195 651 420 775 500 124 80 365 235 535 345 171 110 378 244
460 297 83 54 526 339 985 635 459 296 1013 653 1230 793 217 141 557 360 755
487 198 127 748 482 1222 788 475 306 865 557 868 557 3 0 5 -1098 5 -2440 l0
-2440 870 0 870 0 0 4940 0 4940 -870 0 -870 0 0 -2440 c0 -1342 -2 -2440 -5
-2440 -6 0 -11 3 -670 429 -302 195 -617 398 -700 451 -82 53 -463 298 -845
545 -382 246 -794 512 -915 590 -121 78 -362 233 -535 345 -173 112 -382 247
-465 300 -238 153 -912 588 -1000 645 -44 28 -136 88 -205 132 -69 44 -235
151 -370 238 -277 179 -288 186 -720 465 -173 111 -353 228 -400 258 -47 30
-218 141 -380 245 -162 104 -314 202 -338 218 -24 16 -52 29 -63 29 -19 0 -19
-49 -19 -4950z"/>
<path d="M34330 10175 l-1465 -1465 823 0 c452 0 822 -3 822 -6 0 -3 -26 -51
-59 -107 -304 -528 -710 -933 -1236 -1233 -29 -17 -265 -134 -295 -146 -14 -6
-34 -14 -45 -19 -190 -80 -430 -151 -640 -190 -336 -63 -779 -70 -1080 -18
-142 25 -301 59 -365 79 -14 4 -52 16 -85 25 -33 10 -69 21 -80 25 -11 4 -42
16 -70 26 -100 35 -343 147 -460 212 -125 69 -308 189 -384 251 -25 20 -76 62
-115 93 l-71 57 -1497 1 c-824 0 -1498 -3 -1498 -6 0 -7 140 -277 185 -359
117 -209 370 -582 495 -731 19 -23 51 -61 70 -85 104 -130 217 -254 391 -428
111 -113 293 -276 383 -346 22 -16 58 -46 81 -65 308 -261 914 -620 1330 -787
33 -13 74 -30 90 -37 56 -25 279 -104 385 -136 58 -17 116 -36 130 -40 29 -10
194 -52 295 -75 39 -9 88 -20 110 -25 22 -5 67 -14 100 -20 33 -6 85 -15 115
-21 85 -15 259 -38 430 -56 198 -21 801 -24 1000 -5 362 35 735 101 1000 177
30 8 71 20 90 25 101 28 339 106 395 130 11 5 45 17 75 28 101 36 338 141 483
213 1241 620 2219 1683 2729 2969 52 130 153 429 183 540 10 36 22 71 28 78 7
9 184 12 821 12 l811 0 -1465 1465 c-806 806 -1467 1465 -1470 1465 -3 0 -664
-659 -1470 -1465z"/>
</g>
</g>
<text text-anchor="middle" x="334" y="-247" font-family="Times New Roman,serif" font-size="20.00">W_Call incomplete files</text>
</g>
<!-- 2928129914480&#45;&gt;2928129913424 -->
<g id="edge10" class="edge">
<title>2928129914480&#45;&gt;2928129913424</title>
<path fill="none" stroke="black" stroke-width="2" d="M536.67,-362.87C517.7,-354.81 496.91,-345.75 478,-337 449.86,-323.98 419.07,-308.73 393.21,-295.62"/>
<polygon fill="black" stroke="black" stroke-width="2" points="394.78,-292.49 384.28,-291.08 391.61,-298.73 394.78,-292.49"/>
</g>
<!-- 2928129913424&#45;&gt;2928129916064 -->
<g id="edge11" class="edge">
<title>2928129913424&#45;&gt;2928129916064</title>
<path fill="none" stroke="black" stroke-width="2" d="M380.63,-236.96C464.95,-189.86 639.92,-92.14 703.37,-56.7"/>
<polygon fill="black" stroke="black" stroke-width="2" points="705.21,-59.68 712.23,-51.75 701.79,-53.57 705.21,-59.68"/>
</g>
<!-- 2928129915248 -->
<g id="node9" class="node">
<title>2928129915248</title>
<polygon fill="#f7f7f7" stroke="black" points="1090,-543 938,-543 938,-489 1090,-489 1090,-543"/>
<g transform="translate(1040.0,-543.0) scale(0.011243534967393748,0.011302211302211302)">

<!--<rect width="100%" height="100%" fill="#DCDCDC"/>-->

<g transform="translate(0.000000,2035.000000) scale(0.100000,-0.100000)"
fill="#000000" stroke="none">
<path d="M174 20329 c-64 -24 -119 -77 -150 -143 l-24 -51 0 -9952 0 -9952 20
-54 c25 -67 77 -122 144 -153 l51 -24 22012 0 22012 0 54 20 c67 25 122 77
153 144 l24 51 0 9952 0 9952 -20 54 c-25 67 -77 122 -144 153 l-51 24 -22015
-1 c-21873 0 -22015 0 -22066 -20z m43746 -10154 l0 -9625 -21685 0 -21685 0
0 9625 0 9625 21685 0 21685 0 0 -9625z"/>
<path d="M17580 10180 c0 -4932 0 -4950 20 -4950 11 0 102 53 202 118 101 65
527 341 948 612 888 573 1230 793 1390 897 63 41 372 240 685 442 314 202 838
540 1165 751 327 211 795 513 1040 670 245 158 833 537 1307 843 475 306 865
557 868 557 3 0 5 -1098 5 -2440 l0 -2440 870 0 870 0 0 4940 0 4940 -870 0
-870 0 0 -2440 c0 -1342 -2 -2440 -5 -2440 -6 0 -11 3 -670 429 -302 195 -617
398 -700 451 -82 53 -463 298 -845 545 -382 246 -794 512 -915 590 -121 78
-362 233 -535 345 -173 112 -382 247 -465 300 -356 229 -925 596 -985 635 -36
23 -135 87 -220 142 -135 87 -436 281 -695 448 -44 28 -222 143 -395 255 -173
111 -353 228 -400 258 -47 30 -218 141 -380 245 -162 104 -314 202 -338 218
-24 16 -52 29 -63 29 -19 0 -19 -49 -19 -4950z"/>
</g>
</g>
<text text-anchor="middle" x="1014" y="-499" font-family="Times New Roman,serif" font-size="20.00">W_Handle leads</text>
</g>
<!-- 2928129915248&#45;&gt;2928129913760 -->
<g id="edge12" class="edge">
<title>2928129915248&#45;&gt;2928129913760</title>
<path fill="none" stroke="black" stroke-width="2" d="M1090.38,-493.09C1127.68,-478.1 1169.15,-454.07 1191,-417 1203.21,-396.28 1206.35,-371.05 1205.33,-347.14"/>
<polygon fill="black" stroke="black" stroke-width="2" points="1208.81,-346.74 1204.65,-337 1201.82,-347.21 1208.81,-346.74"/>
</g>
<!-- 2928129915248&#45;&gt;2928129905552 -->
<g id="edge13" class="edge">
<title>2928129915248&#45;&gt;2928129905552</title>
<path fill="none" stroke="black" stroke-width="2" d="M1020.15,-488.7C1024.34,-470.78 1029.94,-446.83 1034.55,-427.12"/>
<polygon fill="black" stroke="black" stroke-width="2" points="1037.99,-427.79 1036.86,-417.26 1031.17,-426.2 1037.99,-427.79"/>
</g>
<!-- 2928129915248&#45;&gt;2928129914480 -->
<g id="edge14" class="edge">
<title>2928129915248&#45;&gt;2928129914480</title>
<path fill="none" stroke="black" stroke-width="2" d="M937.58,-492.11C869.72,-471.79 770.21,-441.98 696.8,-419.99"/>
<polygon fill="black" stroke="black" stroke-width="2" points="697.66,-416.6 687.08,-417.08 695.65,-423.3 697.66,-416.6"/>
</g>
<!-- 2928129916496 -->
<g id="node10" class="node">
<title>2928129916496</title>
<polygon fill="black" stroke="black" points="929.5,-1076 900.5,-1076 900.5,-1047 929.5,-1047 929.5,-1076"/>
</g>
<!-- 2928129916496&#45;&gt;2928129915248 -->
<g id="edge15" class="edge">
<title>2928129916496&#45;&gt;2928129915248</title>
<path fill="none" stroke="black" stroke-width="2" d="M926.15,-1046.67C951.05,-1014.33 1009,-930.45 1009,-850 1009,-850 1009,-850 1009,-740 1009,-674.17 1011.2,-597.44 1012.69,-553.31"/>
<polygon fill="black" stroke="black" stroke-width="2" points="1016.19,-553.2 1013.04,-543.09 1009.2,-552.96 1016.19,-553.2"/>
</g>
<!-- 2928129901136 -->
<g id="node12" class="node">
<title>2928129901136</title>
<polygon fill="#f7f7f7" stroke="black" points="920.5,-975 723.5,-975 723.5,-939 920.5,-939 920.5,-975"/>
<text text-anchor="middle" x="822" y="-952" font-family="Times New Roman,serif" font-size="20.00">A_Create Application</text>
</g>
<!-- 2928129916496&#45;&gt;2928129901136 -->
<g id="edge16" class="edge">
<title>2928129916496&#45;&gt;2928129901136</title>
<path fill="none" stroke="black" stroke-width="2" d="M902.46,-1046.68C887.58,-1030.27 862.49,-1002.63 844.28,-982.56"/>
<polygon fill="black" stroke="black" stroke-width="2" points="846.74,-980.06 837.43,-975.01 841.56,-984.77 846.74,-980.06"/>
</g>
<!-- 2928129900752 -->
<g id="node15" class="node">
<title>2928129900752</title>
<polygon fill="#f7f7f7" stroke="black" points="859,-867 749,-867 749,-831 859,-831 859,-867"/>
<text text-anchor="middle" x="804" y="-844" font-family="Times New Roman,serif" font-size="20.00">A_Concept</text>
</g>
<!-- 2928129901136&#45;&gt;2928129900752 -->
<g id="edge17" class="edge">
<title>2928129901136&#45;&gt;2928129900752</title>
<path fill="none" stroke="black" stroke-width="2" d="M819.11,-938.97C816.29,-922.38 811.96,-896.88 808.66,-877.43"/>
<polygon fill="black" stroke="black" stroke-width="2" points="812.07,-876.61 806.94,-867.34 805.17,-877.79 812.07,-876.61"/>
</g>
<!-- 2928129905312 -->
<g id="node13" class="node">
<title>2928129905312</title>
<polygon fill="#f7f7f7" stroke="black" points="838,-534 730,-534 730,-498 838,-498 838,-534"/>
<text text-anchor="middle" x="784" y="-511" font-family="Times New Roman,serif" font-size="20.00">O_Created</text>
</g>
<!-- 2928129905312&#45;&gt;2928129913760 -->
<g id="edge18" class="edge">
<title>2928129905312&#45;&gt;2928129913760</title>
<path fill="none" stroke="black" stroke-width="2" d="M794.05,-497.92C815.69,-461.74 867.01,-379.38 895,-363 976.09,-315.55 1021.36,-374.06 1103.35,-341.22"/>
<polygon fill="black" stroke="black" stroke-width="2" points="1105.24,-344.21 1113,-337 1102.44,-337.8 1105.24,-344.21"/>
</g>
<!-- 2928129905312&#45;&gt;2928129913568 -->
<g id="edge19" class="edge">
<title>2928129905312&#45;&gt;2928129913568</title>
<path fill="none" stroke="black" stroke-width="2" d="M729.74,-506.87C644.69,-492.9 486.22,-461.48 453,-417 438.64,-397.77 441.68,-384.16 453,-363 463.01,-344.3 505.09,-317.21 541.68,-296.25"/>
<polygon fill="black" stroke="black" stroke-width="2" points="543.87,-299.03 550.85,-291.06 540.42,-292.94 543.87,-299.03"/>
</g>
<!-- 2928129905312&#45;&gt;2928129914192 -->
<g id="edge20" class="edge">
<title>2928129905312&#45;&gt;2928129914192</title>
<path fill="none" stroke="black" stroke-width="2" d="M729.94,-506.43C648.16,-492.6 488.77,-462.25 359,-417 280.91,-389.77 262.18,-379.11 191,-337 171.06,-325.21 150.1,-310.51 132.55,-297.47"/>
<polygon fill="black" stroke="black" stroke-width="2" points="134.32,-294.43 124.22,-291.23 130.12,-300.03 134.32,-294.43"/>
</g>
<!-- 2928129905312&#45;&gt;2928129905552 -->
<g id="edge21" class="edge">
<title>2928129905312&#45;&gt;2928129905552</title>
<path fill="none" stroke="black" stroke-width="2" d="M819.74,-497.89C860.89,-478.19 929.27,-445.45 979.53,-421.39"/>
<polygon fill="black" stroke="black" stroke-width="2" points="981.18,-424.48 988.69,-417 978.16,-418.16 981.18,-424.48"/>
</g>
<!-- 2928129905312&#45;&gt;2928129909152 -->
<g id="edge22" class="edge">
<title>2928129905312&#45;&gt;2928129909152</title>
<path fill="none" stroke="black" stroke-width="2" d="M789.57,-497.82C802.69,-457.31 835.78,-355.18 853.45,-300.63"/>
<polygon fill="black" stroke="black" stroke-width="2" points="856.81,-301.62 856.57,-291.03 850.15,-299.46 856.81,-301.62"/>
</g>
<!-- 2928129905312&#45;&gt;2928129913424 -->
<g id="edge23" class="edge">
<title>2928129905312&#45;&gt;2928129913424</title>
<path fill="none" stroke="black" stroke-width="2" d="M729.84,-512.61C654.4,-506.73 516.63,-486.5 425,-417 385.97,-387.4 360.28,-335.79 346.44,-301.02"/>
<polygon fill="black" stroke="black" stroke-width="2" points="349.54,-299.33 342.69,-291.25 343.01,-301.84 349.54,-299.33"/>
</g>
<!-- 2928129915296 -->
<g id="node14" class="node">
<title>2928129915296</title>
<polygon fill="#f7f7f7" stroke="black" points="859.5,-759 740.5,-759 740.5,-723 859.5,-723 859.5,-759"/>
<text text-anchor="middle" x="800" y="-736" font-family="Times New Roman,serif" font-size="20.00">A_Accepted</text>
</g>
<!-- 2928129914384 -->
<g id="node16" class="node">
<title>2928129914384</title>
<polygon fill="#f7f7f7" stroke="black" points="862,-651 720,-651 720,-615 862,-615 862,-651"/>
<text text-anchor="middle" x="791" y="-628" font-family="Times New Roman,serif" font-size="20.00">O_Create Offer</text>
</g>
<!-- 2928129915296&#45;&gt;2928129914384 -->
<g id="edge24" class="edge">
<title>2928129915296&#45;&gt;2928129914384</title>
<path fill="none" stroke="black" stroke-width="2" d="M798.55,-722.97C797.15,-706.38 794.98,-680.88 793.33,-661.43"/>
<polygon fill="black" stroke="black" stroke-width="2" points="796.81,-661.01 792.47,-651.34 789.83,-661.6 796.81,-661.01"/>
</g>
<!-- 2928129900752&#45;&gt;2928129915296 -->
<g id="edge25" class="edge">
<title>2928129900752&#45;&gt;2928129915296</title>
<path fill="none" stroke="black" stroke-width="2" d="M803.36,-830.97C802.73,-814.38 801.77,-788.88 801.04,-769.43"/>
<polygon fill="black" stroke="black" stroke-width="2" points="804.53,-769.2 800.65,-759.34 797.53,-769.47 804.53,-769.2"/>
</g>
<!-- 2928129914384&#45;&gt;2928129905312 -->
<g id="edge26" class="edge">
<title>2928129914384&#45;&gt;2928129905312</title>
<path fill="none" stroke="black" stroke-width="2" d="M789.94,-614.53C788.8,-595.94 787,-566.24 785.67,-544.5"/>
<polygon fill="black" stroke="black" stroke-width="2" points="789.15,-544.02 785.05,-534.25 782.16,-544.45 789.15,-544.02"/>
</g>
</g>
</svg>
