<?xml version="1.0" encoding="UTF-8" standalone="no"?>
<!DOCTYPE svg PUBLIC "-//W3C//DTD SVG 1.1//EN"
 "http://www.w3.org/Graphics/SVG/1.1/DTD/svg11.dtd">
<!-- Generated by graphviz version 6.0.1 (20220911.1526)
 -->
<!-- Title: powl Pages: 1 -->
<svg width="2234pt" height="1431pt"
 viewBox="0.00 0.00 2233.77 1431.00" xmlns="http://www.w3.org/2000/svg" xmlns:xlink="http://www.w3.org/1999/xlink">
<g id="graph0" class="graph" transform="scale(1 1) rotate(0) translate(4 1427)">
<title>powl</title>
<polygon fill="white" stroke="none" points="-4,4 -4,-1427 2229.77,-1427 2229.77,4 -4,4"/>
<g id="clust1" class="cluster">
<title>cluster_1650870171728</title>
<polygon fill="#fcfcfc" stroke="black" points="26.77,-8 26.77,-1415 2217.77,-1415 2217.77,-8 26.77,-8"/>
</g>
<g id="clust2" class="cluster">
<title>cluster_1650870171056</title>
<polygon fill="#f7f7f7" stroke="black" points="1477.77,-282 1477.77,-519 1741.77,-519 1741.77,-282 1477.77,-282"/>
<g transform="translate(1681.27,-512.5) scale(0.011468405666741623,0.011302211302211302)">

<!--<rect width="100%" height="100%" fill="#DCDCDC"/>-->

<g transform="translate(0.000000,2035.000000) scale(0.100000,-0.100000)"
fill="#000000" stroke="none">
<path d="M174 20329 c-64 -24 -119 -77 -150 -143 l-24 -51 0 -9952 0 -9952 20
-54 c25 -67 77 -122 144 -153 l51 -24 22012 0 22012 0 54 20 c67 25 122 77
153 144 l24 51 0 9952 0 9952 -20 54 c-25 67 -77 122 -144 153 l-51 24 -22015
-1 c-21873 0 -22015 0 -22066 -20z m43746 -10154 l0 -9625 -21685 0 -21685 0
0 9625 0 9625 21685 0 21685 0 0 -9625z"/>
<path d="M17580 10180 c0 -4932 0 -4950 20 -4950 11 0 102 53 202 118 101 65
527 341 948 612 888 573 1230 793 1390 897 63 41 372 240 685 442 314 202 838
540 1165 751 327 211 795 513 1040 670 245 158 833 537 1307 843 475 306 865
557 868 557 3 0 5 -1098 5 -2440 l0 -2440 870 0 870 0 0 4940 0 4940 -870 0
-870 0 0 -2440 c0 -1342 -2 -2440 -5 -2440 -6 0 -11 3 -670 429 -302 195 -617
398 -700 451 -82 53 -463 298 -845 545 -382 246 -794 512 -915 590 -121 78
-362 233 -535 345 -173 112 -382 247 -465 300 -356 229 -925 596 -985 635 -36
23 -135 87 -220 142 -135 87 -436 281 -695 448 -44 28 -222 143 -395 255 -173
111 -353 228 -400 258 -47 30 -218 141 -380 245 -162 104 -314 202 -338 218
-24 16 -52 29 -63 29 -19 0 -19 -49 -19 -4950z"/>
</g>
</g>
</g>
<g id="clust4" class="cluster">
<title>cluster_1650870170864</title>
<polygon fill="#f7f7f7" stroke="black" points="68.77,-28 68.77,-510 628.77,-510 628.77,-28 68.77,-28"/>
<g transform="translate(568.266,-503.5) scale(0.011468405666741623,0.011302211302211302)">

<!--<rect width="100%" height="100%" fill="#DCDCDC"/>-->

<g transform="translate(0.000000,2035.000000) scale(0.100000,-0.100000)"
fill="#000000" stroke="none">
<path d="M174 20329 c-64 -24 -119 -77 -150 -143 l-24 -51 0 -9952 0 -9952 20
-54 c25 -67 77 -122 144 -153 l51 -24 22012 0 22012 0 54 20 c67 25 122 77
153 144 l24 51 0 9952 0 9952 -20 54 c-25 67 -77 122 -144 153 l-51 24 -22015
-1 c-21873 0 -22015 0 -22066 -20z m43746 -10154 l0 -9625 -21685 0 -21685 0
0 9625 0 9625 21685 0 21685 0 0 -9625z"/>
<path d="M17580 10180 c0 -4932 0 -4950 20 -4950 11 0 102 53 202 118 101 65
527 341 948 612 888 573 1230 793 1390 897 63 41 372 240 685 442 314 202 838
540 1165 751 327 211 795 513 1040 670 245 158 833 537 1307 843 475 306 865
557 868 557 3 0 5 -1098 5 -2440 l0 -2440 870 0 870 0 0 4940 0 4940 -870 0
-870 0 0 -2440 c0 -1342 -2 -2440 -5 -2440 -6 0 -11 3 -670 429 -302 195 -617
398 -700 451 -82 53 -463 298 -845 545 -382 246 -794 512 -915 590 -121 78
-362 233 -535 345 -173 112 -382 247 -465 300 -356 229 -925 596 -985 635 -36
23 -135 87 -220 142 -135 87 -436 281 -695 448 -44 28 -222 143 -395 255 -173
111 -353 228 -400 258 -47 30 -218 141 -380 245 -162 104 -314 202 -338 218
-24 16 -52 29 -63 29 -19 0 -19 -49 -19 -4950z"/>
</g>
</g>
</g>
<g id="clust5" class="cluster">
<title>cluster_1650870170288</title>
<polygon fill="#f2f2f2" stroke="black" points="88.77,-48 88.77,-241 248.77,-241 248.77,-48 88.77,-48"/>
</g>
<g id="clust6" class="cluster">
<title>cluster_1650870170240</title>
<polygon fill="#f2f2f2" stroke="black" points="280.77,-156 280.77,-250 608.77,-250 608.77,-156 280.77,-156"/>
</g>
<g id="clust3" class="cluster">
<title>cluster_1650870161360</title>
<polygon fill="#f7f7f7" stroke="black" points="1961.77,-282 1961.77,-638 2143.77,-638 2143.77,-282 1961.77,-282"/>
<g transform="translate(2083.27,-631.5) scale(0.011468405666741623,0.011302211302211302)">

<!--<rect width="100%" height="100%" fill="#DCDCDC"/>-->

<g transform="translate(0.000000,2035.000000) scale(0.100000,-0.100000)"
fill="#000000" stroke="none">
<path d="M174 20329 c-64 -24 -119 -77 -150 -143 l-24 -51 0 -9952 0 -9952 20
-54 c25 -67 77 -122 144 -153 l51 -24 22012 0 22012 0 54 20 c67 25 122 77
153 144 l24 51 0 9952 0 9952 -20 54 c-25 67 -77 122 -144 153 l-51 24 -22015
-1 c-21873 0 -22015 0 -22066 -20z m43746 -10154 l0 -9625 -21685 0 -21685 0
0 9625 0 9625 21685 0 21685 0 0 -9625z"/>
<path d="M17580 10180 c0 -4932 0 -4950 20 -4950 11 0 102 53 202 118 101 65
527 341 948 612 888 573 1230 793 1390 897 63 41 372 240 685 442 314 202 838
540 1165 751 327 211 795 513 1040 670 245 158 833 537 1307 843 475 306 865
557 868 557 3 0 5 -1098 5 -2440 l0 -2440 870 0 870 0 0 4940 0 4940 -870 0
-870 0 0 -2440 c0 -1342 -2 -2440 -5 -2440 -6 0 -11 3 -670 429 -302 195 -617
398 -700 451 -82 53 -463 298 -845 545 -382 246 -794 512 -915 590 -121 78
-362 233 -535 345 -173 112 -382 247 -465 300 -356 229 -925 596 -985 635 -36
23 -135 87 -220 142 -135 87 -436 281 -695 448 -44 28 -222 143 -395 255 -173
111 -353 228 -400 258 -47 30 -218 141 -380 245 -162 104 -314 202 -338 218
-24 16 -52 29 -63 29 -19 0 -19 -49 -19 -4950z"/>
</g>
</g>
</g>
<g id="clust7" class="cluster">
<title>cluster_1650870169232</title>
<polygon fill="#f7f7f7" stroke="black" points="1587.77,-527 1587.77,-764 1769.77,-764 1769.77,-527 1587.77,-527"/>
<g transform="translate(1709.27,-757.5) scale(0.011468405666741623,0.011302211302211302)">



<g transform="translate(0.000000,2035.000000) scale(0.100000,-0.100000)"
fill="#000000" stroke="none">
<path d="M174 20329 c-64 -24 -119 -77 -150 -143 l-24 -51 0 -9952 0 -9952 20
-54 c25 -67 77 -122 144 -153 l51 -24 22012 0 22012 0 54 20 c67 25 122 77
153 144 l24 51 0 9952 0 9952 -20 54 c-25 67 -77 122 -144 153 l-51 24 -22015
-1 c-21873 0 -22015 0 -22066 -20z m43746 -10154 l0 -9625 -21685 0 -21685 0
0 9625 0 9625 21685 0 21685 0 0 -9625z"/>
<path d="M31335 15824 c-237 -20 -503 -49 -585 -64 -379 -69 -489 -95 -775
-182 -297 -91 -563 -198 -855 -345 -102 -51 -203 -103 -225 -116 -244 -140
-381 -227 -570 -365 -652 -476 -1179 -1064 -1587 -1770 -56 -98 -238 -453
-238 -466 0 -3 -13 -34 -29 -68 -24 -54 -49 -113 -81 -193 -4 -11 -14 -36 -20
-55 -7 -19 -19 -48 -26 -65 -16 -40 -97 -290 -124 -385 -12 -41 -25 -82 -29
-90 -7 -13 -112 -15 -832 -18 l-824 -2 1465 -1465 c806 -806 1467 -1465 1470
-1465 5 0 2930 2923 2930 2927 0 2 -364 3 -810 3 -445 0 -810 3 -810 6 0 4 18
38 40 76 22 39 40 72 40 74 0 12 160 249 226 334 293 381 684 705 1108 918 73
37 148 73 167 81 42 16 98 39 124 51 41 19 292 99 360 115 259 62 345 74 648
94 240 16 556 -8 807 -60 128 -27 428 -117 495 -148 49 -24 144 -65 190 -83
28 -11 68 -30 90 -42 22 -13 72 -40 110 -61 39 -21 87 -48 107 -59 41 -23 272
-181 303 -207 11 -10 53 -45 93 -78 l74 -61 1494 0 1495 0 -75 148 c-265 521
-628 1022 -1051 1447 -185 187 -529 475 -710 598 -49 33 -114 78 -143 99 -179
132 -732 430 -966 519 -28 11 -60 23 -71 28 -124 53 -345 128 -530 182 -16 5
-52 15 -80 23 -136 40 -450 105 -625 130 -222 32 -246 35 -365 46 -120 12
-706 21 -800 14z"/>
<path d="M5860 10180 c0 -4923 0 -4950 20 -4950 11 0 66 30 122 67 57 36 351
226 653 421 303 195 651 420 775 500 124 80 365 235 535 345 171 110 378 244
460 297 83 54 526 339 985 635 459 296 1013 653 1230 793 217 141 557 360 755
487 198 127 748 482 1222 788 475 306 865 557 868 557 3 0 5 -1098 5 -2440 l0
-2440 870 0 870 0 0 4940 0 4940 -870 0 -870 0 0 -2440 c0 -1342 -2 -2440 -5
-2440 -6 0 -11 3 -670 429 -302 195 -617 398 -700 451 -82 53 -463 298 -845
545 -382 246 -794 512 -915 590 -121 78 -362 233 -535 345 -173 112 -382 247
-465 300 -238 153 -912 588 -1000 645 -44 28 -136 88 -205 132 -69 44 -235
151 -370 238 -277 179 -288 186 -720 465 -173 111 -353 228 -400 258 -47 30
-218 141 -380 245 -162 104 -314 202 -338 218 -24 16 -52 29 -63 29 -19 0 -19
-49 -19 -4950z"/>
<path d="M34330 10175 l-1465 -1465 823 0 c452 0 822 -3 822 -6 0 -3 -26 -51
-59 -107 -304 -528 -710 -933 -1236 -1233 -29 -17 -265 -134 -295 -146 -14 -6
-34 -14 -45 -19 -190 -80 -430 -151 -640 -190 -336 -63 -779 -70 -1080 -18
-142 25 -301 59 -365 79 -14 4 -52 16 -85 25 -33 10 -69 21 -80 25 -11 4 -42
16 -70 26 -100 35 -343 147 -460 212 -125 69 -308 189 -384 251 -25 20 -76 62
-115 93 l-71 57 -1497 1 c-824 0 -1498 -3 -1498 -6 0 -7 140 -277 185 -359
117 -209 370 -582 495 -731 19 -23 51 -61 70 -85 104 -130 217 -254 391 -428
111 -113 293 -276 383 -346 22 -16 58 -46 81 -65 308 -261 914 -620 1330 -787
33 -13 74 -30 90 -37 56 -25 279 -104 385 -136 58 -17 116 -36 130 -40 29 -10
194 -52 295 -75 39 -9 88 -20 110 -25 22 -5 67 -14 100 -20 33 -6 85 -15 115
-21 85 -15 259 -38 430 -56 198 -21 801 -24 1000 -5 362 35 735 101 1000 177
30 8 71 20 90 25 101 28 339 106 395 130 11 5 45 17 75 28 101 36 338 141 483
213 1241 620 2219 1683 2729 2969 52 130 153 429 183 540 10 36 22 71 28 78 7
9 184 12 821 12 l811 0 -1465 1465 c-806 806 -1467 1465 -1470 1465 -3 0 -664
-659 -1470 -1465z"/>
</g>
</g>
</g>
<!-- 1650870171536 -->
<g id="node1" class="node">
<title>1650870171536</title>
<polygon fill="#f7f7f7" stroke="black" points="404.27,-592 231.27,-592 231.27,-538 404.27,-538 404.27,-592"/>
<g transform="translate(354.266,-592.0) scale(0.011243534967393748,0.011302211302211302)">



<g transform="translate(0.000000,2035.000000) scale(0.100000,-0.100000)"
fill="#000000" stroke="none">
<path d="M174 20329 c-64 -24 -119 -77 -150 -143 l-24 -51 0 -9952 0 -9952 20
-54 c25 -67 77 -122 144 -153 l51 -24 22012 0 22012 0 54 20 c67 25 122 77
153 144 l24 51 0 9952 0 9952 -20 54 c-25 67 -77 122 -144 153 l-51 24 -22015
-1 c-21873 0 -22015 0 -22066 -20z m43746 -10154 l0 -9625 -21685 0 -21685 0
0 9625 0 9625 21685 0 21685 0 0 -9625z"/>
<path d="M31335 15824 c-237 -20 -503 -49 -585 -64 -379 -69 -489 -95 -775
-182 -297 -91 -563 -198 -855 -345 -102 -51 -203 -103 -225 -116 -244 -140
-381 -227 -570 -365 -652 -476 -1179 -1064 -1587 -1770 -56 -98 -238 -453
-238 -466 0 -3 -13 -34 -29 -68 -24 -54 -49 -113 -81 -193 -4 -11 -14 -36 -20
-55 -7 -19 -19 -48 -26 -65 -16 -40 -97 -290 -124 -385 -12 -41 -25 -82 -29
-90 -7 -13 -112 -15 -832 -18 l-824 -2 1465 -1465 c806 -806 1467 -1465 1470
-1465 5 0 2930 2923 2930 2927 0 2 -364 3 -810 3 -445 0 -810 3 -810 6 0 4 18
38 40 76 22 39 40 72 40 74 0 12 160 249 226 334 293 381 684 705 1108 918 73
37 148 73 167 81 42 16 98 39 124 51 41 19 292 99 360 115 259 62 345 74 648
94 240 16 556 -8 807 -60 128 -27 428 -117 495 -148 49 -24 144 -65 190 -83
28 -11 68 -30 90 -42 22 -13 72 -40 110 -61 39 -21 87 -48 107 -59 41 -23 272
-181 303 -207 11 -10 53 -45 93 -78 l74 -61 1494 0 1495 0 -75 148 c-265 521
-628 1022 -1051 1447 -185 187 -529 475 -710 598 -49 33 -114 78 -143 99 -179
132 -732 430 -966 519 -28 11 -60 23 -71 28 -124 53 -345 128 -530 182 -16 5
-52 15 -80 23 -136 40 -450 105 -625 130 -222 32 -246 35 -365 46 -120 12
-706 21 -800 14z"/>
<path d="M5860 10180 c0 -4923 0 -4950 20 -4950 11 0 66 30 122 67 57 36 351
226 653 421 303 195 651 420 775 500 124 80 365 235 535 345 171 110 378 244
460 297 83 54 526 339 985 635 459 296 1013 653 1230 793 217 141 557 360 755
487 198 127 748 482 1222 788 475 306 865 557 868 557 3 0 5 -1098 5 -2440 l0
-2440 870 0 870 0 0 4940 0 4940 -870 0 -870 0 0 -2440 c0 -1342 -2 -2440 -5
-2440 -6 0 -11 3 -670 429 -302 195 -617 398 -700 451 -82 53 -463 298 -845
545 -382 246 -794 512 -915 590 -121 78 -362 233 -535 345 -173 112 -382 247
-465 300 -238 153 -912 588 -1000 645 -44 28 -136 88 -205 132 -69 44 -235
151 -370 238 -277 179 -288 186 -720 465 -173 111 -353 228 -400 258 -47 30
-218 141 -380 245 -162 104 -314 202 -338 218 -24 16 -52 29 -63 29 -19 0 -19
-49 -19 -4950z"/>
<path d="M34330 10175 l-1465 -1465 823 0 c452 0 822 -3 822 -6 0 -3 -26 -51
-59 -107 -304 -528 -710 -933 -1236 -1233 -29 -17 -265 -134 -295 -146 -14 -6
-34 -14 -45 -19 -190 -80 -430 -151 -640 -190 -336 -63 -779 -70 -1080 -18
-142 25 -301 59 -365 79 -14 4 -52 16 -85 25 -33 10 -69 21 -80 25 -11 4 -42
16 -70 26 -100 35 -343 147 -460 212 -125 69 -308 189 -384 251 -25 20 -76 62
-115 93 l-71 57 -1497 1 c-824 0 -1498 -3 -1498 -6 0 -7 140 -277 185 -359
117 -209 370 -582 495 -731 19 -23 51 -61 70 -85 104 -130 217 -254 391 -428
111 -113 293 -276 383 -346 22 -16 58 -46 81 -65 308 -261 914 -620 1330 -787
33 -13 74 -30 90 -37 56 -25 279 -104 385 -136 58 -17 116 -36 130 -40 29 -10
194 -52 295 -75 39 -9 88 -20 110 -25 22 -5 67 -14 100 -20 33 -6 85 -15 115
-21 85 -15 259 -38 430 -56 198 -21 801 -24 1000 -5 362 35 735 101 1000 177
30 8 71 20 90 25 101 28 339 106 395 130 11 5 45 17 75 28 101 36 338 141 483
213 1241 620 2219 1683 2729 2969 52 130 153 429 183 540 10 36 22 71 28 78 7
9 184 12 821 12 l811 0 -1465 1465 c-806 806 -1467 1465 -1470 1465 -3 0 -664
-659 -1470 -1465z"/>
</g>
</g>
<text text-anchor="middle" x="317.77" y="-548" font-family="Times New Roman,serif" font-size="20.00">W_Call after offers</text>
</g>
<!-- 1650870166928 -->
<g id="node29" class="node">
<title>1650870166928</title>
<polygon fill="black" stroke="black" points="1562.27,-100.5 1533.27,-100.5 1533.27,-71.5 1562.27,-71.5 1562.27,-100.5"/>
</g>
<!-- 1650870171536&#45;&gt;1650870166928 -->
<g id="edge9" class="edge">
<title>1650870171536&#45;&gt;1650870166928</title>
<path fill="none" stroke="black" stroke-width="2" d="M231.05,-561.02C162.74,-556.63 75.39,-545.78 52.77,-519 -15.2,-438.52 -19.61,-358.53 52.77,-282 96.66,-235.59 574.49,-286.7 626.77,-250 663.93,-223.91 629.9,-182.5 666.77,-156 738.1,-104.72 1387.12,-89.96 1522.92,-87.43"/>
<polygon fill="black" stroke="black" stroke-width="2" points="1523.2,-90.92 1533.13,-87.24 1523.07,-83.92 1523.2,-90.92"/>
</g>
<!-- 1650870171440 -->
<g id="node2" class="node">
<title>1650870171440</title>
<polygon fill="#f7f7f7" stroke="black" points="934.77,-230 808.77,-230 808.77,-176 934.77,-176 934.77,-230"/>
<g transform="translate(884.766,-230.0) scale(0.011243534967393748,0.011302211302211302)">



<g transform="translate(0.000000,2035.000000) scale(0.100000,-0.100000)"
fill="#000000" stroke="none">
<path d="M174 20329 c-64 -24 -119 -77 -150 -143 l-24 -51 0 -9952 0 -9952 20
-54 c25 -67 77 -122 144 -153 l51 -24 22012 0 22012 0 54 20 c67 25 122 77
153 144 l24 51 0 9952 0 9952 -20 54 c-25 67 -77 122 -144 153 l-51 24 -22015
-1 c-21873 0 -22015 0 -22066 -20z m43746 -10154 l0 -9625 -21685 0 -21685 0
0 9625 0 9625 21685 0 21685 0 0 -9625z"/>
<path d="M31335 15824 c-237 -20 -503 -49 -585 -64 -379 -69 -489 -95 -775
-182 -297 -91 -563 -198 -855 -345 -102 -51 -203 -103 -225 -116 -244 -140
-381 -227 -570 -365 -652 -476 -1179 -1064 -1587 -1770 -56 -98 -238 -453
-238 -466 0 -3 -13 -34 -29 -68 -24 -54 -49 -113 -81 -193 -4 -11 -14 -36 -20
-55 -7 -19 -19 -48 -26 -65 -16 -40 -97 -290 -124 -385 -12 -41 -25 -82 -29
-90 -7 -13 -112 -15 -832 -18 l-824 -2 1465 -1465 c806 -806 1467 -1465 1470
-1465 5 0 2930 2923 2930 2927 0 2 -364 3 -810 3 -445 0 -810 3 -810 6 0 4 18
38 40 76 22 39 40 72 40 74 0 12 160 249 226 334 293 381 684 705 1108 918 73
37 148 73 167 81 42 16 98 39 124 51 41 19 292 99 360 115 259 62 345 74 648
94 240 16 556 -8 807 -60 128 -27 428 -117 495 -148 49 -24 144 -65 190 -83
28 -11 68 -30 90 -42 22 -13 72 -40 110 -61 39 -21 87 -48 107 -59 41 -23 272
-181 303 -207 11 -10 53 -45 93 -78 l74 -61 1494 0 1495 0 -75 148 c-265 521
-628 1022 -1051 1447 -185 187 -529 475 -710 598 -49 33 -114 78 -143 99 -179
132 -732 430 -966 519 -28 11 -60 23 -71 28 -124 53 -345 128 -530 182 -16 5
-52 15 -80 23 -136 40 -450 105 -625 130 -222 32 -246 35 -365 46 -120 12
-706 21 -800 14z"/>
<path d="M5860 10180 c0 -4923 0 -4950 20 -4950 11 0 66 30 122 67 57 36 351
226 653 421 303 195 651 420 775 500 124 80 365 235 535 345 171 110 378 244
460 297 83 54 526 339 985 635 459 296 1013 653 1230 793 217 141 557 360 755
487 198 127 748 482 1222 788 475 306 865 557 868 557 3 0 5 -1098 5 -2440 l0
-2440 870 0 870 0 0 4940 0 4940 -870 0 -870 0 0 -2440 c0 -1342 -2 -2440 -5
-2440 -6 0 -11 3 -670 429 -302 195 -617 398 -700 451 -82 53 -463 298 -845
545 -382 246 -794 512 -915 590 -121 78 -362 233 -535 345 -173 112 -382 247
-465 300 -238 153 -912 588 -1000 645 -44 28 -136 88 -205 132 -69 44 -235
151 -370 238 -277 179 -288 186 -720 465 -173 111 -353 228 -400 258 -47 30
-218 141 -380 245 -162 104 -314 202 -338 218 -24 16 -52 29 -63 29 -19 0 -19
-49 -19 -4950z"/>
<path d="M34330 10175 l-1465 -1465 823 0 c452 0 822 -3 822 -6 0 -3 -26 -51
-59 -107 -304 -528 -710 -933 -1236 -1233 -29 -17 -265 -134 -295 -146 -14 -6
-34 -14 -45 -19 -190 -80 -430 -151 -640 -190 -336 -63 -779 -70 -1080 -18
-142 25 -301 59 -365 79 -14 4 -52 16 -85 25 -33 10 -69 21 -80 25 -11 4 -42
16 -70 26 -100 35 -343 147 -460 212 -125 69 -308 189 -384 251 -25 20 -76 62
-115 93 l-71 57 -1497 1 c-824 0 -1498 -3 -1498 -6 0 -7 140 -277 185 -359
117 -209 370 -582 495 -731 19 -23 51 -61 70 -85 104 -130 217 -254 391 -428
111 -113 293 -276 383 -346 22 -16 58 -46 81 -65 308 -261 914 -620 1330 -787
33 -13 74 -30 90 -37 56 -25 279 -104 385 -136 58 -17 116 -36 130 -40 29 -10
194 -52 295 -75 39 -9 88 -20 110 -25 22 -5 67 -14 100 -20 33 -6 85 -15 115
-21 85 -15 259 -38 430 -56 198 -21 801 -24 1000 -5 362 35 735 101 1000 177
30 8 71 20 90 25 101 28 339 106 395 130 11 5 45 17 75 28 101 36 338 141 483
213 1241 620 2219 1683 2729 2969 52 130 153 429 183 540 10 36 22 71 28 78 7
9 184 12 821 12 l811 0 -1465 1465 c-806 806 -1467 1465 -1470 1465 -3 0 -664
-659 -1470 -1465z"/>
</g>
</g>
<text text-anchor="middle" x="871.77" y="-186" font-family="Times New Roman,serif" font-size="20.00">A_Validating</text>
</g>
<!-- 1650870171440&#45;&gt;1650870166928 -->
<g id="edge10" class="edge">
<title>1650870171440&#45;&gt;1650870166928</title>
<path fill="none" stroke="black" stroke-width="2" d="M920.45,-175.92C936.4,-168.38 954.48,-160.88 971.77,-156 1179.13,-97.45 1442.18,-88.57 1523.02,-87.23"/>
<polygon fill="black" stroke="black" stroke-width="2" points="1523.24,-90.73 1533.19,-87.09 1523.14,-83.73 1523.24,-90.73"/>
</g>
<!-- 1650870173216 -->
<g id="node3" class="node">
<title>1650870173216</title>
<polygon fill="#f2f2f2" stroke="black" points="1671.77,-338 1547.77,-338 1547.77,-302 1671.77,-302 1671.77,-338"/>
<text text-anchor="middle" x="1609.77" y="-315" font-family="Times New Roman,serif" font-size="20.00">O_Cancelled</text>
</g>
<!-- 1650870173216&#45;&gt;1650870166928 -->
<g id="edge11" class="edge">
<title>1650870173216&#45;&gt;1650870166928</title>
<path fill="none" stroke="black" stroke-width="2" d="M1741.76,-312.91C1839.79,-305.29 1961.81,-288.22 1993.77,-250 2020.57,-217.95 2020.96,-187.72 1993.77,-156 1938.56,-91.6 1657.72,-86.78 1572.39,-86.82"/>
<polygon fill="black" stroke="black" stroke-width="2" points="1572.32,-83.32 1562.33,-86.85 1572.34,-90.32 1572.32,-83.32"/>
</g>
<!-- 1650870171824 -->
<g id="node4" class="node">
<title>1650870171824</title>
<polygon fill="#f2f2f2" stroke="black" points="1721.77,-464 1497.77,-464 1497.77,-410 1721.77,-410 1721.77,-464"/>
<g transform="translate(1671.77,-464.0) scale(0.011243534967393748,0.011302211302211302)">

<!--<rect width="100%" height="100%" fill="#DCDCDC"/>-->

<g transform="translate(0.000000,2035.000000) scale(0.100000,-0.100000)"
fill="#000000" stroke="none">
<path d="M174 20329 c-64 -24 -119 -77 -150 -143 l-24 -51 0 -9952 c0 -9899 0
-9953 20 -10005 24 -65 79 -124 145 -154 l50 -24 22012 0 22012 0 54 20 c67
25 122 77 153 144 l24 51 0 9952 0 9952 -20 54 c-25 67 -77 122 -144 153 l-51
24 -22015 -1 c-21873 0 -22015 0 -22066 -20z m43746 -10154 l0 -9625 -21685 0
-21685 0 0 9625 0 9625 21685 0 21685 0 0 -9625z"/>
<path d="M22005 15834 c-237 -20 -503 -49 -585 -64 -379 -69 -489 -95 -775
-182 -297 -91 -563 -198 -855 -345 -102 -51 -203 -103 -225 -116 -244 -140
-381 -227 -570 -365 -652 -476 -1178 -1062 -1585 -1767 -58 -100 -240 -456
-240 -469 0 -3 -13 -34 -29 -68 -24 -54 -49 -113 -81 -193 -4 -11 -14 -36 -20
-55 -7 -19 -19 -48 -26 -65 -16 -40 -97 -290 -124 -385 -12 -41 -25 -82 -29
-90 -7 -13 -112 -15 -832 -18 l-824 -2 1465 -1465 c806 -806 1467 -1465 1470
-1465 5 0 2930 2923 2930 2927 0 2 -364 3 -810 3 -445 0 -810 3 -810 6 0 4 18
38 40 76 22 39 40 72 40 74 0 12 160 249 226 334 293 381 684 705 1108 918 73
37 148 73 167 81 42 16 98 39 124 51 41 19 292 99 360 115 259 62 345 74 648
94 240 16 556 -8 807 -60 128 -27 428 -117 495 -148 49 -24 144 -65 190 -83
28 -11 68 -30 90 -42 22 -13 72 -40 110 -61 39 -21 87 -48 107 -59 41 -23 272
-181 303 -207 11 -10 53 -45 93 -78 l74 -61 1494 0 1495 0 -75 148 c-265 521
-628 1022 -1051 1447 -185 187 -529 475 -710 598 -49 33 -114 78 -142 99 -84
61 -450 277 -583 344 -106 53 -322 151 -385 175 -27 11 -59 23 -70 28 -124 53
-345 128 -530 182 -16 5 -52 15 -80 23 -136 40 -450 105 -625 130 -222 32
-246 35 -365 46 -120 12 -706 21 -800 14z"/>
<path d="M25000 10185 l-1465 -1465 823 0 c452 0 822 -3 822 -6 0 -3 -26 -51
-59 -107 -304 -528 -710 -933 -1236 -1233 -29 -17 -265 -134 -295 -146 -14 -6
-34 -14 -45 -19 -190 -80 -430 -151 -640 -190 -336 -63 -779 -70 -1080 -18
-142 25 -301 59 -365 79 -14 4 -52 16 -85 25 -33 10 -69 21 -80 25 -11 4 -42
16 -70 26 -100 35 -343 147 -460 212 -125 69 -308 189 -384 251 -25 20 -76 62
-115 93 l-71 57 -1497 1 c-824 0 -1498 -3 -1498 -6 0 -8 150 -297 179 -344 11
-19 24 -42 28 -50 48 -103 357 -557 473 -696 19 -23 51 -61 70 -85 104 -130
217 -254 391 -428 111 -113 293 -276 383 -346 22 -16 58 -46 81 -65 308 -261
914 -620 1330 -787 33 -13 74 -30 90 -37 56 -25 279 -104 385 -136 58 -17 116
-36 130 -41 31 -11 288 -75 356 -89 269 -55 408 -76 694 -107 198 -21 801 -24
1000 -5 362 35 735 101 1000 177 30 8 71 20 90 25 101 28 339 106 395 130 11
5 45 17 75 28 101 36 338 141 483 213 639 319 1211 757 1698 1299 227 253 493
620 668 920 63 107 233 442 285 560 84 190 213 549 261 730 10 36 22 71 28 78
7 9 184 12 821 12 l811 0 -1465 1465 c-806 806 -1467 1465 -1470 1465 -3 0
-664 -659 -1470 -1465z"/>
</g>
</g>
<text text-anchor="middle" x="1609.77" y="-420" font-family="Times New Roman,serif" font-size="20.00">O_Sent (mail and online)</text>
</g>
<!-- 1650870171824&#45;&gt;1650870173216 -->
<g id="edge1" class="edge">
<title>1650870171824&#45;&gt;1650870173216</title>
<path fill="none" stroke="black" stroke-width="2" d="M1609.77,-409.9C1609.77,-391.51 1609.77,-366.94 1609.77,-348.29"/>
<polygon fill="black" stroke="black" stroke-width="2" points="1613.27,-348.08 1609.77,-338.08 1606.27,-348.08 1613.27,-348.08"/>
</g>
<!-- 1650870171344 -->
<g id="node5" class="node">
<title>1650870171344</title>
<polygon fill="#f7f7f7" stroke="black" points="1462.27,-970 1337.27,-970 1337.27,-916 1462.27,-916 1462.27,-970"/>
<g transform="translate(1412.27,-970.0) scale(0.011243534967393748,0.011302211302211302)">

<!--<rect width="100%" height="100%" fill="#DCDCDC"/>-->

<g transform="translate(0.000000,2035.000000) scale(0.100000,-0.100000)"
fill="#000000" stroke="none">
<path d="M174 20329 c-64 -24 -119 -77 -150 -143 l-24 -51 0 -9952 0 -9952 20
-54 c25 -67 77 -122 144 -153 l51 -24 22012 0 22012 0 54 20 c67 25 122 77
153 144 l24 51 0 9952 0 9952 -20 54 c-25 67 -77 122 -144 153 l-51 24 -22015
-1 c-21873 0 -22015 0 -22066 -20z m43746 -10154 l0 -9625 -21685 0 -21685 0
0 9625 0 9625 21685 0 21685 0 0 -9625z"/>
<path d="M17580 10180 c0 -4932 0 -4950 20 -4950 11 0 102 53 202 118 101 65
527 341 948 612 888 573 1230 793 1390 897 63 41 372 240 685 442 314 202 838
540 1165 751 327 211 795 513 1040 670 245 158 833 537 1307 843 475 306 865
557 868 557 3 0 5 -1098 5 -2440 l0 -2440 870 0 870 0 0 4940 0 4940 -870 0
-870 0 0 -2440 c0 -1342 -2 -2440 -5 -2440 -6 0 -11 3 -670 429 -302 195 -617
398 -700 451 -82 53 -463 298 -845 545 -382 246 -794 512 -915 590 -121 78
-362 233 -535 345 -173 112 -382 247 -465 300 -356 229 -925 596 -985 635 -36
23 -135 87 -220 142 -135 87 -436 281 -695 448 -44 28 -222 143 -395 255 -173
111 -353 228 -400 258 -47 30 -218 141 -380 245 -162 104 -314 202 -338 218
-24 16 -52 29 -63 29 -19 0 -19 -49 -19 -4950z"/>
</g>
</g>
<text text-anchor="middle" x="1399.77" y="-926" font-family="Times New Roman,serif" font-size="20.00">A_Submitted</text>
</g>
<!-- 1650870169184 -->
<g id="node23" class="node">
<title>1650870169184</title>
<polygon fill="#f7f7f7" stroke="black" points="1475.77,-844 1323.77,-844 1323.77,-790 1475.77,-790 1475.77,-844"/>
<g transform="translate(1425.77,-844.0) scale(0.011243534967393748,0.011302211302211302)">

<!--<rect width="100%" height="100%" fill="#DCDCDC"/>-->

<g transform="translate(0.000000,2035.000000) scale(0.100000,-0.100000)"
fill="#000000" stroke="none">
<path d="M174 20329 c-64 -24 -119 -77 -150 -143 l-24 -51 0 -9952 0 -9952 20
-54 c25 -67 77 -122 144 -153 l51 -24 22012 0 22012 0 54 20 c67 25 122 77
153 144 l24 51 0 9952 0 9952 -20 54 c-25 67 -77 122 -144 153 l-51 24 -22015
-1 c-21873 0 -22015 0 -22066 -20z m43746 -10154 l0 -9625 -21685 0 -21685 0
0 9625 0 9625 21685 0 21685 0 0 -9625z"/>
<path d="M17580 10180 c0 -4932 0 -4950 20 -4950 11 0 102 53 202 118 101 65
527 341 948 612 888 573 1230 793 1390 897 63 41 372 240 685 442 314 202 838
540 1165 751 327 211 795 513 1040 670 245 158 833 537 1307 843 475 306 865
557 868 557 3 0 5 -1098 5 -2440 l0 -2440 870 0 870 0 0 4940 0 4940 -870 0
-870 0 0 -2440 c0 -1342 -2 -2440 -5 -2440 -6 0 -11 3 -670 429 -302 195 -617
398 -700 451 -82 53 -463 298 -845 545 -382 246 -794 512 -915 590 -121 78
-362 233 -535 345 -173 112 -382 247 -465 300 -356 229 -925 596 -985 635 -36
23 -135 87 -220 142 -135 87 -436 281 -695 448 -44 28 -222 143 -395 255 -173
111 -353 228 -400 258 -47 30 -218 141 -380 245 -162 104 -314 202 -338 218
-24 16 -52 29 -63 29 -19 0 -19 -49 -19 -4950z"/>
</g>
</g>
<text text-anchor="middle" x="1399.77" y="-800" font-family="Times New Roman,serif" font-size="20.00">W_Handle leads</text>
</g>
<!-- 1650870171344&#45;&gt;1650870169184 -->
<g id="edge12" class="edge">
<title>1650870171344&#45;&gt;1650870169184</title>
<path fill="none" stroke="black" stroke-width="2" d="M1399.77,-915.7C1399.77,-897.87 1399.77,-874.05 1399.77,-854.39"/>
<polygon fill="black" stroke="black" stroke-width="2" points="1403.27,-854.26 1399.77,-844.26 1396.27,-854.26 1403.27,-854.26"/>
</g>
<!-- 1650870166784 -->
<g id="node27" class="node">
<title>1650870166784</title>
<polygon fill="#f7f7f7" stroke="black" points="1972.27,-844 1747.27,-844 1747.27,-790 1972.27,-790 1972.27,-844"/>
<g transform="translate(1922.27,-844.0) scale(0.011243534967393748,0.011302211302211302)">



<g transform="translate(0.000000,2035.000000) scale(0.100000,-0.100000)"
fill="#000000" stroke="none">
<path d="M174 20329 c-64 -24 -119 -77 -150 -143 l-24 -51 0 -9952 0 -9952 20
-54 c25 -67 77 -122 144 -153 l51 -24 22012 0 22012 0 54 20 c67 25 122 77
153 144 l24 51 0 9952 0 9952 -20 54 c-25 67 -77 122 -144 153 l-51 24 -22015
-1 c-21873 0 -22015 0 -22066 -20z m43746 -10154 l0 -9625 -21685 0 -21685 0
0 9625 0 9625 21685 0 21685 0 0 -9625z"/>
<path d="M31335 15824 c-237 -20 -503 -49 -585 -64 -379 -69 -489 -95 -775
-182 -297 -91 -563 -198 -855 -345 -102 -51 -203 -103 -225 -116 -244 -140
-381 -227 -570 -365 -652 -476 -1179 -1064 -1587 -1770 -56 -98 -238 -453
-238 -466 0 -3 -13 -34 -29 -68 -24 -54 -49 -113 -81 -193 -4 -11 -14 -36 -20
-55 -7 -19 -19 -48 -26 -65 -16 -40 -97 -290 -124 -385 -12 -41 -25 -82 -29
-90 -7 -13 -112 -15 -832 -18 l-824 -2 1465 -1465 c806 -806 1467 -1465 1470
-1465 5 0 2930 2923 2930 2927 0 2 -364 3 -810 3 -445 0 -810 3 -810 6 0 4 18
38 40 76 22 39 40 72 40 74 0 12 160 249 226 334 293 381 684 705 1108 918 73
37 148 73 167 81 42 16 98 39 124 51 41 19 292 99 360 115 259 62 345 74 648
94 240 16 556 -8 807 -60 128 -27 428 -117 495 -148 49 -24 144 -65 190 -83
28 -11 68 -30 90 -42 22 -13 72 -40 110 -61 39 -21 87 -48 107 -59 41 -23 272
-181 303 -207 11 -10 53 -45 93 -78 l74 -61 1494 0 1495 0 -75 148 c-265 521
-628 1022 -1051 1447 -185 187 -529 475 -710 598 -49 33 -114 78 -143 99 -179
132 -732 430 -966 519 -28 11 -60 23 -71 28 -124 53 -345 128 -530 182 -16 5
-52 15 -80 23 -136 40 -450 105 -625 130 -222 32 -246 35 -365 46 -120 12
-706 21 -800 14z"/>
<path d="M5860 10180 c0 -4923 0 -4950 20 -4950 11 0 66 30 122 67 57 36 351
226 653 421 303 195 651 420 775 500 124 80 365 235 535 345 171 110 378 244
460 297 83 54 526 339 985 635 459 296 1013 653 1230 793 217 141 557 360 755
487 198 127 748 482 1222 788 475 306 865 557 868 557 3 0 5 -1098 5 -2440 l0
-2440 870 0 870 0 0 4940 0 4940 -870 0 -870 0 0 -2440 c0 -1342 -2 -2440 -5
-2440 -6 0 -11 3 -670 429 -302 195 -617 398 -700 451 -82 53 -463 298 -845
545 -382 246 -794 512 -915 590 -121 78 -362 233 -535 345 -173 112 -382 247
-465 300 -238 153 -912 588 -1000 645 -44 28 -136 88 -205 132 -69 44 -235
151 -370 238 -277 179 -288 186 -720 465 -173 111 -353 228 -400 258 -47 30
-218 141 -380 245 -162 104 -314 202 -338 218 -24 16 -52 29 -63 29 -19 0 -19
-49 -19 -4950z"/>
<path d="M34330 10175 l-1465 -1465 823 0 c452 0 822 -3 822 -6 0 -3 -26 -51
-59 -107 -304 -528 -710 -933 -1236 -1233 -29 -17 -265 -134 -295 -146 -14 -6
-34 -14 -45 -19 -190 -80 -430 -151 -640 -190 -336 -63 -779 -70 -1080 -18
-142 25 -301 59 -365 79 -14 4 -52 16 -85 25 -33 10 -69 21 -80 25 -11 4 -42
16 -70 26 -100 35 -343 147 -460 212 -125 69 -308 189 -384 251 -25 20 -76 62
-115 93 l-71 57 -1497 1 c-824 0 -1498 -3 -1498 -6 0 -7 140 -277 185 -359
117 -209 370 -582 495 -731 19 -23 51 -61 70 -85 104 -130 217 -254 391 -428
111 -113 293 -276 383 -346 22 -16 58 -46 81 -65 308 -261 914 -620 1330 -787
33 -13 74 -30 90 -37 56 -25 279 -104 385 -136 58 -17 116 -36 130 -40 29 -10
194 -52 295 -75 39 -9 88 -20 110 -25 22 -5 67 -14 100 -20 33 -6 85 -15 115
-21 85 -15 259 -38 430 -56 198 -21 801 -24 1000 -5 362 35 735 101 1000 177
30 8 71 20 90 25 101 28 339 106 395 130 11 5 45 17 75 28 101 36 338 141 483
213 1241 620 2219 1683 2729 2969 52 130 153 429 183 540 10 36 22 71 28 78 7
9 184 12 821 12 l811 0 -1465 1465 c-806 806 -1467 1465 -1470 1465 -3 0 -664
-659 -1470 -1465z"/>
</g>
</g>
<text text-anchor="middle" x="1859.77" y="-800" font-family="Times New Roman,serif" font-size="20.00">W_Assess potential fraud</text>
</g>
<!-- 1650870171344&#45;&gt;1650870166784 -->
<g id="edge13" class="edge">
<title>1650870171344&#45;&gt;1650870166784</title>
<path fill="none" stroke="black" stroke-width="2" d="M1462.28,-925.15C1537.06,-904.99 1663.43,-870.93 1753.6,-846.62"/>
<polygon fill="black" stroke="black" stroke-width="2" points="1754.57,-849.98 1763.31,-844 1752.75,-843.22 1754.57,-849.98"/>
</g>
<!-- 1650870172496 -->
<g id="node6" class="node">
<title>1650870172496</title>
<polygon fill="#f2f2f2" stroke="black" points="2114.77,-338 1990.77,-338 1990.77,-302 2114.77,-302 2114.77,-338"/>
<text text-anchor="middle" x="2052.77" y="-315" font-family="Times New Roman,serif" font-size="20.00">O_Cancelled</text>
</g>
<!-- 1650870172496&#45;&gt;1650870166928 -->
<g id="edge14" class="edge">
<title>1650870172496&#45;&gt;1650870166928</title>
<path fill="none" stroke="black" stroke-width="2" d="M2057.2,-282C2059.42,-244.73 2056.26,-188.25 2022.77,-156 1957.58,-93.23 1661.05,-87.3 1572.69,-86.95"/>
<polygon fill="black" stroke="black" stroke-width="2" points="1572.53,-83.45 1562.53,-86.93 1572.52,-90.45 1572.53,-83.45"/>
</g>
<!-- 1650870172592 -->
<g id="node7" class="node">
<title>1650870172592</title>
<polygon fill="#f2f2f2" stroke="black" points="2123.77,-455 2015.77,-455 2015.77,-419 2123.77,-419 2123.77,-455"/>
<text text-anchor="middle" x="2069.77" y="-432" font-family="Times New Roman,serif" font-size="20.00">O_Created</text>
</g>
<!-- 1650870172592&#45;&gt;1650870172496 -->
<g id="edge2" class="edge">
<title>1650870172592&#45;&gt;1650870172496</title>
<path fill="none" stroke="black" stroke-width="2" d="M2067.18,-418.53C2064.42,-399.85 2060.01,-369.97 2056.79,-348.2"/>
<polygon fill="black" stroke="black" stroke-width="2" points="2060.24,-347.63 2055.32,-338.25 2053.32,-348.66 2060.24,-347.63"/>
</g>
<!-- 1650870172544 -->
<g id="node8" class="node">
<title>1650870172544</title>
<polygon fill="#f2f2f2" stroke="black" points="2123.77,-583 1981.77,-583 1981.77,-547 2123.77,-547 2123.77,-583"/>
<text text-anchor="middle" x="2052.77" y="-560" font-family="Times New Roman,serif" font-size="20.00">O_Create Offer</text>
</g>
<!-- 1650870172544&#45;&gt;1650870172592 -->
<g id="edge3" class="edge">
<title>1650870172544&#45;&gt;1650870172592</title>
<path fill="none" stroke="black" stroke-width="2" d="M2055.09,-546.74C2057.93,-525.73 2062.75,-489.97 2066.09,-465.23"/>
<polygon fill="black" stroke="black" stroke-width="2" points="2069.6,-465.43 2067.47,-455.05 2062.66,-464.49 2069.6,-465.43"/>
</g>
<!-- 1650870171200 -->
<g id="node9" class="node">
<title>1650870171200</title>
<polygon fill="#f7f7f7" stroke="black" points="1461.77,-718 1337.77,-718 1337.77,-664 1461.77,-664 1461.77,-718"/>
<g transform="translate(1411.77,-718.0) scale(0.011243534967393748,0.011302211302211302)">



<g transform="translate(0.000000,2035.000000) scale(0.100000,-0.100000)"
fill="#000000" stroke="none">
<path d="M174 20329 c-64 -24 -119 -77 -150 -143 l-24 -51 0 -9952 0 -9952 20
-54 c25 -67 77 -122 144 -153 l51 -24 22012 0 22012 0 54 20 c67 25 122 77
153 144 l24 51 0 9952 0 9952 -20 54 c-25 67 -77 122 -144 153 l-51 24 -22015
-1 c-21873 0 -22015 0 -22066 -20z m43746 -10154 l0 -9625 -21685 0 -21685 0
0 9625 0 9625 21685 0 21685 0 0 -9625z"/>
<path d="M31335 15824 c-237 -20 -503 -49 -585 -64 -379 -69 -489 -95 -775
-182 -297 -91 -563 -198 -855 -345 -102 -51 -203 -103 -225 -116 -244 -140
-381 -227 -570 -365 -652 -476 -1179 -1064 -1587 -1770 -56 -98 -238 -453
-238 -466 0 -3 -13 -34 -29 -68 -24 -54 -49 -113 -81 -193 -4 -11 -14 -36 -20
-55 -7 -19 -19 -48 -26 -65 -16 -40 -97 -290 -124 -385 -12 -41 -25 -82 -29
-90 -7 -13 -112 -15 -832 -18 l-824 -2 1465 -1465 c806 -806 1467 -1465 1470
-1465 5 0 2930 2923 2930 2927 0 2 -364 3 -810 3 -445 0 -810 3 -810 6 0 4 18
38 40 76 22 39 40 72 40 74 0 12 160 249 226 334 293 381 684 705 1108 918 73
37 148 73 167 81 42 16 98 39 124 51 41 19 292 99 360 115 259 62 345 74 648
94 240 16 556 -8 807 -60 128 -27 428 -117 495 -148 49 -24 144 -65 190 -83
28 -11 68 -30 90 -42 22 -13 72 -40 110 -61 39 -21 87 -48 107 -59 41 -23 272
-181 303 -207 11 -10 53 -45 93 -78 l74 -61 1494 0 1495 0 -75 148 c-265 521
-628 1022 -1051 1447 -185 187 -529 475 -710 598 -49 33 -114 78 -143 99 -179
132 -732 430 -966 519 -28 11 -60 23 -71 28 -124 53 -345 128 -530 182 -16 5
-52 15 -80 23 -136 40 -450 105 -625 130 -222 32 -246 35 -365 46 -120 12
-706 21 -800 14z"/>
<path d="M5860 10180 c0 -4923 0 -4950 20 -4950 11 0 66 30 122 67 57 36 351
226 653 421 303 195 651 420 775 500 124 80 365 235 535 345 171 110 378 244
460 297 83 54 526 339 985 635 459 296 1013 653 1230 793 217 141 557 360 755
487 198 127 748 482 1222 788 475 306 865 557 868 557 3 0 5 -1098 5 -2440 l0
-2440 870 0 870 0 0 4940 0 4940 -870 0 -870 0 0 -2440 c0 -1342 -2 -2440 -5
-2440 -6 0 -11 3 -670 429 -302 195 -617 398 -700 451 -82 53 -463 298 -845
545 -382 246 -794 512 -915 590 -121 78 -362 233 -535 345 -173 112 -382 247
-465 300 -238 153 -912 588 -1000 645 -44 28 -136 88 -205 132 -69 44 -235
151 -370 238 -277 179 -288 186 -720 465 -173 111 -353 228 -400 258 -47 30
-218 141 -380 245 -162 104 -314 202 -338 218 -24 16 -52 29 -63 29 -19 0 -19
-49 -19 -4950z"/>
<path d="M34330 10175 l-1465 -1465 823 0 c452 0 822 -3 822 -6 0 -3 -26 -51
-59 -107 -304 -528 -710 -933 -1236 -1233 -29 -17 -265 -134 -295 -146 -14 -6
-34 -14 -45 -19 -190 -80 -430 -151 -640 -190 -336 -63 -779 -70 -1080 -18
-142 25 -301 59 -365 79 -14 4 -52 16 -85 25 -33 10 -69 21 -80 25 -11 4 -42
16 -70 26 -100 35 -343 147 -460 212 -125 69 -308 189 -384 251 -25 20 -76 62
-115 93 l-71 57 -1497 1 c-824 0 -1498 -3 -1498 -6 0 -7 140 -277 185 -359
117 -209 370 -582 495 -731 19 -23 51 -61 70 -85 104 -130 217 -254 391 -428
111 -113 293 -276 383 -346 22 -16 58 -46 81 -65 308 -261 914 -620 1330 -787
33 -13 74 -30 90 -37 56 -25 279 -104 385 -136 58 -17 116 -36 130 -40 29 -10
194 -52 295 -75 39 -9 88 -20 110 -25 22 -5 67 -14 100 -20 33 -6 85 -15 115
-21 85 -15 259 -38 430 -56 198 -21 801 -24 1000 -5 362 35 735 101 1000 177
30 8 71 20 90 25 101 28 339 106 395 130 11 5 45 17 75 28 101 36 338 141 483
213 1241 620 2219 1683 2729 2969 52 130 153 429 183 540 10 36 22 71 28 78 7
9 184 12 821 12 l811 0 -1465 1465 c-806 806 -1467 1465 -1470 1465 -3 0 -664
-659 -1470 -1465z"/>
</g>
</g>
<text text-anchor="middle" x="1399.77" y="-674" font-family="Times New Roman,serif" font-size="20.00">O_Cancelled</text>
</g>
<!-- 1650870171200&#45;&gt;1650870166928 -->
<g id="edge15" class="edge">
<title>1650870171200&#45;&gt;1650870166928</title>
<path fill="none" stroke="black" stroke-width="2" d="M1393.92,-663.8C1379.35,-590.73 1349.99,-383.42 1459.77,-282 1537.96,-209.76 1865.05,-327.75 1937.77,-250 1966.3,-219.49 1964.61,-188.01 1937.77,-156 1890.71,-99.88 1651.92,-89.38 1573.07,-87.44"/>
<polygon fill="black" stroke="black" stroke-width="2" points="1572.71,-83.93 1562.64,-87.21 1572.56,-90.93 1572.71,-83.93"/>
</g>
<!-- 1650870170912 -->
<g id="node10" class="node">
<title>1650870170912</title>
<polygon fill="#f7f7f7" stroke="black" points="1115.27,-592 994.27,-592 994.27,-538 1115.27,-538 1115.27,-592"/>
<g transform="translate(1065.27,-592.0) scale(0.011243534967393748,0.011302211302211302)">

<!--<rect width="100%" height="100%" fill="#DCDCDC"/>-->

<g transform="translate(0.000000,2035.000000) scale(0.100000,-0.100000)"
fill="#000000" stroke="none">
<path d="M174 20329 c-64 -24 -119 -77 -150 -143 l-24 -51 0 -9952 0 -9952 20
-54 c25 -67 77 -122 144 -153 l51 -24 22012 0 22012 0 54 20 c67 25 122 77
153 144 l24 51 0 9952 0 9952 -20 54 c-25 67 -77 122 -144 153 l-51 24 -22015
-1 c-21873 0 -22015 0 -22066 -20z m43746 -10154 l0 -9625 -21685 0 -21685 0
0 9625 0 9625 21685 0 21685 0 0 -9625z"/>
<path d="M17580 10180 c0 -4932 0 -4950 20 -4950 11 0 102 53 202 118 101 65
527 341 948 612 888 573 1230 793 1390 897 63 41 372 240 685 442 314 202 838
540 1165 751 327 211 795 513 1040 670 245 158 833 537 1307 843 475 306 865
557 868 557 3 0 5 -1098 5 -2440 l0 -2440 870 0 870 0 0 4940 0 4940 -870 0
-870 0 0 -2440 c0 -1342 -2 -2440 -5 -2440 -6 0 -11 3 -670 429 -302 195 -617
398 -700 451 -82 53 -463 298 -845 545 -382 246 -794 512 -915 590 -121 78
-362 233 -535 345 -173 112 -382 247 -465 300 -356 229 -925 596 -985 635 -36
23 -135 87 -220 142 -135 87 -436 281 -695 448 -44 28 -222 143 -395 255 -173
111 -353 228 -400 258 -47 30 -218 141 -380 245 -162 104 -314 202 -338 218
-24 16 -52 29 -63 29 -19 0 -19 -49 -19 -4950z"/>
</g>
</g>
<text text-anchor="middle" x="1054.77" y="-548" font-family="Times New Roman,serif" font-size="20.00">A_Complete</text>
</g>
<!-- 1650870170912&#45;&gt;1650870171440 -->
<g id="edge16" class="edge">
<title>1650870170912&#45;&gt;1650870171440</title>
<path fill="none" stroke="black" stroke-width="2" d="M994.16,-561.27C962.72,-556.51 926.45,-545.17 904.77,-519 838.14,-438.58 852.21,-304.11 863.91,-240.05"/>
<polygon fill="black" stroke="black" stroke-width="2" points="867.39,-240.51 865.83,-230.03 860.51,-239.19 867.39,-240.51"/>
</g>
<!-- 1650870170912&#45;&gt;1650870173216 -->
<g id="edge17" class="edge">
<title>1650870170912&#45;&gt;1650870173216</title>
<path fill="none" stroke="black" stroke-width="2" d="M1115.64,-550.83C1147.73,-543.09 1187.44,-532.22 1221.77,-519 1306.18,-486.5 1396.42,-441.14 1468.61,-402.04"/>
<polygon fill="black" stroke="black" stroke-width="2" points="1470.66,-404.91 1477.77,-397.06 1467.31,-398.76 1470.66,-404.91"/>
</g>
<!-- 1650870170912&#45;&gt;1650870172496 -->
<g id="edge18" class="edge">
<title>1650870170912&#45;&gt;1650870172496</title>
<path fill="none" stroke="black" stroke-width="2" d="M1115.38,-559.06C1211.62,-551.35 1405.32,-536.37 1569.77,-527 1590.86,-525.8 1739.71,-525.65 1759.77,-519 1841.44,-491.93 1848.45,-458.15 1919.77,-410 1930.57,-402.7 1941.89,-395.09 1953.17,-387.52"/>
<polygon fill="black" stroke="black" stroke-width="2" points="1955.42,-390.23 1961.77,-381.75 1951.52,-384.41 1955.42,-390.23"/>
</g>
<!-- 1650870168944 -->
<g id="node21" class="node">
<title>1650870168944</title>
<polygon fill="#f7f7f7" stroke="black" points="1124.27,-230 1007.27,-230 1007.27,-176 1124.27,-176 1124.27,-230"/>
<g transform="translate(1074.27,-230.0) scale(0.011243534967393748,0.011302211302211302)">



<g transform="translate(0.000000,2035.000000) scale(0.100000,-0.100000)"
fill="#000000" stroke="none">
<path d="M174 20329 c-64 -24 -119 -77 -150 -143 l-24 -51 0 -9952 0 -9952 20
-54 c25 -67 77 -122 144 -153 l51 -24 22012 0 22012 0 54 20 c67 25 122 77
153 144 l24 51 0 9952 0 9952 -20 54 c-25 67 -77 122 -144 153 l-51 24 -22015
-1 c-21873 0 -22015 0 -22066 -20z m43746 -10154 l0 -9625 -21685 0 -21685 0
0 9625 0 9625 21685 0 21685 0 0 -9625z"/>
<path d="M31335 15824 c-237 -20 -503 -49 -585 -64 -379 -69 -489 -95 -775
-182 -297 -91 -563 -198 -855 -345 -102 -51 -203 -103 -225 -116 -244 -140
-381 -227 -570 -365 -652 -476 -1179 -1064 -1587 -1770 -56 -98 -238 -453
-238 -466 0 -3 -13 -34 -29 -68 -24 -54 -49 -113 -81 -193 -4 -11 -14 -36 -20
-55 -7 -19 -19 -48 -26 -65 -16 -40 -97 -290 -124 -385 -12 -41 -25 -82 -29
-90 -7 -13 -112 -15 -832 -18 l-824 -2 1465 -1465 c806 -806 1467 -1465 1470
-1465 5 0 2930 2923 2930 2927 0 2 -364 3 -810 3 -445 0 -810 3 -810 6 0 4 18
38 40 76 22 39 40 72 40 74 0 12 160 249 226 334 293 381 684 705 1108 918 73
37 148 73 167 81 42 16 98 39 124 51 41 19 292 99 360 115 259 62 345 74 648
94 240 16 556 -8 807 -60 128 -27 428 -117 495 -148 49 -24 144 -65 190 -83
28 -11 68 -30 90 -42 22 -13 72 -40 110 -61 39 -21 87 -48 107 -59 41 -23 272
-181 303 -207 11 -10 53 -45 93 -78 l74 -61 1494 0 1495 0 -75 148 c-265 521
-628 1022 -1051 1447 -185 187 -529 475 -710 598 -49 33 -114 78 -143 99 -179
132 -732 430 -966 519 -28 11 -60 23 -71 28 -124 53 -345 128 -530 182 -16 5
-52 15 -80 23 -136 40 -450 105 -625 130 -222 32 -246 35 -365 46 -120 12
-706 21 -800 14z"/>
<path d="M5860 10180 c0 -4923 0 -4950 20 -4950 11 0 66 30 122 67 57 36 351
226 653 421 303 195 651 420 775 500 124 80 365 235 535 345 171 110 378 244
460 297 83 54 526 339 985 635 459 296 1013 653 1230 793 217 141 557 360 755
487 198 127 748 482 1222 788 475 306 865 557 868 557 3 0 5 -1098 5 -2440 l0
-2440 870 0 870 0 0 4940 0 4940 -870 0 -870 0 0 -2440 c0 -1342 -2 -2440 -5
-2440 -6 0 -11 3 -670 429 -302 195 -617 398 -700 451 -82 53 -463 298 -845
545 -382 246 -794 512 -915 590 -121 78 -362 233 -535 345 -173 112 -382 247
-465 300 -238 153 -912 588 -1000 645 -44 28 -136 88 -205 132 -69 44 -235
151 -370 238 -277 179 -288 186 -720 465 -173 111 -353 228 -400 258 -47 30
-218 141 -380 245 -162 104 -314 202 -338 218 -24 16 -52 29 -63 29 -19 0 -19
-49 -19 -4950z"/>
<path d="M34330 10175 l-1465 -1465 823 0 c452 0 822 -3 822 -6 0 -3 -26 -51
-59 -107 -304 -528 -710 -933 -1236 -1233 -29 -17 -265 -134 -295 -146 -14 -6
-34 -14 -45 -19 -190 -80 -430 -151 -640 -190 -336 -63 -779 -70 -1080 -18
-142 25 -301 59 -365 79 -14 4 -52 16 -85 25 -33 10 -69 21 -80 25 -11 4 -42
16 -70 26 -100 35 -343 147 -460 212 -125 69 -308 189 -384 251 -25 20 -76 62
-115 93 l-71 57 -1497 1 c-824 0 -1498 -3 -1498 -6 0 -7 140 -277 185 -359
117 -209 370 -582 495 -731 19 -23 51 -61 70 -85 104 -130 217 -254 391 -428
111 -113 293 -276 383 -346 22 -16 58 -46 81 -65 308 -261 914 -620 1330 -787
33 -13 74 -30 90 -37 56 -25 279 -104 385 -136 58 -17 116 -36 130 -40 29 -10
194 -52 295 -75 39 -9 88 -20 110 -25 22 -5 67 -14 100 -20 33 -6 85 -15 115
-21 85 -15 259 -38 430 -56 198 -21 801 -24 1000 -5 362 35 735 101 1000 177
30 8 71 20 90 25 101 28 339 106 395 130 11 5 45 17 75 28 101 36 338 141 483
213 1241 620 2219 1683 2729 2969 52 130 153 429 183 540 10 36 22 71 28 78 7
9 184 12 821 12 l811 0 -1465 1465 c-806 806 -1467 1465 -1470 1465 -3 0 -664
-659 -1470 -1465z"/>
</g>
</g>
<text text-anchor="middle" x="1065.77" y="-186" font-family="Times New Roman,serif" font-size="20.00">O_Returned</text>
</g>
<!-- 1650870170912&#45;&gt;1650870168944 -->
<g id="edge19" class="edge">
<title>1650870170912&#45;&gt;1650870168944</title>
<path fill="none" stroke="black" stroke-width="2" d="M994.14,-546.68C981.33,-540.11 969.39,-531.16 961.77,-519 905.81,-429.76 914.66,-376.21 961.77,-282 971.18,-263.18 987.53,-247.72 1004.52,-235.67"/>
<polygon fill="black" stroke="black" stroke-width="2" points="1006.55,-238.52 1012.88,-230.03 1002.63,-232.72 1006.55,-238.52"/>
</g>
<!-- 1650870169808 -->
<g id="node22" class="node">
<title>1650870169808</title>
<polygon fill="#f7f7f7" stroke="black" points="1408.77,-230 1196.77,-230 1196.77,-176 1408.77,-176 1408.77,-230"/>
<g transform="translate(1358.77,-230.0) scale(0.011243534967393748,0.011302211302211302)">



<g transform="translate(0.000000,2035.000000) scale(0.100000,-0.100000)"
fill="#000000" stroke="none">
<path d="M174 20329 c-64 -24 -119 -77 -150 -143 l-24 -51 0 -9952 0 -9952 20
-54 c25 -67 77 -122 144 -153 l51 -24 22012 0 22012 0 54 20 c67 25 122 77
153 144 l24 51 0 9952 0 9952 -20 54 c-25 67 -77 122 -144 153 l-51 24 -22015
-1 c-21873 0 -22015 0 -22066 -20z m43746 -10154 l0 -9625 -21685 0 -21685 0
0 9625 0 9625 21685 0 21685 0 0 -9625z"/>
<path d="M31335 15824 c-237 -20 -503 -49 -585 -64 -379 -69 -489 -95 -775
-182 -297 -91 -563 -198 -855 -345 -102 -51 -203 -103 -225 -116 -244 -140
-381 -227 -570 -365 -652 -476 -1179 -1064 -1587 -1770 -56 -98 -238 -453
-238 -466 0 -3 -13 -34 -29 -68 -24 -54 -49 -113 -81 -193 -4 -11 -14 -36 -20
-55 -7 -19 -19 -48 -26 -65 -16 -40 -97 -290 -124 -385 -12 -41 -25 -82 -29
-90 -7 -13 -112 -15 -832 -18 l-824 -2 1465 -1465 c806 -806 1467 -1465 1470
-1465 5 0 2930 2923 2930 2927 0 2 -364 3 -810 3 -445 0 -810 3 -810 6 0 4 18
38 40 76 22 39 40 72 40 74 0 12 160 249 226 334 293 381 684 705 1108 918 73
37 148 73 167 81 42 16 98 39 124 51 41 19 292 99 360 115 259 62 345 74 648
94 240 16 556 -8 807 -60 128 -27 428 -117 495 -148 49 -24 144 -65 190 -83
28 -11 68 -30 90 -42 22 -13 72 -40 110 -61 39 -21 87 -48 107 -59 41 -23 272
-181 303 -207 11 -10 53 -45 93 -78 l74 -61 1494 0 1495 0 -75 148 c-265 521
-628 1022 -1051 1447 -185 187 -529 475 -710 598 -49 33 -114 78 -143 99 -179
132 -732 430 -966 519 -28 11 -60 23 -71 28 -124 53 -345 128 -530 182 -16 5
-52 15 -80 23 -136 40 -450 105 -625 130 -222 32 -246 35 -365 46 -120 12
-706 21 -800 14z"/>
<path d="M5860 10180 c0 -4923 0 -4950 20 -4950 11 0 66 30 122 67 57 36 351
226 653 421 303 195 651 420 775 500 124 80 365 235 535 345 171 110 378 244
460 297 83 54 526 339 985 635 459 296 1013 653 1230 793 217 141 557 360 755
487 198 127 748 482 1222 788 475 306 865 557 868 557 3 0 5 -1098 5 -2440 l0
-2440 870 0 870 0 0 4940 0 4940 -870 0 -870 0 0 -2440 c0 -1342 -2 -2440 -5
-2440 -6 0 -11 3 -670 429 -302 195 -617 398 -700 451 -82 53 -463 298 -845
545 -382 246 -794 512 -915 590 -121 78 -362 233 -535 345 -173 112 -382 247
-465 300 -238 153 -912 588 -1000 645 -44 28 -136 88 -205 132 -69 44 -235
151 -370 238 -277 179 -288 186 -720 465 -173 111 -353 228 -400 258 -47 30
-218 141 -380 245 -162 104 -314 202 -338 218 -24 16 -52 29 -63 29 -19 0 -19
-49 -19 -4950z"/>
<path d="M34330 10175 l-1465 -1465 823 0 c452 0 822 -3 822 -6 0 -3 -26 -51
-59 -107 -304 -528 -710 -933 -1236 -1233 -29 -17 -265 -134 -295 -146 -14 -6
-34 -14 -45 -19 -190 -80 -430 -151 -640 -190 -336 -63 -779 -70 -1080 -18
-142 25 -301 59 -365 79 -14 4 -52 16 -85 25 -33 10 -69 21 -80 25 -11 4 -42
16 -70 26 -100 35 -343 147 -460 212 -125 69 -308 189 -384 251 -25 20 -76 62
-115 93 l-71 57 -1497 1 c-824 0 -1498 -3 -1498 -6 0 -7 140 -277 185 -359
117 -209 370 -582 495 -731 19 -23 51 -61 70 -85 104 -130 217 -254 391 -428
111 -113 293 -276 383 -346 22 -16 58 -46 81 -65 308 -261 914 -620 1330 -787
33 -13 74 -30 90 -37 56 -25 279 -104 385 -136 58 -17 116 -36 130 -40 29 -10
194 -52 295 -75 39 -9 88 -20 110 -25 22 -5 67 -14 100 -20 33 -6 85 -15 115
-21 85 -15 259 -38 430 -56 198 -21 801 -24 1000 -5 362 35 735 101 1000 177
30 8 71 20 90 25 101 28 339 106 395 130 11 5 45 17 75 28 101 36 338 141 483
213 1241 620 2219 1683 2729 2969 52 130 153 429 183 540 10 36 22 71 28 78 7
9 184 12 821 12 l811 0 -1465 1465 c-806 806 -1467 1465 -1470 1465 -3 0 -664
-659 -1470 -1465z"/>
</g>
</g>
<text text-anchor="middle" x="1302.77" y="-186" font-family="Times New Roman,serif" font-size="20.00">W_Validate application</text>
</g>
<!-- 1650870170912&#45;&gt;1650870169808 -->
<g id="edge20" class="edge">
<title>1650870170912&#45;&gt;1650870169808</title>
<path fill="none" stroke="black" stroke-width="2" d="M1042.58,-537.72C1019.48,-483.55 976.64,-358.17 1035.77,-282 1070.93,-236.7 1105.68,-265.96 1160.77,-250 1178.51,-244.86 1197.39,-239.01 1215.39,-233.26"/>
<polygon fill="black" stroke="black" stroke-width="2" points="1216.84,-236.47 1225.28,-230.07 1214.69,-229.8 1216.84,-236.47"/>
</g>
<!-- 1650870169616 -->
<g id="node24" class="node">
<title>1650870169616</title>
<polygon fill="#f7f7f7" stroke="black" points="1614.27,-230 1481.27,-230 1481.27,-176 1614.27,-176 1614.27,-230"/>
<g transform="translate(1564.27,-230.0) scale(0.011243534967393748,0.011302211302211302)">



<g transform="translate(0.000000,2035.000000) scale(0.100000,-0.100000)"
fill="#000000" stroke="none">
<path d="M174 20329 c-64 -24 -119 -77 -150 -143 l-24 -51 0 -9952 0 -9952 20
-54 c25 -67 77 -122 144 -153 l51 -24 22012 0 22012 0 54 20 c67 25 122 77
153 144 l24 51 0 9952 0 9952 -20 54 c-25 67 -77 122 -144 153 l-51 24 -22015
-1 c-21873 0 -22015 0 -22066 -20z m43746 -10154 l0 -9625 -21685 0 -21685 0
0 9625 0 9625 21685 0 21685 0 0 -9625z"/>
<path d="M31335 15824 c-237 -20 -503 -49 -585 -64 -379 -69 -489 -95 -775
-182 -297 -91 -563 -198 -855 -345 -102 -51 -203 -103 -225 -116 -244 -140
-381 -227 -570 -365 -652 -476 -1179 -1064 -1587 -1770 -56 -98 -238 -453
-238 -466 0 -3 -13 -34 -29 -68 -24 -54 -49 -113 -81 -193 -4 -11 -14 -36 -20
-55 -7 -19 -19 -48 -26 -65 -16 -40 -97 -290 -124 -385 -12 -41 -25 -82 -29
-90 -7 -13 -112 -15 -832 -18 l-824 -2 1465 -1465 c806 -806 1467 -1465 1470
-1465 5 0 2930 2923 2930 2927 0 2 -364 3 -810 3 -445 0 -810 3 -810 6 0 4 18
38 40 76 22 39 40 72 40 74 0 12 160 249 226 334 293 381 684 705 1108 918 73
37 148 73 167 81 42 16 98 39 124 51 41 19 292 99 360 115 259 62 345 74 648
94 240 16 556 -8 807 -60 128 -27 428 -117 495 -148 49 -24 144 -65 190 -83
28 -11 68 -30 90 -42 22 -13 72 -40 110 -61 39 -21 87 -48 107 -59 41 -23 272
-181 303 -207 11 -10 53 -45 93 -78 l74 -61 1494 0 1495 0 -75 148 c-265 521
-628 1022 -1051 1447 -185 187 -529 475 -710 598 -49 33 -114 78 -143 99 -179
132 -732 430 -966 519 -28 11 -60 23 -71 28 -124 53 -345 128 -530 182 -16 5
-52 15 -80 23 -136 40 -450 105 -625 130 -222 32 -246 35 -365 46 -120 12
-706 21 -800 14z"/>
<path d="M5860 10180 c0 -4923 0 -4950 20 -4950 11 0 66 30 122 67 57 36 351
226 653 421 303 195 651 420 775 500 124 80 365 235 535 345 171 110 378 244
460 297 83 54 526 339 985 635 459 296 1013 653 1230 793 217 141 557 360 755
487 198 127 748 482 1222 788 475 306 865 557 868 557 3 0 5 -1098 5 -2440 l0
-2440 870 0 870 0 0 4940 0 4940 -870 0 -870 0 0 -2440 c0 -1342 -2 -2440 -5
-2440 -6 0 -11 3 -670 429 -302 195 -617 398 -700 451 -82 53 -463 298 -845
545 -382 246 -794 512 -915 590 -121 78 -362 233 -535 345 -173 112 -382 247
-465 300 -238 153 -912 588 -1000 645 -44 28 -136 88 -205 132 -69 44 -235
151 -370 238 -277 179 -288 186 -720 465 -173 111 -353 228 -400 258 -47 30
-218 141 -380 245 -162 104 -314 202 -338 218 -24 16 -52 29 -63 29 -19 0 -19
-49 -19 -4950z"/>
<path d="M34330 10175 l-1465 -1465 823 0 c452 0 822 -3 822 -6 0 -3 -26 -51
-59 -107 -304 -528 -710 -933 -1236 -1233 -29 -17 -265 -134 -295 -146 -14 -6
-34 -14 -45 -19 -190 -80 -430 -151 -640 -190 -336 -63 -779 -70 -1080 -18
-142 25 -301 59 -365 79 -14 4 -52 16 -85 25 -33 10 -69 21 -80 25 -11 4 -42
16 -70 26 -100 35 -343 147 -460 212 -125 69 -308 189 -384 251 -25 20 -76 62
-115 93 l-71 57 -1497 1 c-824 0 -1498 -3 -1498 -6 0 -7 140 -277 185 -359
117 -209 370 -582 495 -731 19 -23 51 -61 70 -85 104 -130 217 -254 391 -428
111 -113 293 -276 383 -346 22 -16 58 -46 81 -65 308 -261 914 -620 1330 -787
33 -13 74 -30 90 -37 56 -25 279 -104 385 -136 58 -17 116 -36 130 -40 29 -10
194 -52 295 -75 39 -9 88 -20 110 -25 22 -5 67 -14 100 -20 33 -6 85 -15 115
-21 85 -15 259 -38 430 -56 198 -21 801 -24 1000 -5 362 35 735 101 1000 177
30 8 71 20 90 25 101 28 339 106 395 130 11 5 45 17 75 28 101 36 338 141 483
213 1241 620 2219 1683 2729 2969 52 130 153 429 183 540 10 36 22 71 28 78 7
9 184 12 821 12 l811 0 -1465 1465 c-806 806 -1467 1465 -1470 1465 -3 0 -664
-659 -1470 -1465z"/>
</g>
</g>
<text text-anchor="middle" x="1547.77" y="-186" font-family="Times New Roman,serif" font-size="20.00">A_Incomplete</text>
</g>
<!-- 1650870170912&#45;&gt;1650870169616 -->
<g id="edge21" class="edge">
<title>1650870170912&#45;&gt;1650870169616</title>
<path fill="none" stroke="black" stroke-width="2" d="M1050.74,-537.78C1043.75,-481.43 1036.43,-348.52 1109.77,-282 1165.16,-231.76 1372.45,-269.05 1444.77,-250 1459.52,-246.11 1474.84,-240.33 1489.01,-234.16"/>
<polygon fill="black" stroke="black" stroke-width="2" points="1490.44,-237.36 1498.14,-230.07 1487.58,-230.97 1490.44,-237.36"/>
</g>
<!-- 1650870169136 -->
<g id="node25" class="node">
<title>1650870169136</title>
<polygon fill="#f7f7f7" stroke="black" points="1901.27,-230 1686.27,-230 1686.27,-176 1901.27,-176 1901.27,-230"/>
<g transform="translate(1851.27,-230.0) scale(0.011243534967393748,0.011302211302211302)">



<g transform="translate(0.000000,2035.000000) scale(0.100000,-0.100000)"
fill="#000000" stroke="none">
<path d="M174 20329 c-64 -24 -119 -77 -150 -143 l-24 -51 0 -9952 0 -9952 20
-54 c25 -67 77 -122 144 -153 l51 -24 22012 0 22012 0 54 20 c67 25 122 77
153 144 l24 51 0 9952 0 9952 -20 54 c-25 67 -77 122 -144 153 l-51 24 -22015
-1 c-21873 0 -22015 0 -22066 -20z m43746 -10154 l0 -9625 -21685 0 -21685 0
0 9625 0 9625 21685 0 21685 0 0 -9625z"/>
<path d="M31335 15824 c-237 -20 -503 -49 -585 -64 -379 -69 -489 -95 -775
-182 -297 -91 -563 -198 -855 -345 -102 -51 -203 -103 -225 -116 -244 -140
-381 -227 -570 -365 -652 -476 -1179 -1064 -1587 -1770 -56 -98 -238 -453
-238 -466 0 -3 -13 -34 -29 -68 -24 -54 -49 -113 -81 -193 -4 -11 -14 -36 -20
-55 -7 -19 -19 -48 -26 -65 -16 -40 -97 -290 -124 -385 -12 -41 -25 -82 -29
-90 -7 -13 -112 -15 -832 -18 l-824 -2 1465 -1465 c806 -806 1467 -1465 1470
-1465 5 0 2930 2923 2930 2927 0 2 -364 3 -810 3 -445 0 -810 3 -810 6 0 4 18
38 40 76 22 39 40 72 40 74 0 12 160 249 226 334 293 381 684 705 1108 918 73
37 148 73 167 81 42 16 98 39 124 51 41 19 292 99 360 115 259 62 345 74 648
94 240 16 556 -8 807 -60 128 -27 428 -117 495 -148 49 -24 144 -65 190 -83
28 -11 68 -30 90 -42 22 -13 72 -40 110 -61 39 -21 87 -48 107 -59 41 -23 272
-181 303 -207 11 -10 53 -45 93 -78 l74 -61 1494 0 1495 0 -75 148 c-265 521
-628 1022 -1051 1447 -185 187 -529 475 -710 598 -49 33 -114 78 -143 99 -179
132 -732 430 -966 519 -28 11 -60 23 -71 28 -124 53 -345 128 -530 182 -16 5
-52 15 -80 23 -136 40 -450 105 -625 130 -222 32 -246 35 -365 46 -120 12
-706 21 -800 14z"/>
<path d="M5860 10180 c0 -4923 0 -4950 20 -4950 11 0 66 30 122 67 57 36 351
226 653 421 303 195 651 420 775 500 124 80 365 235 535 345 171 110 378 244
460 297 83 54 526 339 985 635 459 296 1013 653 1230 793 217 141 557 360 755
487 198 127 748 482 1222 788 475 306 865 557 868 557 3 0 5 -1098 5 -2440 l0
-2440 870 0 870 0 0 4940 0 4940 -870 0 -870 0 0 -2440 c0 -1342 -2 -2440 -5
-2440 -6 0 -11 3 -670 429 -302 195 -617 398 -700 451 -82 53 -463 298 -845
545 -382 246 -794 512 -915 590 -121 78 -362 233 -535 345 -173 112 -382 247
-465 300 -238 153 -912 588 -1000 645 -44 28 -136 88 -205 132 -69 44 -235
151 -370 238 -277 179 -288 186 -720 465 -173 111 -353 228 -400 258 -47 30
-218 141 -380 245 -162 104 -314 202 -338 218 -24 16 -52 29 -63 29 -19 0 -19
-49 -19 -4950z"/>
<path d="M34330 10175 l-1465 -1465 823 0 c452 0 822 -3 822 -6 0 -3 -26 -51
-59 -107 -304 -528 -710 -933 -1236 -1233 -29 -17 -265 -134 -295 -146 -14 -6
-34 -14 -45 -19 -190 -80 -430 -151 -640 -190 -336 -63 -779 -70 -1080 -18
-142 25 -301 59 -365 79 -14 4 -52 16 -85 25 -33 10 -69 21 -80 25 -11 4 -42
16 -70 26 -100 35 -343 147 -460 212 -125 69 -308 189 -384 251 -25 20 -76 62
-115 93 l-71 57 -1497 1 c-824 0 -1498 -3 -1498 -6 0 -7 140 -277 185 -359
117 -209 370 -582 495 -731 19 -23 51 -61 70 -85 104 -130 217 -254 391 -428
111 -113 293 -276 383 -346 22 -16 58 -46 81 -65 308 -261 914 -620 1330 -787
33 -13 74 -30 90 -37 56 -25 279 -104 385 -136 58 -17 116 -36 130 -40 29 -10
194 -52 295 -75 39 -9 88 -20 110 -25 22 -5 67 -14 100 -20 33 -6 85 -15 115
-21 85 -15 259 -38 430 -56 198 -21 801 -24 1000 -5 362 35 735 101 1000 177
30 8 71 20 90 25 101 28 339 106 395 130 11 5 45 17 75 28 101 36 338 141 483
213 1241 620 2219 1683 2729 2969 52 130 153 429 183 540 10 36 22 71 28 78 7
9 184 12 821 12 l811 0 -1465 1465 c-806 806 -1467 1465 -1470 1465 -3 0 -664
-659 -1470 -1465z"/>
</g>
</g>
<text text-anchor="middle" x="1793.77" y="-186" font-family="Times New Roman,serif" font-size="20.00">W_Call incomplete files</text>
</g>
<!-- 1650870170912&#45;&gt;1650870169136 -->
<g id="edge22" class="edge">
<title>1650870170912&#45;&gt;1650870169136</title>
<path fill="none" stroke="black" stroke-width="2" d="M1076.12,-537.92C1103.5,-505.48 1153.47,-449.55 1203.77,-410 1292.08,-340.55 1315.65,-318.93 1421.77,-282 1518.82,-248.23 1550.59,-272.93 1650.77,-250 1670.65,-245.45 1691.73,-239.39 1711.42,-233.16"/>
<polygon fill="black" stroke="black" stroke-width="2" points="1712.51,-236.48 1720.96,-230.1 1710.37,-229.82 1712.51,-236.48"/>
</g>
<!-- 1650870163424 -->
<g id="node11" class="node">
<title>1650870163424</title>
<ellipse fill="none" stroke="black" cx="568.77" cy="-437" rx="18" ry="18"/>
<g transform="translate(550.766,-455.0) scale(0.02122641509433962,0.02122641509433962)">

<g transform="translate(0.000000,1696.000000) scale(0.100000,-0.100000)"
fill="#000000" stroke="none">
<path d="M8130 16954 c-516 -29 -894 -74 -1320 -160 -903 -181 -1755 -502
-2555 -962 -355 -204 -646 -400 -980 -661 -2289 -1787 -3498 -4573 -3239
-7466 124 -1385 606 -2753 1377 -3910 511 -765 1134 -1437 1862 -2006 1246
-975 2752 -1581 4335 -1743 405 -42 1056 -54 1425 -28 1031 75 1987 311 2895
715 1449 644 2723 1721 3608 3049 1187 1782 1652 3931 1312 6058 -225 1401
-815 2749 -1694 3865 -961 1221 -2206 2142 -3641 2694 -773 296 -1604 480
-2450 541 -151 11 -813 21 -935 14z m935 -473 c1421 -115 2709 -557 3860
-1324 699 -467 1350 -1071 1876 -1742 771 -984 1297 -2128 1543 -3355 300
-1502 164 -3078 -389 -4490 -216 -553 -483 -1064 -807 -1549 -650 -969 -1558
-1833 -2552 -2425 -1899 -1133 -4174 -1434 -6298 -835 -1821 513 -3419 1674
-4484 3259 -879 1307 -1354 2863 -1354 4440 0 1817 591 3542 1699 4955 642
819 1455 1523 2346 2032 1077 616 2235 959 3515 1043 169 11 871 5 1045 -9z"/>
<path d="M5040 11915 l-1105 -1105 1163 -1163 c639 -639 1162 -1167 1162
-1172 0 -5 -523 -533 -1162 -1172 l-1163 -1163 1108 -1107 1107 -1108 1163
1163 c639 639 1167 1162 1172 1162 5 0 533 -523 1172 -1162 l1163 -1163 1107
1108 1108 1107 -1163 1163 c-639 639 -1162 1167 -1162 1172 0 5 523 533 1162
1172 l1163 1163 -1108 1107 -1107 1108 -1163 -1163 c-639 -639 -1167 -1162
-1172 -1162 -6 0 -532 522 -1170 1160 -638 638 -1162 1160 -1165 1160 -3 0
-502 -497 -1110 -1105z"/>
</g>
</g>
</g>
<!-- 1650870172064 -->
<g id="node12" class="node">
<title>1650870172064</title>
<polygon fill="#f2f2f2" stroke="black" points="608.77,-338 484.77,-338 484.77,-302 608.77,-302 608.77,-338"/>
<text text-anchor="middle" x="546.77" y="-315" font-family="Times New Roman,serif" font-size="20.00">A_Cancelled</text>
</g>
<!-- 1650870163424&#45;&gt;1650870172064 -->
<g id="edge4" class="edge">
<title>1650870163424&#45;&gt;1650870172064</title>
<path fill="none" stroke="black" stroke-width="2" d="M565.52,-419.03C561.36,-397.29 554.19,-359.81 550.03,-338.04"/>
</g>
<!-- 1650870171920 -->
<g id="node13" class="node">
<title>1650870171920</title>
<polygon fill="#ededed" stroke="black" points="228.27,-221 109.27,-221 109.27,-185 228.27,-185 228.27,-221"/>
<text text-anchor="middle" x="168.77" y="-198" font-family="Times New Roman,serif" font-size="20.00">O_Accepted</text>
</g>
<!-- 1650870163424&#45;&gt;1650870171920 -->
<g id="edge6" class="edge">
<title>1650870163424&#45;&gt;1650870171920</title>
<path fill="none" stroke="black" stroke-width="2" d="M553.57,-427.19C501.44,-396.95 327.77,-296.22 232.56,-241"/>
</g>
<!-- 1650870170672 -->
<g id="node15" class="node">
<title>1650870170672</title>
<polygon fill="#ededed" stroke="black" points="588.77,-230 480.77,-230 480.77,-176 588.77,-176 588.77,-230"/>
<g transform="translate(538.766,-230.0) scale(0.011243534967393748,0.011302211302211302)">

<!--<rect width="100%" height="100%" fill="#DCDCDC"/>-->

<g transform="translate(0.000000,2035.000000) scale(0.100000,-0.100000)"
fill="#000000" stroke="none">
<path d="M174 20329 c-64 -24 -119 -77 -150 -143 l-24 -51 0 -9952 c0 -9899 0
-9953 20 -10005 24 -65 79 -124 145 -154 l50 -24 22012 0 22012 0 54 20 c67
25 122 77 153 144 l24 51 0 9952 0 9952 -20 54 c-25 67 -77 122 -144 153 l-51
24 -22015 -1 c-21873 0 -22015 0 -22066 -20z m43746 -10154 l0 -9625 -21685 0
-21685 0 0 9625 0 9625 21685 0 21685 0 0 -9625z"/>
<path d="M22005 15834 c-237 -20 -503 -49 -585 -64 -379 -69 -489 -95 -775
-182 -297 -91 -563 -198 -855 -345 -102 -51 -203 -103 -225 -116 -244 -140
-381 -227 -570 -365 -652 -476 -1178 -1062 -1585 -1767 -58 -100 -240 -456
-240 -469 0 -3 -13 -34 -29 -68 -24 -54 -49 -113 -81 -193 -4 -11 -14 -36 -20
-55 -7 -19 -19 -48 -26 -65 -16 -40 -97 -290 -124 -385 -12 -41 -25 -82 -29
-90 -7 -13 -112 -15 -832 -18 l-824 -2 1465 -1465 c806 -806 1467 -1465 1470
-1465 5 0 2930 2923 2930 2927 0 2 -364 3 -810 3 -445 0 -810 3 -810 6 0 4 18
38 40 76 22 39 40 72 40 74 0 12 160 249 226 334 293 381 684 705 1108 918 73
37 148 73 167 81 42 16 98 39 124 51 41 19 292 99 360 115 259 62 345 74 648
94 240 16 556 -8 807 -60 128 -27 428 -117 495 -148 49 -24 144 -65 190 -83
28 -11 68 -30 90 -42 22 -13 72 -40 110 -61 39 -21 87 -48 107 -59 41 -23 272
-181 303 -207 11 -10 53 -45 93 -78 l74 -61 1494 0 1495 0 -75 148 c-265 521
-628 1022 -1051 1447 -185 187 -529 475 -710 598 -49 33 -114 78 -142 99 -84
61 -450 277 -583 344 -106 53 -322 151 -385 175 -27 11 -59 23 -70 28 -124 53
-345 128 -530 182 -16 5 -52 15 -80 23 -136 40 -450 105 -625 130 -222 32
-246 35 -365 46 -120 12 -706 21 -800 14z"/>
<path d="M25000 10185 l-1465 -1465 823 0 c452 0 822 -3 822 -6 0 -3 -26 -51
-59 -107 -304 -528 -710 -933 -1236 -1233 -29 -17 -265 -134 -295 -146 -14 -6
-34 -14 -45 -19 -190 -80 -430 -151 -640 -190 -336 -63 -779 -70 -1080 -18
-142 25 -301 59 -365 79 -14 4 -52 16 -85 25 -33 10 -69 21 -80 25 -11 4 -42
16 -70 26 -100 35 -343 147 -460 212 -125 69 -308 189 -384 251 -25 20 -76 62
-115 93 l-71 57 -1497 1 c-824 0 -1498 -3 -1498 -6 0 -8 150 -297 179 -344 11
-19 24 -42 28 -50 48 -103 357 -557 473 -696 19 -23 51 -61 70 -85 104 -130
217 -254 391 -428 111 -113 293 -276 383 -346 22 -16 58 -46 81 -65 308 -261
914 -620 1330 -787 33 -13 74 -30 90 -37 56 -25 279 -104 385 -136 58 -17 116
-36 130 -41 31 -11 288 -75 356 -89 269 -55 408 -76 694 -107 198 -21 801 -24
1000 -5 362 35 735 101 1000 177 30 8 71 20 90 25 101 28 339 106 395 130 11
5 45 17 75 28 101 36 338 141 483 213 639 319 1211 757 1698 1299 227 253 493
620 668 920 63 107 233 442 285 560 84 190 213 549 261 730 10 36 22 71 28 78
7 9 184 12 821 12 l811 0 -1465 1465 c-806 806 -1467 1465 -1470 1465 -3 0
-664 -659 -1470 -1465z"/>
</g>
</g>
<text text-anchor="middle" x="534.77" y="-186" font-family="Times New Roman,serif" font-size="20.00">A_Denied</text>
</g>
<!-- 1650870163424&#45;&gt;1650870170672 -->
<g id="edge7" class="edge">
<title>1650870163424&#45;&gt;1650870170672</title>
<path fill="none" stroke="black" stroke-width="2" d="M552.45,-428.6C525,-415.12 470.44,-383.69 448.77,-338 438.1,-315.51 438.68,-304.76 448.77,-282 453.98,-270.24 461.93,-259.5 470.94,-250"/>
</g>
<!-- 1650870172064&#45;&gt;1650870166928 -->
<g id="edge23" class="edge">
<title>1650870172064&#45;&gt;1650870166928</title>
<path fill="none" stroke="black" stroke-width="2" d="M628.76,-274.6C647.6,-266.88 659.04,-265.45 680.77,-250 728.41,-216.13 719.94,-181.03 772.77,-156 910.39,-90.79 1406.79,-86.92 1523.21,-86.93"/>
<polygon fill="black" stroke="black" stroke-width="2" points="1523.26,-90.43 1533.27,-86.94 1523.27,-83.43 1523.26,-90.43"/>
</g>
<!-- 1650870171872 -->
<g id="node14" class="node">
<title>1650870171872</title>
<polygon fill="#ededed" stroke="black" points="222.77,-104 114.77,-104 114.77,-68 222.77,-68 222.77,-104"/>
<text text-anchor="middle" x="168.77" y="-81" font-family="Times New Roman,serif" font-size="20.00">A_Pending</text>
</g>
<!-- 1650870171920&#45;&gt;1650870171872 -->
<g id="edge5" class="edge">
<title>1650870171920&#45;&gt;1650870171872</title>
<path fill="none" stroke="black" stroke-width="2" d="M168.77,-184.53C168.77,-165.94 168.77,-136.24 168.77,-114.5"/>
<polygon fill="black" stroke="black" stroke-width="2" points="172.27,-114.25 168.77,-104.25 165.27,-114.25 172.27,-114.25"/>
</g>
<!-- 1650870170432 -->
<g id="node16" class="node">
<title>1650870170432</title>
<polygon fill="#ededed" stroke="black" points="408.77,-230 300.77,-230 300.77,-176 408.77,-176 408.77,-230"/>
<g transform="translate(358.766,-230.0) scale(0.011243534967393748,0.011302211302211302)">



<g transform="translate(0.000000,2035.000000) scale(0.100000,-0.100000)"
fill="#000000" stroke="none">
<path d="M174 20329 c-64 -24 -119 -77 -150 -143 l-24 -51 0 -9952 0 -9952 20
-54 c25 -67 77 -122 144 -153 l51 -24 22012 0 22012 0 54 20 c67 25 122 77
153 144 l24 51 0 9952 0 9952 -20 54 c-25 67 -77 122 -144 153 l-51 24 -22015
-1 c-21873 0 -22015 0 -22066 -20z m43746 -10154 l0 -9625 -21685 0 -21685 0
0 9625 0 9625 21685 0 21685 0 0 -9625z"/>
<path d="M31335 15824 c-237 -20 -503 -49 -585 -64 -379 -69 -489 -95 -775
-182 -297 -91 -563 -198 -855 -345 -102 -51 -203 -103 -225 -116 -244 -140
-381 -227 -570 -365 -652 -476 -1179 -1064 -1587 -1770 -56 -98 -238 -453
-238 -466 0 -3 -13 -34 -29 -68 -24 -54 -49 -113 -81 -193 -4 -11 -14 -36 -20
-55 -7 -19 -19 -48 -26 -65 -16 -40 -97 -290 -124 -385 -12 -41 -25 -82 -29
-90 -7 -13 -112 -15 -832 -18 l-824 -2 1465 -1465 c806 -806 1467 -1465 1470
-1465 5 0 2930 2923 2930 2927 0 2 -364 3 -810 3 -445 0 -810 3 -810 6 0 4 18
38 40 76 22 39 40 72 40 74 0 12 160 249 226 334 293 381 684 705 1108 918 73
37 148 73 167 81 42 16 98 39 124 51 41 19 292 99 360 115 259 62 345 74 648
94 240 16 556 -8 807 -60 128 -27 428 -117 495 -148 49 -24 144 -65 190 -83
28 -11 68 -30 90 -42 22 -13 72 -40 110 -61 39 -21 87 -48 107 -59 41 -23 272
-181 303 -207 11 -10 53 -45 93 -78 l74 -61 1494 0 1495 0 -75 148 c-265 521
-628 1022 -1051 1447 -185 187 -529 475 -710 598 -49 33 -114 78 -143 99 -179
132 -732 430 -966 519 -28 11 -60 23 -71 28 -124 53 -345 128 -530 182 -16 5
-52 15 -80 23 -136 40 -450 105 -625 130 -222 32 -246 35 -365 46 -120 12
-706 21 -800 14z"/>
<path d="M5860 10180 c0 -4923 0 -4950 20 -4950 11 0 66 30 122 67 57 36 351
226 653 421 303 195 651 420 775 500 124 80 365 235 535 345 171 110 378 244
460 297 83 54 526 339 985 635 459 296 1013 653 1230 793 217 141 557 360 755
487 198 127 748 482 1222 788 475 306 865 557 868 557 3 0 5 -1098 5 -2440 l0
-2440 870 0 870 0 0 4940 0 4940 -870 0 -870 0 0 -2440 c0 -1342 -2 -2440 -5
-2440 -6 0 -11 3 -670 429 -302 195 -617 398 -700 451 -82 53 -463 298 -845
545 -382 246 -794 512 -915 590 -121 78 -362 233 -535 345 -173 112 -382 247
-465 300 -238 153 -912 588 -1000 645 -44 28 -136 88 -205 132 -69 44 -235
151 -370 238 -277 179 -288 186 -720 465 -173 111 -353 228 -400 258 -47 30
-218 141 -380 245 -162 104 -314 202 -338 218 -24 16 -52 29 -63 29 -19 0 -19
-49 -19 -4950z"/>
<path d="M34330 10175 l-1465 -1465 823 0 c452 0 822 -3 822 -6 0 -3 -26 -51
-59 -107 -304 -528 -710 -933 -1236 -1233 -29 -17 -265 -134 -295 -146 -14 -6
-34 -14 -45 -19 -190 -80 -430 -151 -640 -190 -336 -63 -779 -70 -1080 -18
-142 25 -301 59 -365 79 -14 4 -52 16 -85 25 -33 10 -69 21 -80 25 -11 4 -42
16 -70 26 -100 35 -343 147 -460 212 -125 69 -308 189 -384 251 -25 20 -76 62
-115 93 l-71 57 -1497 1 c-824 0 -1498 -3 -1498 -6 0 -7 140 -277 185 -359
117 -209 370 -582 495 -731 19 -23 51 -61 70 -85 104 -130 217 -254 391 -428
111 -113 293 -276 383 -346 22 -16 58 -46 81 -65 308 -261 914 -620 1330 -787
33 -13 74 -30 90 -37 56 -25 279 -104 385 -136 58 -17 116 -36 130 -40 29 -10
194 -52 295 -75 39 -9 88 -20 110 -25 22 -5 67 -14 100 -20 33 -6 85 -15 115
-21 85 -15 259 -38 430 -56 198 -21 801 -24 1000 -5 362 35 735 101 1000 177
30 8 71 20 90 25 101 28 339 106 395 130 11 5 45 17 75 28 101 36 338 141 483
213 1241 620 2219 1683 2729 2969 52 130 153 429 183 540 10 36 22 71 28 78 7
9 184 12 821 12 l811 0 -1465 1465 c-806 806 -1467 1465 -1470 1465 -3 0 -664
-659 -1470 -1465z"/>
</g>
</g>
<text text-anchor="middle" x="354.77" y="-186" font-family="Times New Roman,serif" font-size="20.00">O_Refused</text>
</g>
<!-- 1650870165296 -->
<g id="node17" class="node">
<title>1650870165296</title>
<polygon fill="#f2f2f2" stroke="black" points="1740.77,-583 1632.77,-583 1632.77,-547 1740.77,-547 1740.77,-583"/>
<text text-anchor="middle" x="1686.77" y="-560" font-family="Times New Roman,serif" font-size="20.00">O_Created</text>
</g>
<!-- 1650870165296&#45;&gt;1650870173216 -->
<g id="edge24" class="edge">
<title>1650870165296&#45;&gt;1650870173216</title>
<path fill="none" stroke="black" stroke-width="2" d="M1752.39,-527C1754.41,-524.48 1756.22,-521.82 1757.77,-519 1781.12,-476.55 1781.61,-452.17 1757.77,-410 1754.99,-405.1 1751.83,-400.44 1748.35,-396.01"/>
<polygon fill="black" stroke="black" stroke-width="2" points="1750.92,-393.62 1741.76,-388.28 1745.59,-398.16 1750.92,-393.62"/>
</g>
<!-- 1650870165296&#45;&gt;1650870172496 -->
<g id="edge25" class="edge">
<title>1650870165296&#45;&gt;1650870172496</title>
<path fill="none" stroke="black" stroke-width="2" d="M1769.76,-557.85C1832.69,-551.62 1912.52,-539.84 1937.77,-519 1948.92,-509.79 1955.09,-500.73 1958.76,-491.48"/>
<polygon fill="black" stroke="black" stroke-width="2" points="1962.15,-492.35 1961.77,-481.77 1955.47,-490.28 1962.15,-492.35"/>
</g>
<!-- 1650870165296&#45;&gt;1650870172064 -->
<g id="edge26" class="edge">
<title>1650870165296&#45;&gt;1650870172064</title>
<path fill="none" stroke="black" stroke-width="2" d="M1628.77,-527C1592.93,-515.62 1494.32,-533.82 1459.77,-519 1395.34,-491.37 1409.28,-439.67 1345.77,-410 1222.16,-352.27 821.43,-330.81 638.88,-323.89"/>
<polygon fill="black" stroke="black" stroke-width="2" points="638.89,-320.39 628.76,-323.51 638.63,-327.38 638.89,-320.39"/>
</g>
<!-- 1650870170720 -->
<g id="node18" class="node">
<title>1650870170720</title>
<polygon fill="#f2f2f2" stroke="black" points="1749.77,-709 1607.77,-709 1607.77,-673 1749.77,-673 1749.77,-709"/>
<text text-anchor="middle" x="1678.77" y="-686" font-family="Times New Roman,serif" font-size="20.00">O_Create Offer</text>
</g>
<!-- 1650870170720&#45;&gt;1650870165296 -->
<g id="edge8" class="edge">
<title>1650870170720&#45;&gt;1650870165296</title>
<path fill="none" stroke="black" stroke-width="2" d="M1679.88,-672.76C1681.21,-652.12 1683.46,-617.32 1685.02,-593.08"/>
<polygon fill="black" stroke="black" stroke-width="2" points="1688.51,-593.3 1685.66,-583.1 1681.53,-592.85 1688.51,-593.3"/>
</g>
<!-- 1650870170144 -->
<g id="node19" class="node">
<title>1650870170144</title>
<polygon fill="#f7f7f7" stroke="black" points="823.27,-718 632.27,-718 632.27,-664 823.27,-664 823.27,-718"/>
<g transform="translate(773.266,-718.0) scale(0.011243534967393748,0.011302211302211302)">



<g transform="translate(0.000000,2035.000000) scale(0.100000,-0.100000)"
fill="#000000" stroke="none">
<path d="M174 20329 c-64 -24 -119 -77 -150 -143 l-24 -51 0 -9952 0 -9952 20
-54 c25 -67 77 -122 144 -153 l51 -24 22012 0 22012 0 54 20 c67 25 122 77
153 144 l24 51 0 9952 0 9952 -20 54 c-25 67 -77 122 -144 153 l-51 24 -22015
-1 c-21873 0 -22015 0 -22066 -20z m43746 -10154 l0 -9625 -21685 0 -21685 0
0 9625 0 9625 21685 0 21685 0 0 -9625z"/>
<path d="M31335 15824 c-237 -20 -503 -49 -585 -64 -379 -69 -489 -95 -775
-182 -297 -91 -563 -198 -855 -345 -102 -51 -203 -103 -225 -116 -244 -140
-381 -227 -570 -365 -652 -476 -1179 -1064 -1587 -1770 -56 -98 -238 -453
-238 -466 0 -3 -13 -34 -29 -68 -24 -54 -49 -113 -81 -193 -4 -11 -14 -36 -20
-55 -7 -19 -19 -48 -26 -65 -16 -40 -97 -290 -124 -385 -12 -41 -25 -82 -29
-90 -7 -13 -112 -15 -832 -18 l-824 -2 1465 -1465 c806 -806 1467 -1465 1470
-1465 5 0 2930 2923 2930 2927 0 2 -364 3 -810 3 -445 0 -810 3 -810 6 0 4 18
38 40 76 22 39 40 72 40 74 0 12 160 249 226 334 293 381 684 705 1108 918 73
37 148 73 167 81 42 16 98 39 124 51 41 19 292 99 360 115 259 62 345 74 648
94 240 16 556 -8 807 -60 128 -27 428 -117 495 -148 49 -24 144 -65 190 -83
28 -11 68 -30 90 -42 22 -13 72 -40 110 -61 39 -21 87 -48 107 -59 41 -23 272
-181 303 -207 11 -10 53 -45 93 -78 l74 -61 1494 0 1495 0 -75 148 c-265 521
-628 1022 -1051 1447 -185 187 -529 475 -710 598 -49 33 -114 78 -143 99 -179
132 -732 430 -966 519 -28 11 -60 23 -71 28 -124 53 -345 128 -530 182 -16 5
-52 15 -80 23 -136 40 -450 105 -625 130 -222 32 -246 35 -365 46 -120 12
-706 21 -800 14z"/>
<path d="M5860 10180 c0 -4923 0 -4950 20 -4950 11 0 66 30 122 67 57 36 351
226 653 421 303 195 651 420 775 500 124 80 365 235 535 345 171 110 378 244
460 297 83 54 526 339 985 635 459 296 1013 653 1230 793 217 141 557 360 755
487 198 127 748 482 1222 788 475 306 865 557 868 557 3 0 5 -1098 5 -2440 l0
-2440 870 0 870 0 0 4940 0 4940 -870 0 -870 0 0 -2440 c0 -1342 -2 -2440 -5
-2440 -6 0 -11 3 -670 429 -302 195 -617 398 -700 451 -82 53 -463 298 -845
545 -382 246 -794 512 -915 590 -121 78 -362 233 -535 345 -173 112 -382 247
-465 300 -238 153 -912 588 -1000 645 -44 28 -136 88 -205 132 -69 44 -235
151 -370 238 -277 179 -288 186 -720 465 -173 111 -353 228 -400 258 -47 30
-218 141 -380 245 -162 104 -314 202 -338 218 -24 16 -52 29 -63 29 -19 0 -19
-49 -19 -4950z"/>
<path d="M34330 10175 l-1465 -1465 823 0 c452 0 822 -3 822 -6 0 -3 -26 -51
-59 -107 -304 -528 -710 -933 -1236 -1233 -29 -17 -265 -134 -295 -146 -14 -6
-34 -14 -45 -19 -190 -80 -430 -151 -640 -190 -336 -63 -779 -70 -1080 -18
-142 25 -301 59 -365 79 -14 4 -52 16 -85 25 -33 10 -69 21 -80 25 -11 4 -42
16 -70 26 -100 35 -343 147 -460 212 -125 69 -308 189 -384 251 -25 20 -76 62
-115 93 l-71 57 -1497 1 c-824 0 -1498 -3 -1498 -6 0 -7 140 -277 185 -359
117 -209 370 -582 495 -731 19 -23 51 -61 70 -85 104 -130 217 -254 391 -428
111 -113 293 -276 383 -346 22 -16 58 -46 81 -65 308 -261 914 -620 1330 -787
33 -13 74 -30 90 -37 56 -25 279 -104 385 -136 58 -17 116 -36 130 -40 29 -10
194 -52 295 -75 39 -9 88 -20 110 -25 22 -5 67 -14 100 -20 33 -6 85 -15 115
-21 85 -15 259 -38 430 -56 198 -21 801 -24 1000 -5 362 35 735 101 1000 177
30 8 71 20 90 25 101 28 339 106 395 130 11 5 45 17 75 28 101 36 338 141 483
213 1241 620 2219 1683 2729 2969 52 130 153 429 183 540 10 36 22 71 28 78 7
9 184 12 821 12 l811 0 -1465 1465 c-806 806 -1467 1465 -1470 1465 -3 0 -664
-659 -1470 -1465z"/>
</g>
</g>
<text text-anchor="middle" x="727.77" y="-674" font-family="Times New Roman,serif" font-size="20.00">O_Sent (online only)</text>
</g>
<!-- 1650870170144&#45;&gt;1650870172064 -->
<g id="edge27" class="edge">
<title>1650870170144&#45;&gt;1650870172064</title>
<path fill="none" stroke="black" stroke-width="2" d="M643.78,-663.86C628.27,-656.88 612.85,-648.33 599.77,-638 551.14,-599.62 536.01,-582.52 515.16,-519.62"/>
<polygon fill="black" stroke="black" stroke-width="2" points="518.45,-518.43 512.04,-510 511.8,-520.59 518.45,-518.43"/>
</g>
<!-- 1650870169040 -->
<g id="node20" class="node">
<title>1650870169040</title>
<polygon fill="#f7f7f7" stroke="black" points="1191.77,-718 969.77,-718 969.77,-664 1191.77,-664 1191.77,-718"/>
<g transform="translate(1141.77,-718.0) scale(0.011243534967393748,0.011302211302211302)">



<g transform="translate(0.000000,2035.000000) scale(0.100000,-0.100000)"
fill="#000000" stroke="none">
<path d="M174 20329 c-64 -24 -119 -77 -150 -143 l-24 -51 0 -9952 0 -9952 20
-54 c25 -67 77 -122 144 -153 l51 -24 22012 0 22012 0 54 20 c67 25 122 77
153 144 l24 51 0 9952 0 9952 -20 54 c-25 67 -77 122 -144 153 l-51 24 -22015
-1 c-21873 0 -22015 0 -22066 -20z m43746 -10154 l0 -9625 -21685 0 -21685 0
0 9625 0 9625 21685 0 21685 0 0 -9625z"/>
<path d="M31335 15824 c-237 -20 -503 -49 -585 -64 -379 -69 -489 -95 -775
-182 -297 -91 -563 -198 -855 -345 -102 -51 -203 -103 -225 -116 -244 -140
-381 -227 -570 -365 -652 -476 -1179 -1064 -1587 -1770 -56 -98 -238 -453
-238 -466 0 -3 -13 -34 -29 -68 -24 -54 -49 -113 -81 -193 -4 -11 -14 -36 -20
-55 -7 -19 -19 -48 -26 -65 -16 -40 -97 -290 -124 -385 -12 -41 -25 -82 -29
-90 -7 -13 -112 -15 -832 -18 l-824 -2 1465 -1465 c806 -806 1467 -1465 1470
-1465 5 0 2930 2923 2930 2927 0 2 -364 3 -810 3 -445 0 -810 3 -810 6 0 4 18
38 40 76 22 39 40 72 40 74 0 12 160 249 226 334 293 381 684 705 1108 918 73
37 148 73 167 81 42 16 98 39 124 51 41 19 292 99 360 115 259 62 345 74 648
94 240 16 556 -8 807 -60 128 -27 428 -117 495 -148 49 -24 144 -65 190 -83
28 -11 68 -30 90 -42 22 -13 72 -40 110 -61 39 -21 87 -48 107 -59 41 -23 272
-181 303 -207 11 -10 53 -45 93 -78 l74 -61 1494 0 1495 0 -75 148 c-265 521
-628 1022 -1051 1447 -185 187 -529 475 -710 598 -49 33 -114 78 -143 99 -179
132 -732 430 -966 519 -28 11 -60 23 -71 28 -124 53 -345 128 -530 182 -16 5
-52 15 -80 23 -136 40 -450 105 -625 130 -222 32 -246 35 -365 46 -120 12
-706 21 -800 14z"/>
<path d="M5860 10180 c0 -4923 0 -4950 20 -4950 11 0 66 30 122 67 57 36 351
226 653 421 303 195 651 420 775 500 124 80 365 235 535 345 171 110 378 244
460 297 83 54 526 339 985 635 459 296 1013 653 1230 793 217 141 557 360 755
487 198 127 748 482 1222 788 475 306 865 557 868 557 3 0 5 -1098 5 -2440 l0
-2440 870 0 870 0 0 4940 0 4940 -870 0 -870 0 0 -2440 c0 -1342 -2 -2440 -5
-2440 -6 0 -11 3 -670 429 -302 195 -617 398 -700 451 -82 53 -463 298 -845
545 -382 246 -794 512 -915 590 -121 78 -362 233 -535 345 -173 112 -382 247
-465 300 -238 153 -912 588 -1000 645 -44 28 -136 88 -205 132 -69 44 -235
151 -370 238 -277 179 -288 186 -720 465 -173 111 -353 228 -400 258 -47 30
-218 141 -380 245 -162 104 -314 202 -338 218 -24 16 -52 29 -63 29 -19 0 -19
-49 -19 -4950z"/>
<path d="M34330 10175 l-1465 -1465 823 0 c452 0 822 -3 822 -6 0 -3 -26 -51
-59 -107 -304 -528 -710 -933 -1236 -1233 -29 -17 -265 -134 -295 -146 -14 -6
-34 -14 -45 -19 -190 -80 -430 -151 -640 -190 -336 -63 -779 -70 -1080 -18
-142 25 -301 59 -365 79 -14 4 -52 16 -85 25 -33 10 -69 21 -80 25 -11 4 -42
16 -70 26 -100 35 -343 147 -460 212 -125 69 -308 189 -384 251 -25 20 -76 62
-115 93 l-71 57 -1497 1 c-824 0 -1498 -3 -1498 -6 0 -7 140 -277 185 -359
117 -209 370 -582 495 -731 19 -23 51 -61 70 -85 104 -130 217 -254 391 -428
111 -113 293 -276 383 -346 22 -16 58 -46 81 -65 308 -261 914 -620 1330 -787
33 -13 74 -30 90 -37 56 -25 279 -104 385 -136 58 -17 116 -36 130 -40 29 -10
194 -52 295 -75 39 -9 88 -20 110 -25 22 -5 67 -14 100 -20 33 -6 85 -15 115
-21 85 -15 259 -38 430 -56 198 -21 801 -24 1000 -5 362 35 735 101 1000 177
30 8 71 20 90 25 101 28 339 106 395 130 11 5 45 17 75 28 101 36 338 141 483
213 1241 620 2219 1683 2729 2969 52 130 153 429 183 540 10 36 22 71 28 78 7
9 184 12 821 12 l811 0 -1465 1465 c-806 806 -1467 1465 -1470 1465 -3 0 -664
-659 -1470 -1465z"/>
</g>
</g>
<text text-anchor="middle" x="1080.77" y="-674" font-family="Times New Roman,serif" font-size="20.00">W_Complete application</text>
</g>
<!-- 1650870169040&#45;&gt;1650870171536 -->
<g id="edge28" class="edge">
<title>1650870169040&#45;&gt;1650870171536</title>
<path fill="none" stroke="black" stroke-width="2" d="M969.51,-676.53C934.42,-672.38 895.48,-667.89 859.77,-664 744.32,-651.44 714.13,-658.2 599.77,-638 537.35,-626.98 468.39,-609.47 414.29,-594.48"/>
<polygon fill="black" stroke="black" stroke-width="2" points="414.94,-591.02 404.36,-591.71 413.06,-597.77 414.94,-591.02"/>
</g>
<!-- 1650870169040&#45;&gt;1650870170912 -->
<g id="edge29" class="edge">
<title>1650870169040&#45;&gt;1650870170912</title>
<path fill="none" stroke="black" stroke-width="2" d="M1075.25,-663.7C1071.49,-645.78 1066.47,-621.83 1062.34,-602.12"/>
<polygon fill="black" stroke="black" stroke-width="2" points="1065.75,-601.33 1060.27,-592.26 1058.9,-602.76 1065.75,-601.33"/>
</g>
<!-- 1650870168944&#45;&gt;1650870166928 -->
<g id="edge30" class="edge">
<title>1650870168944&#45;&gt;1650870166928</title>
<path fill="none" stroke="black" stroke-width="2" d="M1113.03,-175.96C1127.95,-168.61 1144.73,-161.2 1160.77,-156 1293.35,-112.99 1460.7,-94.69 1522.96,-89.05"/>
<polygon fill="black" stroke="black" stroke-width="2" points="1523.35,-92.53 1533.01,-88.16 1522.74,-85.55 1523.35,-92.53"/>
</g>
<!-- 1650870169808&#45;&gt;1650870166928 -->
<g id="edge31" class="edge">
<title>1650870169808&#45;&gt;1650870166928</title>
<path fill="none" stroke="black" stroke-width="2" d="M1358.36,-175.9C1410.46,-151.45 1485.85,-116.06 1523.89,-98.21"/>
<polygon fill="black" stroke="black" stroke-width="2" points="1525.59,-101.28 1533.15,-93.86 1522.61,-94.94 1525.59,-101.28"/>
</g>
<!-- 1650870169184&#45;&gt;1650870171200 -->
<g id="edge32" class="edge">
<title>1650870169184&#45;&gt;1650870171200</title>
<path fill="none" stroke="black" stroke-width="2" d="M1399.77,-789.7C1399.77,-771.87 1399.77,-748.05 1399.77,-728.39"/>
<polygon fill="black" stroke="black" stroke-width="2" points="1403.27,-728.26 1399.77,-718.26 1396.27,-728.26 1403.27,-728.26"/>
</g>
<!-- 1650870169184&#45;&gt;1650870165296 -->
<g id="edge33" class="edge">
<title>1650870169184&#45;&gt;1650870165296</title>
<path fill="none" stroke="black" stroke-width="2" d="M1475.89,-811.06C1582.53,-803.35 1765.71,-786.94 1785.77,-764 1815.02,-730.54 1802.88,-705.02 1785.77,-664 1782.98,-657.32 1779.49,-650.86 1775.5,-644.66"/>
<polygon fill="black" stroke="black" stroke-width="2" points="1778.33,-642.6 1769.77,-636.37 1772.58,-646.59 1778.33,-642.6"/>
</g>
<!-- 1650870169184&#45;&gt;1650870170144 -->
<g id="edge34" class="edge">
<title>1650870169184&#45;&gt;1650870170144</title>
<path fill="none" stroke="black" stroke-width="2" d="M1323.43,-812.75C1230.4,-807.59 1068.91,-794.74 933.77,-764 888.47,-753.7 839.31,-736.75 800.38,-721.88"/>
<polygon fill="black" stroke="black" stroke-width="2" points="801.3,-718.48 790.71,-718.15 798.78,-725.01 801.3,-718.48"/>
</g>
<!-- 1650870169184&#45;&gt;1650870169040 -->
<g id="edge35" class="edge">
<title>1650870169184&#45;&gt;1650870169040</title>
<path fill="none" stroke="black" stroke-width="2" d="M1332.5,-789.85C1281.2,-769.91 1210.5,-742.43 1157.09,-721.67"/>
<polygon fill="black" stroke="black" stroke-width="2" points="1158.25,-718.36 1147.66,-718 1155.71,-724.89 1158.25,-718.36"/>
</g>
<!-- 1650870166736 -->
<g id="node26" class="node">
<title>1650870166736</title>
<polygon fill="#f7f7f7" stroke="black" points="859.77,-592 635.77,-592 635.77,-538 859.77,-538 859.77,-592"/>
<g transform="translate(809.766,-592.0) scale(0.011243534967393748,0.011302211302211302)">



<g transform="translate(0.000000,2035.000000) scale(0.100000,-0.100000)"
fill="#000000" stroke="none">
<path d="M174 20329 c-64 -24 -119 -77 -150 -143 l-24 -51 0 -9952 0 -9952 20
-54 c25 -67 77 -122 144 -153 l51 -24 22012 0 22012 0 54 20 c67 25 122 77
153 144 l24 51 0 9952 0 9952 -20 54 c-25 67 -77 122 -144 153 l-51 24 -22015
-1 c-21873 0 -22015 0 -22066 -20z m43746 -10154 l0 -9625 -21685 0 -21685 0
0 9625 0 9625 21685 0 21685 0 0 -9625z"/>
<path d="M31335 15824 c-237 -20 -503 -49 -585 -64 -379 -69 -489 -95 -775
-182 -297 -91 -563 -198 -855 -345 -102 -51 -203 -103 -225 -116 -244 -140
-381 -227 -570 -365 -652 -476 -1179 -1064 -1587 -1770 -56 -98 -238 -453
-238 -466 0 -3 -13 -34 -29 -68 -24 -54 -49 -113 -81 -193 -4 -11 -14 -36 -20
-55 -7 -19 -19 -48 -26 -65 -16 -40 -97 -290 -124 -385 -12 -41 -25 -82 -29
-90 -7 -13 -112 -15 -832 -18 l-824 -2 1465 -1465 c806 -806 1467 -1465 1470
-1465 5 0 2930 2923 2930 2927 0 2 -364 3 -810 3 -445 0 -810 3 -810 6 0 4 18
38 40 76 22 39 40 72 40 74 0 12 160 249 226 334 293 381 684 705 1108 918 73
37 148 73 167 81 42 16 98 39 124 51 41 19 292 99 360 115 259 62 345 74 648
94 240 16 556 -8 807 -60 128 -27 428 -117 495 -148 49 -24 144 -65 190 -83
28 -11 68 -30 90 -42 22 -13 72 -40 110 -61 39 -21 87 -48 107 -59 41 -23 272
-181 303 -207 11 -10 53 -45 93 -78 l74 -61 1494 0 1495 0 -75 148 c-265 521
-628 1022 -1051 1447 -185 187 -529 475 -710 598 -49 33 -114 78 -143 99 -179
132 -732 430 -966 519 -28 11 -60 23 -71 28 -124 53 -345 128 -530 182 -16 5
-52 15 -80 23 -136 40 -450 105 -625 130 -222 32 -246 35 -365 46 -120 12
-706 21 -800 14z"/>
<path d="M5860 10180 c0 -4923 0 -4950 20 -4950 11 0 66 30 122 67 57 36 351
226 653 421 303 195 651 420 775 500 124 80 365 235 535 345 171 110 378 244
460 297 83 54 526 339 985 635 459 296 1013 653 1230 793 217 141 557 360 755
487 198 127 748 482 1222 788 475 306 865 557 868 557 3 0 5 -1098 5 -2440 l0
-2440 870 0 870 0 0 4940 0 4940 -870 0 -870 0 0 -2440 c0 -1342 -2 -2440 -5
-2440 -6 0 -11 3 -670 429 -302 195 -617 398 -700 451 -82 53 -463 298 -845
545 -382 246 -794 512 -915 590 -121 78 -362 233 -535 345 -173 112 -382 247
-465 300 -238 153 -912 588 -1000 645 -44 28 -136 88 -205 132 -69 44 -235
151 -370 238 -277 179 -288 186 -720 465 -173 111 -353 228 -400 258 -47 30
-218 141 -380 245 -162 104 -314 202 -338 218 -24 16 -52 29 -63 29 -19 0 -19
-49 -19 -4950z"/>
<path d="M34330 10175 l-1465 -1465 823 0 c452 0 822 -3 822 -6 0 -3 -26 -51
-59 -107 -304 -528 -710 -933 -1236 -1233 -29 -17 -265 -134 -295 -146 -14 -6
-34 -14 -45 -19 -190 -80 -430 -151 -640 -190 -336 -63 -779 -70 -1080 -18
-142 25 -301 59 -365 79 -14 4 -52 16 -85 25 -33 10 -69 21 -80 25 -11 4 -42
16 -70 26 -100 35 -343 147 -460 212 -125 69 -308 189 -384 251 -25 20 -76 62
-115 93 l-71 57 -1497 1 c-824 0 -1498 -3 -1498 -6 0 -7 140 -277 185 -359
117 -209 370 -582 495 -731 19 -23 51 -61 70 -85 104 -130 217 -254 391 -428
111 -113 293 -276 383 -346 22 -16 58 -46 81 -65 308 -261 914 -620 1330 -787
33 -13 74 -30 90 -37 56 -25 279 -104 385 -136 58 -17 116 -36 130 -40 29 -10
194 -52 295 -75 39 -9 88 -20 110 -25 22 -5 67 -14 100 -20 33 -6 85 -15 115
-21 85 -15 259 -38 430 -56 198 -21 801 -24 1000 -5 362 35 735 101 1000 177
30 8 71 20 90 25 101 28 339 106 395 130 11 5 45 17 75 28 101 36 338 141 483
213 1241 620 2219 1683 2729 2969 52 130 153 429 183 540 10 36 22 71 28 78 7
9 184 12 821 12 l811 0 -1465 1465 c-806 806 -1467 1465 -1470 1465 -3 0 -664
-659 -1470 -1465z"/>
</g>
</g>
<text text-anchor="middle" x="747.77" y="-548" font-family="Times New Roman,serif" font-size="20.00">O_Sent (mail and online)</text>
</g>
<!-- 1650870169184&#45;&gt;1650870166736 -->
<g id="edge36" class="edge">
<title>1650870169184&#45;&gt;1650870166736</title>
<path fill="none" stroke="black" stroke-width="2" d="M1471.73,-789.95C1482.11,-783.1 1491.41,-774.56 1497.77,-764 1520.67,-725.91 1528.43,-696.18 1497.77,-664 1456.4,-620.59 1017.66,-649.24 958.77,-638 910.9,-628.87 859.07,-611.3 818.77,-595.81"/>
<polygon fill="black" stroke="black" stroke-width="2" points="819.89,-592.49 809.3,-592.13 817.35,-599.01 819.89,-592.49"/>
</g>
<!-- 1650870169616&#45;&gt;1650870166928 -->
<g id="edge37" class="edge">
<title>1650870169616&#45;&gt;1650870166928</title>
<path fill="none" stroke="black" stroke-width="2" d="M1547.77,-175.9C1547.77,-156.41 1547.77,-129.95 1547.77,-110.98"/>
<polygon fill="black" stroke="black" stroke-width="2" points="1551.27,-110.79 1547.77,-100.79 1544.27,-110.79 1551.27,-110.79"/>
</g>
<!-- 1650870169136&#45;&gt;1650870166928 -->
<g id="edge38" class="edge">
<title>1650870169136&#45;&gt;1650870166928</title>
<path fill="none" stroke="black" stroke-width="2" d="M1737.94,-175.9C1685.63,-151.45 1609.93,-116.06 1571.74,-98.21"/>
<polygon fill="black" stroke="black" stroke-width="2" points="1572.98,-94.92 1562.44,-93.86 1570.01,-101.26 1572.98,-94.92"/>
</g>
<!-- 1650870166736&#45;&gt;1650870173216 -->
<g id="edge39" class="edge">
<title>1650870166736&#45;&gt;1650870173216</title>
<path fill="none" stroke="black" stroke-width="2" d="M817.98,-537.92C907.58,-505.24 1067.77,-448.81 1207.77,-410 1293.36,-386.27 1390.57,-364.61 1467.95,-348.6"/>
<polygon fill="black" stroke="black" stroke-width="2" points="1468.68,-352.02 1477.77,-346.57 1467.27,-345.16 1468.68,-352.02"/>
</g>
<!-- 1650870166736&#45;&gt;1650870172064 -->
<g id="edge40" class="edge">
<title>1650870166736&#45;&gt;1650870172064</title>
<path fill="none" stroke="black" stroke-width="2" d="M726.95,-537.95C705.03,-510.61 669.07,-465.98 635.27,-425.07"/>
<polygon fill="black" stroke="black" stroke-width="2" points="637.84,-422.69 628.76,-417.22 632.44,-427.15 637.84,-422.69"/>
</g>
<!-- 1650870166784&#45;&gt;1650870166928 -->
<g id="edge41" class="edge">
<title>1650870166784&#45;&gt;1650870166928</title>
<path fill="none" stroke="black" stroke-width="2" d="M1955.44,-789.87C2055.07,-756.15 2196.77,-686.93 2196.77,-566 2196.77,-566 2196.77,-566 2196.77,-319 2196.77,-224.08 2142.01,-201.61 2058.77,-156 1973.23,-109.13 1663.06,-92.06 1572.66,-88.02"/>
<polygon fill="black" stroke="black" stroke-width="2" points="1572.66,-84.51 1562.52,-87.58 1572.36,-91.51 1572.66,-84.51"/>
</g>
<!-- 1650870166688 -->
<g id="node28" class="node">
<title>1650870166688</title>
<polygon fill="black" stroke="black" points="1279.27,-1395 1250.27,-1395 1250.27,-1366 1279.27,-1366 1279.27,-1395"/>
</g>
<!-- 1650870166688&#45;&gt;1650870171344 -->
<g id="edge42" class="edge">
<title>1650870166688&#45;&gt;1650870171344</title>
<path fill="none" stroke="black" stroke-width="2" d="M1272.25,-1365.92C1281.15,-1349.34 1296.04,-1320.24 1305.77,-1294 1347.07,-1182.5 1378.62,-1044.89 1392.3,-980.48"/>
<polygon fill="black" stroke="black" stroke-width="2" points="1395.79,-980.93 1394.42,-970.42 1388.94,-979.48 1395.79,-980.93"/>
</g>
<!-- 1650870169424 -->
<g id="node32" class="node">
<title>1650870169424</title>
<polygon fill="#f7f7f7" stroke="black" points="1269.27,-1294 1072.27,-1294 1072.27,-1258 1269.27,-1258 1269.27,-1294"/>
<text text-anchor="middle" x="1170.77" y="-1271" font-family="Times New Roman,serif" font-size="20.00">A_Create Application</text>
</g>
<!-- 1650870166688&#45;&gt;1650870169424 -->
<g id="edge43" class="edge">
<title>1650870166688&#45;&gt;1650870169424</title>
<path fill="none" stroke="black" stroke-width="2" d="M1252.09,-1365.68C1237.05,-1349.27 1211.69,-1321.63 1193.29,-1301.56"/>
<polygon fill="black" stroke="black" stroke-width="2" points="1195.7,-1299.01 1186.36,-1294.01 1190.54,-1303.74 1195.7,-1299.01"/>
</g>
<!-- 1650870169760 -->
<g id="node30" class="node">
<title>1650870169760</title>
<polygon fill="#f7f7f7" stroke="black" points="950.77,-835 842.77,-835 842.77,-799 950.77,-799 950.77,-835"/>
<text text-anchor="middle" x="896.77" y="-812" font-family="Times New Roman,serif" font-size="20.00">O_Created</text>
</g>
<!-- 1650870169760&#45;&gt;1650870171536 -->
<g id="edge44" class="edge">
<title>1650870169760&#45;&gt;1650870171536</title>
<path fill="none" stroke="black" stroke-width="2" d="M842.66,-816.29C773.97,-814.76 653.17,-805.65 559.77,-764 471.89,-724.82 389.69,-644.98 347.43,-599.56"/>
<polygon fill="black" stroke="black" stroke-width="2" points="349.85,-597.03 340.51,-592.04 344.71,-601.77 349.85,-597.03"/>
</g>
<!-- 1650870169760&#45;&gt;1650870171200 -->
<g id="edge45" class="edge">
<title>1650870169760&#45;&gt;1650870171200</title>
<path fill="none" stroke="black" stroke-width="2" d="M951.02,-815.81C1027.46,-813.98 1170.19,-804.76 1283.77,-764 1310.04,-754.57 1336.69,-738.58 1357.81,-724.06"/>
<polygon fill="black" stroke="black" stroke-width="2" points="1360.04,-726.77 1366.21,-718.16 1356.01,-721.04 1360.04,-726.77"/>
</g>
<!-- 1650870169760&#45;&gt;1650870170912 -->
<g id="edge46" class="edge">
<title>1650870169760&#45;&gt;1650870170912</title>
<path fill="none" stroke="black" stroke-width="2" d="M897.43,-798.66C899.3,-768.89 906.45,-707.14 933.77,-664 950.65,-637.34 977.29,-614.61 1001.29,-597.78"/>
<polygon fill="black" stroke="black" stroke-width="2" points="1003.36,-600.6 1009.64,-592.07 999.41,-594.82 1003.36,-600.6"/>
</g>
<!-- 1650870169760&#45;&gt;1650870165296 -->
<g id="edge47" class="edge">
<title>1650870169760&#45;&gt;1650870165296</title>
<path fill="none" stroke="black" stroke-width="2" d="M951.06,-812.46C1032.66,-806.3 1182.25,-791.58 1227.77,-764 1275.05,-735.35 1253.42,-690.82 1301.77,-664 1411.42,-603.16 1479,-678.13 1577.79,-656.95"/>
<polygon fill="black" stroke="black" stroke-width="2" points="1578.89,-660.29 1587.77,-654.51 1577.22,-653.49 1578.89,-660.29"/>
</g>
<!-- 1650870169760&#45;&gt;1650870170144 -->
<g id="edge48" class="edge">
<title>1650870169760&#45;&gt;1650870170144</title>
<path fill="none" stroke="black" stroke-width="2" d="M873.27,-798.76C847.12,-779.58 804.3,-748.16 771.87,-724.36"/>
<polygon fill="black" stroke="black" stroke-width="2" points="773.57,-721.27 763.44,-718.17 769.43,-726.91 773.57,-721.27"/>
</g>
<!-- 1650870169760&#45;&gt;1650870166736 -->
<g id="edge49" class="edge">
<title>1650870169760&#45;&gt;1650870166736</title>
<path fill="none" stroke="black" stroke-width="2" d="M842.54,-814.65C764.78,-811.44 627.57,-800.6 596.77,-764 568.15,-730 575.55,-703.06 596.77,-664 612.78,-634.51 641.93,-612.52 670.37,-596.92"/>
<polygon fill="black" stroke="black" stroke-width="2" points="672.35,-599.84 679.57,-592.08 669.09,-593.64 672.35,-599.84"/>
</g>
<!-- 1650870169712 -->
<g id="node31" class="node">
<title>1650870169712</title>
<polygon fill="#f7f7f7" stroke="black" points="1116.77,-961 974.77,-961 974.77,-925 1116.77,-925 1116.77,-961"/>
<text text-anchor="middle" x="1045.77" y="-938" font-family="Times New Roman,serif" font-size="20.00">O_Create Offer</text>
</g>
<!-- 1650870169712&#45;&gt;1650870169760 -->
<g id="edge50" class="edge">
<title>1650870169712&#45;&gt;1650870169760</title>
<path fill="none" stroke="black" stroke-width="2" d="M1025.05,-924.76C999.03,-903.1 954.26,-865.85 925.09,-841.57"/>
<polygon fill="black" stroke="black" stroke-width="2" points="927.23,-838.8 917.31,-835.1 922.76,-844.18 927.23,-838.8"/>
</g>
<!-- 1650870169376 -->
<g id="node33" class="node">
<title>1650870169376</title>
<polygon fill="#f7f7f7" stroke="black" points="1147.77,-1186 1037.77,-1186 1037.77,-1150 1147.77,-1150 1147.77,-1186"/>
<text text-anchor="middle" x="1092.77" y="-1163" font-family="Times New Roman,serif" font-size="20.00">A_Concept</text>
</g>
<!-- 1650870169424&#45;&gt;1650870169376 -->
<g id="edge51" class="edge">
<title>1650870169424&#45;&gt;1650870169376</title>
<path fill="none" stroke="black" stroke-width="2" d="M1158.23,-1257.97C1145.63,-1240.84 1126.04,-1214.22 1111.57,-1194.56"/>
<polygon fill="black" stroke="black" stroke-width="2" points="1114.27,-1192.32 1105.53,-1186.34 1108.63,-1196.47 1114.27,-1192.32"/>
</g>
<!-- 1650870169568 -->
<g id="node34" class="node">
<title>1650870169568</title>
<polygon fill="#f7f7f7" stroke="black" points="1144.27,-1078 1025.27,-1078 1025.27,-1042 1144.27,-1042 1144.27,-1078"/>
<text text-anchor="middle" x="1084.77" y="-1055" font-family="Times New Roman,serif" font-size="20.00">A_Accepted</text>
</g>
<!-- 1650870169376&#45;&gt;1650870169568 -->
<g id="edge52" class="edge">
<title>1650870169376&#45;&gt;1650870169568</title>
<path fill="none" stroke="black" stroke-width="2" d="M1091.48,-1149.97C1090.23,-1133.38 1088.3,-1107.88 1086.84,-1088.43"/>
<polygon fill="black" stroke="black" stroke-width="2" points="1090.32,-1088.05 1086.07,-1078.34 1083.34,-1088.58 1090.32,-1088.05"/>
</g>
<!-- 1650870169568&#45;&gt;1650870169712 -->
<g id="edge53" class="edge">
<title>1650870169568&#45;&gt;1650870169712</title>
<path fill="none" stroke="black" stroke-width="2" d="M1078.84,-1041.53C1072.48,-1022.77 1062.28,-992.7 1054.89,-970.91"/>
<polygon fill="black" stroke="black" stroke-width="2" points="1058.14,-969.6 1051.62,-961.25 1051.51,-971.85 1058.14,-969.6"/>
</g>
</g>
</svg>
